<svg width="24" height="24" viewBox="0 0 24 24" fill="none" xmlns="http://www.w3.org/2000/svg">
<path d="M14.0591 20.6401C13.7312 20.6401 13.4167 20.5098 13.1848 20.2779C12.9529 20.046 12.8227 19.7315 12.8227 19.4036V15.4754C12.823 15.1919 12.9207 14.9171 13.0994 14.6971C13.2781 14.4771 13.527 14.3251 13.8044 14.2667C13.9109 13.4825 14.2119 12.7374 14.6798 12.0992C14.9281 11.734 15.259 11.4327 15.6458 11.2196C16.0325 11.0066 16.4642 10.8879 16.9055 10.8733C17.3467 10.8881 17.7783 11.0069 18.165 11.2199C18.5517 11.4329 18.8827 11.7342 19.1311 12.0992C19.5978 12.7366 19.8983 13.4803 20.0053 14.263C20.2857 14.3189 20.5381 14.4703 20.7194 14.6913C20.9008 14.9124 20.9999 15.1894 21 15.4754V19.4024C21 19.7303 20.8697 20.0448 20.6378 20.2767C20.406 20.5086 20.0915 20.6388 19.7635 20.6388L14.0591 20.6401ZM16.0226 16.7953C16.0229 16.9139 16.0503 17.0309 16.1025 17.1374C16.1548 17.2439 16.2307 17.337 16.3243 17.4098L16.0226 18.6079H17.5756L17.2715 17.4129C17.3763 17.3326 17.459 17.2269 17.5117 17.1058C17.5644 16.9847 17.5854 16.8521 17.5726 16.7206C17.5598 16.5891 17.5137 16.4631 17.4387 16.3544C17.3637 16.2457 17.2622 16.1579 17.1438 16.0993C17.0254 16.0407 16.894 16.0133 16.762 16.0196C16.6301 16.0259 16.5019 16.0657 16.3897 16.1353C16.2774 16.2049 16.1847 16.302 16.1204 16.4173C16.0561 16.5327 16.0222 16.6626 16.022 16.7947L16.0226 16.7953ZM15.1107 14.2389H18.6921C18.4578 13.0303 17.7407 12.1456 16.8993 12.1456C16.0579 12.1456 15.345 13.0315 15.1107 14.2389ZM12.1018 19.513H5.96648V16.4095H12.1024V19.5136L12.1018 19.513ZM5.52259 19.513H3.00021C2.98661 17.7709 3.63671 16.089 4.81843 14.8089C5.03655 14.5746 5.27193 14.357 5.52259 14.1579V19.5124V19.513ZM12.1018 15.9656H11.593V13.2998C11.8989 13.4167 12.1955 13.5566 12.4802 13.7184V14.1289C12.3603 14.2438 12.2651 14.3818 12.2001 14.5346C12.1352 14.6874 12.102 14.8518 12.1024 15.0179V15.9656H12.1018ZM6.85241 15.9656H5.96648V13.7029C6.25125 13.5427 6.54783 13.4044 6.85364 13.2893V15.9656H6.85241ZM11.1491 15.9656H7.29753V13.1836C8.54624 12.7529 9.90373 12.7562 11.1503 13.1929V15.9669L11.1491 15.9656ZM5.66231 9.04577H12.639C12.596 9.94198 12.2097 10.7872 11.5602 11.4063C10.9107 12.0253 10.0479 12.3707 9.15068 12.3707C8.25344 12.3707 7.39061 12.0253 6.74113 11.4063C6.09165 10.7872 5.70534 9.94198 5.66231 9.04577ZM15.0829 8.60064H3.44348L9.36119 3.75L15.0835 8.5994L15.0829 8.60064Z" fill="#182230"/>
</svg>
