<svg width="24" height="24" viewBox="0 0 24 24" fill="currentColor" xmlns="http://www.w3.org/2000/svg">
<path d="M11.6793 15.3592C11.5201 15.3596 11.3624 15.3284 11.2153 15.2674C11.0682 15.2065 10.9347 15.117 10.8224 15.0041L9.72551 13.9047H8.16683C7.84538 13.9047 7.53709 13.777 7.30979 13.5497C7.08249 13.3224 6.95479 13.0142 6.95479 12.6927V11.1364L5.85487 10.0365C5.62765 9.80923 5.5 9.501 5.5 9.17961C5.5 8.85822 5.62765 8.54999 5.85487 8.3227L6.95479 7.22278V5.66713C6.95479 5.34568 7.08249 5.03739 7.30979 4.81009C7.53709 4.58279 7.84538 4.45509 8.16683 4.45509H9.72248L10.8224 3.35517C10.935 3.24257 11.0686 3.15325 11.2157 3.09231C11.3628 3.03137 11.5204 3 11.6796 3C11.8388 3 11.9965 3.03137 12.1436 3.09231C12.2906 3.15325 12.4243 3.24257 12.5368 3.35517L13.6361 4.45509H15.1918C15.5132 4.45509 15.8215 4.58279 16.0488 4.81009C16.2761 5.03739 16.4038 5.34568 16.4038 5.66713V7.22581L17.5038 8.3227C17.731 8.54999 17.8586 8.85822 17.8586 9.17961C17.8586 9.501 17.731 9.80923 17.5038 10.0365L16.4044 11.1358V12.6921C16.4044 13.0135 16.2767 13.3218 16.0494 13.5491C15.8221 13.7764 15.5139 13.9041 15.1924 13.9041H13.6355L12.5362 15.0034C12.424 15.1164 12.2905 15.2061 12.1434 15.2671C11.9963 15.3282 11.8386 15.3595 11.6793 15.3592ZM11.6793 5.1302C10.8784 5.1302 10.0955 5.36769 9.42958 5.81265C8.76365 6.2576 8.24463 6.89004 7.93814 7.62997C7.63165 8.3699 7.55146 9.18411 7.7077 9.96961C7.86395 10.7551 8.24962 11.4767 8.81594 12.043C9.38226 12.6093 10.1038 12.995 10.8893 13.1512C11.6748 13.3075 12.489 13.2273 13.229 12.9208C13.9689 12.6143 14.6013 12.0953 15.0463 11.4293C15.4912 10.7634 15.7287 9.98051 15.7287 9.17961C15.7274 8.10604 15.3004 7.0768 14.5413 6.31766C13.7821 5.55853 12.7529 5.13148 11.6793 5.1302ZM11.6793 12.5545C11.012 12.5545 10.3596 12.3566 9.80471 11.9859C9.24982 11.6152 8.81732 11.0882 8.56191 10.4717C8.3065 9.85511 8.23964 9.17668 8.36979 8.52215C8.49994 7.86761 8.82125 7.26637 9.2931 6.79444C9.76494 6.32251 10.3661 6.00109 11.0206 5.87082C11.6752 5.74055 12.3536 5.80729 12.9702 6.06259C13.5868 6.31789 14.1138 6.75029 14.4847 7.30511C14.8555 7.85994 15.0535 8.51226 15.0536 9.17961C15.0523 10.0741 14.6964 10.9317 14.0639 11.5642C13.4314 12.1967 12.5738 12.5532 11.6793 12.5545Z" fill="currentColor"/>
<path d="M9.44252 21V14.5556H9.7231L10.8224 15.6549C10.9803 15.8132 11.1789 15.9246 11.3963 15.9767V19.8789L9.44252 21ZM14.0277 21L12.0484 19.8625V15.9537C12.2332 15.8947 12.4011 15.7922 12.5381 15.6549L13.6356 14.5556H14.027V20.9982L14.0277 21Z" fill="currentColor"/>
</svg>
