<svg width="24" height="24" viewBox="0 0 24 24" fill="currentColor" xmlns="http://www.w3.org/2000/svg">
<path d="M17.9781 6.10776H16.5475V7.0551C16.5475 7.7561 15.9343 8.32453 15.1781 8.32453H8.71976C7.9636 8.32453 7.35043 7.7561 7.35043 7.0551V6.10776H6.00149C5.44963 6.10776 5 6.52459 5 7.03619V20.0716C5 20.5832 5.44963 21 6.00149 21H17.9985C18.5504 21 19 20.5832 19 20.0716V7.03619C19 6.52459 18.5505 6.10776 17.9781 6.10776ZM7.4117 10.9392L7.65691 10.7119C7.75913 10.6171 7.92265 10.6171 8.02472 10.7119L8.63789 11.2803L9.96628 10.0488C10.0685 9.95407 10.232 9.95407 10.3341 10.0488L10.5589 10.2573C10.6611 10.352 10.6611 10.4846 10.5793 10.5793L8.84201 12.4361C8.73979 12.5497 8.55589 12.5497 8.45365 12.4361L7.43176 11.2424C7.30958 11.1476 7.30963 11.0149 7.4117 10.9392ZM10.5796 16.9453L8.82195 18.84C8.71973 18.9537 8.51544 18.9537 8.4336 18.84L7.37079 17.6274C7.2891 17.5326 7.2891 17.4001 7.39118 17.3053L7.63639 17.078C7.73861 16.9832 7.90212 16.9832 8.0042 17.078L8.63773 17.6464L9.98667 16.3959C10.0889 16.3012 10.2524 16.3012 10.3545 16.3959L10.5997 16.6232C10.6614 16.718 10.6614 16.8506 10.5796 16.9453ZM10.5796 13.7622L8.82195 15.6569C8.71973 15.7705 8.51544 15.7705 8.4336 15.6569L7.37079 14.4443C7.2891 14.3495 7.2891 14.217 7.39118 14.1222L7.63639 13.8949C7.73861 13.8001 7.90212 13.8001 8.0042 13.8949L8.63773 14.4633L9.98667 13.2128C10.0889 13.118 10.2524 13.118 10.3545 13.2128L10.5997 13.4401C10.6614 13.516 10.6614 13.6676 10.5796 13.7622ZM16.6905 18.1578C16.6905 18.2526 16.6088 18.3283 16.5066 18.3283H12.0103C11.9081 18.3283 11.8264 18.2526 11.8264 18.1578V17.5515C11.8264 17.4567 11.9081 17.381 12.0103 17.381H16.5066C16.6088 17.381 16.6905 17.4567 16.6905 17.5515V18.1578ZM16.6905 14.9558C16.6905 15.0506 16.6088 15.1263 16.5066 15.1263H12.0103C11.9081 15.1263 11.8264 15.0506 11.8264 14.9558V14.3494C11.8264 14.2547 11.9081 14.179 12.0103 14.179H16.5066C16.6088 14.179 16.6905 14.2547 16.6905 14.3494V14.9558ZM16.6905 11.7728C16.6905 11.8676 16.6088 11.9433 16.5066 11.9433H12.0103C11.9081 11.9433 11.8264 11.8676 11.8264 11.7728V11.1665C11.8264 11.0717 11.9081 10.996 12.0103 10.996H16.5066C16.6088 10.996 16.6905 11.0717 16.6905 11.1665V11.7728Z" fill="currentColor"/>
<path d="M8.71952 7.47141H15.1983C15.4435 7.47141 15.6479 7.28189 15.6479 7.05458V5.34944C15.6479 5.12211 15.4435 4.93261 15.1983 4.93261H14.1355C14.0743 3.85257 13.1138 3 11.9487 3C10.7837 3 9.84363 3.85257 9.78236 4.93261H8.71955C8.47434 4.93261 8.26992 5.12213 8.26992 5.34944V7.05458C8.26992 7.2819 8.47432 7.47141 8.71952 7.47141ZM11.9487 4.25049C12.3983 4.25049 12.7867 4.59146 12.7867 5.02734C12.7867 5.44417 12.4189 5.80419 11.9487 5.80419C11.4991 5.80419 11.1107 5.46322 11.1107 5.02734C11.1312 4.59146 11.4991 4.25049 11.9487 4.25049Z" fill="currentColor"/>
</svg>
