<svg width="24" height="24" viewBox="0 0 24 24" fill="currentColor" xmlns="http://www.w3.org/2000/svg">
<path d="M7.43745 5.88163C8.7839 4.98063 10.3672 4.49979 11.9869 4.5C13.6188 4.49932 15.2137 4.98693 16.5666 5.9002C17.9196 6.81348 18.9689 8.11072 19.5798 9.62532C19.5798 9.62532 16.3657 6.22139 11.9869 6.5297C10.9244 6.56526 9.88668 6.86003 8.96395 7.38839C8.04121 7.91675 7.26139 8.6627 6.69229 9.56139H7.92803L5.46431 12.479L3 9.56139H4.42319C5.04197 8.06328 6.091 6.78263 7.43745 5.88163Z" fill="currentColor"/>
<path d="M11.4663 15.5567H12.0668C12.239 15.5562 12.404 15.4875 12.5256 15.3655C12.6472 15.2435 12.7156 15.0783 12.7158 14.906V13.1816H14.4386C14.6105 13.181 14.7752 13.1124 14.8968 12.9907C15.0183 12.869 15.0869 12.7042 15.0876 12.5322V11.9311C15.0871 11.7591 15.0186 11.5942 14.8972 11.4726C14.7757 11.3509 14.6111 11.2822 14.4392 11.2816H12.7158V9.55722C12.7153 9.38511 12.6468 9.22019 12.5252 9.09849C12.4036 8.97679 12.2388 8.90821 12.0668 8.90774H11.4663C11.2943 8.90821 11.1295 8.97679 11.008 9.09849C10.8864 9.22019 10.8178 9.38511 10.8174 9.55722V11.2816H9.09511C8.92315 11.2821 8.75837 11.3506 8.63678 11.4723C8.51519 11.594 8.44667 11.759 8.4462 11.9311V12.5322C8.44667 12.7042 8.51511 12.869 8.63657 12.9907C8.75803 13.1124 8.92266 13.181 9.09451 13.1816H10.8174V14.9072C10.8178 15.0793 10.8864 15.2442 11.008 15.3659C11.1295 15.4876 11.2943 15.5562 11.4663 15.5567Z" fill="currentColor"/>
<path d="M18.5358 11.5236L21.0001 14.4411L19.5763 14.4405C18.9543 15.9437 17.8994 17.2275 16.5459 18.1285C15.1924 19.0295 13.6016 19.5069 11.9761 19.4999C10.3506 19.4929 8.764 19.0019 7.4183 18.0893C6.0726 17.1767 5.02874 15.8838 4.41968 14.3754C4.41968 14.3754 7.63379 17.7793 12.0126 17.471C13.0749 17.4357 14.1125 17.1412 15.0352 16.6131C15.958 16.0851 16.7379 15.3395 17.3072 14.4411H16.0714L18.5358 11.5236Z" fill="currentColor"/>
</svg>
