<svg width="24" height="24" viewBox="0 0 24 24" fill="currentColor" xmlns="http://www.w3.org/2000/svg">
<path d="M10.4456 18.4249V13.5428H5.52118C5.1147 13.534 4.72787 13.3677 4.44354 13.0795C4.15922 12.7914 4 12.4043 4 12.0011C4 11.598 4.15922 11.2108 4.44354 10.9227C4.72787 10.6345 5.1147 10.4682 5.52118 10.4594H10.4456V5.5758C10.441 5.3705 10.4779 5.16637 10.554 4.97539C10.6301 4.78442 10.7439 4.61043 10.8887 4.46365C11.0336 4.31687 11.2065 4.20025 11.3974 4.12063C11.5883 4.04101 11.7933 4 12.0004 4C12.2075 4 12.4125 4.04101 12.6034 4.12063C12.7943 4.20025 12.9672 4.31687 13.112 4.46365C13.2568 4.61043 13.3706 4.78442 13.4467 4.97539C13.5228 5.16637 13.5597 5.3705 13.5552 5.5758V10.4587H18.4788C18.8853 10.4675 19.2721 10.6338 19.5565 10.9219C19.8408 11.2101 20 11.5972 20 12.0004C20 12.4035 19.8408 12.7906 19.5565 13.0788C19.2721 13.367 18.8853 13.5333 18.4788 13.5421H13.5552V18.4242C13.5597 18.6295 13.5228 18.8336 13.4467 19.0246C13.3706 19.2156 13.2568 19.3896 13.112 19.5363C12.9672 19.6831 12.7943 19.7998 12.6034 19.8794C12.4125 19.959 12.2075 20 12.0004 20C11.7933 20 11.5883 19.959 11.3974 19.8794C11.2065 19.7998 11.0336 19.6831 10.8887 19.5363C10.7439 19.3896 10.6301 19.2156 10.554 19.0246C10.4779 18.8336 10.441 18.6302 10.4456 18.4249Z" fill="currentColor"/>
</svg>
