<svg width="24" height="24" viewBox="0 0 24 24" fill="none" xmlns="http://www.w3.org/2000/svg">
<path d="M12.3318 17.0894C12.4285 17.1372 12.5347 17.1624 12.6425 17.1629C12.6887 17.1633 12.7348 17.1591 12.7802 17.1504L14.4884 16.8104C15.0764 16.7981 15.6574 16.6797 16.2033 16.4609L15.051 14.5748C14.8573 14.655 14.6508 14.6996 14.4413 14.7063L12.7802 14.3737C12.7349 14.3647 12.6888 14.3601 12.6425 14.3601C12.5347 14.3605 12.4284 14.3856 12.3318 14.4334C12.2351 14.4812 12.1507 14.5505 12.085 14.636C12.0063 14.7403 11.9581 14.8644 11.9458 14.9944C11.9335 15.1245 11.9576 15.2554 12.0154 15.3726L12.2097 15.76L12.0154 16.1476C11.9571 16.2651 11.9327 16.3965 11.945 16.5272C11.9573 16.6578 12.0058 16.7824 12.085 16.8869C12.1508 16.9723 12.2352 17.0416 12.3318 17.0894Z" fill="#182230"/>
<path d="M10.6414 16.9142H11.1547V12.2928H11.6681V11.7795H11.1547C11.0187 11.7796 10.8882 11.8337 10.792 11.93C10.6957 12.0262 10.6416 12.1567 10.6414 12.2928V16.9142Z" fill="#182230"/>
<path d="M16.839 16.1578C17.4303 15.8171 17.9442 15.357 18.3482 14.807C18.7525 14.2567 19.0379 13.6284 19.1862 12.9618H16.1478C16.1432 13.422 15.9604 13.8624 15.6379 14.1907L16.839 16.1578Z" fill="#182230"/>
<path d="M16.0011 12.2599H19.2871L19.2882 12.2593C19.2888 12.2497 19.2896 12.2403 19.2904 12.231C19.2919 12.2139 19.2933 12.1973 19.2933 12.1812V12.176L19.2941 12.1639C19.3 12.0738 19.3052 11.9947 19.3052 11.9063C19.3054 10.9427 19.0219 10.0002 18.4901 9.19665C17.9582 8.39305 17.2015 7.76394 16.3144 7.38757L15.0578 11.3364C15.4794 11.5113 15.8173 11.842 16.0011 12.2599Z" fill="#182230"/>
<path fill-rule="evenodd" clip-rule="evenodd" d="M9.58519 9.24852C9.78539 9.44882 10.0568 9.5615 10.34 9.56195H10.3412C10.6242 9.5612 10.8955 9.44836 11.0955 9.2481C11.2956 9.04784 11.4081 8.77649 11.4086 8.49343C11.4083 8.21013 11.2956 7.93853 11.0953 7.73821C10.8949 7.53789 10.6233 7.42522 10.34 7.42492C10.0568 7.42537 9.78539 7.53804 9.58519 7.73835C9.38499 7.93865 9.27239 8.21023 9.27209 8.49343C9.27239 8.77663 9.38499 9.04821 9.58519 9.24852ZM9.5882 8.14929C9.65384 8.08354 9.74289 8.04653 9.83581 8.04638H9.83695C9.92972 8.04683 10.0185 8.08401 10.084 8.14971C10.1495 8.21541 10.1864 8.30439 10.1865 8.39716C10.1864 8.49007 10.1493 8.57911 10.0836 8.64475C10.0178 8.7104 9.92872 8.74725 9.83581 8.74725C9.74299 8.7471 9.65403 8.71011 9.5884 8.64448C9.52278 8.57885 9.48584 8.48998 9.48569 8.39716C9.48569 8.30425 9.52255 8.21505 9.5882 8.14929Z" fill="#182230"/>
<path fill-rule="evenodd" clip-rule="evenodd" d="M11.591 11.2078H14.3626L15.6475 7.16999C15.2392 7.05981 14.8184 7.00265 14.3954 7H8.78655C8.60058 7.00015 8.42227 7.07404 8.29076 7.20554C8.15926 7.33705 8.0853 7.51544 8.08515 7.70142C8.0868 8.63077 8.45668 9.52151 9.11378 10.1787C9.77088 10.8359 10.6617 11.206 11.591 11.2078ZM9.38487 7.53806C9.63819 7.28463 9.98172 7.14209 10.34 7.14164H10.3412C10.6995 7.14224 11.0429 7.2848 11.2962 7.5382C11.5495 7.7916 11.692 8.13515 11.6924 8.49343C11.692 8.85191 11.5493 9.19551 11.2958 9.44894C11.0422 9.70237 10.6985 9.84493 10.34 9.84523C9.98172 9.84478 9.63819 9.70223 9.38487 9.4488C9.13154 9.19537 8.98911 8.85176 8.98881 8.49343C8.98911 8.1351 9.13154 7.79149 9.38487 7.53806Z" fill="#182230"/>
<path d="M6.31647 16.8634C6.32228 16.9249 6.34521 16.9835 6.38266 17.0326C6.42018 17.0817 6.47071 17.1192 6.5285 17.1409C6.58629 17.1627 6.64903 17.1677 6.70957 17.1556L7.51407 16.9952C7.79091 16.9897 8.06444 16.934 8.32142 16.8309L7.77866 15.9431C7.68765 15.981 7.5905 16.0019 7.49198 16.0049L6.70957 15.8491C6.6491 15.837 6.58645 15.8421 6.52875 15.8639C6.47105 15.8856 6.4206 15.9231 6.38313 15.9721C6.34566 16.021 6.32268 16.0795 6.31679 16.1409C6.3109 16.2023 6.32233 16.2641 6.3498 16.3193L6.44102 16.5017L6.3498 16.6847C6.32221 16.74 6.31066 16.8019 6.31647 16.8634Z" fill="#182230"/>
<path d="M8.29592 15.1834C8.29434 15.4007 8.20794 15.6089 8.05514 15.7635L8.61999 16.6893C8.89858 16.5286 9.14072 16.3118 9.33101 16.0525C9.5213 15.7933 9.65559 15.4973 9.72534 15.1834H8.29592Z" fill="#182230"/>
<path d="M7.78092 14.4225C7.9797 14.5043 8.13894 14.6601 8.2251 14.857L9.77236 14.8548C9.77328 14.8405 9.77423 14.8269 9.77515 14.8138C9.77819 14.7705 9.78086 14.7323 9.78086 14.6888C9.78038 14.2352 9.64661 13.7919 9.3962 13.4137C9.14579 13.0356 8.78978 12.7394 8.37241 12.5619L7.78092 14.4225Z" fill="#182230"/>
<path fill-rule="evenodd" clip-rule="evenodd" d="M4.98388 13.8757C5.29315 14.185 5.71244 14.359 6.14981 14.3596H7.45459L8.05967 12.4588C7.86753 12.4069 7.66946 12.3803 7.47045 12.3795H4.8303C4.7427 12.3795 4.65869 12.4143 4.59674 12.4762C4.5348 12.5382 4.5 12.6222 4.5 12.7098C4.5006 13.1472 4.67461 13.5665 4.98388 13.8757ZM5.1881 13.1287C5.16991 13.1017 5.16015 13.0698 5.16004 13.0373C5.15996 13.0156 5.16417 12.9941 5.17242 12.974C5.18068 12.9539 5.19281 12.9357 5.20812 12.9203C5.22344 12.9049 5.24164 12.8928 5.26168 12.8844C5.28172 12.8761 5.30321 12.8718 5.3249 12.8718C5.35749 12.8718 5.38934 12.8815 5.41644 12.8996C5.44354 12.9177 5.46467 12.9434 5.47717 12.9735C5.48966 13.0036 5.49296 13.0367 5.48664 13.0686C5.48033 13.1006 5.46468 13.13 5.44168 13.1531C5.41868 13.1762 5.38936 13.1919 5.35741 13.1983C5.32547 13.2047 5.29234 13.2016 5.2622 13.1892C5.23207 13.1768 5.20628 13.1557 5.1881 13.1287Z" fill="#182230"/>
<path d="M6.17587 11.95C6.19792 12.0936 6.22857 12.2357 6.26765 12.3755H7.0393C7.0393 12.3755 7.08916 12.1659 7.12428 11.95C7.15941 11.7342 7.94579 12.1109 7.94579 12.1109C7.94579 12.1109 7.20813 11.2741 7.0393 11.2741C6.87047 11.2741 6.65291 11.5138 6.65291 11.5138C6.65291 11.5138 6.44895 11.2741 6.26765 11.2741C6.08635 11.2741 5.37023 12.1115 5.37023 12.1115C5.37023 12.1115 6.14471 11.7347 6.17587 11.95Z" fill="#182230"/>
</svg>
