<svg width="24" height="24" viewBox="0 0 24 24" fill="none" xmlns="http://www.w3.org/2000/svg">
<path d="M12.4859 5.09107C12.8245 4.26173 13.9989 4.26173 14.3375 5.09107L15.504 7.9481C15.6055 8.1969 15.803 8.39434 16.0518 8.49592L18.9088 9.66238C19.7381 10.001 19.7381 11.1754 18.9088 11.514L16.0518 12.6805C15.803 12.782 15.6055 12.9795 15.504 13.2283L14.3375 16.0853C13.9989 16.9147 12.8245 16.9147 12.4859 16.0853L11.3194 13.2283C11.2178 12.9795 11.0204 12.782 10.7716 12.6805L7.91456 11.514C7.08521 11.1754 7.08521 10.001 7.91456 9.66238L10.7716 8.49592C11.0204 8.39434 11.2178 8.1969 11.3194 7.9481L12.4859 5.09107Z" fill="#182230"/>
<path opacity="0.5" d="M6.34655 14.3447C6.52099 13.9174 7.12599 13.9174 7.30042 14.3447L7.90132 15.8165C7.95365 15.9446 8.05537 16.0463 8.18354 16.0987L9.65533 16.6996C10.0826 16.874 10.0826 17.479 9.65533 17.6534L8.18354 18.2544C8.05537 18.3067 7.95365 18.4084 7.90132 18.5366L7.30042 20.0084C7.12599 20.4356 6.52099 20.4356 6.34655 20.0084L5.74565 18.5366C5.69332 18.4084 5.59161 18.3067 5.46344 18.2544L3.99164 17.6534C3.5644 17.479 3.5644 16.874 3.99164 16.6996L5.46344 16.0987C5.59161 16.0463 5.69332 15.9446 5.74565 15.8165L6.34655 14.3447Z" fill="#182230"/>
<path opacity="0.2" d="M5.6298 3.44192C5.72215 3.21573 6.04244 3.21573 6.13479 3.44192L6.45292 4.22111C6.48062 4.28896 6.53447 4.34281 6.60232 4.37051L7.38151 4.68864C7.6077 4.78099 7.6077 5.10128 7.38151 5.19363L6.60232 5.51175C6.53447 5.53946 6.48062 5.59331 6.45292 5.66116L6.13479 6.44035C6.04244 6.66653 5.72215 6.66653 5.6298 6.44035L5.31168 5.66116C5.28397 5.59331 5.23012 5.53946 5.16227 5.51175L4.38308 5.19363C4.1569 5.10128 4.1569 4.78099 4.38308 4.68864L5.16227 4.37051C5.23012 4.34281 5.28397 4.28896 5.31168 4.22111L5.6298 3.44192Z" fill="#182230"/>
</svg>
