<svg width="24" height="24" viewBox="0 0 24 24" fill="currentColor" xmlns="http://www.w3.org/2000/svg">
<path fill-rule="evenodd" clip-rule="evenodd" d="M19.8723 7.89212H4.12769V18.774C4.12769 19.3263 4.5754 19.774 5.12769 19.774H18.8723C19.4246 19.774 19.8723 19.3263 19.8723 18.774V7.89212ZM11.6486 17.6543C11.762 17.7002 11.8835 17.7226 12.0058 17.7203L12.0221 17.7208C12.1763 17.7205 12.3279 17.6812 12.4628 17.6066C12.5977 17.532 12.7116 17.4245 12.7938 17.2941L15.853 14.2349C16.0238 14.0642 16.1198 13.8326 16.1198 13.5911C16.1199 13.3495 16.024 13.1179 15.8532 12.9471C15.6825 12.7762 15.4509 12.6803 15.2093 12.6802C14.9678 12.6802 14.7362 12.7761 14.5653 12.9468L12.9003 14.6098V10.856C12.9003 10.7364 12.8767 10.618 12.8309 10.5075C12.7852 10.397 12.7181 10.2966 12.6335 10.2121C12.549 10.1275 12.4486 10.0604 12.3381 10.0147C12.2276 9.96889 12.1092 9.94534 11.9896 9.94534C11.87 9.94534 11.7516 9.96889 11.6411 10.0147C11.5306 10.0604 11.4302 10.1275 11.3457 10.2121C11.2611 10.2966 11.194 10.397 11.1483 10.5075C11.1025 10.618 11.0789 10.7364 11.0789 10.856V14.5783L9.4474 12.9468C9.36348 12.8595 9.26298 12.7897 9.15179 12.7417C9.0406 12.6937 8.92094 12.6683 8.79983 12.6671C8.67871 12.6659 8.55858 12.6889 8.44645 12.7347C8.33432 12.7805 8.23245 12.8482 8.14681 12.9338C8.06116 13.0195 7.99346 13.1213 7.94767 13.2335C7.90188 13.3456 7.87892 13.4657 7.88013 13.5868C7.88133 13.708 7.90669 13.8276 7.95471 13.9388C8.00273 14.05 8.07245 14.1505 8.15978 14.2344L11.2179 17.2925C11.2542 17.3509 11.2971 17.4049 11.3458 17.4534C11.4321 17.5401 11.5351 17.6084 11.6486 17.6543Z" fill="currentColor"/>
<path d="M3.39941 5.22607C3.39941 4.67379 3.84713 4.22607 4.39941 4.22607H19.6006C20.1528 4.22607 20.6006 4.67379 20.6006 5.22607V6.98382H3.39941V5.22607Z" fill="currentColor"/>
</svg>
