<svg width="24" height="24" viewBox="0 0 24 24" fill="currentColor" xmlns="http://www.w3.org/2000/svg">
<path d="M12.0089 18.0668C11.8176 18.0706 11.6287 18.0353 11.4517 17.9641C11.2747 17.8928 11.1142 17.7856 10.9792 17.6506C10.9034 17.5748 10.8359 17.4908 10.7797 17.3993L6.0074 12.6271C5.8709 12.4958 5.76215 12.3391 5.68715 12.1658C5.61215 11.9926 5.5724 11.8058 5.5709 11.6168C5.56865 11.4278 5.60465 11.2403 5.67665 11.0656C5.74865 10.8908 5.85365 10.7318 5.98715 10.5983C6.12065 10.4648 6.27965 10.3591 6.4544 10.2878C6.62915 10.2166 6.81665 10.1806 7.00565 10.1821C7.19465 10.1836 7.3814 10.2233 7.55465 10.2983C7.7279 10.3733 7.88465 10.4821 8.0159 10.6186L10.5622 13.1648V7.35606C10.5622 7.16931 10.5989 6.98481 10.6702 6.81231C10.7414 6.63981 10.8464 6.48306 10.9784 6.35106C11.1104 6.21906 11.2672 6.11406 11.4397 6.04281C11.6122 5.97156 11.7966 5.93481 11.9834 5.93481C12.1701 5.93481 12.3546 5.97156 12.5271 6.04281C12.6996 6.11406 12.8564 6.21906 12.9884 6.35106C13.1204 6.48306 13.2254 6.63981 13.2966 6.81231C13.3679 6.98481 13.4046 7.16931 13.4046 7.35606V13.2143L16.0034 10.6193C16.2696 10.3531 16.6311 10.2031 17.0084 10.2031C17.3856 10.2031 17.7471 10.3531 18.0134 10.6193C18.2796 10.8856 18.4296 11.2471 18.4296 11.6243C18.4296 12.0016 18.2796 12.3631 18.0134 12.6293L13.2396 17.4031C13.1114 17.6063 12.9337 17.7743 12.7229 17.8906C12.5122 18.0068 12.2759 18.0683 12.0352 18.0691L12.0097 18.0683L12.0089 18.0668Z" fill="currentColor"/>
</svg>
