<svg width="24" height="24" viewBox="0 0 24 24" fill="currentColor" xmlns="http://www.w3.org/2000/svg">
<path d="M11.9911 5.93391C12.1823 5.93016 12.3713 5.96541 12.5483 6.03666C12.7253 6.10791 12.8858 6.21516 13.0208 6.35016C13.0966 6.42591 13.1641 6.50991 13.2203 6.60141L17.9926 11.3737C18.1291 11.5049 18.2378 11.6617 18.3128 11.8349C18.3878 12.0082 18.4276 12.1949 18.4291 12.3839C18.4306 12.5729 18.3953 12.7604 18.3233 12.9352C18.2513 13.1099 18.1463 13.2689 18.0128 13.4024C17.8793 13.5359 17.7203 13.6417 17.5448 13.7129C17.3693 13.7842 17.1826 13.8202 16.9936 13.8187C16.8046 13.8164 16.6178 13.7774 16.4446 13.7024C16.2713 13.6274 16.1138 13.5187 15.9833 13.3822L13.4371 10.8359V16.6447C13.4371 16.8314 13.4003 17.0159 13.3291 17.1884C13.2578 17.3609 13.1528 17.5177 13.0208 17.6497C12.8888 17.7817 12.7321 17.8859 12.5596 17.9579C12.3871 18.0299 12.2026 18.0659 12.0158 18.0659C11.8291 18.0659 11.6446 18.0292 11.4721 17.9579C11.2996 17.8867 11.1428 17.7817 11.0108 17.6497C10.8788 17.5177 10.7738 17.3609 10.7026 17.1884C10.6313 17.0159 10.5946 16.8314 10.5946 16.6447V10.7864L7.99583 13.3814C7.72958 13.6477 7.36808 13.7977 6.99083 13.7977C6.61358 13.7977 6.25208 13.6477 5.98583 13.3814C5.71958 13.1152 5.56958 12.7537 5.56958 12.3764C5.56958 11.9992 5.71958 11.6377 5.98583 11.3714L10.7596 6.59691C10.8878 6.39366 11.0656 6.22566 11.2763 6.10941C11.4871 5.99316 11.7233 5.93166 11.9641 5.93091L11.9896 5.93166L11.9911 5.93391Z" fill="currentColor"/>
</svg>
