<svg width="24" height="24" viewBox="0 0 24 24" fill="currentColor" xmlns="http://www.w3.org/2000/svg">
<path fill-rule="evenodd" clip-rule="evenodd" d="M6 3C4.34315 3 3 4.34315 3 6V17.673C3 19.3299 4.34315 20.673 6 20.673H17.673C19.3299 20.673 20.673 19.3299 20.673 17.673V6C20.673 4.34315 19.3299 3 17.673 3H6ZM9.88554 15.6185L10.0448 15.7738C10.0713 15.7982 10.1031 15.8162 10.1376 15.8265C10.1722 15.8368 10.2086 15.8391 10.2442 15.8332C10.3283 15.8212 10.409 15.7925 10.4818 15.7488C10.6249 15.7246 10.7579 15.6591 10.8644 15.5605L17.0954 9.83433C17.267 9.65329 17.3663 9.41555 17.3743 9.16621C17.3823 8.91687 17.2985 8.67327 17.1388 8.4816C17.0735 8.3836 16.9883 8.30046 16.8887 8.23761C16.7892 8.17476 16.6775 8.13362 16.5609 8.11687C16.4444 8.10011 16.3256 8.10813 16.2123 8.14039C16.0991 8.17265 15.9939 8.22842 15.9037 8.30408L10.343 13.4132L8.14525 11.2637C7.97128 11.093 7.5683 11.2975 7.24549 11.7088C6.92269 12.1202 6.79927 12.6 6.97523 12.7706L9.58716 15.3271C9.59942 15.3479 9.6131 15.3662 9.62818 15.3821C9.6999 15.475 9.78693 15.5549 9.88554 15.6185Z" fill="currentColor"/>
</svg>
