<svg width="24" height="24" viewBox="0 0 24 24" fill="currentColor" xmlns="http://www.w3.org/2000/svg">
<path fill-rule="evenodd" clip-rule="evenodd" d="M6 5C5.44772 5 5 5.44772 5 6V17.673C5 18.2253 5.44772 18.673 6 18.673H17.673C18.2253 18.673 18.673 18.2253 18.673 17.673V6C18.673 5.44772 18.2253 5 17.673 5H6ZM3 6C3 4.34315 4.34315 3 6 3H17.673C19.3299 3 20.673 4.34315 20.673 6V17.673C20.673 19.3299 19.3299 20.673 17.673 20.673H6C4.34315 20.673 3 19.3299 3 17.673V6Z" fill="currentColor"/>
</svg>
