<svg width="24" height="24" viewBox="0 0 24 24" fill="currentColor" xmlns="http://www.w3.org/2000/svg">
<path d="M8.64331 17.4762L8.38801 17.2252C8.22909 17.123 8.08886 16.9942 7.9734 16.8446C7.9509 16.8154 7.92916 16.7855 7.90819 16.755L3.70662 12.6435C3.42805 12.3692 3.62207 11.6057 4.14108 10.9335C4.6601 10.2613 5.30884 9.94323 5.58898 10.2165L9.12214 13.6713L18.0702 5.46124C18.2156 5.33947 18.385 5.24978 18.5675 5.19804C18.7499 5.1463 18.9412 5.13369 19.1288 5.16102C19.3165 5.18835 19.4963 5.25501 19.6563 5.35664C19.8164 5.45827 19.9533 5.59257 20.0578 5.75075C20.3149 6.05889 20.4499 6.45068 20.4371 6.85175C20.4244 7.25282 20.2648 7.63526 19.9887 7.92646L9.96237 17.139C9.79096 17.2981 9.57682 17.4037 9.34623 17.4428C9.22924 17.5129 9.09943 17.5588 8.96442 17.578C8.90668 17.5868 8.84768 17.5822 8.792 17.5645C8.73632 17.5469 8.68544 17.5167 8.64331 17.4762Z" fill="currentColor"/>
</svg>
