<svg width="25" height="24" viewBox="0 0 25 24" fill="none" xmlns="http://www.w3.org/2000/svg">
<path d="M12.5 21C10.1138 20.9975 7.82589 20.0483 6.13861 18.361C4.45134 16.6737 3.5025 14.3858 3.50003 11.9996C3.49691 10.8174 3.72836 9.64658 4.18118 8.5545C4.63399 7.46242 5.29909 6.47139 6.13786 5.63823C6.97125 4.79978 7.96285 4.13472 9.05488 3.68193C10.1469 3.22914 11.3178 2.99729 12.5 3.00003C13.6822 2.99708 14.8531 3.22837 15.9451 3.68117C17.0372 4.13398 18.0285 4.7996 18.8618 5.63823C19.7004 6.47147 20.3656 7.46244 20.8184 8.5545C21.2713 9.64656 21.503 10.8174 21.5 11.9996C21.5027 13.1818 21.2709 14.3527 20.8181 15.4447C20.3653 16.5368 19.7002 17.5284 18.8618 18.3618C18.0285 19.2003 17.0372 19.8653 15.9451 20.3181C14.8531 20.7709 13.6822 21.0028 12.5 21ZM11.2586 14.4052V15.5205C11.2586 15.5671 11.3471 15.612 11.5131 15.6531C12.5548 15.8248 13.61 15.8999 14.6654 15.8774H14.92C15.8386 15.8727 16.6933 15.8342 17.3248 15.769C17.9564 15.7039 18.3242 15.6136 18.3242 15.5205V14.4037C18.3242 14.6015 16.7375 14.7621 14.7885 14.7621C12.8396 14.7621 11.2679 14.6015 11.2586 14.4052ZM7.61758 10.6858L6.47994 12.386C6.19368 12.8029 6.06656 13.3085 6.12157 13.8112C6.14404 14.0386 6.21601 14.2585 6.3322 14.4552C6.44838 14.6519 6.60612 14.8213 6.79438 14.9507C6.97248 15.0709 7.1746 15.1502 7.38687 15.1833C7.46976 15.1964 7.55375 15.2025 7.63766 15.2023C7.96754 15.1903 8.28952 15.0988 8.57603 14.9348C8.86255 14.7709 9.1051 14.5396 9.28256 14.2613L10.4198 12.555L7.61758 10.6858ZM14.7927 13.6862C12.8445 13.6862 11.2593 13.8475 11.2593 14.0453C11.2593 14.2432 12.8445 14.4037 14.7927 14.4037C16.7409 14.4037 18.328 14.2432 18.328 14.0453C18.328 13.8475 16.7417 13.6854 14.7927 13.6854V13.6862ZM10.5975 7.74379C10.2673 7.75549 9.94517 7.84731 9.65836 8.01125C9.37156 8.17519 9.12869 8.40627 8.95108 8.68482L7.81533 10.3873L10.6176 12.2595L11.7537 10.5532C12.0397 10.1366 12.1668 9.63122 12.1121 9.12881C12.0896 8.90157 12.0178 8.68204 11.9014 8.48555C11.7851 8.28906 11.6269 8.11976 11.4385 7.99079C11.189 7.82644 10.8963 7.74053 10.5975 7.74304V7.74379Z" fill="#182230"/>
</svg>
