<svg width="24" height="24" viewBox="0 0 24 24" fill="currentColor" xmlns="http://www.w3.org/2000/svg">
<path d="M7.49999 14.716L6.10836 19.0588H18.3125L16.5 14.716H7.49999Z" fill="currentColor"/>
<path d="M13.6833 4H10.3167M13.6833 4C14.1482 4 14.525 4.42138 14.525 4.94118V9.40706C14.525 9.56454 14.5603 9.7195 14.6278 9.85775L18.896 18.6081C19.202 19.2353 18.796 20 18.1571 20H5.84285C5.20398 20 4.79803 19.2353 5.10396 18.6081L9.37224 9.85775C9.43968 9.7195 9.47501 9.56454 9.47501 9.40706V4.94118C9.47501 4.42138 9.85184 4 10.3167 4M13.6833 4H16.2083M10.3167 4H7.79169M6.10836 19.0588L7.49999 14.716H16.5L18.3125 19.0588H6.10836Z" stroke="#182230" stroke-width="2" stroke-linecap="round"/>
</svg>
