<svg width="24" height="24" viewBox="0 0 24 24" fill="none" xmlns="http://www.w3.org/2000/svg">
<path fill-rule="evenodd" clip-rule="evenodd" d="M9.12645 5.29934C9.12645 4.58174 9.70819 4 10.4258 4H11.9504C11.9808 4 12.0105 4.00268 12.0393 4.00781H13.4829C14.2005 4.00781 14.7823 4.58955 14.7823 5.30716V5.6297C14.7823 6.16142 14.3574 6.59391 13.8287 6.60623V11.2477L18.2778 19.1095C18.655 19.7761 18.1735 20.602 17.4075 20.602H11.9096C11.8792 20.602 11.8495 20.5993 11.8207 20.5942H6.50122C5.73524 20.5942 5.25366 19.7683 5.63092 19.1017L10.0801 11.2399V6.59842C9.5513 6.5861 9.12645 6.15361 9.12645 5.62189V5.29934Z" fill="#404040"/>
</svg>
