<svg width="24" height="24" viewBox="0 0 24 24" fill="currentColor" xmlns="http://www.w3.org/2000/svg">
<path fill-rule="evenodd" clip-rule="evenodd" d="M21 12C21 16.9706 16.9706 21 12 21C7.02944 21 3 16.9706 3 12C3 7.02944 7.02944 3 12 3C16.9706 3 21 7.02944 21 12ZM11.6079 13.5599C11.7087 13.6251 11.826 13.66 11.946 13.6604H16.3264C16.4923 13.6604 16.6515 13.5945 16.7688 13.4771C16.8861 13.3598 16.952 13.2007 16.952 13.0347C16.952 12.8688 16.8861 12.7097 16.7688 12.5923C16.6515 12.475 16.4923 12.4091 16.3264 12.4091H12.2585V7.0906C12.2585 6.92466 12.1926 6.76552 12.0753 6.64819C11.9579 6.53085 11.7988 6.46494 11.6329 6.46494C11.4669 6.46494 11.3078 6.53085 11.1905 6.64819C11.0731 6.76552 11.0072 6.92466 11.0072 7.0906V12.7223C11.0074 12.8429 11.0425 12.961 11.1083 13.0622C11.1741 13.1633 11.2677 13.2433 11.3779 13.2925C11.4274 13.4019 11.5072 13.4947 11.6079 13.5599Z" fill="currentColor"/>
</svg>
