<svg width="24" height="24" viewBox="0 0 24 24" fill="none" xmlns="http://www.w3.org/2000/svg">
<path fill-rule="evenodd" clip-rule="evenodd" d="M17.3191 16.9802H17.8613C18.4608 17.0467 19.3505 16.9622 20.1079 16.4735C20.901 15.9617 21.5 15.037 21.5 13.5377C21.5 12.1198 20.8004 11.2365 19.9325 10.7562C19.2263 10.3653 18.4113 10.2395 17.7667 10.274C17.6193 9.69957 17.3103 8.9857 16.7805 8.36979C16.1242 7.60676 15.1322 7 13.7247 7C12.5828 7 11.7137 7.43495 11.0754 8.03708C10.9014 8.01283 10.7191 8 10.5282 8C7.92346 8 6.90213 10.6248 6.71706 11.9372C6.68222 11.9249 6.64665 11.9136 6.6104 11.9032C6.61894 11.8434 6.6291 11.7809 6.64095 11.7163C6.597 11.7685 6.55451 11.8225 6.51361 11.8782C5.16049 11.565 3 12.5352 3 15.0307C3 17.6556 5.23024 17.9784 6.37829 17.9784H14.7252C15.4286 18.0679 16.5854 17.9054 17.3191 16.9802ZM17.7498 16.2085H17.882C17.8963 16.2085 17.9105 16.2093 17.9247 16.211C18.4064 16.2681 19.126 16.1968 19.7109 15.8193C20.2694 15.4589 20.7517 14.7912 20.7517 13.5377C20.7517 12.4372 20.2333 11.7985 19.5786 11.4361C18.8991 11.06 18.0702 10.9855 17.5303 11.0735C17.3268 11.1067 17.1356 10.9641 17.1026 10.7544C17.0252 10.2642 16.7594 9.50815 16.2206 8.88184C15.6919 8.26712 14.8973 7.77168 13.7247 7.77168C13.0137 7.77168 12.4388 7.97391 11.976 8.28785C13.5208 8.95899 14.1727 10.6419 14.3112 11.5831C15.5408 11.3678 18 11.9372 18 14.6662C18 15.2818 17.907 15.7903 17.7498 16.2085Z" fill="#182230"/>
</svg>
