<svg width="24" height="24" viewBox="0 0 24 24" fill="currentColor" xmlns="http://www.w3.org/2000/svg">
<path d="M3 8.03551V5.46421C3 4.51748 6.26178 3.75 10.2854 3.75C14.309 3.75 17.5708 4.51748 17.5708 5.46421V8.03551C17.5708 8.98261 14.3095 9.74972 10.2854 9.74972C6.26128 9.74972 3 8.97833 3 8.03551Z" fill="currentColor"/>
<path d="M4.7142 18.3208C4.7142 19.2636 7.98234 20.035 11.9996 20.035C16.0177 20.035 19.285 19.2653 19.285 18.3208V15.7495C19.2732 15.6415 19.2361 15.5379 19.1765 15.4472C19.1169 15.3564 19.0365 15.2811 18.9421 15.2275C17.2246 15.5979 15.4706 15.7728 13.7138 15.7486C10.5296 15.7486 7.74065 15.2694 6.77127 14.5555C5.44533 14.8769 4.7142 15.3012 4.7142 15.7495V18.3208Z" fill="currentColor"/>
<path d="M6.42841 13.1781C6.42841 14.1209 9.69654 14.8923 13.7138 14.8923C17.731 14.8923 20.9991 14.1209 21 13.1781V10.6068C21 10.0034 19.6903 9.4549 17.4953 9.1412C16.9785 9.97602 13.8792 10.606 10.2862 10.606C9.02146 10.6109 7.75791 10.5278 6.50468 10.3574C6.4563 10.4317 6.42987 10.5182 6.42841 10.6068V13.1781Z" fill="currentColor"/>
</svg>
