<svg width="24" height="24" viewBox="0 0 24 24" fill="currentColor" xmlns="http://www.w3.org/2000/svg">
<path d="M18.908 6.42101C18.6385 6.15144 18.2729 6 17.8916 6H9.56182C9.18059 6 8.81498 6.15144 8.54541 6.42101C8.27585 6.69058 8.12441 7.05619 8.12441 7.43741V12.7113C8.12441 13.0925 8.27585 13.4581 8.54541 13.7277C8.81498 13.9973 9.18059 14.1487 9.56182 14.1487H17.8916C17.9367 14.1487 17.9815 14.1465 18.026 14.1422L21 14.1243L19.329 12.3246V7.43741C19.329 7.05619 19.1776 6.69058 18.908 6.42101Z" fill="currentColor"/>
<path d="M5.7239 18.5874H12.1391C12.5203 18.5874 12.8859 18.436 13.1555 18.1664C13.425 17.8968 13.5765 17.5312 13.5765 17.15V15.0579H8.65334C8.27212 15.0579 7.90651 14.9064 7.63694 14.6368C7.36737 14.3673 7.21593 14.0017 7.21593 13.6204V11.8316H5.7239C5.34267 11.8316 4.97706 11.983 4.70749 12.2526C4.43793 12.5222 4.28648 12.8878 4.28648 13.269V17.0731L3 18.4602L5.15612 18.4717C5.33546 18.5488 5.52871 18.5881 5.7239 18.5874Z" fill="currentColor"/>
</svg>
