<svg width="24" height="24" viewBox="0 0 24 24" fill="none" xmlns="http://www.w3.org/2000/svg">
<path d="M8.55991 17.2829C8.44009 17.2833 8.32183 17.2558 8.21447 17.2026C8.10711 17.1494 8.01359 17.072 7.94131 16.9764C7.85321 16.8606 7.79913 16.7225 7.78516 16.5776C7.77118 16.4327 7.79785 16.2868 7.86218 16.1562L8.07822 15.7254L7.86218 15.2946C7.79785 15.164 7.77118 15.0181 7.78516 14.8733C7.79913 14.7284 7.85321 14.5903 7.94131 14.4744C8.00881 14.3849 8.09503 14.3112 8.19396 14.2585C8.29289 14.2058 8.40213 14.1753 8.51406 14.1692L11.239 16.8376C11.0308 16.8667 10.8211 16.8835 10.611 16.8879L8.71503 17.2647C8.66405 17.2759 8.61209 17.282 8.55991 17.2829ZM13.1149 14.5824L12.1534 13.6404C12.3447 13.3339 12.4477 12.9806 12.4511 12.6193H15.2545L13.1193 14.5818L13.1149 14.5824ZM15.9347 11.8405H12.2859C12.0815 11.3771 11.7063 11.0103 11.2384 10.8162L12.632 6.43082C13.6168 6.84845 14.4569 7.54685 15.0473 8.43886C15.6378 9.33088 15.9525 10.377 15.9523 11.4468C15.9523 11.5491 15.946 11.6402 15.9397 11.7363C15.9397 11.7627 15.9397 11.7897 15.9347 11.8185V11.8405ZM10.471 10.6731H7.39369C6.36102 10.6731 5.37064 10.2628 4.64043 9.53262C3.91023 8.80241 3.5 7.81204 3.5 6.77937C3.50017 6.57272 3.58233 6.37458 3.72845 6.22845C3.87458 6.08233 4.07272 6.00017 4.27937 6H10.5042C10.9735 6.00297 11.4403 6.06629 11.8934 6.1884L10.4678 10.6731H10.471ZM5.44684 7.16183C5.36978 7.16158 5.29438 7.1842 5.23018 7.22683C5.16598 7.26947 5.11588 7.33019 5.08622 7.40132C5.05656 7.47244 5.04867 7.55077 5.06355 7.62638C5.07843 7.702 5.11541 7.77149 5.16982 7.82607C5.22422 7.88065 5.2936 7.91786 5.36916 7.93299C5.44473 7.94811 5.52308 7.94048 5.5943 7.91104C5.66552 7.88161 5.72641 7.8317 5.76925 7.76765C5.81209 7.70359 5.83496 7.62826 5.83496 7.55119C5.83479 7.4482 5.79389 7.34944 5.72117 7.27649C5.64846 7.20355 5.54984 7.16232 5.44684 7.16183Z" fill="#182230"/>
<path d="M12.7687 17.9233L12.5936 17.7427C12.4849 17.6674 12.3896 17.5743 12.3118 17.4673C12.2961 17.4462 12.2812 17.4246 12.2671 17.4025L9.38132 14.431C9.18922 14.2333 9.31958 13.6844 9.67147 13.205C10.0234 12.7255 10.4643 12.4977 10.6564 12.6954L13.0811 15.1956L19.1549 9.32176C19.2534 9.23524 19.3697 9.17145 19.4956 9.1349C19.6215 9.09836 19.7538 9.08996 19.8833 9.1103C20.0128 9.13064 20.1363 9.17923 20.2449 9.25261C20.3535 9.32599 20.4446 9.42238 20.5118 9.53492C20.6891 9.75914 20.7822 10.0383 20.7751 10.324C20.7679 10.6097 20.661 10.8839 20.4728 11.099L13.6669 17.6813C13.5523 17.7942 13.406 17.8696 13.2475 17.8974C13.1685 17.9471 13.0801 17.9797 12.9878 17.9931C12.9483 17.9997 12.9079 17.9968 12.8698 17.9847C12.8317 17.9725 12.7971 17.9515 12.7687 17.9233Z" fill="#182230"/>
</svg>
