<svg width="24" height="24" viewBox="0 0 24 24" fill="currentColor" xmlns="http://www.w3.org/2000/svg">
<path d="M6.20454 21C5.55356 21 4.92922 20.7414 4.4689 20.2811C4.00859 19.8207 3.75 19.1964 3.75 18.5454V8.72726C3.75254 8.20131 3.9228 7.68986 4.23609 7.26738C4.54938 6.8449 4.98938 6.53346 5.49193 6.37829C5.42222 6.60941 5.38689 6.8495 5.38716 7.0909V16.9091C5.38716 17.5601 5.64575 18.1844 6.10606 18.6447C6.56638 19.105 7.19072 19.3636 7.8417 19.3636H16.0235C16.2649 19.3637 16.5051 19.3281 16.7361 19.258C16.5853 19.7633 16.2748 20.2061 15.8512 20.5202C15.4276 20.8342 14.9137 21.0026 14.3863 21H6.20454ZM9.47726 17.7272C8.82628 17.7272 8.20194 17.4687 7.74163 17.0083C7.28131 16.548 7.02272 15.9237 7.02272 15.2727V5.45454C7.02272 4.80356 7.28131 4.17922 7.74163 3.7189C8.20194 3.25859 8.82628 3 9.47726 3H17.6591C18.3101 3 18.9344 3.25859 19.3947 3.7189C19.855 4.17922 20.1136 4.80356 20.1136 5.45454V15.2727C20.1136 15.9237 19.855 16.548 19.3947 17.0083C18.9344 17.4687 18.3101 17.7272 17.6591 17.7272H9.47726Z" fill="currentColor"/>
</svg>
