<svg width="24" height="24" viewBox="0 0 24 24" fill="currentColor" xmlns="http://www.w3.org/2000/svg">
<path d="M3.86874 5.0835C2.62974 5.0835 1.62549 6.08775 1.62549 7.32675V9.9255C1.91349 9.9255 2.19774 9.9795 2.46399 10.0837C2.73024 10.188 2.97099 10.341 3.17424 10.5337C3.37749 10.7265 3.53874 10.9552 3.64899 11.2065C3.75924 11.4577 3.81549 11.7285 3.81549 12.0007C3.81549 12.273 3.75849 12.543 3.64899 12.795C3.53949 13.047 3.37749 13.2757 3.17424 13.4677C2.97099 13.6605 2.72949 13.8135 2.46399 13.9177C2.19849 14.022 1.91349 14.076 1.62549 14.076V16.674C1.62549 17.913 2.62974 18.9172 3.86874 18.9172H20.1325C21.3715 18.9172 22.3757 17.913 22.3757 16.674V14.076C21.7645 14.076 21.178 13.8577 20.7452 13.4685C20.3125 13.0792 20.0702 12.552 20.0702 12.0015C20.0702 11.451 20.3132 10.9237 20.7452 10.5345C21.1772 10.1452 21.7637 9.927 22.3757 9.927V7.32825C22.3757 6.08925 21.3715 5.085 20.1325 5.085H3.86874V5.0835ZM9.55599 18.9165H6.71874L7.20174 18.186C7.64499 17.5155 8.62974 17.5155 9.07299 18.186L9.55599 18.9165ZM9.07224 5.8155C8.62899 6.486 7.64424 6.486 7.20099 5.8155L6.71649 5.0835H9.55599L9.07149 5.8155H9.07224ZM7.25124 7.93725C7.69449 7.26675 8.67924 7.26675 9.12249 7.93725L9.60624 8.6685H6.76824L7.25199 7.93725H7.25124ZM9.60624 8.67L9.12249 9.40125C8.67924 10.0717 7.69449 10.0717 7.25124 9.40125L6.76749 8.67H9.60549H9.60624ZM7.25124 11.2695C7.69449 10.599 8.67924 10.599 9.12249 11.2695L9.60624 12.0007H6.76824L7.25199 11.2695H7.25124ZM9.60624 12.0015L9.12249 12.7327C8.67924 13.4032 7.69449 13.4032 7.25124 12.7327L6.76749 12.0015H9.60549H9.60624ZM7.25124 14.6985C7.69449 14.028 8.67924 14.028 9.12249 14.6985L9.60624 15.4297H6.76824L7.25199 14.6985H7.25124ZM9.60624 15.4305L9.12249 16.1617C8.67924 16.8322 7.69449 16.8322 7.25124 16.1617L6.76749 15.4305H9.60549H9.60624Z" fill="currentColor"/>
</svg>
