<svg width="24" height="24" viewBox="0 0 24 24" fill="none" xmlns="http://www.w3.org/2000/svg">
<path d="M13.227 2.00403H5.54699C5.03624 2.00403 4.62524 2.42178 4.62524 2.94078V21.0503C4.62524 21.5693 5.03624 21.987 5.54699 21.987H18.4492C18.96 21.987 19.371 21.5693 19.371 21.0503V8.24853H14.1487C13.6417 8.24853 13.227 7.82703 13.227 7.31178V2.00403ZM12.5092 11.6063C12.8272 11.6078 13.1445 11.6498 13.4512 11.733L12.4852 14.7743H10.3965C9.69674 14.7735 9.02549 14.4953 8.53049 14.0003C8.03549 13.5053 7.75724 12.834 7.75649 12.1343C7.75649 11.994 7.81199 11.8598 7.91099 11.7608C8.00999 11.6618 8.14424 11.6063 8.28449 11.6063H12.5092ZM8.93099 12.8775C8.88749 12.8483 8.85374 12.807 8.83349 12.759C8.81324 12.711 8.80799 12.6578 8.81849 12.6068C8.82899 12.5558 8.85374 12.5085 8.89049 12.4718C8.92724 12.435 8.97449 12.4095 9.02549 12.3998C9.07649 12.39 9.12974 12.3945 9.17774 12.4148C9.22574 12.435 9.26699 12.4688 9.29624 12.5123C9.32549 12.5558 9.34049 12.6068 9.34049 12.6585C9.34049 12.7283 9.31274 12.7958 9.26324 12.8453C9.21374 12.8948 9.14699 12.9225 9.07649 12.9225C9.02399 12.9225 8.97299 12.9068 8.93024 12.8783L8.93099 12.8775ZM13.7167 15.5655C13.5787 15.2505 13.3245 15.0015 13.0065 14.8703L13.9522 11.8973C14.6197 12.1815 15.189 12.6555 15.5895 13.26C15.99 13.8645 16.2037 14.574 16.2045 15.2993C16.2045 15.366 16.2007 15.4268 16.1955 15.495C16.194 15.5175 16.1925 15.5408 16.191 15.5655H13.7167ZM13.443 17.019C13.6867 16.7723 13.8247 16.4408 13.8277 16.0935H16.1152C16.0035 16.5953 15.7882 17.0685 15.4837 17.4825C15.1792 17.8965 14.7922 18.243 14.3467 18.5003L13.443 17.019ZM13.002 17.307L13.8697 18.726C13.458 18.891 13.02 18.9803 12.5767 18.9893L11.2912 19.2465C11.2575 19.2533 11.2222 19.257 11.1877 19.257C11.0977 19.257 11.0092 19.2338 10.9305 19.1903C10.8517 19.1468 10.7857 19.083 10.7385 19.0065C10.6912 18.93 10.6642 18.843 10.6605 18.753C10.6567 18.663 10.6755 18.5738 10.7152 18.4935L10.8607 18.2018L10.7152 17.91C10.671 17.8215 10.6522 17.7225 10.6612 17.6243C10.6702 17.526 10.707 17.4323 10.767 17.3535C10.827 17.2748 10.908 17.2148 11.0002 17.1803C11.0925 17.1458 11.193 17.1375 11.2905 17.157L12.543 17.4068C12.7005 17.4015 12.8557 17.367 13.002 17.307Z" fill="#182230"/>
<path d="M15.4027 7.14378H19.404C19.347 7.02228 19.2705 6.90753 19.1722 6.80928C14.3497 1.98753 14.562 2.13678 14.2612 2.00478V6.00228C14.2612 6.63378 14.7712 7.14378 15.4027 7.14378Z" fill="#182230"/>
</svg>
