<svg width="25" height="24" viewBox="0 0 25 24" fill="none" xmlns="http://www.w3.org/2000/svg">
<path d="M12.4994 21C11.3127 21.0012 10.1377 20.7685 9.04454 20.3157C7.9514 19.8629 6.96244 19.1993 6.13629 18.3643C4.4369 16.6658 3.48966 14.379 3.50009 12.0003C3.48969 9.62137 4.43692 7.33441 6.13629 5.6357C6.96244 4.80071 7.9514 4.13707 9.04454 3.68428C10.1377 3.23149 11.3127 2.99878 12.4994 3C13.6864 2.99877 14.8615 3.23152 15.9549 3.68441C17.0482 4.1373 18.0374 4.80108 18.8637 5.63626C20.5631 7.33493 21.5104 9.62192 21.4999 12.0008C21.5103 14.3796 20.5631 16.6664 18.8637 18.3649C18.0373 19.1998 17.0482 19.8634 15.9549 20.3161C14.8616 20.7688 13.6863 21.0013 12.4994 21ZM12.5065 13.489L15.7575 16.3069C15.9377 16.466 16.1711 16.555 16.4136 16.557C16.4465 16.557 16.4794 16.5553 16.5122 16.5519C16.6481 16.5368 16.779 16.4941 16.8971 16.4265C17.0151 16.3589 17.1175 16.2678 17.1976 16.1592C17.367 15.9272 17.4437 15.6424 17.4132 15.3587C17.3828 15.0749 17.2473 14.812 17.0324 14.6196L14.0937 12.0733L16.9458 9.52699C17.1545 9.32886 17.2817 9.06244 17.303 8.77844C17.3243 8.49443 17.2381 8.21267 17.0611 7.98677C16.9681 7.86512 16.848 7.76611 16.7096 7.69742C16.5712 7.62873 16.4184 7.59221 16.2633 7.59068C16.0231 7.59173 15.7919 7.68097 15.6155 7.84078L12.4608 10.6587L9.20918 7.84078C9.02904 7.68174 8.79562 7.59278 8.55316 7.59068C8.39987 7.59145 8.24907 7.62773 8.11281 7.69657C7.97655 7.7654 7.85873 7.86485 7.76915 7.98677C7.60012 8.21891 7.52363 8.50364 7.55405 8.78726C7.58447 9.07089 7.71977 9.3338 7.93436 9.52642L10.8725 12.0727L8.0209 14.619C7.81201 14.8169 7.68473 15.0833 7.66343 15.3672C7.64214 15.6512 7.72819 15.9329 7.90532 16.1587C7.99846 16.2803 8.11896 16.3793 8.25743 16.448C8.3959 16.5167 8.5488 16.5532 8.70399 16.5547C8.94407 16.5537 9.1748 16.4645 9.35099 16.3046L12.5059 13.4867L12.5065 13.489Z" fill="#182230"/>
</svg>
