<svg width="25" height="24" viewBox="0 0 25 24" fill="none" xmlns="http://www.w3.org/2000/svg">
<path d="M12.5 21.0002C11.3178 21.003 10.1468 20.7711 9.05475 20.3183C7.96269 19.8654 6.9713 19.2005 6.13797 18.3619C5.29951 17.5285 4.63464 16.5373 4.18184 15.4453C3.72904 14.3532 3.49729 13.1823 3.50003 12.0001C3.49716 10.8179 3.72885 9.64662 4.18165 8.55456C4.63446 7.4625 5.2994 6.4712 6.13797 5.63788C6.9713 4.79931 7.96269 4.13436 9.05475 3.68156C10.1468 3.22875 11.3178 2.99716 12.5 3.00003C13.6822 2.99716 14.8533 3.22875 15.9453 3.68156C17.0374 4.13436 18.0288 4.79931 18.8621 5.63788C19.7007 6.47117 20.3656 7.46249 20.8184 8.55456C21.2712 9.64662 21.5029 10.8179 21.5 12.0001C21.5027 13.1823 21.271 14.3532 20.8182 15.4453C20.3654 16.5373 19.7006 17.5285 18.8621 18.3619C18.0288 19.2005 17.0374 19.8654 15.9453 20.3183C14.8533 20.7711 13.6822 21.003 12.5 21.0002ZM12.5 6.08718C10.9323 6.08903 9.4294 6.71284 8.32103 7.8215C7.21266 8.93017 6.58938 10.4332 6.58794 12.0009C6.58958 13.5685 7.21299 15.0712 8.32132 16.1798C9.42964 17.2884 10.9324 17.9125 12.5 17.9145C14.0678 17.9127 15.5709 17.2888 16.6795 16.1802C17.7882 15.0716 18.4118 13.5687 18.4137 12.0009C18.4128 10.4324 17.7896 8.92856 16.6809 7.81923C15.5721 6.7099 14.0684 6.0858 12.5 6.08415V6.08718ZM12.5 17.1379C11.138 17.1363 9.83225 16.5944 8.86921 15.6313C7.90617 14.6681 7.36448 13.3621 7.36304 12.0001C7.36469 10.6382 7.90639 9.33232 8.8694 8.36931C9.83241 7.40629 11.1381 6.86469 12.5 6.86304C13.8619 6.86469 15.1676 7.40629 16.1306 8.36931C17.0936 9.33232 17.6353 10.6382 17.637 12.0001C17.6347 13.3616 17.0927 14.6665 16.1297 15.629C15.1668 16.5915 13.8615 17.1329 12.5 17.1345V17.1379ZM13.1471 10.5469V14.2064H13.84V13.1779C13.84 13.143 13.8275 13.0118 13.8042 12.8093H13.84C13.9227 12.9156 14.0296 13.0005 14.1519 13.0571C14.2742 13.1136 14.4083 13.1401 14.5429 13.1343C14.7275 13.139 14.9088 13.0845 15.0604 12.979C15.2163 12.8634 15.3348 12.7046 15.401 12.5221C15.4847 12.2958 15.5252 12.0557 15.5205 11.8145C15.5394 11.4737 15.4504 11.136 15.266 10.8488C15.1863 10.7369 15.08 10.6466 14.9568 10.5859C14.8335 10.5252 14.6972 10.496 14.5599 10.501C14.4172 10.4946 14.2753 10.5263 14.1488 10.5927C14.0223 10.6591 13.9157 10.7576 13.84 10.8787H13.8081L13.7104 10.5484L13.1471 10.5469ZM10.1282 9.76495V13.0862H10.8327V11.8122H11.2083L12.0019 13.087H12.7839C12.6412 12.8837 12.3402 12.4378 11.8064 11.6402C11.9888 11.5653 12.1469 11.4412 12.2634 11.2822C12.3708 11.1297 12.4273 10.9474 12.4248 10.7609C12.435 10.6192 12.4108 10.4772 12.3541 10.3468C12.2975 10.2165 12.2102 10.1017 12.0997 10.0123C11.7998 9.82588 11.4486 9.73935 11.0965 9.76495H10.1282ZM14.3473 12.5718C14.2729 12.578 14.1982 12.5652 14.1302 12.5343C14.0623 12.5033 14.0034 12.4551 13.9594 12.3948C13.8637 12.2149 13.8215 12.0115 13.8376 11.8084V11.7307C13.8251 11.5485 13.8681 11.3668 13.961 11.2095C14.0061 11.1552 14.0637 11.1126 14.1288 11.0856C14.194 11.0585 14.2647 11.0478 14.3349 11.0541C14.4065 11.0497 14.478 11.0648 14.5416 11.0981C14.6052 11.1313 14.6585 11.1815 14.6957 11.2428C14.7829 11.4166 14.8225 11.6105 14.8105 11.8046C14.8098 12.3105 14.6531 12.5695 14.3443 12.5695L14.3473 12.5718ZM11.06 11.2413H10.8327V10.3427H11.0469C11.2204 10.331 11.3939 10.3661 11.5496 10.4438C11.6045 10.4801 11.6485 10.5304 11.6771 10.5897C11.7056 10.649 11.7176 10.7147 11.7117 10.7802C11.7169 10.8472 11.7049 10.9146 11.677 10.9757C11.649 11.0368 11.606 11.0897 11.552 11.1295C11.4016 11.2146 11.2291 11.2527 11.0569 11.239L11.06 11.2413Z" fill="#182230"/>
</svg>
