<svg width="24" height="24" viewBox="0 0 24 24" fill="currentColor" xmlns="http://www.w3.org/2000/svg">
<path fill-rule="evenodd" clip-rule="evenodd" d="M5.18335 10.6525V7.7962H6.02345L7.80039 10.6525H9.55187C9.21244 10.1637 8.48265 9.08265 7.36252 7.40924C7.80378 7.21576 8.14491 6.94931 8.38591 6.60987C8.62691 6.26704 8.74741 5.87669 8.74741 5.43882C8.74741 4.68867 8.50471 4.1303 8.01932 3.76372C7.53393 3.39373 6.78548 3.20874 5.77397 3.20874H3.60498V10.6525H5.18335ZM5.6925 6.51313H5.18335V4.50198H5.66195C6.1711 4.50198 6.54618 4.57666 6.78718 4.72601C7.03157 4.87536 7.15377 5.12654 7.15377 5.47956C7.15377 5.83596 7.03496 6.09733 6.79736 6.26365C6.55976 6.42997 6.19147 6.51313 5.6925 6.51313Z" fill="currentColor"/>
<path fill-rule="evenodd" clip-rule="evenodd" d="M12.2724 10.0263C12.6525 10.5117 13.1769 10.7544 13.8456 10.7544C14.2903 10.7544 14.6772 10.6373 15.0065 10.4031C15.3357 10.1688 15.5886 9.82771 15.7651 9.37966C15.945 8.9316 16.035 8.40378 16.035 7.7962C16.035 6.87293 15.8449 6.15164 15.4647 5.6323C15.0846 5.11297 14.5584 4.8533 13.8864 4.8533C13.1736 4.8533 12.6355 5.13503 12.2724 5.69849H12.2011L11.9821 4.96022H10.7194V13.1576H12.2724V10.8511C12.2724 10.7764 12.2452 10.5015 12.1909 10.0263H12.2724ZM12.5473 6.45204C12.7238 6.21443 13.0038 6.09563 13.3874 6.09563C13.754 6.09563 14.0221 6.23649 14.1919 6.51822C14.365 6.79656 14.4515 7.21576 14.4515 7.77583C14.4515 8.92312 14.1036 9.49676 13.4078 9.49676C13.014 9.49676 12.7255 9.36438 12.5422 9.09962C12.3623 8.83486 12.2724 8.39699 12.2724 7.78601V7.61799C12.2791 7.0749 12.3708 6.68624 12.5473 6.45204Z" fill="currentColor"/>
<path d="M7.96522 15.637H6.22493V19.1462H7.96522L14.7048 20.3802C14.8663 20.4098 15.0326 20.3991 15.1891 20.3492L20.194 18.7512C20.3032 18.7164 20.3608 18.597 20.3202 18.4898L19.9846 17.605C19.8066 17.1357 19.3083 16.8711 18.8198 16.9865L15.2502 17.8293C15.0551 17.8753 14.8507 17.8617 14.6635 17.7902L12.1606 16.834C12.0831 16.8044 12.032 16.7301 12.032 16.6472V16.4273C12.032 16.3169 12.1215 16.2273 12.232 16.2273H14.0561C14.6084 16.2273 15.0561 15.7796 15.0561 15.2273V14.6236C15.0561 14.5131 14.9666 14.4236 14.8561 14.4236H10.6582C10.5047 14.4236 10.3534 14.4589 10.2158 14.5267L7.96522 15.637Z" fill="currentColor"/>
<path d="M3.60498 15.6716H5.37433V19.1773H3.60498V15.6716Z" fill="currentColor"/>
</svg>
