<svg width="24" height="24" viewBox="0 0 24 24" fill="none" xmlns="http://www.w3.org/2000/svg">
<path d="M8.57184 13.8732V13.0452C7.23119 12.9228 5.98462 12.3039 5.07667 11.3099C4.16871 10.316 3.66487 9.01865 3.66398 7.67242V6.96779C3.46541 6.87503 3.29743 6.72753 3.17982 6.5426C3.0622 6.35767 2.99982 6.14297 3 5.92381V5.15259C3 4.84689 3.12148 4.55372 3.33764 4.33755C3.5538 4.12139 3.84698 4 4.15268 4C4.45844 4 4.7517 4.12141 4.96797 4.33755C5.18425 4.5537 5.30585 4.84683 5.30604 5.15259V5.92381C5.30615 6.13469 5.24831 6.34162 5.13889 6.52189C5.02947 6.70215 4.87267 6.84883 4.68554 6.94605V7.63673C4.68776 8.80542 5.15306 9.92558 5.97952 10.7519C6.80597 11.5782 7.92617 12.0433 9.09486 12.0454C10.2635 12.0439 11.3839 11.5788 12.2101 10.7523C13.0364 9.92583 13.501 8.8054 13.5021 7.63673V6.979C13.2981 6.88902 13.1246 6.74178 13.0026 6.55509C12.8807 6.36841 12.8155 6.15031 12.815 5.92732V5.1561C12.815 4.8504 12.9365 4.55722 13.1527 4.34106C13.3688 4.1249 13.662 4.00351 13.9677 4.00351C14.2734 4.00351 14.5666 4.1249 14.7828 4.34106C14.9989 4.55722 15.1203 4.8504 15.1203 5.1561V5.92732C15.1202 6.14787 15.0571 6.36378 14.9382 6.54953C14.8193 6.73528 14.6497 6.8831 14.4494 6.97549V7.67662C14.4486 9.01002 13.9543 10.2959 13.0619 11.2866C12.1694 12.2774 10.9419 12.9028 9.61582 13.0424V13.8613C9.61731 15.0539 10.0918 16.1972 10.9351 17.0404C11.7783 17.8837 12.9216 18.3582 14.1142 18.3597C15.3069 18.3584 16.4504 17.884 17.2937 17.0407C18.137 16.1974 18.6114 15.0539 18.6127 13.8613V13.3003C18.2136 13.1902 17.8615 12.9524 17.6105 12.6232C17.3595 12.2939 17.2234 11.8914 17.223 11.4774C17.223 11.2293 17.2719 10.9837 17.3669 10.7545C17.4618 10.5253 17.601 10.317 17.7765 10.1416C17.9519 9.96619 18.1603 9.82711 18.3895 9.73223C18.6188 9.63735 18.8645 9.58852 19.1126 9.58861C19.3605 9.58871 19.606 9.6376 19.8351 9.73257C20.0641 9.82754 20.2722 9.96671 20.4475 10.1421C20.6227 10.3175 20.7617 10.5257 20.8565 10.7548C20.9513 10.9839 21.0001 11.2295 21 11.4774C21 11.8968 20.8603 12.3042 20.6031 12.6354C20.3459 12.9666 19.9858 13.2028 19.5795 13.3067V13.8767C19.5782 15.3357 18.9981 16.7347 17.9665 17.7666C16.9349 18.7984 15.5362 19.3789 14.0771 19.3805C12.6171 19.3792 11.2172 18.7985 10.185 17.7659C9.15276 16.7333 8.57258 15.3332 8.57184 13.8732ZM8.43935 10.2203V8.39246H6.61149C6.45851 8.39228 6.31184 8.33143 6.20367 8.22326C6.09549 8.11508 6.03465 7.96842 6.03446 7.81544C6.03465 7.66246 6.09549 7.51588 6.20367 7.4077C6.31184 7.29953 6.45851 7.2386 6.61149 7.23841H8.43935V5.41063C8.43954 5.25765 8.50038 5.11099 8.60856 5.00281C8.71673 4.89464 8.8634 4.8338 9.01638 4.83361C9.16936 4.8338 9.31602 4.89464 9.42419 5.00281C9.53237 5.11099 9.59321 5.25765 9.5934 5.41063V7.23841H11.4212C11.5742 7.2386 11.7208 7.29953 11.829 7.4077C11.9372 7.51588 11.9981 7.66246 11.9983 7.81544C11.9981 7.96842 11.9372 8.11508 11.829 8.22326C11.7208 8.33143 11.5742 8.39228 11.4212 8.39246H9.5934V10.2203C9.5934 10.3734 9.53264 10.5202 9.42445 10.6286C9.31626 10.7369 9.16948 10.7978 9.01638 10.798C8.86328 10.7978 8.71649 10.7369 8.6083 10.6286C8.50011 10.5202 8.43935 10.3734 8.43935 10.2203Z" fill="#182230"/>
</svg>
