<svg width="24" height="24" viewBox="0 0 24 24" fill="none" xmlns="http://www.w3.org/2000/svg">
<path d="M15.1297 17.0184H12.9714V16.5472L13.7465 15.7342C13.9759 15.4902 14.1259 15.3215 14.1963 15.2279C14.2667 15.133 14.3173 15.0453 14.3483 14.965C14.3793 14.8846 14.3948 14.8013 14.3948 14.7151C14.3948 14.5866 14.3603 14.4909 14.2913 14.428C14.2237 14.3652 14.1329 14.3338 14.0189 14.3338C13.8992 14.3338 13.7831 14.3623 13.6704 14.4193C13.5578 14.4763 13.4403 14.5573 13.3178 14.6625L12.963 14.2264C13.115 14.092 13.241 13.9971 13.341 13.9415C13.441 13.886 13.5501 13.8436 13.6683 13.8144C13.7866 13.7837 13.9189 13.7684 14.0653 13.7684C14.2582 13.7684 14.4286 13.8049 14.5764 13.878C14.7242 13.951 14.8389 14.0533 14.9206 14.1848C15.0023 14.3163 15.0431 14.4668 15.0431 14.6362C15.0431 14.7838 15.0177 14.9226 14.9671 15.0526C14.9178 15.1812 14.8403 15.3134 14.7348 15.4493C14.6306 15.5852 14.4462 15.7787 14.1815 16.03L13.7845 16.4179V16.4486H15.1297V17.0184Z" fill="#182230"/>
<path fill-rule="evenodd" clip-rule="evenodd" d="M11.936 3.01205L11.5 3.33341L11.064 3.01205C11.1661 2.87352 11.3279 2.79175 11.5 2.79175C11.6721 2.79175 11.8339 2.87352 11.936 3.01205ZM11.5 4.26151C11.3634 4.45444 11.1994 4.6883 11.0148 4.95569C10.4599 5.75969 9.72089 6.86446 8.98276 8.06979C8.24352 9.27694 7.51108 10.5753 6.9652 11.7682C6.40967 12.9822 6.08333 14.012 6.08333 14.7084C6.08333 17.7 8.50846 20.1251 11.5 20.1251C14.4915 20.1251 16.9167 17.7 16.9167 14.7084C16.9167 14.012 16.5903 12.9822 16.0348 11.7682C15.4889 10.5753 14.7565 9.27694 14.0172 8.06979C13.2791 6.86446 12.5401 5.75969 11.9852 4.95569C11.8006 4.6883 11.6366 4.45444 11.5 4.26151ZM11.5 3.33341C11.064 3.01205 11.064 3.01205 11.064 3.01205L11.0592 3.01859L11.0459 3.0367L10.995 3.10645C10.9506 3.16745 10.8859 3.25696 10.8036 3.37182C10.6391 3.60151 10.4045 3.93275 10.1232 4.34032C9.56095 5.15496 8.81036 6.27693 8.0589 7.50402C7.30857 8.72928 6.55142 10.069 5.98011 11.3174C5.41846 12.5448 5 13.7595 5 14.7084C5 18.2983 7.91015 21.2084 11.5 21.2084C15.0899 21.2084 18 18.2983 18 14.7084C18 13.7595 17.5815 12.5448 17.0199 11.3174C16.4486 10.069 15.6914 8.72928 14.9411 7.50402C14.1896 6.27693 13.4391 5.15496 12.8768 4.34032C12.5955 3.93275 12.3609 3.60151 12.1964 3.37182C12.1141 3.25696 12.0494 3.16745 12.005 3.10645L11.9541 3.0367L11.9408 3.01859L11.936 3.01205C11.936 3.01205 11.936 3.01205 11.5 3.33341Z" fill="#182230"/>
<path fill-rule="evenodd" clip-rule="evenodd" d="M10.0925 15.3934C10.99 15.3934 11.7175 14.6659 11.7175 13.7684C11.7175 12.871 10.99 12.1434 10.0925 12.1434C9.19507 12.1434 8.46753 12.871 8.46753 13.7684C8.46753 14.6659 9.19507 15.3934 10.0925 15.3934ZM10.0925 16.4767C11.5883 16.4767 12.8009 15.2642 12.8009 13.7684C12.8009 12.2726 11.5883 11.0601 10.0925 11.0601C8.59676 11.0601 7.3842 12.2726 7.3842 13.7684C7.3842 15.2642 8.59676 16.4767 10.0925 16.4767Z" fill="#182230"/>
</svg>
