<svg width="24" height="24" viewBox="0 0 24 24" fill="currentColor" xmlns="http://www.w3.org/2000/svg">
<path d="M5.04545 19.9745C4.78186 19.9744 4.5222 19.9105 4.28858 19.7885C4.05495 19.6664 3.85428 19.4897 3.70364 19.2734C3.48653 19.1228 3.30913 18.9218 3.1866 18.6877C3.06406 18.4536 3.00004 18.1933 3 17.9291V14.6564C3 14.2224 3.1724 13.8062 3.47928 13.4993C3.78616 13.1924 4.20237 13.02 4.63636 13.02C5.07035 13.02 5.48657 13.1924 5.79345 13.4993C6.10033 13.8062 6.27273 14.2224 6.27273 14.6564V16.7018H17.7273V14.6564C17.7273 14.2224 17.8997 13.8062 18.2066 13.4993C18.5134 13.1924 18.9296 13.02 19.3636 13.02C19.7976 13.02 20.2138 13.1924 20.5207 13.4993C20.8276 13.8062 21 14.2224 21 14.6564V17.9291C21 18.193 20.9362 18.4531 20.8139 18.687C20.6917 18.9209 20.5147 19.1218 20.298 19.2725C20.1474 19.4894 19.9465 19.6666 19.7126 19.7889C19.4786 19.9113 19.2186 19.9753 18.9545 19.9754L5.04545 19.9745ZM11.8756 15.8836C11.6847 15.8872 11.4951 15.8522 11.318 15.7806C11.141 15.7091 10.9803 15.6025 10.8455 15.4672C10.7696 15.3914 10.7026 15.3071 10.6459 15.216L5.87345 10.4435C5.73716 10.3126 5.62836 10.1557 5.55342 9.98222C5.47848 9.80869 5.43891 9.62196 5.43702 9.43295C5.43514 9.24394 5.47097 9.05645 5.54243 8.88146C5.6139 8.70647 5.71955 8.5475 5.8532 8.41384C5.98686 8.28018 6.14584 8.17453 6.32083 8.10307C6.49581 8.03161 6.6833 7.99577 6.87231 7.99766C7.06132 7.99954 7.24805 8.03911 7.42158 8.11405C7.59511 8.18899 7.75195 8.29779 7.88291 8.43409L10.4291 10.9803V5.17118C10.4291 4.98455 10.4659 4.79974 10.5373 4.62732C10.6087 4.45489 10.7134 4.29822 10.8453 4.16625C10.9773 4.03429 11.134 3.9296 11.3064 3.85818C11.4788 3.78676 11.6636 3.75 11.8503 3.75C12.0369 3.75 12.2217 3.78676 12.3941 3.85818C12.5666 3.9296 12.7232 4.03429 12.8552 4.16625C12.9872 4.29822 13.0919 4.45489 13.1633 4.62732C13.2347 4.79974 13.2715 4.98455 13.2715 5.17118V11.0294L15.87 8.43409C16.1366 8.16762 16.4981 8.01796 16.875 8.01804C17.2519 8.01812 17.6134 8.16792 17.8799 8.4345C18.1463 8.70108 18.296 9.06259 18.2959 9.43952C18.2958 9.81644 18.146 10.1779 17.8795 10.4444L13.1054 15.2185C12.9771 15.422 12.7993 15.5898 12.5888 15.7062C12.3782 15.8227 12.1416 15.884 11.901 15.8845L11.8756 15.8836Z" fill="currentColor"/>
</svg>
