<svg width="24" height="24" viewBox="0 0 24 24" fill="none" xmlns="http://www.w3.org/2000/svg">
<path d="M12 20.9999C10.8178 21.0028 9.64679 20.7711 8.55474 20.3183C7.46269 19.8655 6.4713 19.2006 5.63795 18.3621C4.79942 17.5287 4.1345 16.5373 3.6817 15.4452C3.2289 14.3532 2.99721 13.1822 3.00003 12C2.99721 10.8178 3.2289 9.64678 3.6817 8.55474C4.1345 7.46269 4.79942 6.47131 5.63795 5.63797C6.4713 4.79944 7.46269 4.13455 8.55474 3.68174C9.64679 3.22894 10.8178 2.99721 12 3.00003C13.1822 2.99725 14.3532 3.22895 15.4452 3.68174C16.5373 4.13454 17.5287 4.79947 18.3621 5.63797C19.2006 6.47129 19.8656 7.46268 20.3184 8.55474C20.7712 9.64679 21.0028 10.8178 21 12C21.0028 13.1822 20.7712 14.3533 20.3184 15.4453C19.8656 16.5374 19.2006 17.5288 18.3621 18.3621C17.5287 19.2006 16.5373 19.8654 15.4452 20.3182C14.3532 20.771 13.1822 21.0027 12 20.9999ZM10.3637 15.9088V18.293H13.9396V15.9088H10.3637ZM12.104 7.96867C11.6077 7.95623 11.1141 8.0438 10.6525 8.22628C10.1909 8.40877 9.77075 8.68236 9.41717 9.03075C9.07292 9.38456 8.80216 9.80313 8.62052 10.2622C8.43888 10.7212 8.34996 11.2116 8.35889 11.7052C8.42566 12.6608 8.75807 13.5787 9.31863 14.3555C9.59534 14.7697 9.90904 15.1579 10.2559 15.5154L10.2605 15.52L13.8978 15.5519C14.222 15.1616 14.5152 14.7466 14.7745 14.3105C15.2962 13.5358 15.6003 12.6353 15.6551 11.7029C15.6628 10.8813 15.4209 10.0766 14.9615 9.39547C14.7187 9.04243 14.4088 8.74068 14.0493 8.50757C13.6899 8.27446 13.288 8.11458 12.8666 8.03696C12.626 7.99113 12.3816 7.96745 12.1366 7.96631L12.104 7.96867ZM18.6538 9.2876L17.0974 10.3374L17.6351 11.1334L19.1868 10.0844L18.6507 9.2876H18.6538ZM5.54174 9.14099L5.13597 10.0107L6.83665 10.8036L7.24243 9.93389L5.54174 9.14099ZM16.3091 6.68536L15.1802 8.18433L15.9468 8.76158L17.0765 7.26337L16.3091 6.68536ZM8.19053 6.20045L7.41467 6.76529L8.51794 8.28443L9.2938 7.71959L8.19053 6.20045ZM11.8371 4.98627L11.7385 6.86067L12.6975 6.91115L12.796 5.03666L11.8371 4.98627ZM11.7928 15.486L11.9162 13.2833L10.8548 12.9248L12.2281 10.1495L12.0054 12.3522L12.7813 12.9008L11.7928 15.486Z" fill="#182230"/>
</svg>
