<svg width="24" height="24" viewBox="0 0 24 24" fill="none" xmlns="http://www.w3.org/2000/svg">
<path d="M12.2984 10.2047L12.3078 10.2405L19.9785 10.2632L21.7942 13.3286L14.3306 14.7259L12.3277 10.3144L13.6543 15.5201L19.9785 14.2448V21.2601L12.2984 22.9611V10.2047ZM4.01921 21.2643V14.2489L10.3423 15.5241L11.6419 10.497L9.66491 14.7259L2.20557 13.3307L4.02226 10.2652H11.7429V10.2867L11.7012 10.376V22.9672L4.01921 21.2643Z" fill="#182230"/>
<path fill-rule="evenodd" clip-rule="evenodd" d="M14.1162 7.95089C12.7549 9.31224 10.5477 9.31224 9.18635 7.95089C7.825 6.58954 7.825 4.38236 9.18635 3.02101C10.5477 1.65966 12.7549 1.65966 14.1162 3.02101C15.4776 4.38236 15.4776 6.58954 14.1162 7.95089ZM9.51811 7.01184L13.1776 3.35235C12.153 2.61731 10.7177 2.71022 9.79683 3.63107C8.87598 4.55192 8.78307 5.98719 9.51811 7.01184ZM10.1255 7.61908C11.1501 8.35369 12.585 8.26066 13.5057 7.33997C14.4264 6.41928 14.5195 4.98435 13.7848 3.95974L10.1255 7.61908Z" fill="#182230"/>
</svg>
