<svg width="24" height="24" viewBox="0 0 24 24" fill="none" xmlns="http://www.w3.org/2000/svg">
<rect x="3" y="6" width="18" height="12.8571" rx="2" fill="white"/>
<mask id="mask0_57_2668" style="mask-type:luminance" maskUnits="userSpaceOnUse" x="3" y="6" width="18" height="13">
<rect x="3" y="6" width="18" height="12.8571" rx="2" fill="white"/>
</mask>
<g mask="url(#mask0_57_2668)">
<path fill-rule="evenodd" clip-rule="evenodd" d="M3 9.42857H21V6H3V9.42857Z" fill="#DD172C"/>
<path fill-rule="evenodd" clip-rule="evenodd" d="M3 18.8571H21V15.4286H3V18.8571Z" fill="#DD172C"/>
<path fill-rule="evenodd" clip-rule="evenodd" d="M3 15.4286H21V9.42857H3V15.4286Z" fill="#FFD133"/>
<path fill-rule="evenodd" clip-rule="evenodd" d="M7.71436 12H8.5715V12.4286H7.71436V12Z" fill="#FFEDB1"/>
<path d="M7.03517 12.2658C7.01898 12.0714 7.17234 11.9048 7.36736 11.9048H8.06115C8.25616 11.9048 8.40952 12.0714 8.39333 12.2658L8.31039 13.261C8.28456 13.571 8.02537 13.8095 7.71425 13.8095C7.40313 13.8095 7.14395 13.571 7.11811 13.261L7.03517 12.2658Z" stroke="#A41517" stroke-width="0.666667"/>
<path fill-rule="evenodd" clip-rule="evenodd" d="M6.85718 12.4286H8.57146V12.8571H8.14289L7.71432 13.7143L7.28575 12.8571H6.85718V12.4286Z" fill="#A41517"/>
<rect x="5.57153" y="11.1429" width="0.857142" height="3" rx="0.428571" fill="#A41517"/>
<rect x="9" y="11.1429" width="0.857143" height="3" rx="0.428572" fill="#A41517"/>
<path d="M6.85718 10.9714C6.85718 10.5927 7.16418 10.2857 7.54289 10.2857H7.88575C8.26446 10.2857 8.57146 10.5927 8.57146 10.9714C8.57146 11.0661 8.49471 11.1429 8.40003 11.1429H7.02861C6.93393 11.1429 6.85718 11.0661 6.85718 10.9714Z" fill="#A41517"/>
</g>
</svg>
