<svg width="24" height="24" viewBox="0 0 24 24" fill="none" xmlns="http://www.w3.org/2000/svg">
<path d="M17.5192 11.1022L16.1054 11.5094L15.9449 10.9514C16.2007 10.8104 16.3732 10.5389 16.3732 10.2262C16.3732 9.76944 16.0034 9.39894 15.5459 9.39894C15.5302 9.39894 15.5144 9.39969 15.4987 9.40044L15.1207 8.08644L14.3669 5.46669C14.0294 4.29294 12.9697 3.47244 11.7899 3.47094C11.7494 3.47094 11.7067 3.47169 11.6647 3.47319C10.5232 3.52269 9.53469 4.32219 9.20694 5.46294L8.07444 9.40044C8.05869 9.39969 8.04294 9.39894 8.02719 9.39894C7.57044 9.39894 7.19994 9.76944 7.19994 10.2262C7.19994 10.5389 7.37319 10.8104 7.62894 10.9514L7.46844 11.5087L6.05469 11.1022L6.92169 8.08644L7.79319 5.05644C8.29644 3.30669 9.82719 2.08044 11.6009 2.00394C11.6647 2.00094 11.7277 1.99944 11.7922 2.00019C13.6229 2.00244 15.2632 3.26019 15.7807 5.05944L17.5192 11.1022Z" fill="#404040"/>
<path d="M20.5672 20.6378L19.4204 9.2408C19.3552 8.5883 18.6982 8.08655 17.9092 8.08655H5.66169C4.87269 8.08655 4.21644 8.5883 4.15044 9.2408L3.00444 20.6378C2.93019 21.372 3.62844 22.0005 4.51569 22.0005H19.0544C19.9424 22.0005 20.6399 21.372 20.5664 20.6378H20.5672ZM8.02644 11.0535C7.88169 11.0535 7.74594 11.016 7.62744 10.9515C7.37169 10.8105 7.19844 10.539 7.19844 10.2263C7.19844 9.76955 7.56894 9.39905 8.02569 9.39905C8.04144 9.39905 8.05719 9.3998 8.07294 9.40055C8.50869 9.42455 8.85294 9.7853 8.85294 10.2263C8.85294 10.6838 8.48319 11.0535 8.02569 11.0535H8.02644ZM15.5459 11.0535C15.0892 11.0535 14.7187 10.6838 14.7187 10.2263C14.7187 9.7853 15.0637 9.42455 15.4987 9.40055C15.5144 9.3998 15.5302 9.39905 15.5459 9.39905C16.0034 9.39905 16.3732 9.76955 16.3732 10.2263C16.3732 10.539 16.2007 10.8105 15.9449 10.9515C15.8264 11.0168 15.6899 11.0535 15.5452 11.0535H15.5459Z" fill="#404040"/>
</svg>
