<svg width="25" height="24" viewBox="0 0 25 24" fill="none" xmlns="http://www.w3.org/2000/svg">
<path fill-rule="evenodd" clip-rule="evenodd" d="M12.5 21C17.4706 21 21.5 16.9706 21.5 12C21.5 7.02944 17.4706 3 12.5 3C7.52944 3 3.5 7.02944 3.5 12C3.5 16.9706 7.52944 21 12.5 21ZM18.2284 15.9756C18.2877 15.9565 18.3418 15.9267 18.3873 15.888C18.4299 15.8447 18.4616 15.794 18.4803 15.7391C18.4991 15.6842 18.5045 15.6264 18.4962 15.5695L18.4613 14.916L18.4586 14.8664C18.4354 14.4465 18.4124 14.0286 18.3921 13.6111C18.3951 13.4882 18.3444 13.369 18.2507 13.2782C18.2174 13.2494 18.1797 13.2247 18.1387 13.2049C18.0817 13.1762 18.0173 13.1608 17.9516 13.1602C17.891 13.1643 17.8319 13.1794 17.7782 13.2046C17.7245 13.2297 17.6772 13.2644 17.6393 13.3064L17.0543 13.8206L11.8849 9.25298C11.7616 9.14426 11.5945 9.08321 11.4203 9.08321C11.2461 9.08321 11.079 9.14426 10.9557 9.25298L8.89458 11.0742L6.73955 9.17002C6.67877 9.11613 6.60656 9.07337 6.52704 9.0442C6.44752 9.01502 6.36227 9 6.27617 9C6.19006 9 6.10481 9.01502 6.02529 9.0442C5.94577 9.07337 5.87356 9.11613 5.81278 9.17002L5.69243 9.27637C5.63143 9.33007 5.58304 9.39388 5.55002 9.46414C5.517 9.5344 5.5 9.60973 5.5 9.68581C5.5 9.76189 5.517 9.83722 5.55002 9.90748C5.58304 9.97774 5.63143 10.0416 5.69243 10.0953L8.4348 12.5163C8.49558 12.5701 8.56779 12.6129 8.64731 12.6421C8.72683 12.6713 8.81208 12.6863 8.89819 12.6863C8.98429 12.6863 9.06954 12.6713 9.14906 12.6421C9.22858 12.6129 9.30079 12.5701 9.36157 12.5163L11.4203 10.6972L16.003 14.7512C15.8694 14.8665 15.7358 14.9846 15.6052 15.1026L15.4156 15.2723C15.3446 15.3198 15.2941 15.3873 15.2722 15.4637C15.2503 15.54 15.2585 15.6206 15.2953 15.6923C15.3153 15.732 15.3434 15.7681 15.3783 15.7987C15.4747 15.8731 15.6002 15.9112 15.728 15.905C16.1475 15.9218 16.5663 15.9394 16.9852 15.957C17.3234 15.9712 17.6616 15.9854 18.0003 15.9991H18.0431C18.106 16.0028 18.1692 15.9948 18.2284 15.9756Z" fill="#182230"/>
</svg>
