<svg width="24" height="24" viewBox="0 0 24 24" fill="none" xmlns="http://www.w3.org/2000/svg">
<path d="M20.8439 17.5438C20.781 17.6043 20.7061 17.6511 20.624 17.6811C20.5419 17.7111 20.4545 17.7236 20.3673 17.7179H20.3082C19.2583 17.6696 18.2117 17.6179 17.1618 17.5704C16.9848 17.5802 16.8111 17.5204 16.6777 17.4038C16.6294 17.3558 16.5904 17.2993 16.5627 17.2371C16.5117 17.1248 16.5004 16.9984 16.5307 16.8788C16.561 16.7592 16.631 16.6534 16.7293 16.5789L16.9918 16.3131C17.1726 16.1281 17.3576 15.9431 17.5426 15.7623L11.1973 9.40954L8.34679 12.2601C8.26264 12.3446 8.16265 12.4116 8.05254 12.4573C7.94244 12.503 7.8244 12.5265 7.70518 12.5265C7.58596 12.5265 7.46792 12.503 7.35782 12.4573C7.24772 12.4116 7.14772 12.3446 7.06357 12.2601L3.26643 8.4663C3.18198 8.38215 3.11498 8.28216 3.06926 8.17205C3.02354 8.06195 3 7.94391 3 7.82469C3 7.70547 3.02354 7.58743 3.06926 7.47733C3.11498 7.36723 3.18198 7.26723 3.26643 7.18309L3.43309 7.01643C3.51723 6.93198 3.61723 6.86498 3.72733 6.81926C3.83743 6.77353 3.95547 6.75 4.07469 6.75C4.19391 6.75 4.31195 6.77353 4.42206 6.81926C4.53216 6.86498 4.63215 6.93198 4.7163 7.01643L7.70018 10.0003L10.5541 7.14642C10.7248 6.97607 10.9562 6.88039 11.1973 6.88039C11.4385 6.88039 11.6699 6.97607 11.8406 7.14642L18.9983 14.3041L19.8082 13.4983C19.8607 13.4325 19.9262 13.3782 20.0006 13.3387C20.075 13.2993 20.1567 13.2756 20.2407 13.2692C20.3316 13.2701 20.4208 13.2942 20.4998 13.3392C20.5565 13.3702 20.6086 13.4089 20.6548 13.4542C20.7846 13.5964 20.8547 13.7832 20.8506 13.9758C20.8798 14.6557 20.9131 15.3365 20.9464 16.0206L20.9948 17.0447C21.0063 17.1338 20.9988 17.2243 20.9728 17.3104C20.9468 17.3964 20.9029 17.4759 20.8439 17.5438Z" fill="#404040"/>
</svg>
