<svg width="24" height="24" viewBox="0 0 24 24" fill="currentColor" xmlns="http://www.w3.org/2000/svg">
<path d="M19.3638 3.86255H4.63621C4.20057 3.8659 3.78397 4.04152 3.47739 4.35104C3.17082 4.66056 2.9992 5.07882 3.00001 5.51447V18.4474C2.99856 18.8835 3.1699 19.3024 3.47654 19.6124C3.78318 19.9225 4.20015 20.0984 4.63621 20.1018H19.3638C19.7994 20.0984 20.216 19.9228 20.5226 19.6133C20.8292 19.3038 21.0008 18.8855 21 18.4499V5.51447C21.0008 5.07882 20.8292 4.66056 20.5226 4.35104C20.216 4.04152 19.7994 3.8659 19.3638 3.86255ZM11.6206 16.9092C11.6212 17.2354 11.4928 17.5486 11.2632 17.7804C11.0337 18.0122 10.7218 18.1438 10.3956 18.1463H6.54631C6.2199 18.1441 5.90765 18.0127 5.67786 17.7809C5.44806 17.549 5.31942 17.2356 5.32007 16.9092V13.7003C5.31942 13.3741 5.4479 13.0609 5.67743 12.8291C5.90696 12.5973 6.2189 12.4657 6.5451 12.4632H10.3943C10.7205 12.4657 11.0325 12.5973 11.262 12.8291C11.4915 13.0609 11.62 13.3741 11.6194 13.7003L11.6206 16.9092ZM11.6605 10.5174C11.6611 10.8436 11.5327 11.1568 11.3031 11.3886C11.0736 11.6204 10.7617 11.752 10.4355 11.7545H6.58562C6.25941 11.752 5.94747 11.6204 5.71794 11.3886C5.48841 11.1568 5.35994 10.8436 5.36058 10.5174V7.30909C5.36041 6.98319 5.4891 6.67044 5.71858 6.43903C5.94806 6.20762 6.25973 6.07633 6.58562 6.07377H10.4349C10.7611 6.07633 11.073 6.20787 11.3025 6.43967C11.5321 6.67147 11.6605 6.98469 11.6599 7.3109L11.6605 10.5174ZM19.004 16.9092C19.0047 17.2354 18.8762 17.5486 18.6467 17.7804C18.4171 18.0122 18.1052 18.1438 17.779 18.1463H13.9298C13.6036 18.1438 13.2916 18.0122 13.0621 17.7804C12.8326 17.5486 12.7041 17.2354 12.7047 16.9092V13.7003C12.7041 13.3741 12.8326 13.0609 13.0621 12.8291C13.2916 12.5973 13.6036 12.4657 13.9298 12.4632H17.779C18.1052 12.4657 18.4171 12.5973 18.6467 12.8291C18.8762 13.0609 19.0047 13.3741 19.004 13.7003V16.9092ZM19.0458 10.5174C19.0464 10.8436 18.9179 11.1568 18.6884 11.3886C18.4589 11.6204 18.1469 11.752 17.8207 11.7545H13.9666C13.6404 11.752 13.3285 11.6204 13.099 11.3886C12.8694 11.1568 12.741 10.8436 12.7416 10.5174V7.30909C12.7414 6.98319 12.8701 6.67044 13.0996 6.43903C13.3291 6.20762 13.6408 6.07633 13.9666 6.07377H17.8159C18.1426 6.07505 18.4555 6.20579 18.686 6.43733C18.9166 6.66888 19.0459 6.98235 19.0458 7.30909V10.5174Z" fill="currentColor"/>
</svg>
