<svg width="25" height="24" viewBox="0 0 25 24" fill="none" xmlns="http://www.w3.org/2000/svg">
<path d="M13.0317 21C11.8495 21.0028 10.6783 20.7709 9.58624 20.3181C8.49419 19.8653 7.5029 19.2003 6.66959 18.3618C5.8311 17.5284 5.16646 16.5375 4.71367 15.4455C4.26087 14.3535 4.02899 13.1818 4.03176 11.9996C4.02899 10.8174 4.26087 9.64653 4.71367 8.5545C5.16646 7.46247 5.8311 6.4716 6.66959 5.63823C7.5029 4.79967 8.49419 4.13473 9.58624 3.68193C10.6783 3.22913 11.8495 2.99716 13.0317 3.00003C14.2139 2.99716 15.3848 3.22913 16.4769 3.68193C17.5689 4.13473 18.5602 4.79967 19.3935 5.63823C20.232 6.4716 20.897 7.46247 21.3498 8.5545C21.8026 9.64653 22.0345 10.8174 22.0317 11.9996C22.0345 13.1818 21.8026 14.3535 21.3498 15.4455C20.897 16.5375 20.232 17.5284 19.3935 18.3618C18.5602 19.2003 17.5689 19.8653 16.4769 20.3181C15.3848 20.7709 14.2139 21.0028 13.0317 21ZM13.0598 15.5334C13.1228 15.6668 13.2224 15.7793 13.3469 15.8584C13.4715 15.9375 13.6157 15.9801 13.7633 15.9804H16.5602C16.766 15.9804 16.9633 15.8986 17.1088 15.7531C17.2543 15.6076 17.3361 15.4103 17.3361 15.2046V12.411C17.3355 12.2629 17.2927 12.1177 17.2129 11.9928C17.1331 11.8679 17.0195 11.7684 16.8852 11.7056C17.0198 11.6435 17.1338 11.5441 17.2137 11.4192C17.2936 11.2944 17.3361 11.15 17.3361 11.0018V8.20825C17.3361 8.00248 17.2543 7.80519 17.1088 7.65969C16.9633 7.51419 16.766 7.43239 16.5602 7.43239H13.7633C13.6151 7.43239 13.4699 7.47525 13.345 7.55513C13.2202 7.63502 13.1207 7.74863 13.0586 7.88321C12.9966 7.74875 12.8977 7.63501 12.773 7.55513C12.6483 7.47526 12.5032 7.43254 12.3551 7.43239H9.56199C9.35622 7.43239 9.15894 7.51419 9.01344 7.65969C8.86794 7.80519 8.78614 8.00248 8.78614 8.20825V11.0018C8.78614 11.15 8.82862 11.2944 8.9085 11.4192C8.98839 11.5441 9.10237 11.6435 9.23695 11.7056C9.10266 11.7683 8.98908 11.8679 8.90926 11.9928C8.82944 12.1177 8.78665 12.2628 8.78614 12.411V15.2046C8.78614 15.4103 8.86794 15.6076 9.01344 15.7531C9.15894 15.8986 9.35622 15.9804 9.56199 15.9804H12.3551C12.5027 15.9805 12.647 15.9383 12.7715 15.8592C12.896 15.78 12.9953 15.667 13.0579 15.5334H13.0598ZM16.1306 15.5508H14.191C13.9852 15.5508 13.7875 15.469 13.642 15.3235C13.4965 15.178 13.4151 14.9807 13.4151 14.775V12.8353C13.4151 12.6296 13.4965 12.4323 13.642 12.2868C13.7875 12.1413 13.9852 12.0595 14.191 12.0595H16.1306C16.3364 12.0595 16.5337 12.1413 16.6792 12.2868C16.8247 12.4323 16.9065 12.6296 16.9065 12.8353V14.775C16.9056 14.9805 16.823 15.1771 16.6773 15.322C16.5315 15.4669 16.3342 15.5482 16.1287 15.5478L16.1306 15.5508ZM11.9267 15.5508H9.98704C9.78128 15.5508 9.58399 15.469 9.43849 15.3235C9.29299 15.178 9.21119 14.9807 9.21119 14.775V12.8353C9.21119 12.6296 9.29299 12.4323 9.43849 12.2868C9.58399 12.1413 9.78128 12.0595 9.98704 12.0595H11.9267C12.1324 12.0595 12.3301 12.1413 12.4756 12.2868C12.6211 12.4323 12.7025 12.6296 12.7025 12.8353V14.775C12.7017 14.9805 12.6195 15.1771 12.4737 15.322C12.328 15.4669 12.1307 15.5482 11.9252 15.5478L11.9267 15.5508ZM16.1306 11.3473H14.191C13.9852 11.3473 13.7875 11.2655 13.642 11.12C13.4965 10.9745 13.4151 10.7772 13.4151 10.5714V8.63178C13.4151 8.42601 13.4965 8.22873 13.642 8.08323C13.7875 7.93773 13.9852 7.85593 14.191 7.85593H16.1306C16.3364 7.85593 16.5337 7.93773 16.6792 8.08323C16.8247 8.22873 16.9065 8.42601 16.9065 8.63178V10.5714C16.9056 10.7769 16.823 10.9736 16.6773 11.1185C16.5315 11.2633 16.3342 11.3447 16.1287 11.3442L16.1306 11.3473ZM11.9252 11.3473H9.98553C9.77976 11.3473 9.58248 11.2655 9.43698 11.12C9.29148 10.9745 9.20968 10.7772 9.20968 10.5714V8.63178C9.20968 8.42601 9.29148 8.22873 9.43698 8.08323C9.58248 7.93773 9.77976 7.85593 9.98553 7.85593H11.9252C12.1309 7.85593 12.3286 7.93773 12.4741 8.08323C12.6196 8.22873 12.701 8.42601 12.701 8.63178V10.5714C12.7002 10.7771 12.6177 10.9743 12.4718 11.1192C12.3259 11.2641 12.1285 11.3449 11.9229 11.3442L11.9252 11.3473Z" fill="#182230"/>
</svg>
