<svg width="25" height="24" viewBox="0 0 25 24" fill="none" xmlns="http://www.w3.org/2000/svg">
<path d="M8.83217 13.6525C8.0537 13.6539 7.30471 13.3549 6.74125 12.8177C6.17779 12.2806 5.84332 11.5467 5.80751 10.7691H11.8561C11.8203 11.5466 11.4859 12.2803 10.9226 12.8175C10.3593 13.3546 9.61052 13.6537 8.83217 13.6525Z" fill="#182230"/>
<path d="M14.2669 19.8445H12.1029V15.2212C12.3109 15.3886 12.5068 15.5707 12.689 15.766C13.7141 16.8753 14.2783 18.3341 14.2669 19.8445ZM5.68846 19.8445H3.50018C3.48836 18.334 4.05204 16.8758 5.07669 15.766C5.26591 15.5631 5.46992 15.3746 5.68704 15.2019V19.8438L5.68846 19.8445ZM10.5649 16.7685H7.22504V14.3542C8.30754 13.9813 9.48412 13.984 10.5649 14.362V16.7685Z" fill="#182230"/>
<path d="M9.01755 6.17858L13.9795 10.3854H3.88375L9.01755 6.17858Z" fill="#182230"/>
<path d="M6.07131 19.8452V17.1535H11.7185V19.8452H6.07131ZM10.9491 16.7692V14.4575C11.2143 14.5591 11.4715 14.6804 11.7185 14.8205V16.7692H10.9491ZM6.07131 16.7692V14.8048C6.31829 14.667 6.57522 14.5478 6.83996 14.4483V16.7692H6.07131Z" fill="#182230"/>
<path d="M16.4174 8.36186C16.3058 8.36205 16.1945 8.34913 16.0859 8.32336L16.1222 8.36115L14.0459 8.34831L15.0341 7.28234C15.006 7.16922 14.9919 7.05308 14.9921 6.93652V5.17606C14.9921 4.79784 15.1423 4.43512 15.4098 4.16768C15.6772 3.90024 16.0399 3.75 16.4181 3.75H19.9077C20.2859 3.75 20.6486 3.90024 20.9161 4.16768C21.1835 4.43512 21.3337 4.79784 21.3337 5.17606V6.93652C21.3337 7.31473 21.1835 7.67746 20.9161 7.94489C20.6486 8.21233 20.2859 8.36258 19.9077 8.36258L16.4174 8.36186Z" fill="#182230"/>
<path d="M17.8934 15.7346C17.3768 15.7353 16.8798 15.5368 16.5059 15.1803C16.1321 14.8238 15.9101 14.3368 15.8862 13.8208H19.9006C19.8767 14.3368 19.6547 14.8238 19.2808 15.1803C18.907 15.5368 18.41 15.7353 17.8934 15.7346Z" fill="#182230"/>
<path d="M21.4999 19.8445H20.0646V16.7785C20.2028 16.8895 20.3329 17.0103 20.4539 17.14C21.1345 17.8772 21.5086 18.8461 21.4999 19.8495V19.8445ZM15.8064 19.8445H14.3547C14.3461 18.8411 14.7201 17.8723 15.4007 17.135C15.5262 17.0003 15.6616 16.8752 15.8057 16.7606V19.8438L15.8064 19.8445ZM19.0435 17.8024H16.8267V16.2002C17.5453 15.9528 18.3262 15.9548 19.0435 16.2059V17.8024Z" fill="#182230"/>
<path d="M18.0146 10.774L21.3081 13.5655H14.6092L18.0146 10.774Z" fill="#182230"/>
<path d="M16.0609 19.8452V18.0583H19.8093V19.8452H16.0609ZM19.2988 17.8031V16.2693C19.4747 16.3368 19.6454 16.4173 19.8093 16.5103V17.8031H19.2988ZM16.0609 17.8031V16.5011C16.2249 16.4091 16.3956 16.3295 16.5714 16.2629V17.8031H16.0609Z" fill="#182230"/>
</svg>
