<svg width="24" height="24" viewBox="0 0 24 24" fill="none" xmlns="http://www.w3.org/2000/svg">
<path d="M8.04601 18.0433H3V3.75H15.0361V8.18937H9.29494C9.03837 8.19102 8.78845 8.27121 8.57883 8.41916C8.3692 8.5671 8.20991 8.7757 8.1224 9.0169H5.00325V9.51723H8.04601V12.0253H5.0058V12.5269H8.04601V15.0356H5.0058V15.5372H8.04601V18.0433ZM5.0058 6.00724V6.50885H13.3651V6.00724H5.0058Z" fill="#182230"/>
<path d="M19.9083 9.06591H10.1052C9.81574 9.06876 9.53908 9.1859 9.33556 9.39182C9.13203 9.59773 9.01812 9.87572 9.01864 10.1652V18.7715C9.01812 19.0615 9.13238 19.3399 9.33646 19.5459C9.54053 19.7518 9.81784 19.8687 10.1078 19.8709H19.9108C20.2008 19.8687 20.4781 19.7518 20.6821 19.5459C20.8862 19.3399 21.0005 19.0615 21 18.7715V10.1652C21.0005 9.87485 20.8859 9.59609 20.6812 9.39003C20.4766 9.18397 20.1987 9.06742 19.9083 9.06591ZM14.7521 17.7479C14.7525 17.965 14.6669 18.1734 14.5141 18.3276C14.3614 18.4818 14.1538 18.5693 13.9367 18.571H11.3784C11.1613 18.5693 10.9537 18.4818 10.8009 18.3276C10.6481 18.1734 10.5626 17.965 10.5629 17.7479V15.6129C10.5626 15.3958 10.6481 15.1875 10.8009 15.0332C10.9537 14.879 11.1613 14.7915 11.3784 14.7899H13.9399C14.1569 14.7915 14.3645 14.879 14.5173 15.0332C14.6701 15.1875 14.7557 15.3958 14.7553 15.6129L14.7521 17.7479ZM14.782 13.4945C14.7824 13.7115 14.6968 13.9199 14.5441 14.0741C14.3913 14.2283 14.1837 14.3158 13.9666 14.3175H11.4051C11.188 14.3158 10.9804 14.2283 10.8277 14.0741C10.6749 13.9199 10.5893 13.7115 10.5897 13.4945V11.3594C10.5893 11.1424 10.6749 10.934 10.8277 10.7797C10.9804 10.6255 11.188 10.538 11.4051 10.5364H13.9666C14.1837 10.538 14.3913 10.6255 14.5441 10.7797C14.6968 10.934 14.7824 11.1424 14.782 11.3594V13.4945ZM19.6696 17.7479C19.6699 17.965 19.5843 18.1734 19.4316 18.3276C19.2788 18.4818 19.0712 18.5693 18.8541 18.571H16.2926C16.0755 18.5693 15.8679 18.4818 15.7152 18.3276C15.5624 18.1734 15.4768 17.965 15.4772 17.7479V15.6129C15.4768 15.3958 15.5624 15.1875 15.7152 15.0332C15.8679 14.879 16.0755 14.7915 16.2926 14.7899H18.8541C19.0712 14.7915 19.2788 14.879 19.4316 15.0332C19.5843 15.1875 19.6699 15.3958 19.6696 15.6129V17.7479ZM19.6957 13.4945C19.696 13.7115 19.6104 13.9199 19.4577 14.0741C19.3049 14.2283 19.0973 14.3158 18.8802 14.3175H16.3187C16.1016 14.3158 15.894 14.2283 15.7413 14.0741C15.5885 13.9199 15.5029 13.7115 15.5033 13.4945V11.3594C15.5029 11.1424 15.5885 10.934 15.7413 10.7797C15.894 10.6255 16.1016 10.538 16.3187 10.5364H18.8802C19.0973 10.538 19.3049 10.6255 19.4577 10.7797C19.6104 10.934 19.696 11.1424 19.6957 11.3594V13.4945Z" fill="#182230"/>
</svg>
