<svg width="24" height="24" viewBox="0 0 24 24" fill="currentColor" xmlns="http://www.w3.org/2000/svg">
<path d="M17.1401 20.456L12.6162 18.0394C12.5215 17.9889 12.4161 17.9622 12.3088 17.9616C12.2016 17.961 12.0958 17.9864 12.0006 18.0358L7.44569 20.391C7.33566 20.448 7.21182 20.4729 7.0883 20.463C6.96477 20.453 6.84653 20.4086 6.74704 20.3347C6.64755 20.2608 6.57082 20.1605 6.52558 20.0451C6.48034 19.9297 6.46842 19.804 6.49118 19.6821L7.39192 14.6324C7.41074 14.5268 7.40358 14.4183 7.37107 14.3162C7.33856 14.214 7.28168 14.1213 7.20534 14.0461L3.5581 10.4478C3.47052 10.3608 3.40902 10.2511 3.38055 10.131C3.35209 10.0109 3.3578 9.88521 3.39703 9.76818C3.43627 9.65115 3.50747 9.54743 3.60257 9.46875C3.69768 9.39008 3.81291 9.33958 3.93522 9.32297L9.01531 8.61954C9.12145 8.60476 9.22241 8.56441 9.30951 8.50197C9.3966 8.43953 9.46722 8.35686 9.51529 8.26108L11.8147 3.6768C11.8701 3.56652 11.9552 3.47392 12.0604 3.40948C12.1657 3.34503 12.2868 3.31131 12.4102 3.31212C12.5336 3.31293 12.6543 3.34824 12.7587 3.41406C12.8631 3.47988 12.947 3.57359 13.0009 3.68459L15.2403 8.29843C15.2871 8.39503 15.3567 8.47878 15.4432 8.54242C15.5296 8.60605 15.6302 8.64767 15.7364 8.66365L20.8076 9.43456C20.9295 9.4532 21.0438 9.50556 21.1375 9.58574C21.2313 9.66591 21.3008 9.7707 21.3381 9.88828C21.3754 10.0058 21.3791 10.1315 21.3488 10.2511C21.3185 10.3707 21.2553 10.4794 21.1665 10.5649L17.4701 14.1209C17.3928 14.1953 17.3348 14.2873 17.3011 14.3891C17.2673 14.4909 17.2588 14.5993 17.2763 14.7051L18.1121 19.7662C18.1329 19.8889 18.1187 20.0151 18.071 20.1301C18.0234 20.2451 17.9442 20.3443 17.8427 20.4164C17.7412 20.4884 17.6214 20.5304 17.4971 20.5374C17.3728 20.5444 17.249 20.5162 17.1401 20.456Z" fill="currentColor"/>
</svg>
