<svg width="24" height="24" viewBox="0 0 24 24" fill="currentColor" xmlns="http://www.w3.org/2000/svg">
<path d="M3.4368 19.6725L3.26649 19.5022C3.18202 19.4181 3.115 19.3181 3.06927 19.208C3.02354 19.0979 3 18.9798 3 18.8606C3 18.7414 3.02354 18.6234 3.06927 18.5133C3.115 18.4032 3.18202 18.3032 3.26649 18.2191L7.0637 14.4255C7.14731 14.3409 7.2469 14.2739 7.35668 14.2282C7.46646 14.1825 7.58423 14.1591 7.70314 14.1594C7.82265 14.1593 7.94102 14.1827 8.05146 14.2284C8.16191 14.274 8.26227 14.341 8.34681 14.4255L11.1955 17.2742L17.5395 10.9259C17.3547 10.7441 17.1704 10.5622 16.9886 10.3749L16.7261 10.1089C16.6283 10.0341 16.5586 9.92839 16.5285 9.80899C16.4983 9.68959 16.5095 9.56354 16.5601 9.45127C16.5872 9.38782 16.6261 9.33004 16.6746 9.28095C16.8083 9.16431 16.9823 9.10449 17.1595 9.11426C18.2093 9.06638 19.256 9.01424 20.3058 8.96636H20.3664C20.4536 8.96051 20.541 8.97291 20.6231 9.00276C20.7053 9.03261 20.7803 9.07924 20.8434 9.13971C20.9024 9.20747 20.9464 9.28695 20.9725 9.37292C20.9986 9.45889 21.0062 9.5494 20.9949 9.63853L20.947 10.6628C20.9137 11.3471 20.8803 12.0272 20.8506 12.7072C20.8547 12.8996 20.7846 13.0862 20.6549 13.2284C20.6086 13.2735 20.5564 13.312 20.4997 13.343C20.4208 13.3879 20.3317 13.4121 20.2409 13.4133C20.1568 13.4069 20.075 13.3832 20.0005 13.3437C19.926 13.3042 19.8606 13.2497 19.8082 13.1836L18.9984 12.3781L11.8404 19.5361C11.7559 19.6205 11.6556 19.6875 11.5453 19.7331C11.435 19.7788 11.3167 19.8023 11.1973 19.8022C11.0778 19.8024 10.9594 19.7789 10.849 19.7333C10.7385 19.6876 10.6382 19.6206 10.5536 19.5361L7.70495 16.6875L4.72173 19.6713C4.63798 19.7558 4.53828 19.8229 4.42841 19.8685C4.31853 19.9142 4.20068 19.9376 4.08169 19.9373C3.96202 19.938 3.84342 19.915 3.73273 19.8695C3.62204 19.824 3.52146 19.757 3.4368 19.6725ZM7.85708 13.277C7.56417 13.2766 7.27557 13.2063 7.01521 13.0721C6.75005 12.9339 6.51531 12.7438 6.32486 12.5133C6.12251 12.2673 5.96533 11.9874 5.86059 11.6866C5.74602 11.3627 5.6878 11.0215 5.68846 10.678C5.68944 10.5124 5.70383 10.3473 5.73149 10.184L6.1194 8.3172H14.232L14.5224 10.2864C14.5417 10.4161 14.5529 10.5469 14.5557 10.678C14.5564 11.0215 14.4981 11.3627 14.3836 11.6866C14.2792 11.9878 14.1216 12.2679 13.9181 12.5133C13.7287 12.7444 13.4942 12.9345 13.2289 13.0721C12.9689 13.2059 12.6808 13.2762 12.3883 13.277H7.85708ZM9.67538 11.4738C9.65184 11.5049 9.63749 11.5421 9.63395 11.581C9.63042 11.6199 9.63784 11.6589 9.65538 11.6938L9.71296 11.8102L9.65538 11.926C9.63791 11.9609 9.63053 11.9999 9.63406 12.0388C9.63759 12.0777 9.6519 12.1148 9.67538 12.1459C9.69489 12.1717 9.72009 12.1926 9.749 12.207C9.77791 12.2214 9.80976 12.229 9.84206 12.229C9.85572 12.2288 9.86933 12.2271 9.88267 12.2241L10.3924 12.1229C10.5676 12.1182 10.7407 12.0832 10.9039 12.0193L10.5591 11.4562C10.5013 11.48 10.4397 11.4933 10.3772 11.4956L9.88145 11.3968C9.86789 11.394 9.85409 11.3926 9.84024 11.3926C9.80833 11.3925 9.77682 11.3996 9.74813 11.4136C9.71944 11.4276 9.69435 11.448 9.67478 11.4732L9.67538 11.4738ZM10.7354 11.3416L11.0937 11.9278C11.2699 11.8261 11.4231 11.689 11.5436 11.5251C11.6641 11.3612 11.7493 11.1741 11.7937 10.9755H10.8882C10.8873 11.1128 10.8321 11.2442 10.7348 11.341L10.7354 11.3416ZM10.5627 10.4931C10.6889 10.5442 10.7898 10.6431 10.8433 10.7683H11.8246V10.7501C11.8246 10.7174 11.8295 10.6895 11.8295 10.6622C11.8295 10.3749 11.7449 10.094 11.5864 9.85442C11.4279 9.61483 11.2023 9.42714 10.9379 9.31484L10.5627 10.4931ZM8.48379 9.40939C8.48411 9.68642 8.5943 9.95204 8.79019 10.1479C8.98608 10.3438 9.25168 10.454 9.52871 10.4543H10.3542L10.7379 9.25121C10.6162 9.21768 10.4907 9.20038 10.3645 9.19971H8.69168C8.63685 9.19987 8.58427 9.22154 8.54528 9.26009C8.50628 9.29863 8.48398 9.35094 8.48318 9.40577L8.48379 9.40939ZM8.90139 9.61611C8.90155 9.58851 8.91259 9.56208 8.9321 9.54257C8.95162 9.52305 8.97804 9.51202 9.00564 9.51186C9.01941 9.51178 9.03306 9.51444 9.04581 9.51963C9.05857 9.52483 9.07017 9.53244 9.07996 9.54212C9.08976 9.5518 9.09755 9.56332 9.10289 9.57601C9.10823 9.5887 9.11102 9.60234 9.1111 9.61611C9.1111 9.64408 9.09999 9.67091 9.08021 9.69069C9.06044 9.71047 9.03361 9.72154 9.00564 9.72154C8.99156 9.72155 8.97762 9.71875 8.96466 9.71325C8.95169 9.70776 8.93997 9.6997 8.93018 9.68958C8.9204 9.67945 8.91275 9.66743 8.9077 9.65429C8.90265 9.64114 8.9003 9.62715 8.90079 9.61308L8.90139 9.61611ZM6.06242 8.04633L5.48178 6.72256H14.8509L14.2629 8.04508L6.06242 8.04633ZM13.5132 6.44134H5.89938L7.31887 5.94615H7.35341C7.40261 5.68453 7.53969 5.44762 7.74195 5.27457C7.94422 5.10151 8.19953 5.00273 8.46561 4.9946C8.54451 4.99468 8.62317 5.0034 8.70017 5.02064C8.79975 4.86351 8.93689 4.73361 9.09921 4.64272C9.26152 4.55183 9.44391 4.50279 9.62993 4.5C9.89374 4.50076 10.1481 4.59848 10.3445 4.77456C10.4751 4.71865 10.6158 4.68996 10.7579 4.69029C11.041 4.69165 11.3123 4.80345 11.5143 5.00185C11.5563 4.99646 11.5986 4.99387 11.641 4.99401C11.9235 4.99613 12.1943 5.10776 12.3962 5.30549C12.6067 5.51125 12.7404 5.78292 12.775 6.07525L13.7999 6.4389H13.5132V6.44134Z" fill="currentColor"/>
</svg>
