<svg width="24" height="24" viewBox="0 0 24 24" fill="currentColor" xmlns="http://www.w3.org/2000/svg">
<path d="M16.2713 20.6159H7.56456C7.00213 20.6152 6.44762 20.4804 5.94755 20.223C5.4383 19.9583 4.98809 19.594 4.62289 19.1513C4.23401 18.6787 3.93138 18.1408 3.72939 17.5631C3.51054 16.9403 3.39957 16.285 3.40116 15.6249C3.40251 15.307 3.42937 14.9897 3.48175 14.6761L4.22761 11.0903H19.813L20.3683 14.8726C20.4055 15.1217 20.4269 15.373 20.4318 15.6249C20.4337 16.2851 20.322 16.9405 20.1024 17.5631C19.9012 18.1411 19.5991 18.6792 19.2095 19.1513C18.845 19.5948 18.394 19.9591 17.8842 20.223C17.3851 20.4796 16.8325 20.6144 16.2713 20.6159ZM11.3774 16.9949C11.3158 16.9945 11.2549 17.0086 11.1997 17.036C11.1446 17.0634 11.0966 17.1032 11.0597 17.1525C11.0141 17.2119 10.9859 17.2827 10.9786 17.3572C10.9712 17.4317 10.9848 17.5071 11.018 17.5743L11.1303 17.796L11.018 18.0178C10.9847 18.0849 10.9712 18.1603 10.9786 18.2348C10.9859 18.3094 11.014 18.3802 11.0597 18.4395C11.0969 18.4889 11.145 18.529 11.2003 18.5566C11.2556 18.5842 11.3168 18.5989 11.3785 18.5989C11.4047 18.5985 11.4306 18.5953 11.4562 18.5901L12.4356 18.3936C12.7722 18.3861 13.1048 18.3194 13.4179 18.1954L12.7556 17.1137C12.6449 17.1593 12.5269 17.1848 12.4073 17.189L11.4544 16.9996C11.429 16.9952 11.4032 16.9935 11.3774 16.9943V16.9949ZM13.3861 16.1949C13.3852 16.459 13.2796 16.7119 13.0926 16.8984L13.782 18.0248C14.1208 17.8297 14.4151 17.5663 14.6467 17.2513C14.8782 16.9363 15.0416 16.5765 15.1267 16.1949H13.3861ZM13.4814 13.0026L12.7585 15.2643C13.0017 15.3624 13.1962 15.5524 13.3003 15.7931H15.1831V15.7625V15.7578C15.1867 15.6976 15.1914 15.6468 15.1914 15.5896C15.1918 15.0378 15.0296 14.498 14.7249 14.0379C14.4202 13.5778 13.9861 13.2177 13.4779 13.0026H13.4814ZM9.16862 12.7791C9.06228 12.7796 8.96007 12.8219 8.8851 12.8973C8.81013 12.9728 8.76847 13.0751 8.76863 13.1815C8.76927 13.7137 8.98108 14.2239 9.35744 14.6002C9.73379 14.9766 10.244 15.1884 10.7762 15.189H12.362L13.0991 12.8762C12.8653 12.8132 12.6247 12.7805 12.3826 12.7791H9.16862ZM9.77096 13.782C9.71738 13.7819 9.66584 13.7606 9.62802 13.7226C9.59019 13.6847 9.5692 13.6333 9.5692 13.5797C9.56952 13.5264 9.59078 13.4754 9.62861 13.4379C9.66643 13.4004 9.7177 13.3795 9.77096 13.3797C9.82405 13.3797 9.87453 13.4004 9.91213 13.4379C9.94973 13.4754 9.97138 13.5266 9.97154 13.5797C9.9717 13.6329 9.95064 13.6835 9.9133 13.7214C9.87596 13.7593 9.82533 13.7814 9.77213 13.782H9.77096ZM19.8689 10.5621H4.11643L3 8.02045H21L19.8689 10.5604V10.5621ZM18.9795 7.48105H3.80056L6.52694 6.52873H6.59165C6.68694 6.02612 6.95098 5.57115 7.33986 5.23877C7.72874 4.9064 8.21908 4.71641 8.7304 4.70056C8.88177 4.70111 9.03268 4.71806 9.18039 4.75114C9.37127 4.44927 9.63418 4.19947 9.94566 4.0247C10.2571 3.84992 10.6073 3.75562 10.9644 3.75C11.4724 3.75132 11.9622 3.93953 12.3403 4.27881C12.5911 4.17118 12.8615 4.1163 13.1344 4.11705C13.6779 4.12027 14.1988 4.33451 14.5867 4.71526C14.6666 4.70496 14.7467 4.70028 14.8273 4.70056C15.3704 4.70428 15.8909 4.91882 16.279 5.29877C16.6831 5.69434 16.94 6.21608 17.0072 6.77755L18.9765 7.47988L18.9795 7.48105Z" fill="currentColor"/>
</svg>
