<svg width="25" height="24" viewBox="0 0 25 24" fill="none" xmlns="http://www.w3.org/2000/svg">
<path d="M13.7313 12.461C13.7297 12.627 13.6634 12.786 13.5466 12.904L13.9795 13.6131C14.1927 13.4901 14.378 13.3242 14.5237 13.1259C14.6694 12.9276 14.7724 12.7011 14.826 12.461H13.7313Z" fill="#182230"/>
<path d="M13.6754 12.208C13.6094 12.0573 13.4876 11.938 13.3356 11.8752L13.7879 10.4515C14.1076 10.5875 14.3802 10.8144 14.572 11.1041C14.7637 11.3938 14.8661 11.7334 14.8664 12.0808C14.8664 12.1016 14.8649 12.1211 14.8634 12.1411C14.8618 12.1621 14.8602 12.1838 14.8602 12.208H13.6754Z" fill="#182230"/>
<path d="M13.334 13.0421C13.2643 13.0709 13.1899 13.087 13.1145 13.0894L12.5155 12.9699C12.4692 12.9608 12.4212 12.9648 12.377 12.9815C12.3328 12.9983 12.2942 13.027 12.2655 13.0646C12.2368 13.1022 12.2193 13.147 12.2148 13.194C12.2103 13.241 12.219 13.2884 12.2401 13.3307L12.3099 13.4704L12.2401 13.61C12.219 13.6523 12.2103 13.6997 12.2148 13.7467C12.2193 13.7938 12.2368 13.8386 12.2655 13.8761C12.2942 13.9137 12.3328 13.9425 12.377 13.9592C12.4212 13.9759 12.4692 13.9799 12.5155 13.9708L13.1315 13.8474C13.3443 13.8434 13.5546 13.8008 13.7522 13.7217L13.334 13.0421Z" fill="#182230"/>
<path fill-rule="evenodd" clip-rule="evenodd" d="M13.0974 10.3095C13.2499 10.31 13.4017 10.3304 13.549 10.37L13.0858 11.8286H12.0865C11.7514 11.8282 11.4302 11.6949 11.1932 11.458C10.9563 11.2211 10.823 10.8998 10.8226 10.5648C10.8223 10.5314 10.8286 10.4982 10.8412 10.4673C10.8537 10.4363 10.8723 10.4081 10.8958 10.3844C10.9194 10.3607 10.9473 10.3418 10.9782 10.329C11.009 10.3161 11.0421 10.3095 11.0755 10.3095H13.0974ZM11.3839 10.9182C11.4047 10.9321 11.4291 10.9395 11.4541 10.9395L11.4549 10.9418C11.4716 10.9417 11.4882 10.9383 11.5036 10.9318C11.519 10.9252 11.533 10.9157 11.5447 10.9037C11.5564 10.8917 11.5656 10.8775 11.5717 10.862C11.5779 10.8464 11.5809 10.8298 11.5806 10.813C11.5806 10.788 11.5732 10.7636 11.5593 10.7428C11.5454 10.722 11.5256 10.7058 11.5025 10.6962C11.4794 10.6866 11.454 10.6841 11.4295 10.689C11.4049 10.6939 11.3824 10.7059 11.3647 10.7236C11.347 10.7413 11.335 10.7638 11.3301 10.7884C11.3252 10.8129 11.3277 10.8383 11.3373 10.8614C11.3469 10.8845 11.3631 10.9043 11.3839 10.9182Z" fill="#182230"/>
<path fill-rule="evenodd" clip-rule="evenodd" d="M12.5 21.0188C11.3178 21.0216 10.1468 20.7901 9.05475 20.3372C7.9627 19.8844 6.97132 19.2195 6.13797 18.3809C5.29941 17.5476 4.63446 16.5559 4.18165 15.4639C3.72885 14.3718 3.49716 13.2009 3.50003 12.0187C3.49716 10.8365 3.72885 9.66561 4.18165 8.57355C4.63446 7.48149 5.29941 6.4902 6.13797 5.65687C6.97132 4.81834 7.9627 4.15335 9.05475 3.70055C10.1468 3.24775 11.3178 3.01582 12.5 3.01864C13.6822 3.01578 14.8533 3.24775 15.9453 3.70055C17.0374 4.15336 18.0288 4.8183 18.8621 5.65687C19.7007 6.4902 20.3655 7.48149 20.8183 8.57355C21.2712 9.66561 21.5028 10.8365 21.5 12.0187C21.5028 13.2009 21.2712 14.3718 20.8183 15.4639C20.3655 16.5559 19.7007 17.5476 18.8621 18.3809C18.0288 19.2195 17.0374 19.8844 15.9453 20.3372C14.8533 20.7901 13.6822 21.0216 12.5 21.0188ZM14.8734 16.8292C14.9546 17.0056 15.0837 17.1555 15.2459 17.2622C15.4082 17.3689 15.5971 17.428 15.7913 17.4327C16.0842 17.4162 16.3587 17.2847 16.555 17.0667C16.7513 16.8487 16.8536 16.5619 16.8394 16.2689C16.8467 16.0435 16.7882 15.8207 16.6713 15.6279C16.5544 15.4351 16.3839 15.2805 16.1807 15.1828C16.306 14.1303 16.3728 13.0718 16.3809 12.0119C16.3744 10.9903 16.3093 9.96995 16.1861 8.9558C16.387 8.85723 16.5553 8.70287 16.6711 8.51142C16.7869 8.31997 16.8454 8.0994 16.8394 7.87573C16.8534 7.58275 16.7511 7.29585 16.5548 7.0779C16.3585 6.85995 16.0841 6.72858 15.7913 6.71194C15.5889 6.7166 15.3924 6.78011 15.2257 6.89492C15.0591 7.00973 14.9297 7.17086 14.8533 7.35824C14.102 7.19522 13.3362 7.10794 12.5675 7.0976C11.8511 7.10434 11.1373 7.18596 10.4378 7.34119C10.3594 7.15802 10.2298 7.00119 10.0647 6.88961C9.89964 6.77804 9.70591 6.71641 9.5067 6.71194C9.21406 6.72878 8.93992 6.86032 8.74391 7.07828C8.5479 7.29623 8.44588 7.58295 8.46007 7.87573C8.4551 8.09445 8.51111 8.31023 8.62183 8.49892C8.73255 8.68761 8.89369 8.84171 9.08704 8.94406C8.94515 9.96063 8.86996 10.9855 8.86201 12.0119C8.87157 13.0761 8.94935 14.1383 9.09481 15.1926C8.89905 15.2936 8.73569 15.4479 8.62344 15.6374C8.51119 15.8269 8.45452 16.0442 8.46007 16.2644C8.44588 16.5571 8.5479 16.8435 8.74391 17.0614C8.93992 17.2794 9.21406 17.4113 9.5067 17.4281C9.6971 17.4236 9.88261 17.3668 10.0428 17.2637C10.2029 17.1607 10.3315 17.0154 10.4145 16.844C11.1175 17.0274 11.8403 17.1246 12.5668 17.1334C13.3445 17.1193 14.118 17.0149 14.8718 16.8228L14.8734 16.8292Z" fill="#182230"/>
</svg>
