<svg width="24" height="24" viewBox="0 0 24 24" fill="none" xmlns="http://www.w3.org/2000/svg">
<path d="M17.9535 9.85459C18.1974 9.32827 18.3335 8.74185 18.3335 8.12364C18.3335 7.50511 18.1972 6.91839 17.9531 6.39186H19.2756C19.7321 6.40176 20.1665 6.58852 20.4858 6.91214C20.8051 7.23575 20.9839 7.67049 20.9839 8.12322C20.9839 8.57596 20.8051 9.0107 20.4858 9.33431C20.1665 9.65793 19.7321 9.84469 19.2756 9.85459H17.9535Z" fill="#182230"/>
<path d="M10.4684 9.85536L4.72395 9.85541C4.26747 9.84551 3.83305 9.65876 3.51375 9.33514C3.19444 9.01153 3.01564 8.57679 3.01564 8.12405C3.01564 7.67132 3.19444 7.23658 3.51375 6.91297C3.83305 6.58935 4.26747 6.40259 4.72395 6.39269L10.4681 6.39264C10.2242 6.91897 10.0881 7.50541 10.0881 8.12364C10.0881 8.74215 10.2243 9.32885 10.4684 9.85536Z" fill="#182230"/>
<path d="M17.2127 8.12364C17.2127 9.78135 15.8687 11.1252 14.2108 11.1252C12.5529 11.1252 11.2089 9.78135 11.2089 8.12364C11.2089 6.46592 12.5529 5.12207 14.2108 5.12207C15.8687 5.12207 17.2127 6.46592 17.2127 8.12364Z" fill="#182230"/>
<path d="M6.04604 14.1454C5.80217 14.6717 5.66607 15.2581 5.66607 15.8763C5.66607 16.4949 5.80231 17.0816 6.04643 17.6081H4.72393C4.26746 17.5982 3.83304 17.4115 3.51373 17.0879C3.19443 16.7642 3.01562 16.3295 3.01562 15.8768C3.01562 15.424 3.19443 14.9893 3.51373 14.6657C3.83304 14.3421 4.26746 14.1553 4.72393 14.1454H6.04604Z" fill="#182230"/>
<path d="M13.5311 14.1446L19.2756 14.1446C19.7321 14.1545 20.1665 14.3412 20.4858 14.6648C20.8051 14.9885 20.9839 15.4232 20.9839 15.8759C20.9839 16.3287 20.8051 16.7634 20.4858 17.087C20.1665 17.4106 19.7321 17.5974 19.2756 17.6073L13.5314 17.6073C13.7753 17.081 13.9114 16.4946 13.9114 15.8763C13.9114 15.2578 13.7752 14.6711 13.5311 14.1446Z" fill="#182230"/>
<path d="M6.78688 15.8763C6.78688 14.2186 8.13088 12.8748 9.78877 12.8748C11.4467 12.8748 12.7907 14.2186 12.7907 15.8763C12.7907 17.5341 11.4467 18.8779 9.78877 18.8779C8.13088 18.8779 6.78688 17.5341 6.78688 15.8763Z" fill="#182230"/>
</svg>
