<svg width="24" height="24" viewBox="0 0 24 24" fill="none" xmlns="http://www.w3.org/2000/svg">
<path d="M6.12246 20.5483L5.82513 17.2725C5.81269 17.1415 5.85264 17.011 5.93622 16.9094C6.01981 16.8079 6.14023 16.7436 6.27112 16.7306L9.54696 16.4333C9.67835 16.4211 9.80918 16.4617 9.91067 16.5461C10.0121 16.6304 10.076 16.7516 10.0881 16.883C10.1002 17.0144 10.0597 17.1452 9.97532 17.2467C9.89098 17.3482 9.76978 17.412 9.63839 17.4241L7.47234 17.6196C8.6347 18.5845 10.0716 19.1586 11.5788 19.2603C13.0861 19.362 14.587 18.9861 15.8685 18.186C17.1499 17.386 18.1466 16.2024 18.717 14.8036C19.2874 13.4048 19.4025 11.8617 19.0459 10.3937C19.0304 10.3303 19.0276 10.2644 19.0376 10.1999C19.0476 10.1353 19.0702 10.0734 19.1041 10.0176C19.138 9.96179 19.1826 9.91321 19.2353 9.87463C19.288 9.83606 19.3478 9.80824 19.4113 9.79277C19.4747 9.7773 19.5406 9.77447 19.6051 9.78446C19.6697 9.79445 19.7316 9.81705 19.7874 9.85098C19.8432 9.8849 19.8918 9.92949 19.9304 9.98218C19.9689 10.0349 19.9968 10.0947 20.0122 10.1581C20.305 11.361 20.3209 12.6147 20.059 13.8246C19.797 15.0346 19.2639 16.1694 18.4998 17.1435C17.7358 18.1176 16.7606 18.9056 15.6479 19.4483C14.5351 19.9909 13.3138 20.274 12.0758 20.2763C11.9397 20.2763 11.7992 20.2725 11.6595 20.2651C9.9321 20.1827 8.27601 19.5515 6.93194 18.4633L7.10959 20.4569C7.12183 20.5878 7.08181 20.7182 6.99826 20.8197C6.91471 20.9212 6.79441 20.9856 6.6636 20.9988C6.64903 21.0004 6.63431 21.0004 6.61974 20.9988C6.49553 20.9995 6.37556 20.9536 6.2835 20.8702C6.19145 20.7869 6.13398 20.672 6.12246 20.5483ZM11.8959 15.296V10.6249H12.6161L12.7403 11.0456H12.7812C12.8777 10.8907 13.014 10.7643 13.1758 10.6796C13.3375 10.5949 13.519 10.555 13.7014 10.564C13.8766 10.5575 14.0506 10.5949 14.2077 10.6728C14.3648 10.7507 14.4999 10.8666 14.6008 11.01C14.8374 11.3763 14.9512 11.8085 14.9257 12.2439C14.9332 12.5516 14.8828 12.858 14.777 13.147C14.6923 13.3799 14.5414 13.5829 14.3429 13.7313C14.1489 13.8665 13.917 13.9365 13.6806 13.9312C13.5087 13.9387 13.3376 13.9049 13.1815 13.8326C13.0254 13.7603 12.8889 13.6516 12.7834 13.5157H12.7366C12.7678 13.787 12.7834 13.9439 12.7834 13.987V15.296H11.8959ZM12.9365 11.4701C12.818 11.6722 12.7633 11.9054 12.7797 12.1391V12.2357C12.759 12.4949 12.8129 12.7547 12.935 12.9842C12.9908 13.061 13.0653 13.1221 13.1515 13.1618C13.2377 13.2015 13.3326 13.2184 13.4271 13.211C13.8236 13.211 14.0218 12.8839 14.0218 12.2298C14.0369 11.9812 13.9856 11.7331 13.8731 11.511C13.8256 11.433 13.7577 11.3696 13.6767 11.3275C13.5958 11.2854 13.5048 11.2664 13.4137 11.2724C13.3241 11.2652 13.234 11.2798 13.1512 11.3148C13.0684 11.3499 12.9952 11.4044 12.938 11.4738L12.9365 11.4701ZM3.98168 13.7982C3.68081 12.561 3.67287 11.2706 3.9585 10.0298C4.24413 8.78898 4.81544 7.63196 5.62696 6.65081C6.43848 5.66967 7.46781 4.89149 8.63303 4.3782C9.79826 3.86491 11.0672 3.63068 12.3389 3.69416C14.0749 3.77459 15.739 4.41155 17.085 5.51084L17.0107 3.47339C17.0169 3.34894 17.0694 3.23133 17.1581 3.14376C17.2467 3.05619 17.3649 3.00502 17.4895 3.00035C17.614 2.99568 17.7357 3.03786 17.8306 3.11855C17.9256 3.19924 17.9868 3.31259 18.0023 3.43622L18.1242 6.68604V6.74774C18.1247 6.87658 18.0749 7.00054 17.9856 7.09336C17.8962 7.18619 17.7743 7.24058 17.6455 7.24502L14.3585 7.36693H14.3399C14.208 7.36929 14.0806 7.31917 13.9857 7.22758C13.8907 7.136 13.8361 7.01045 13.8337 6.87856C13.8313 6.74667 13.8815 6.61925 13.9731 6.52432C14.0646 6.42938 14.1902 6.37472 14.3221 6.37236L16.4629 6.29134C15.2958 5.34262 13.8604 4.78405 12.359 4.69432C10.8576 4.60459 9.36594 4.98823 8.09415 5.79119C6.82236 6.59414 5.83459 7.77593 5.27003 9.17C4.70546 10.5641 4.59257 12.1002 4.94726 13.5618C4.97821 13.6898 4.95719 13.8249 4.88879 13.9375C4.82038 14.05 4.71018 14.1309 4.58229 14.1624C4.54405 14.173 4.5045 14.178 4.46484 14.1773C4.35336 14.1778 4.24496 14.1407 4.15725 14.0719C4.06954 14.003 4.00766 13.9066 3.98168 13.7982ZM10.4323 13.8725L9.41911 12.2417H8.93966V13.8703H8.03949V9.62589H9.27639C9.7263 9.59277 10.175 9.70423 10.5571 9.94404C10.6985 10.058 10.8102 10.2046 10.8826 10.3712C10.955 10.5379 10.9859 10.7195 10.9727 10.9007C10.9766 11.1399 10.9045 11.3741 10.7668 11.5697C10.6181 11.7734 10.4158 11.9319 10.1825 12.0276C10.8213 12.9815 11.2375 13.598 11.4313 13.877L10.4323 13.8725ZM8.93966 11.5102H9.2303C9.4499 11.5259 9.66923 11.4763 9.86064 11.3675C9.9293 11.3163 9.9839 11.2485 10.0194 11.1706C10.0549 11.0926 10.0701 11.0069 10.0636 10.9215C10.0712 10.8377 10.056 10.7534 10.0194 10.6776C9.98291 10.6018 9.92648 10.5374 9.85618 10.4911C9.65683 10.3927 9.43504 10.3486 9.2132 10.3633H8.93966V11.5102Z" fill="#182230"/>
</svg>
