<svg width="24" height="24" viewBox="0 0 24 24" fill="currentColor" xmlns="http://www.w3.org/2000/svg">
<path d="M14.8882 8.58376C13.7385 8.58376 12.8047 7.65001 12.8047 6.50026V2.00476H5.87549C5.18399 2.00476 4.62524 2.56276 4.62524 3.25501V20.7548C4.62524 21.4463 5.18774 22.005 5.87549 22.005H18.1335C18.825 22.005 19.3837 21.447 19.3837 20.7548V8.58376H14.8882ZM11.3505 10.7333L13.5465 12.9293L15.9547 10.521C16.1175 10.3583 16.38 10.3583 16.542 10.521C16.704 10.6838 16.7047 10.95 16.542 11.1128L13.842 13.8128C13.6792 13.9755 13.413 13.9755 13.2502 13.8128L11.0542 11.6168L7.49624 15.1748C7.41674 15.258 7.30874 15.2955 7.20449 15.2955C7.09649 15.2955 6.99224 15.258 6.90899 15.1748C6.74624 15.012 6.74624 14.7495 6.90899 14.5875L10.7632 10.7333C10.926 10.5713 11.1885 10.5713 11.3505 10.7333ZM8.11724 20.3378H6.29249V16.584H8.11724V20.3378ZM11.3175 20.3378H9.49274V15.792H11.3175V20.3378ZM14.517 20.3378H12.6922V17.946H14.517V20.3378ZM17.7172 20.3378H15.8925V13.6793H17.7172V20.3378Z" fill="currentColor"/>
<path d="M14.8882 7.75047H19.2712C19.2089 7.61697 19.1249 7.49172 19.0169 7.38372C13.7347 2.10147 13.9672 2.26572 13.6379 2.12097V6.50022C13.6379 7.19172 14.1959 7.75047 14.8882 7.75047Z" fill="currentColor"/>
</svg>
