<svg width="24" height="24" viewBox="0 0 24 24" fill="currentColor" xmlns="http://www.w3.org/2000/svg">
<path d="M14.8854 8.58376H19.3906V20.7548C19.3906 21.4463 18.8311 22.005 18.1381 22.005H5.85235C5.1631 22.005 4.59985 21.447 4.59985 20.7548V3.25501C4.59985 2.56351 5.15935 2.00476 5.85235 2.00476H12.7974V6.50026C12.7974 7.65001 13.7326 8.58376 14.8854 8.58376ZM12.6361 12.8175V18.9233L13.7919 18.9218V17.2035C13.7919 17.148 13.7709 16.9425 13.7311 16.5893H13.7919C13.9299 16.7663 14.1084 16.9088 14.3124 17.0025C14.5164 17.0963 14.7399 17.1413 14.9641 17.1315C15.2724 17.139 15.5754 17.049 15.8289 16.8728C16.0884 16.68 16.2856 16.4153 16.3966 16.1108C16.5369 15.7335 16.6036 15.3338 16.5954 14.9318C16.6284 14.3633 16.4799 13.7985 16.1709 13.32C16.0389 13.1325 15.8626 12.9818 15.6571 12.8798C15.4516 12.7778 15.2244 12.729 14.9956 12.7373C14.7571 12.7253 14.5201 12.7778 14.3086 12.888C14.0971 12.9983 13.9194 13.164 13.7934 13.3665H13.7401L13.5766 12.8168H12.6361V12.8175ZM13.7904 14.7975V14.919C13.7634 15.258 13.8339 15.5978 13.9936 15.8978C14.0664 15.9975 14.1639 16.0778 14.2764 16.1295C14.3889 16.1813 14.5126 16.2038 14.6364 16.194C15.1539 16.194 15.4134 15.7665 15.4134 14.9123C15.4329 14.5875 15.3661 14.2635 15.2191 13.974C15.1569 13.872 15.0684 13.7888 14.9619 13.734C14.8554 13.6793 14.7369 13.6538 14.6176 13.662C14.5006 13.653 14.3829 13.6725 14.2749 13.719C14.1669 13.7655 14.0716 13.8368 13.9974 13.9283L13.9951 13.929C13.8406 14.1923 13.7694 14.4953 13.7896 14.7998L13.7904 14.7975ZM9.4006 14.9273L10.7244 17.055L12.0286 17.0543C11.7759 16.6905 11.2329 15.8858 10.3974 14.6385C10.7019 14.514 10.9659 14.307 11.1601 14.0415C11.3394 13.7873 11.4339 13.4828 11.4294 13.1708C11.4466 12.9345 11.4069 12.6983 11.3131 12.4808C11.2194 12.2633 11.0739 12.072 10.8901 11.9228C10.3906 11.6108 9.80485 11.4668 9.2176 11.511H7.59985V17.0535H8.77585V14.9258H9.40135L9.4006 14.9273ZM9.1546 13.9733C9.4411 13.9943 9.7276 13.9298 9.9781 13.7873C10.0681 13.7205 10.1394 13.632 10.1859 13.53C10.2324 13.428 10.2519 13.3163 10.2429 13.2045C10.2526 13.095 10.2331 12.9855 10.1851 12.8865C10.1371 12.7875 10.0636 12.7035 9.9721 12.6428C9.7111 12.5138 9.42085 12.4568 9.1306 12.4763H8.7751V13.9725H9.1546V13.9733Z" fill="currentColor"/>
<path d="M14.8628 7.75047H19.2458C19.1835 7.61697 19.0995 7.49172 18.9915 7.38372C13.7093 2.10147 13.9418 2.26572 13.6125 2.12097V6.50022C13.6125 7.19172 14.1705 7.75047 14.8628 7.75047Z" fill="currentColor"/>
</svg>
