<svg width="24" height="24" viewBox="0 0 24 24" fill="currentColor" xmlns="http://www.w3.org/2000/svg">
<path d="M14.2679 8.09396C14.3032 7.86896 14.4157 7.69721 14.5994 7.57571C14.7832 7.45421 15.0082 7.41596 15.2714 7.45796C15.5309 7.49996 15.7297 7.60721 15.8669 7.78271C16.0019 7.95671 16.0514 8.15471 16.0162 8.37971C15.9809 8.59946 15.8707 8.76746 15.6847 8.89046C15.5024 9.01196 15.2789 9.05021 15.0194 9.00821C14.7562 8.96621 14.5544 8.85896 14.4172 8.68721C14.2822 8.51321 14.2312 8.31671 14.2679 8.09396Z" fill="currentColor"/>
<path d="M14.7541 6.50176L14.9048 5.17126C15.3751 5.46976 15.7966 5.84026 16.1566 6.26701L16.0598 6.71626C16.0208 6.89326 15.8491 7.01101 15.6683 6.98326L15.0398 6.87976C14.8591 6.84826 14.7346 6.68326 14.7533 6.50251L14.7541 6.50176Z" fill="currentColor"/>
<path d="M19.6838 19.4924H4.18652L5.78927 17.2087C6.19127 16.6364 6.40727 15.9554 6.40727 15.2549V9.83245C6.40727 8.30695 7.02527 6.92545 8.02577 5.92495C8.80202 5.1487 9.80927 4.5997 10.9343 4.3957C11.259 4.3357 11.5905 4.3042 11.9333 4.3042C12.165 4.3042 12.3953 4.31845 12.6195 4.3462C13.2533 4.42495 13.8533 4.60945 14.4015 4.8832L14.2245 6.4402C14.1983 6.6757 14.265 6.89845 14.3985 7.07245C14.367 7.0897 14.3355 7.1077 14.3055 7.1272C13.998 7.3327 13.8015 7.6342 13.74 8.0047C13.68 8.37895 13.7678 8.7277 13.9995 9.0157C14.2208 9.2932 14.5335 9.4687 14.9333 9.5317C15.3285 9.59695 15.6795 9.5302 15.978 9.33145C16.287 9.12745 16.482 8.82745 16.5435 8.4607C16.6035 8.0902 16.5158 7.7392 16.287 7.4497C16.2645 7.42195 16.2413 7.39345 16.2165 7.3672C16.3935 7.2457 16.5308 7.0597 16.578 6.8332C17.136 7.6972 17.4608 8.72545 17.4608 9.8302V15.2527C17.4608 15.9532 17.6768 16.6342 18.0788 17.2064L19.683 19.4924H19.6838Z" fill="currentColor"/>
<path d="M11.7893 6.49795H11.7646C11.3063 6.49795 10.9343 6.12595 10.9343 5.6677V3.89995C10.9343 3.4417 11.3063 3.0697 11.7646 3.0697H11.7893C12.2476 3.0697 12.6196 3.4417 12.6196 3.89995V5.6677C12.6211 6.12595 12.2491 6.49795 11.7893 6.49795Z" fill="currentColor"/>
<path d="M11.8013 21.2093H11.7518C10.818 21.2093 10.0613 20.4526 10.0613 19.5188V19.4693C10.0613 18.5356 10.818 17.7788 11.7518 17.7788H11.8013C12.735 17.7788 13.4918 18.5356 13.4918 19.4693V19.5188C13.4918 20.4526 12.735 21.2093 11.8013 21.2093Z" fill="currentColor"/>
<path d="M15.8669 7.78125C16.0019 7.95525 16.0514 8.15325 16.0162 8.37825C15.9809 8.598 15.8707 8.766 15.6847 8.889C15.5024 9.0105 15.2789 9.04875 15.0194 9.00675C14.7562 8.96475 14.5544 8.8575 14.4172 8.68575C14.2822 8.514 14.2312 8.31675 14.2679 8.0925C14.3032 7.8675 14.4157 7.69575 14.5994 7.57425C14.7832 7.45275 15.0082 7.4145 15.2714 7.4565C15.5332 7.50075 15.7297 7.60725 15.8669 7.78125Z" fill="currentColor"/>
<path d="M16.6889 3.77399L16.1587 6.26699L16.0619 6.71624C16.0229 6.89324 15.8512 7.01099 15.6704 6.98324L15.0419 6.87974C14.8612 6.84974 14.7367 6.68324 14.7562 6.50249L14.9069 5.17199L15.0982 3.51449C15.1192 3.31949 15.3022 3.18299 15.4934 3.21599L16.4099 3.36524C16.6012 3.39524 16.7294 3.58124 16.6889 3.77399Z" fill="currentColor"/>
<path d="M15.8669 7.78125C15.7297 7.60725 15.5317 7.50075 15.2714 7.4565C15.0082 7.4145 14.7832 7.45275 14.5994 7.57425C14.4172 7.69575 14.3047 7.8675 14.2679 8.0925C14.2312 8.3175 14.2822 8.51175 14.4172 8.68575C14.5544 8.856 14.7562 8.96325 15.0194 9.00675C15.2789 9.04875 15.5024 9.0105 15.6847 8.889C15.8692 8.766 15.9794 8.59725 16.0162 8.37825C16.0529 8.15325 16.0019 7.95525 15.8669 7.78125ZM16.4092 3.363L15.4927 3.21375C15.2999 3.18225 15.1184 3.31875 15.0974 3.51225L14.9062 5.16975L14.7554 6.50025C14.7359 6.681 14.8604 6.8475 15.0419 6.8775L15.6704 6.981C15.8512 7.00875 16.0229 6.89175 16.0619 6.714L16.1587 6.26475L16.6889 3.77175C16.7294 3.5805 16.6012 3.3945 16.4099 3.363H16.4092Z" fill="currentColor"/>
</svg>
