<svg width="24" height="24" viewBox="0 0 24 24" fill="none" xmlns="http://www.w3.org/2000/svg">
<path d="M19.7588 13.1408H17.2883C17.0528 13.1408 16.8616 13.311 16.8616 13.5195V13.5953H13.1168C13.0876 13.4528 13.0313 13.317 12.9511 13.1963L15.5986 10.548L15.6518 10.6013C15.6856 10.6343 15.7253 10.6598 15.7688 10.677C15.8123 10.6943 15.8588 10.7025 15.9061 10.7018C16.0253 10.7003 16.1386 10.6515 16.2218 10.566L17.9686 8.81926C18.1351 8.65276 18.1501 8.39701 18.0016 8.24926L17.5741 7.82176C17.5403 7.78876 17.5006 7.76326 17.4571 7.74601C17.4136 7.72876 17.3671 7.72051 17.3198 7.72126C17.2006 7.72276 17.0873 7.77151 17.0041 7.85701L15.2573 9.60377C15.0908 9.77027 15.0758 10.0253 15.2236 10.1738L15.2768 10.227L12.6286 12.8745C12.5071 12.7943 12.3721 12.738 12.2296 12.7088V8.96401H12.3053C12.5146 8.96401 12.6841 8.77276 12.6841 8.53726V6.06676C12.6841 5.83126 12.5138 5.64001 12.3053 5.64001H11.6993C11.4901 5.64001 11.3206 5.83126 11.3206 6.06676V8.53726C11.3206 8.77276 11.4908 8.96401 11.6993 8.96401H11.7751V12.7088C11.6326 12.738 11.4968 12.7943 11.3761 12.8745L8.72781 10.227L8.78106 10.1738C8.92956 10.0253 8.91381 9.76952 8.74731 9.60377L7.00056 7.85701C6.91731 7.77226 6.80406 7.72351 6.68481 7.72126C6.63756 7.72051 6.59106 7.72876 6.54756 7.74601C6.50406 7.76326 6.46431 7.78951 6.43056 7.82176L6.00306 8.24926C5.85456 8.39701 5.87031 8.65351 6.03681 8.81926L7.78356 10.566C7.86681 10.6515 7.98006 10.7003 8.09931 10.7018C8.14656 10.7025 8.19306 10.6943 8.23656 10.677C8.28006 10.6598 8.31981 10.6335 8.35356 10.6013L8.40681 10.548L11.0543 13.1963C10.9741 13.3178 10.9178 13.4528 10.8886 13.5953H7.14456V13.5195C7.14456 13.3103 6.95331 13.1408 6.71781 13.1408H4.24731C4.01181 13.1408 3.82056 13.311 3.82056 13.5195V14.1255C3.82056 14.3348 4.01181 14.5043 4.24731 14.5043H6.71781C6.95331 14.5043 7.14456 14.334 7.14456 14.1255V14.0498H10.8886C10.9178 14.1923 10.9741 14.328 11.0543 14.4488L8.40681 17.097L8.35356 17.0438C8.31981 17.0108 8.28006 16.9853 8.23656 16.968C8.19306 16.9508 8.14656 16.9425 8.09931 16.9433C7.98006 16.9448 7.86681 16.9935 7.78356 17.079L6.03681 18.8258C5.87031 18.9923 5.85531 19.248 6.00381 19.3958L6.43131 19.8233C6.46506 19.8563 6.50481 19.8818 6.54831 19.899C6.59181 19.9163 6.63831 19.9245 6.68556 19.9238C6.80481 19.9223 6.91806 19.8735 7.00131 19.788L8.74806 18.0413C8.91456 17.8748 8.92956 17.6198 8.78181 17.4713L8.72856 17.418L11.3768 14.7705C11.4983 14.8508 11.6333 14.907 11.7758 14.9363V18.6803H11.7001C11.4908 18.6803 11.3213 18.8715 11.3213 19.107V21.5775C11.3213 21.813 11.4916 22.0043 11.7001 22.0043H12.3061C12.5153 22.0043 12.6848 21.813 12.6848 21.5775V19.107C12.6848 18.8715 12.5146 18.6803 12.3061 18.6803H12.2303V14.9363C12.3728 14.907 12.5086 14.8508 12.6293 14.7705L15.2776 17.418L15.2243 17.4713C15.0758 17.6198 15.0916 17.8755 15.2581 18.0413L17.0048 19.788C17.0881 19.8735 17.2013 19.9223 17.3206 19.9238C17.3678 19.9245 17.4143 19.9163 17.4578 19.899C17.5013 19.8818 17.5411 19.8555 17.5748 19.8233L18.0023 19.3958C18.1508 19.248 18.1351 18.9915 17.9686 18.8258L16.2218 17.079C16.1386 16.9935 16.0253 16.9448 15.9061 16.9433C15.8588 16.9425 15.8123 16.9508 15.7688 16.968C15.7253 16.9853 15.6856 17.0115 15.6518 17.0438L15.5986 17.097L12.9511 14.4488C13.0313 14.3273 13.0876 14.1923 13.1168 14.0498H16.8616V14.1255C16.8616 14.3348 17.0528 14.5043 17.2883 14.5043H19.7588C19.9943 14.5043 20.1856 14.334 20.1856 14.1255V13.5195C20.1856 13.311 19.9943 13.1408 19.7588 13.1408Z" fill="#404040"/>
<path d="M11.3986 17.4585V15.285L9.2251 17.4585H11.3986Z" fill="#404040"/>
<path d="M12.6099 15.2858V17.4593H14.7834L12.6099 15.2858Z" fill="#404040"/>
<path d="M7.51714 16.809C7.67164 16.653 7.88164 16.5645 8.10064 16.5623C8.18914 16.5623 8.27764 16.5773 8.36089 16.608L10.5411 14.4278H7.45864C7.33414 14.6955 7.04989 14.8823 6.72064 14.8823H4.24939C3.80539 14.8823 3.44389 14.5418 3.44389 14.1248V13.8218H2.75764C2.55814 13.8218 2.36689 13.9013 2.22514 14.0423C2.08339 14.1833 2.00464 14.3753 2.00464 14.5748C2.00464 14.9535 2.07889 15.3285 2.22439 15.678C2.36989 16.0275 2.58139 16.3455 2.84914 16.6133C3.11689 16.881 3.43489 17.0933 3.78439 17.238C4.13389 17.3828 4.50889 17.4578 4.88764 17.4578H6.86764L7.51714 16.8083V16.809Z" fill="#404040"/>
<path d="M21.2513 13.8225H20.565V14.1255C20.5643 14.2298 20.541 14.3333 20.4975 14.4285C20.454 14.5238 20.391 14.6085 20.3123 14.6768C20.1593 14.811 19.9628 14.8845 19.7595 14.883H17.289C16.9605 14.883 16.6755 14.6955 16.551 14.4285H13.4678L15.648 16.6088C15.7313 16.578 15.8198 16.563 15.9083 16.563C16.128 16.5653 16.3373 16.6538 16.4918 16.8098L17.1413 17.4593H19.1213C19.5 17.4593 19.875 17.385 20.2245 17.2395C20.574 17.094 20.892 16.8825 21.1598 16.6148C21.4275 16.347 21.6398 16.029 21.7845 15.6795C21.9293 15.33 22.0043 14.955 22.0043 14.5763C22.0043 14.3768 21.9248 14.1855 21.7838 14.0438C21.6428 13.902 21.4508 13.8233 21.2513 13.8233V13.8225Z" fill="#404040"/>
<path d="M14.2763 13.2165V12.4072L13.467 13.2165H14.2763Z" fill="#404040"/>
<path d="M11.3977 12.3593V9.27676C11.13 9.15226 10.9432 8.86801 10.9432 8.53876V6.06751C10.9432 5.62351 11.2837 5.26201 11.7007 5.26201H12.3067C12.7245 5.26201 13.0642 5.62351 13.0642 6.06751V8.53801C13.0642 8.86651 12.8767 9.15151 12.6097 9.27601V12.3593L14.2762 10.6928V3.20551C14.2762 2.88676 14.1495 2.58151 13.9245 2.35651C13.6995 2.13151 13.3942 2.00476 13.0755 2.00476H10.9312C10.6125 2.00476 10.3072 2.13151 10.0822 2.35651C9.85722 2.58151 9.73047 2.88676 9.73047 3.20551V10.6928L11.397 12.3593H11.3977Z" fill="#404040"/>
<path d="M9.7312 13.2165H10.5405L9.7312 12.4072V13.2165Z" fill="#404040"/>
</svg>
