<svg width="24" height="24" viewBox="0 0 24 24" fill="none" xmlns="http://www.w3.org/2000/svg">
<path d="M11.7 20.4C10.5572 20.4027 9.42524 20.1788 8.36959 19.7411C7.31394 19.3034 6.3556 18.6606 5.55003 17.8501C4.73944 17.0445 4.09669 16.0861 3.65898 15.0304C3.22127 13.9748 2.9973 12.8428 3.00002 11.7C2.9973 10.5572 3.22127 9.42524 3.65898 8.36959C4.09669 7.31394 4.73944 6.35561 5.55003 5.55004C6.3556 4.73946 7.31394 4.09673 8.36959 3.65902C9.42524 3.22131 10.5572 2.9973 11.7 3.00002C12.8428 2.99734 13.9748 3.22131 15.0304 3.65902C16.0861 4.09673 17.0444 4.73949 17.85 5.55004C18.6606 6.35559 19.3034 7.31394 19.7411 8.36959C20.1788 9.42525 20.4028 10.5572 20.4 11.7C20.4028 12.8428 20.1788 13.9749 19.7411 15.0305C19.3034 16.0862 18.6606 17.0445 17.85 17.8501C17.0444 18.6606 16.0861 19.3033 15.0304 19.741C13.9748 20.1787 12.8428 20.4027 11.7 20.4ZM5.27853 12.1868C5.26318 12.2889 5.25465 12.3918 5.25302 12.4951C5.39751 13.9303 6.07387 15.2594 7.14902 16.2211C8.34562 17.477 9.99003 18.2091 11.724 18.258C13.458 18.2092 15.1025 17.477 16.299 16.2211C17.3742 15.2594 18.0505 13.9303 18.195 12.4951C18.1933 12.3916 18.1848 12.2884 18.1695 12.1861C18.0413 12.7276 17.3138 13.2293 16.122 13.5998C14.6907 14.0041 13.2083 14.1989 11.721 14.1781C10.2335 14.1989 8.75089 14.0042 7.31928 13.5998C6.13203 13.2293 5.40453 12.7275 5.27703 12.1868H5.27853ZM11.706 10.578C10.5448 10.5683 9.38547 10.6751 8.24553 10.8968C7.72208 10.9891 7.21608 11.1619 6.74553 11.4091C6.46578 11.5763 6.32402 11.754 6.32402 11.934C6.32592 11.9707 6.33351 12.0069 6.34652 12.0413C6.56477 12.7426 8.91903 13.2923 11.706 13.2923C14.493 13.2923 16.8465 12.7426 17.0655 12.0413C17.078 12.0068 17.0854 11.9706 17.0873 11.934C17.0873 11.751 16.9455 11.5733 16.6658 11.4091C16.1953 11.1618 15.6893 10.989 15.1658 10.8968C14.0253 10.6753 12.8655 10.5687 11.7038 10.5788L11.706 10.578ZM13.1798 6.56399C13.0061 6.85852 12.8796 7.17841 12.8048 7.51202C12.8023 7.64168 12.8221 7.77083 12.8633 7.89379C12.9077 8.0237 12.9268 8.16089 12.9195 8.298C12.8886 8.43831 12.8413 8.5745 12.7785 8.70376C12.6721 8.89291 12.6201 9.10787 12.6285 9.32476C12.7013 9.58389 12.8307 9.82367 13.0073 10.0268V10.0207C12.8969 9.79419 12.8574 9.5396 12.894 9.29025C12.924 9.21525 13.0035 9.06975 13.0875 8.91525C13.2018 8.71672 13.302 8.51048 13.3875 8.298C13.4295 8.148 13.3238 7.98382 13.221 7.82632C13.1454 7.72555 13.0885 7.61198 13.053 7.49105C13.0404 7.17717 13.0826 6.86343 13.1775 6.56399H13.1798ZM10.8885 4.50378C10.6107 4.97305 10.4083 5.48301 10.2885 6.01504C10.2789 6.25121 10.294 6.48778 10.3335 6.72082C10.3777 6.97352 10.3918 7.23055 10.3755 7.48657C10.3356 7.68374 10.2713 7.87521 10.1843 8.05657C10.0404 8.31257 9.97832 8.60645 10.0065 8.89877C10.1222 9.31206 10.329 9.69415 10.6118 10.017V10.011C10.4368 9.64869 10.3733 9.24248 10.4295 8.84402C10.4783 8.72777 10.5908 8.5253 10.7108 8.31155C10.8716 8.04862 11.0101 7.77267 11.1248 7.48657C11.1449 7.14943 11.0628 6.81401 10.8893 6.52426C10.8041 6.34945 10.7368 6.16651 10.6883 5.97824C10.67 5.47889 10.7378 4.98017 10.8885 4.50378Z" fill="#182230"/>
</svg>
