<svg width="24" height="24" viewBox="0 0 24 24" fill="none" xmlns="http://www.w3.org/2000/svg">
<path d="M12 21C10.8178 21.0028 9.64655 20.7716 8.5545 20.3188C7.46245 19.866 6.47116 19.2011 5.63785 18.3625C4.79936 17.5292 4.13472 16.5375 3.68193 15.4455C3.22913 14.3535 2.99725 13.1826 3.00002 12.0004C2.99725 10.8182 3.22913 9.64729 3.68193 8.55526C4.13472 7.46322 4.79936 6.4716 5.63785 5.63823C6.47116 4.79967 7.46245 4.13473 8.5545 3.68193C9.64655 3.22913 10.8178 2.99716 12 3.00003C13.1822 2.99716 14.3531 3.22913 15.4451 3.68193C16.5372 4.13473 17.5285 4.79967 18.3618 5.63823C19.2003 6.4716 19.8653 7.46322 20.3181 8.55526C20.7709 9.64729 21.0028 10.8182 21 12.0004C21.0028 13.1826 20.7709 14.3535 20.3181 15.4455C19.8653 16.5375 19.2003 17.5292 18.3618 18.3625C17.5285 19.2011 16.5372 19.866 15.4451 20.3188C14.3531 20.7716 13.1822 21.0028 12 21ZM13.8449 15.3667C13.7999 15.3663 13.7554 15.3765 13.715 15.3963C13.6746 15.4161 13.6396 15.4446 13.6123 15.4804C13.5791 15.5234 13.5585 15.5755 13.5536 15.6296C13.5487 15.6838 13.5594 15.7381 13.5843 15.7865L13.6619 15.9478L13.5843 16.1077C13.5589 16.1567 13.5479 16.2118 13.5528 16.2668C13.5578 16.3218 13.5785 16.3739 13.6123 16.4176C13.6398 16.4531 13.675 16.4822 13.7154 16.5017C13.7557 16.5212 13.8001 16.531 13.8449 16.5305C13.8597 16.5305 13.8773 16.5305 13.9021 16.5305L14.6083 16.3858C14.8518 16.3815 15.0924 16.333 15.3182 16.2418L14.8413 15.4614C14.7615 15.4958 14.6758 15.5147 14.589 15.5167L13.9033 15.3781C13.8836 15.3737 13.8635 15.3713 13.8434 15.3705L13.8449 15.3667ZM15.2959 14.7894C15.294 14.9797 15.2184 15.1621 15.0849 15.2978L15.5811 16.1115C15.8257 15.9711 16.0386 15.7817 16.2058 15.5546C16.3731 15.3275 16.491 15.0676 16.5525 14.7924L15.2959 14.7894ZM15.3625 12.483L14.8443 14.1181C15.0172 14.1909 15.1559 14.327 15.2322 14.4984H16.59V14.4855C16.59 14.4367 16.5968 14.3979 16.5968 14.3529C16.5968 13.9536 16.4793 13.5628 16.2585 13.2301C16.0377 12.8973 15.7233 12.6374 15.3553 12.4823L15.3625 12.483ZM12.2481 12.3231C12.2101 12.323 12.1723 12.3306 12.1371 12.3451C12.1019 12.3596 12.0701 12.3804 12.0432 12.4072C12.0162 12.4341 11.9949 12.466 11.9803 12.5012C11.9657 12.5364 11.9579 12.5745 11.9579 12.6126C11.9584 12.9972 12.1114 13.3657 12.3834 13.6377C12.6554 13.9097 13.0242 14.0631 13.4089 14.0635H14.5564L15.0886 12.3921C14.9195 12.3473 14.7454 12.3242 14.5704 12.3231H12.2481ZM9.12389 10.057C9.07901 10.0568 9.03468 10.0669 8.99433 10.0865C8.95397 10.1061 8.91845 10.1344 8.8909 10.1699C8.85813 10.2131 8.83826 10.2651 8.83332 10.3191C8.82838 10.3731 8.83886 10.4275 8.86325 10.4759L8.94091 10.6381L8.86325 10.7972C8.83828 10.8463 8.82762 10.9014 8.83256 10.9563C8.8375 11.0112 8.85756 11.0632 8.8909 11.1071C8.91849 11.1425 8.95398 11.1716 8.99433 11.1912C9.03467 11.2108 9.07902 11.2209 9.12389 11.2207C9.14318 11.2205 9.16219 11.2178 9.18109 11.2139L9.88875 11.0715C10.1322 11.0678 10.3729 11.0194 10.5987 10.9283L10.1217 10.1464C10.042 10.1806 9.95623 10.1996 9.86943 10.2017L9.18109 10.0638C9.16162 10.0605 9.14208 10.0595 9.12237 10.0607L9.12389 10.057ZM10.5748 9.47886C10.573 9.66919 10.4973 9.85159 10.3638 9.98725L10.8601 10.8017C11.105 10.6607 11.3178 10.4703 11.4852 10.2426C11.6525 10.0149 11.7707 9.7547 11.8322 9.47886H10.5748ZM10.6438 7.17175L10.1233 8.80605C10.2961 8.87973 10.4347 9.01625 10.5112 9.18791H11.8712C11.8751 9.13438 11.8773 9.09054 11.8773 9.04244C11.8776 8.64376 11.7606 8.25372 11.5409 7.92109C11.3211 7.58846 11.0084 7.32784 10.6415 7.17175H10.6438ZM7.52937 7.01264C7.45241 7.01264 7.37884 7.04309 7.32442 7.0975C7.27001 7.15192 7.23918 7.22512 7.23918 7.30207C7.23939 7.6864 7.39194 8.05522 7.66348 8.3272C7.93502 8.59917 8.30353 8.75219 8.68785 8.75301H9.83534L10.3676 7.08159C10.1984 7.03684 10.0243 7.01375 9.84936 7.01264H7.52937ZM12.6842 13.046C12.6458 13.0456 12.6092 13.0301 12.5823 13.0028C12.5554 12.9754 12.5404 12.9388 12.5406 12.9005C12.541 12.8624 12.5562 12.826 12.583 12.799C12.6098 12.7719 12.6461 12.7558 12.6842 12.755C12.7229 12.755 12.7599 12.7709 12.7872 12.7982C12.8146 12.8256 12.83 12.8626 12.83 12.9012C12.8304 12.9209 12.8271 12.9398 12.8198 12.9581C12.8125 12.9763 12.8014 12.9934 12.7876 13.0073C12.7738 13.0213 12.7573 13.0324 12.7391 13.0399C12.7209 13.0474 12.7016 13.0507 12.6819 13.0505L12.6842 13.046ZM7.96541 7.73546C7.92686 7.73546 7.89008 7.72022 7.86275 7.69303C7.83541 7.66584 7.81976 7.62854 7.81956 7.58999C7.81976 7.55137 7.83544 7.51501 7.86275 7.4877C7.89006 7.46039 7.92679 7.44472 7.96541 7.44451C7.98446 7.44462 8.00354 7.44849 8.0211 7.45588C8.03866 7.46326 8.0543 7.47416 8.0677 7.4877C8.0811 7.50125 8.09194 7.51704 8.09914 7.53468C8.10634 7.55232 8.10985 7.57093 8.10975 7.58999C8.11037 7.60936 8.10724 7.62872 8.10028 7.64681C8.09331 7.6649 8.08266 7.68134 8.06921 7.6953C8.05576 7.70926 8.03968 7.72101 8.02186 7.72864C8.00403 7.73627 7.9848 7.73991 7.96541 7.74001V7.73546Z" fill="#182230"/>
</svg>
