<svg width="24" height="24" viewBox="0 0 24 24" fill="none" xmlns="http://www.w3.org/2000/svg">
<path d="M12 21C10.8178 21.0028 9.6468 20.7712 8.55475 20.3183C7.4627 19.8655 6.4713 19.2007 5.63796 18.3621C4.79942 17.5288 4.13451 16.5373 3.6817 15.4453C3.2289 14.3532 2.99721 13.1822 3.00003 12C2.99721 10.8178 3.2289 9.6468 3.6817 8.55475C4.13451 7.4627 4.79942 6.47132 5.63796 5.63797C6.4713 4.79944 7.4627 4.13455 8.55475 3.68175C9.6468 3.22894 10.8178 2.99721 12 3.00003C13.1822 2.99725 14.3532 3.22895 15.4453 3.68175C16.5373 4.13455 17.5287 4.79947 18.3621 5.63797C19.2007 6.47129 19.8656 7.46269 20.3184 8.55475C20.7712 9.6468 21.0029 10.8178 21 12C21.0029 13.1822 20.7712 14.3533 20.3184 15.4453C19.8656 16.5374 19.2007 17.5288 18.3621 18.3621C17.5287 19.2006 16.5373 19.8655 15.4453 20.3183C14.3532 20.7711 13.1822 21.0028 12 21ZM6.87933 16.1936V17.7453H16.9655V16.1936H6.87933ZM12.1893 9.32483C12.1373 9.71434 12.1402 10.1093 12.1979 10.498C12.3181 11.3904 12.6998 12.2273 13.2949 12.9032C13.4392 13.0373 13.5407 13.211 13.5867 13.4026C13.6328 13.5941 13.6215 13.7949 13.5541 13.98C13.3644 14.2916 13.097 14.5484 12.778 14.7253C12.459 14.9021 12.0994 14.9929 11.7347 14.9887C11.8045 14.9925 11.8829 14.9957 11.9752 14.9957C12.6502 14.996 13.3167 14.846 13.9265 14.5565C14.4498 14.331 14.8802 13.9332 15.1461 13.4292C15.2683 13.132 15.2966 12.8046 15.2273 12.4909C15.1579 12.1772 14.9942 11.8922 14.7582 11.6742C13.8144 10.602 13.2094 9.27418 13.0195 7.85844C12.9298 7.2413 12.9251 6.61486 13.0055 5.99645C12.0238 6.7911 11.1249 7.68289 10.3226 8.65836C9.70182 9.38843 9.21628 10.2234 8.88881 11.124C8.73261 11.5215 8.67059 11.9498 8.70761 12.3753C8.74463 12.8008 8.87968 13.212 9.10218 13.5765C9.36263 13.9777 9.71678 14.3096 10.1341 14.5433C9.97711 14.4185 9.84162 14.2688 9.73295 14.1003C9.59233 13.8707 9.50694 13.6117 9.48352 13.3435C9.46009 13.0753 9.49926 12.8053 9.59795 12.5548C9.80417 11.9879 10.11 11.4624 10.5011 11.0031C11.0056 10.39 11.5701 9.82879 12.1862 9.32796L12.1893 9.32483ZM11.5857 12.1599C11.5655 12.1762 9.74614 13.6115 10.356 14.5502C10.4567 14.6951 10.5925 14.8121 10.7507 14.8903C10.9089 14.9684 11.0844 15.0052 11.2606 14.9972C11.456 15.0095 11.6512 14.9704 11.8267 14.8836C12.0022 14.7969 12.1518 14.6657 12.2607 14.503C12.2991 14.4092 12.3079 14.3059 12.2859 14.207C12.2638 14.1081 12.212 14.0183 12.1373 13.9498C11.9257 13.7062 11.7673 13.4211 11.6723 13.1127C11.5773 12.8044 11.5478 12.4803 11.5857 12.1599Z" fill="#182230"/>
</svg>
