<svg width="24" height="24" viewBox="0 0 24 24" fill="none" xmlns="http://www.w3.org/2000/svg">
<path d="M11.5001 21.0002C10.3179 21.0031 9.14681 20.7711 8.05475 20.3183C6.96268 19.8654 5.97117 19.2005 5.13788 18.3619C4.29934 17.5286 3.63455 16.5377 3.18175 15.4456C2.72894 14.3536 2.49721 13.1819 2.50003 11.9997C2.49721 10.8175 2.72894 9.64661 3.18175 8.55456C3.63455 7.46251 4.29934 6.47161 5.13788 5.63826C5.97117 4.79966 6.96268 4.13474 8.05475 3.68194C9.14681 3.22913 10.3179 2.99712 11.5001 3.00003C12.6823 2.99721 13.8532 3.22913 14.9453 3.68194C16.0373 4.13474 17.0288 4.79972 17.8621 5.63826C18.7007 6.47161 19.3655 7.46251 19.8183 8.55456C20.2711 9.64661 20.5028 10.8175 20.5 11.9997C20.5028 13.1819 20.2711 14.3536 19.8183 15.4456C19.3655 16.5377 18.7007 17.5286 17.8621 18.3619C17.0288 19.2005 16.0373 19.8655 14.9453 20.3183C13.8532 20.7711 12.6823 21.003 11.5001 21.0002ZM8.70692 9.48271C8.50115 9.48271 8.30386 9.56376 8.15836 9.70926C8.01286 9.85476 7.93106 10.0528 7.93106 10.2586V15.5108C7.93106 15.7166 8.01286 15.9138 8.15836 16.0594C8.30386 16.2049 8.50115 16.2867 8.70692 16.2867H14.6748C14.8805 16.2867 15.078 16.2049 15.2235 16.0594C15.369 15.9138 15.4506 15.7166 15.4506 15.5108V10.2586C15.4506 10.0528 15.369 9.85476 15.2235 9.70926C15.078 9.56376 14.8805 9.48271 14.6748 9.48271H8.70692ZM9.99326 6.85888C9.52202 6.86791 9.06891 7.04228 8.71241 7.35061C8.71939 7.35061 9.47273 7.81562 9.6023 8.24467C9.70042 8.54825 9.83046 8.8406 9.99023 9.11676H13.2884C13.4238 8.83102 13.5447 8.53874 13.6508 8.24088C13.8059 7.80097 14.6121 7.34841 14.6198 7.34531C14.236 7.05003 13.7719 6.87775 13.2884 6.85054C12.7114 6.90422 12.1509 7.07227 11.6397 7.34531C11.1313 7.06841 10.5703 6.90171 9.99326 6.85585V6.85888ZM11.2478 14.5008C11.2117 14.5008 11.1761 14.492 11.1438 14.4758C11.1115 14.4596 11.0833 14.4365 11.0616 14.4076C11.0352 14.3727 11.019 14.3315 11.0148 14.2879C11.0106 14.2443 11.0183 14.1999 11.0375 14.1606L11.1027 14.0303L11.0375 13.9C11.0185 13.8606 11.0107 13.817 11.015 13.7734C11.0192 13.7299 11.0353 13.6887 11.0616 13.6537C11.0835 13.6251 11.1117 13.6017 11.144 13.5855C11.1763 13.5694 11.2117 13.5609 11.2478 13.5605C11.2634 13.5608 11.2791 13.5625 11.2944 13.5658L11.8522 13.678C11.9226 13.6751 11.9921 13.6602 12.0572 13.6333L12.4451 14.2644C12.2624 14.338 12.0677 14.3785 11.8708 14.3834L11.2984 14.497H11.2881C11.275 14.498 11.2617 14.498 11.2485 14.497L11.2478 14.5008ZM12.6554 14.1636L12.2519 13.5037C12.3608 13.3939 12.4221 13.2454 12.4226 13.0908H13.4413C13.3918 13.3143 13.2964 13.5251 13.1611 13.7098C13.0258 13.8945 12.8536 14.0491 12.6554 14.1636ZM13.4754 12.8582H12.3752C12.3135 12.7182 12.2005 12.6068 12.0595 12.5475L12.48 11.2292C12.7778 11.3549 13.032 11.5658 13.2106 11.8353C13.3891 12.1048 13.4842 12.4204 13.4839 12.7438C13.4839 12.7715 13.482 12.7996 13.4784 12.8271V12.862L13.4754 12.8582ZM11.8244 12.5051H10.8934C10.5818 12.5047 10.283 12.3807 10.0628 12.1603C9.84256 11.94 9.71881 11.6415 9.71861 11.3299C9.71861 11.2682 9.74315 11.2084 9.7868 11.1648C9.83045 11.1211 9.88967 11.0966 9.9514 11.0966H11.8314C11.9734 11.0969 12.1147 11.1159 12.2519 11.1526L11.8204 12.5074L11.8244 12.5051ZM10.309 11.4436C10.2934 11.4436 10.278 11.4467 10.2636 11.4527C10.2492 11.4586 10.2361 11.4674 10.2251 11.4784C10.2141 11.4895 10.2053 11.5027 10.1994 11.5171C10.1934 11.5315 10.1904 11.5469 10.1904 11.5625C10.1909 11.5937 10.2034 11.6233 10.2257 11.6451C10.2479 11.6669 10.2779 11.6787 10.309 11.6785C10.3244 11.6787 10.3397 11.6759 10.3539 11.6701C10.3682 11.6644 10.3813 11.656 10.3922 11.6451C10.4031 11.6343 10.4117 11.6215 10.4176 11.6072C10.4234 11.593 10.4264 11.5779 10.4263 11.5625C10.4268 11.5468 10.4242 11.531 10.4185 11.5163C10.4129 11.5016 10.4042 11.4883 10.3933 11.4769C10.3824 11.4656 10.3693 11.4566 10.3549 11.4504C10.3404 11.4442 10.3248 11.4406 10.309 11.4406V11.4436Z" fill="#182230"/>
</svg>
