<svg width="24" height="24" viewBox="0 0 24 24" fill="currentColor" xmlns="http://www.w3.org/2000/svg">
<path d="M16.9037 21H7.45455C6.80356 21 6.17923 20.7414 5.71892 20.2811C5.2586 19.8208 5 19.1964 5 18.5455V10.4634C5 9.81243 5.2586 9.18819 5.71892 8.72787C6.17923 8.26756 6.80356 8.00887 7.45455 8.00887H16.9045C17.5555 8.00887 18.1799 8.26756 18.6402 8.72787C19.1005 9.18819 19.3591 9.81243 19.3591 10.4634V18.5455C19.3591 18.8679 19.2956 19.1871 19.1722 19.485C19.0488 19.7828 18.8679 20.0535 18.6399 20.2814C18.4119 20.5093 18.1412 20.6901 17.8433 20.8134C17.5454 20.9367 17.2261 21.0001 16.9037 21ZM11.3352 15.7947C11.2662 15.7945 11.1981 15.8104 11.1362 15.8409C11.0743 15.8714 11.0203 15.9158 10.9785 15.9707C10.9277 16.0376 10.8966 16.1174 10.8886 16.2011C10.8807 16.2847 10.8962 16.369 10.9335 16.4444L11.0578 16.6899L10.9335 16.9353C10.8956 17.0103 10.8798 17.0946 10.8877 17.1783C10.8957 17.2619 10.9271 17.3416 10.9785 17.4082C11.0206 17.463 11.0747 17.5075 11.1367 17.5381C11.1987 17.5687 11.2669 17.5848 11.336 17.5849C11.3654 17.5848 11.3947 17.5817 11.4235 17.5759L12.5166 17.3574C12.8929 17.3497 13.2647 17.2738 13.6138 17.1333L12.8775 15.9264C12.7533 15.9768 12.6211 16.0046 12.4872 16.0083L11.4235 15.7956C11.3945 15.7925 11.3643 15.7922 11.3352 15.7947ZM13.5795 14.9005C13.5761 15.195 13.4588 15.4768 13.2522 15.6867L14.0213 16.9459C14.4 16.7279 14.7292 16.4335 14.9879 16.0813C15.2467 15.7292 15.4293 15.327 15.5243 14.9005H13.5795ZM13.685 11.3332L12.8807 13.8606C13.1503 13.9727 13.3665 14.1842 13.4845 14.4512H15.5881V14.3964C15.5881 14.3359 15.5955 14.2843 15.5955 14.2254C15.5956 13.6087 15.4141 13.0056 15.0737 12.4914C14.7332 11.9772 14.2488 11.5746 13.6809 11.334L13.685 11.3332ZM8.86673 11.0877C8.74788 11.088 8.63396 11.1352 8.54993 11.2193C8.46589 11.3033 8.41858 11.4172 8.41836 11.5361C8.41901 12.131 8.65556 12.7013 9.07612 13.122C9.49669 13.5427 10.0669 13.7795 10.6618 13.7804H12.4356L13.2587 11.1949C12.9972 11.125 12.7277 11.0889 12.4569 11.0877H8.86673ZM9.54009 12.2061C9.51055 12.2061 9.48129 12.2004 9.45399 12.1891C9.42669 12.1778 9.40188 12.1612 9.38099 12.1403C9.3601 12.1194 9.34352 12.0946 9.33221 12.0673C9.32091 12.04 9.31509 12.0108 9.31509 11.9812C9.31531 11.9217 9.33911 11.8646 9.38128 11.8226C9.42345 11.7806 9.48056 11.757 9.54009 11.757C9.59955 11.757 9.65657 11.7806 9.69861 11.8226C9.74065 11.8647 9.76427 11.9218 9.76427 11.9812C9.76384 12.0403 9.74015 12.0967 9.69833 12.1383C9.65651 12.18 9.59994 12.2035 9.54091 12.2037L9.54009 12.2061ZM15.2355 7.32731H8.93545V7.32242C8.62895 6.7947 8.37911 6.23606 8.19009 5.6558C7.93973 4.82289 6.50382 3.95233 6.48909 3.94333C7.17087 3.35374 8.03679 3.0202 8.93791 3C10.0426 3.08753 11.1162 3.40824 12.0879 3.94093C13.0643 3.42154 14.1342 3.10167 15.2355 3C16.1578 3.05355 17.0433 3.38119 17.7784 3.94093C17.7628 3.94911 16.2165 4.81558 15.9285 5.6534C15.7267 6.22198 15.4954 6.77964 15.2355 7.32412V7.32731Z" fill="currentColor"/>
</svg>
