<svg width="24" height="24" viewBox="0 0 24 24" fill="none" xmlns="http://www.w3.org/2000/svg">
<path d="M12.0845 12.4618C12.229 12.7121 12.549 12.7978 12.7993 12.6533C13.0495 12.5088 13.1353 12.1888 12.9908 11.9386L10.9391 8.38501H15.0424C15.3314 8.38501 15.5657 8.15074 15.5657 7.86175C15.5657 7.57277 15.3314 7.3385 15.0424 7.3385H10.9391L12.9908 3.78497C13.1353 3.53469 13.0495 3.21468 12.7993 3.07019C12.549 2.92569 12.229 3.01144 12.0845 3.26171L10.0328 6.81528L7.98118 3.26171C7.83669 3.01144 7.51668 2.92569 7.26641 3.07019C7.01614 3.21468 6.93039 3.53469 7.07489 3.78497L9.12653 7.3385H5.02326C4.73427 7.3385 4.5 7.57277 4.5 7.86175C4.5 8.15074 4.73427 8.38501 5.02326 8.38501H9.12654L7.07489 11.9386C6.9304 12.1888 7.01615 12.5088 7.26642 12.6533C7.51668 12.7978 7.8367 12.7121 7.98119 12.4618L10.0328 8.90825L12.0845 12.4618Z" fill="#182230"/>
<path d="M15.1086 11.4312C14.9329 11.1432 15.0166 10.7619 15.2955 10.5795C15.5743 10.397 15.9427 10.4825 16.1184 10.7705L18.5271 14.72C18.7027 15.0079 18.619 15.3893 18.3402 15.5717C18.0613 15.7542 17.6929 15.6687 17.5173 15.3807L15.1086 11.4312Z" fill="#182230"/>
<path d="M13.5507 14.9983C13.3802 14.7151 13.4716 14.3473 13.7548 14.1768C14.038 14.0064 14.4058 14.0977 14.5763 14.381L17.5436 19.3106C17.7141 19.5939 17.6227 19.9617 17.3394 20.1321C17.0562 20.3026 16.6884 20.2112 16.518 19.928L13.5507 14.9983Z" fill="#182230"/>
<path d="M9.94815 13.8763C9.66215 14.042 9.56455 14.4082 9.73025 14.6942L11.4459 17.656C11.6116 17.9421 11.9778 18.0396 12.2639 17.8739C12.5499 17.7082 12.6475 17.342 12.4818 17.056L10.7662 14.0942C10.6005 13.8082 10.2343 13.7106 9.94815 13.8763Z" fill="#182230"/>
</svg>
