<svg width="24" height="24" viewBox="0 0 24 24" fill="currentColor" xmlns="http://www.w3.org/2000/svg">
<path d="M9.1875 7.17188C9.96875 6.39062 10.9062 6 12 6C13.0938 6 14.0312 6.39062 14.8125 7.17188C15.5938 7.95312 15.9844 8.89062 15.9844 9.98438C15.9844 10.8281 15.4844 11.7031 14.4844 12.6094C13.4844 13.4844 12.9844 14.2812 12.9844 15H11.0156C11.0156 14.2812 11.1719 13.6719 11.4844 13.1719C11.7969 12.6406 12.1406 12.2656 12.5156 12.0469C12.8906 11.7969 13.2344 11.5 13.5469 11.1562C13.8594 10.8125 14.0156 10.4219 14.0156 9.98438C14.0156 9.45312 13.8125 9 13.4062 8.625C13 8.21875 12.5312 8.01562 12 8.01562C11.4688 8.01562 11 8.21875 10.5938 8.625C10.1875 9 9.98438 9.45312 9.98438 9.98438H8.01562C8.01562 8.89062 8.40625 7.95312 9.1875 7.17188ZM6.32812 17.6719C7.92188 19.2344 9.8125 20.0156 12 20.0156C14.1875 20.0156 16.0625 19.2344 17.625 17.6719C19.2188 16.0781 20.0156 14.1875 20.0156 12C20.0156 9.8125 19.2188 7.9375 17.625 6.375C16.0625 4.78125 14.1875 3.98438 12 3.98438C9.8125 3.98438 7.92188 4.78125 6.32812 6.375C4.76562 7.9375 3.98438 9.8125 3.98438 12C3.98438 14.1875 4.76562 16.0781 6.32812 17.6719ZM4.92188 4.96875C6.89062 3 9.25 2.01562 12 2.01562C14.75 2.01562 17.0938 3 19.0312 4.96875C21 6.90625 21.9844 9.25 21.9844 12C21.9844 14.75 21 17.1094 19.0312 19.0781C17.0938 21.0156 14.75 21.9844 12 21.9844C9.25 21.9844 6.89062 21.0156 4.92188 19.0781C2.98438 17.1094 2.01562 14.75 2.01562 12C2.01562 9.25 2.98438 6.90625 4.92188 4.96875ZM11.0156 18V15.9844H12.9844V18H11.0156Z" fill="currentColor"/>
</svg>
