<svg width="25" height="24" viewBox="0 0 25 24" fill="none" xmlns="http://www.w3.org/2000/svg">
<path d="M15.5312 11.2344C16.1562 10.6094 16.4688 9.85938 16.4688 8.98438C16.4688 7.89062 16.0781 6.95312 15.2969 6.17188C14.5156 5.39062 13.5781 5 12.4844 5C11.3906 5 10.4531 5.39062 9.67188 6.17188C8.89062 6.95312 8.5 7.89062 8.5 8.98438H10.4688C10.4688 8.45312 10.6719 7.98438 11.0781 7.57812C11.4844 7.17188 11.9531 6.96875 12.4844 6.96875C13.0156 6.96875 13.4844 7.17188 13.8906 7.57812C14.2969 7.98438 14.5 8.45312 14.5 8.98438C14.5 9.51562 14.2969 9.98438 13.8906 10.3906L12.6719 11.6562C11.8906 12.5 11.5 13.4375 11.5 14.4688V14.9844H13.4688C13.4688 13.9531 13.8594 13.0156 14.6406 12.1719L15.5312 11.2344ZM13.4688 18.9688V17H11.5V18.9688H13.4688ZM5.40625 4.95312C7.375 2.98438 9.73438 2 12.4844 2C15.2344 2 17.5781 2.98438 19.5156 4.95312C21.4844 6.89062 22.4688 9.23438 22.4688 11.9844C22.4688 14.7344 21.4844 17.0938 19.5156 19.0625C17.5781 21 15.2344 21.9688 12.4844 21.9688C9.73438 21.9688 7.375 21 5.40625 19.0625C3.46875 17.0938 2.5 14.7344 2.5 11.9844C2.5 9.23438 3.46875 6.89062 5.40625 4.95312Z" fill="#182230"/>
</svg>
