<svg width="24" height="24" viewBox="0 0 24 24" fill="currentColor" xmlns="http://www.w3.org/2000/svg">
<path d="M5.97357 8.95039C4.23737 10.0498 3 11.3141 3 12.1206C3 13.806 8.4042 17.49 12.4716 17.49C13.6908 17.4277 14.8829 17.154 15.9968 16.6875L14.2374 15.3294C14.0758 15.4287 13.906 15.5156 13.7293 15.5888C13.0714 15.8612 12.3476 15.9325 11.6493 15.7936C10.9509 15.6547 10.3095 15.3118 9.80602 14.8084C9.30255 14.3049 8.95968 13.6635 8.82077 12.9651C8.70474 12.3818 8.73538 11.7807 8.90743 11.2151L5.97357 8.95039Z" fill="currentColor"/>
<path d="M15.9485 12.4132C15.9506 12.3631 15.9516 12.313 15.9516 12.2628C15.9505 11.308 15.5706 10.3927 14.8953 9.7178C14.2201 9.04295 13.3048 8.66353 12.3502 8.6628C11.9907 8.66294 11.6352 8.71691 11.2952 8.82127L9.35639 7.32462C10.4091 6.96899 11.4801 6.75 12.4716 6.75C14.5726 6.85734 16.593 7.59242 18.2718 8.86019C19.878 10.0014 21 11.3418 21 12.1206C21 12.7691 20.222 13.8071 19.0338 14.7948L15.9485 12.4132Z" fill="currentColor"/>
<path d="M10.1883 12.2038C10.1852 12.3187 10.1912 12.4342 10.2066 12.5494C10.2761 13.0683 10.5316 13.5443 10.9257 13.8889C11.3199 14.2335 11.8257 14.4232 12.3492 14.4228C12.554 14.4229 12.7569 14.3939 12.9521 14.3372L10.1883 12.2038Z" fill="currentColor"/>
<path d="M4.79159 6.19423C4.35441 5.85676 4.27358 5.22877 4.61105 4.79159C4.94852 4.3544 5.5765 4.27357 6.01369 4.61104L20.4281 15.7379C20.8653 16.0753 20.9462 16.7033 20.6087 17.1405C20.2712 17.5777 19.6432 17.6585 19.206 17.321L4.79159 6.19423Z" fill="currentColor"/>
</svg>
