<svg width="24" height="24" viewBox="0 0 24 24" fill="none" xmlns="http://www.w3.org/2000/svg">
<path d="M13.3916 19.9784V15.6933H10.6095V19.9784H7.20638C6.79412 19.9961 6.39163 19.8498 6.08698 19.5715C5.78232 19.2932 5.6003 18.9056 5.58075 18.4934V12.8875L4.962 13.5271H3L12.0411 4.00342L21 13.5277H19.0374L18.4187 12.8802V18.4957C18.399 18.9083 18.2165 19.2963 17.9113 19.5746C17.6061 19.853 17.2029 19.999 16.7903 19.9807L13.3916 19.9784ZM10.2 9.81067C10.2213 10.2673 10.4227 10.6969 10.7601 11.0054C11.0974 11.3139 11.5433 11.4761 12 11.4565C12.4567 11.4759 12.9025 11.3137 13.2398 11.0052C13.5771 10.6968 13.7785 10.2673 13.8 9.81067C13.7788 9.35407 13.5775 8.9245 13.24 8.61617C12.9026 8.30784 12.4567 8.14592 12 8.16592C11.7738 8.15572 11.5478 8.19017 11.335 8.2673C11.1221 8.34444 10.9265 8.46275 10.7593 8.61548C10.5922 8.76821 10.4568 8.95237 10.3608 9.15744C10.2648 9.36251 10.2102 9.58448 10.2 9.81067Z" fill="#182230"/>
</svg>
