<svg width="24" height="24" viewBox="0 0 24 24" fill="currentColor" xmlns="http://www.w3.org/2000/svg">
<path d="M12.4562 9.43404C12.3424 10.286 12.3487 11.1499 12.4748 12.0002C12.7379 13.9523 13.5728 15.7828 14.8745 17.2611C15.19 17.5546 15.412 17.9345 15.5128 18.3535C15.6136 18.7724 15.5888 19.2117 15.4413 19.6166C15.0266 20.2981 14.4415 20.8599 13.7437 21.2467C13.0459 21.6336 12.2595 21.8322 11.4617 21.8229C11.6144 21.8313 11.7858 21.8382 11.9878 21.8382C13.4642 21.839 14.9222 21.5108 16.2559 20.8776C17.4007 20.3844 18.3422 19.5142 18.9238 18.4117C19.191 17.7617 19.2529 17.0455 19.1012 16.3593C18.9495 15.6731 18.5915 15.0498 18.0752 14.573C16.0108 12.2277 14.6874 9.32324 14.272 6.22653C14.0759 4.87663 14.0656 3.50638 14.2415 2.15369C12.0941 3.89187 10.1279 5.84253 8.37298 7.97623C7.0151 9.57316 5.95304 11.3995 5.23675 13.3695C4.89508 14.239 4.75943 15.1759 4.84039 16.1066C4.92136 17.0373 5.21676 17.9366 5.70345 18.734C6.27316 19.6116 7.04782 20.3374 7.96058 20.8488C7.61725 20.5757 7.32088 20.2483 7.08319 19.8797C6.77561 19.3775 6.58883 18.8109 6.53758 18.2242C6.48634 17.6376 6.57203 17.047 6.78789 16.4992C7.23897 15.2592 7.90796 14.1097 8.7633 13.105C9.86688 11.7639 11.1017 10.5364 12.4494 9.44088L12.4562 9.43404Z" fill="currentColor"/>
<path d="M11.1358 15.6353C11.0917 15.6709 7.11204 18.8104 8.44595 20.8639C8.66634 21.1807 8.96342 21.4367 9.30945 21.6076C9.65548 21.7786 10.0392 21.859 10.4248 21.8415C10.8521 21.8684 11.279 21.7828 11.6629 21.5931C12.0467 21.4034 12.3741 21.1163 12.6123 20.7605C12.6964 20.5554 12.7156 20.3295 12.6673 20.1131C12.6191 19.8968 12.5057 19.7004 12.3425 19.5505C11.8795 19.0177 11.533 18.3941 11.3252 17.7196C11.1174 17.045 11.0529 16.3362 11.1358 15.6353Z" fill="currentColor"/>
</svg>
