<svg width="24" height="24" viewBox="0 0 24 24" fill="none" xmlns="http://www.w3.org/2000/svg">
<path d="M11.7001 20.4002C10.5573 20.4029 9.42543 20.1794 8.36978 19.7417C7.31413 19.304 6.35552 18.6612 5.54995 17.8506C4.73933 17.0451 4.09655 16.0864 3.65884 15.0308C3.22113 13.9751 2.99726 12.8433 3.00003 11.7005C2.99734 10.5577 3.2215 9.42579 3.65921 8.37014C4.09691 7.3145 4.7394 6.35591 5.54995 5.55032C6.3555 4.7397 7.31375 4.09692 8.36941 3.6592C9.42507 3.22149 10.5573 2.99726 11.7001 3.00003C14.0068 3.00241 16.2181 3.92 17.8491 5.55105C19.4802 7.1821 20.3978 9.39381 20.4002 11.7005C20.4031 12.8433 20.1791 13.9751 19.7414 15.0308C19.3036 16.0865 18.6606 17.0451 17.8499 17.8506C17.0442 18.661 16.086 19.3033 15.0304 19.741C13.9748 20.1787 12.8429 20.4027 11.7001 20.4002ZM14.3207 12.6695V15.9302H15.8438C15.8527 14.8649 15.4556 13.8362 14.7331 13.0532C14.6032 12.9165 14.4645 12.7884 14.3181 12.6695H14.3207ZM10.0642 14.0325V15.9295H14.049V14.0325H10.0642ZM9.79434 12.6548C9.64184 12.7769 9.49804 12.91 9.3644 13.0525C8.64119 13.8352 8.2433 14.8639 8.25149 15.9295H9.79434V12.6548ZM13.5066 12.1304V13.76H14.049V12.3853C13.8743 12.288 13.693 12.2029 13.5066 12.1304ZM12.0487 11.8623C11.6504 11.8621 11.2547 11.9278 10.878 12.0572V13.7608H13.2345V12.0637C12.8529 11.9305 12.4515 11.8624 12.0473 11.8631L12.0487 11.8623ZM10.6081 12.1223C10.421 12.194 10.2392 12.2796 10.0642 12.3772V13.76H10.6081V12.1223ZM9.87966 9.52737C9.90458 10.0761 10.1404 10.5946 10.5377 10.9739C10.9351 11.3532 11.4635 11.5648 12.0128 11.5642C12.5622 11.5648 13.0906 11.3532 13.4879 10.9739C13.8853 10.5946 14.1207 10.0761 14.1457 9.52737H9.87966ZM12.1417 6.29226L8.52212 9.25784H15.642L12.1417 6.29226Z" fill="#182230"/>
</svg>
