<svg width="25" height="24" viewBox="0 0 25 24" fill="none" xmlns="http://www.w3.org/2000/svg">
<path d="M21.4999 7.6493C21.4987 7.21222 21.3246 6.79337 21.0155 6.48431C20.7065 6.17525 20.2876 6.00112 19.8506 6H5.1493C4.71222 6.00112 4.29337 6.17525 3.98431 6.48431C3.67525 6.79337 3.50112 7.21222 3.5 7.6493V12.1036H21.4999V7.6493Z" fill="#E22B3A" stroke="#CCCCCC" stroke-width="0.5" stroke-miterlimit="10"/>
<path d="M21.4999 16.6687C21.504 17.1111 21.3328 17.5372 21.0238 17.8539C20.7148 18.1705 20.293 18.352 19.8506 18.3588H5.14937C4.70697 18.352 4.2852 18.1705 3.97618 17.8539C3.66716 17.5372 3.496 17.1111 3.50007 16.6687V12.1042H21.4999V16.6687Z" fill="white" stroke="#CCCCCC" stroke-width="0.5" stroke-miterlimit="10"/>
</svg>
