<svg width="24" height="24" viewBox="0 0 24 24" fill="currentColor" xmlns="http://www.w3.org/2000/svg">
<path d="M20.8447 6.9255C20.7818 6.86492 20.7069 6.81815 20.6248 6.78816C20.5427 6.75817 20.4553 6.74563 20.3681 6.75134H20.3089C19.259 6.79967 18.2124 6.85134 17.1624 6.89883C16.9855 6.88909 16.8117 6.9489 16.6783 7.06549C16.63 7.11346 16.591 7.16997 16.5633 7.23215C16.5123 7.34452 16.501 7.47088 16.5313 7.59049C16.5616 7.71011 16.6316 7.81587 16.7299 7.89045L16.9924 8.15627C17.1733 8.34126 17.3583 8.52626 17.5432 8.70708L11.1977 15.0593L8.34703 12.2086C8.26288 12.1241 8.16288 12.0571 8.05277 12.0114C7.94267 11.9657 7.82462 11.9421 7.70539 11.9421C7.58617 11.9421 7.46812 11.9657 7.35802 12.0114C7.24791 12.0571 7.14791 12.1241 7.06376 12.2086L3.26645 16.0026C3.18199 16.0867 3.11498 16.1867 3.06926 16.2968C3.02354 16.4069 3 16.525 3 16.6442C3 16.7634 3.02354 16.8815 3.06926 16.9916C3.11498 17.1017 3.18199 17.2017 3.26645 17.2858L3.43311 17.4525C3.51726 17.5369 3.61725 17.6039 3.72736 17.6497C3.83747 17.6954 3.95552 17.7189 4.07474 17.7189C4.19396 17.7189 4.31201 17.6954 4.42212 17.6497C4.53223 17.6039 4.63222 17.5369 4.71638 17.4525L7.70039 14.4685L10.5511 17.3192C10.7218 17.4895 10.9532 17.5852 11.1944 17.5852C11.4356 17.5852 11.6669 17.4895 11.8377 17.3192L18.9957 10.1612L19.8056 10.967C19.8581 11.0328 19.9236 11.0871 19.998 11.1266C20.0724 11.166 20.1542 11.1897 20.2381 11.1961C20.3296 11.1966 20.4197 11.1737 20.4998 11.1295C20.5565 11.0984 20.6086 11.0597 20.6548 11.0145C20.7846 10.8722 20.8547 10.6854 20.8506 10.4928C20.8797 9.81286 20.9131 9.13206 20.9464 8.44793L20.9947 7.42381C21.0062 7.33487 20.9988 7.2445 20.973 7.15863C20.9471 7.07275 20.9034 6.99331 20.8447 6.9255Z" fill="currentColor"/>
</svg>
