<svg width="24" height="24" viewBox="0 0 24 24" fill="none" xmlns="http://www.w3.org/2000/svg">
<path fill-rule="evenodd" clip-rule="evenodd" d="M12 21C16.9706 21 21 16.9706 21 12C21 7.02944 16.9706 3 12 3C7.02944 3 3 7.02944 3 12C3 16.9706 7.02944 21 12 21ZM17.7499 8.02435C17.8046 8.04349 17.8545 8.07334 17.8965 8.112C17.9356 8.15527 17.9648 8.20597 17.982 8.26077C17.9992 8.31557 18.0042 8.37324 17.9965 8.43L17.9643 9.08356L17.9618 9.13277C17.9404 9.5528 17.9191 9.97092 17.9004 10.3885C17.9031 10.5114 17.8564 10.6306 17.7698 10.7214C17.7391 10.7503 17.7043 10.775 17.6665 10.7948C17.6131 10.823 17.5531 10.8377 17.4921 10.8374C17.4361 10.8332 17.3816 10.8181 17.332 10.793C17.2824 10.7678 17.2387 10.7331 17.2038 10.6911L16.6638 10.1769L11.8918 14.7449C11.778 14.8536 11.6237 14.9147 11.4629 14.9147C11.3021 14.9147 11.1479 14.8536 11.0341 14.7449L9.1336 12.9257L7.14425 14.83C7.08815 14.8839 7.02148 14.9266 6.94808 14.9558C6.87468 14.985 6.79598 15 6.71649 15C6.63701 15 6.55831 14.985 6.48491 14.9558C6.4115 14.9266 6.34484 14.8839 6.28874 14.83L6.17763 14.7236C6.12133 14.6699 6.07666 14.6061 6.04617 14.5358C6.01569 14.4656 6 14.3902 6 14.3141C6 14.2381 6.01569 14.1627 6.04617 14.0925C6.07666 14.0222 6.12133 13.9584 6.17763 13.9047L8.70917 11.4835C8.76527 11.4296 8.83194 11.3868 8.90534 11.3576C8.97875 11.3285 9.05745 11.3134 9.13693 11.3134C9.21641 11.3134 9.29511 11.3285 9.36852 11.3576C9.44192 11.3868 9.50858 11.4296 9.56469 11.4835L11.4651 13.3027L15.6955 9.24894C15.5722 9.13355 15.4488 9.01549 15.3283 8.89743L15.1533 8.7278C15.0878 8.68021 15.0411 8.61271 15.0209 8.53637C15.0007 8.46004 15.0082 8.3794 15.0422 8.30769C15.0607 8.26801 15.0867 8.23195 15.1189 8.20134C15.2078 8.12693 15.3237 8.08877 15.4416 8.09498C15.8289 8.07821 16.2155 8.06062 16.6022 8.04304C16.9144 8.02884 17.2266 8.01463 17.5393 8.00086H17.5787C17.6369 7.99721 17.6951 8.00522 17.7499 8.02435Z" fill="#182230"/>
</svg>
