<svg width="24" height="24" viewBox="0 0 24 24" fill="currentColor" xmlns="http://www.w3.org/2000/svg">
<path d="M21.1231 13.6253L13.7191 21.0308C13.4408 21.3075 13.0748 21.447 12.7118 21.447C12.3458 21.447 11.9798 21.3083 11.7023 21.0308L2.24934 11.5755C2.15184 11.4795 2.07159 11.3715 2.00784 11.2545C1.96959 11.6033 2.09259 11.9543 2.34159 12.2048L11.7953 21.66C12.2498 22.1138 12.9871 22.1138 13.4416 21.66L20.8471 14.2545C21.0376 14.0633 21.1501 13.8188 21.1801 13.5675C21.1621 13.5878 21.1426 13.6073 21.1246 13.6253H21.1231Z" fill="currentColor"/>
<path d="M20.9378 11.7945L11.4833 2.34079C11.2201 2.07754 10.8466 1.95679 10.4798 2.01454L4.08459 3.02404C3.58584 3.10204 3.19584 3.49354 3.11634 3.99229L2.10684 10.3868C2.04909 10.755 2.17134 11.1278 2.43384 11.391L11.8876 20.8448C12.3421 21.2993 13.0778 21.2993 13.5331 20.8448L20.9386 13.4408C21.3931 12.9863 21.3931 12.249 20.9386 11.7945H20.9378ZM7.09734 7.12729C6.64284 7.58179 5.90559 7.58179 5.45184 7.12729C4.99734 6.67354 4.99734 5.93704 5.45184 5.48179C5.90559 5.02729 6.64209 5.02729 7.09734 5.48179C7.55259 5.93629 7.55184 6.67354 7.09734 7.12729Z" fill="currentColor"/>
</svg>
