<svg width="24" height="24" viewBox="0 0 24 24" fill="currentColor" xmlns="http://www.w3.org/2000/svg">
<path d="M11.3303 16.1108H12.6525V9.88777H11.3303V16.1108Z" fill="currentColor"/>
<path d="M11.2914 7.94644C11.2584 8.04027 11.2449 8.13982 11.2517 8.23904C11.246 8.33602 11.2601 8.43314 11.2931 8.52453C11.326 8.61592 11.3772 8.69967 11.4434 8.77072C11.5181 8.83827 11.6057 8.89006 11.7009 8.92299C11.7961 8.95593 11.897 8.96935 11.9975 8.96244C12.0963 8.96875 12.1953 8.95502 12.2886 8.92207C12.382 8.88912 12.4677 8.83764 12.5407 8.77072C12.6069 8.69967 12.658 8.61592 12.691 8.52453C12.724 8.43314 12.738 8.33602 12.7324 8.23904C12.7391 8.13982 12.7256 8.04027 12.6927 7.94644C12.6597 7.85261 12.608 7.76648 12.5407 7.6933C12.4675 7.62665 12.3818 7.57535 12.2885 7.54242C12.1952 7.50949 12.0962 7.4956 11.9975 7.50158C11.897 7.49507 11.7963 7.50868 11.7011 7.5416C11.606 7.57451 11.5184 7.62609 11.4434 7.6933C11.3761 7.76648 11.3244 7.85261 11.2914 7.94644Z" fill="currentColor"/>
<path fill-rule="evenodd" clip-rule="evenodd" d="M8.55416 20.3194C9.64658 20.7719 10.8179 21.0032 12.0003 21C13.1826 21.0032 14.3539 20.7719 15.4462 20.3194C16.5385 19.8669 17.5302 19.2023 18.3639 18.3639C19.2022 17.5302 19.8669 16.5384 20.3193 15.4461C20.7718 14.3538 21.0032 13.1826 21 12.0003C21.0032 10.8179 20.7719 9.64665 20.3195 8.55422C19.867 7.46179 19.2023 6.46989 18.3639 5.63609C17.5302 4.7978 16.5384 4.13321 15.4461 3.68073C14.3538 3.22826 13.1826 2.99688 12.0003 3.00003C10.818 2.99675 9.64667 3.2279 8.55426 3.68027C7.46184 4.13263 6.46999 4.79724 5.63609 5.63546C4.79769 6.46927 4.13302 7.46101 3.68054 8.55344C3.22806 9.64587 2.99676 10.8173 3.00003 11.9997C2.99676 13.1821 3.22806 14.3535 3.68054 15.4459C4.13302 16.5384 4.79769 17.5301 5.63609 18.3639C6.46991 19.2023 7.46174 19.8669 8.55416 20.3194ZM9.04371 4.86178C9.98094 4.47357 10.9859 4.27521 12.0003 4.27812C13.0145 4.27538 14.0192 4.47389 14.9562 4.86209C15.8932 5.25029 16.7439 5.82052 17.459 6.53974C18.1783 7.25511 18.7485 8.10597 19.1367 9.04318C19.5249 9.98038 19.7233 10.9853 19.7206 11.9997C19.7235 13.0141 19.5251 14.0191 19.1369 14.9564C18.7487 15.8936 18.1784 16.7444 17.459 17.4596C16.7438 18.1789 15.8931 18.7492 14.9559 19.1374C14.0188 19.5256 13.014 19.7241 11.9997 19.7213C10.9852 19.7242 9.9803 19.5258 9.04307 19.1376C8.10585 18.7494 7.25496 18.179 6.53969 17.4596C5.82032 16.7444 5.25002 15.8936 4.86181 14.9564C4.4736 14.0191 4.27521 13.0141 4.27812 11.9997C4.27529 10.9852 4.47379 9.98025 4.8621 9.04302C5.25042 8.10579 5.82085 7.25495 6.54033 6.53974C7.2556 5.82036 8.10649 5.24999 9.04371 4.86178Z" fill="currentColor"/>
</svg>
