<svg width="24" height="24" viewBox="0 0 24 24" fill="none" xmlns="http://www.w3.org/2000/svg">
<path d="M12.0307 21.0006C10.2445 21.0004 8.4986 20.4705 7.01355 19.4781C5.52851 18.4857 4.37106 17.0753 3.68753 15.4251C3.00401 13.7749 2.82509 11.9592 3.17342 10.2073C3.52174 8.4555 4.38166 6.84627 5.64445 5.58311C7.34383 3.91671 9.63229 2.98845 12.0123 3.00011C14.3924 3.01177 16.6716 3.96241 18.3546 5.64539C20.0376 7.32836 20.9882 9.60761 20.9999 11.9877C21.0116 14.3677 20.0833 16.6562 18.4169 18.3555C17.5802 19.1968 16.5849 19.8637 15.4887 20.3177C14.3925 20.7717 13.2172 21.0038 12.0307 21.0006ZM11.6638 9.55639V16.2791H13.092V9.55639H11.6638ZM12.3868 6.97901C12.2784 6.97215 12.1697 6.98684 12.067 7.02223C11.9643 7.05762 11.8696 7.11301 11.7884 7.1852C11.7153 7.26412 11.659 7.35706 11.6229 7.45839C11.5869 7.55972 11.5717 7.66732 11.5784 7.77468C11.5729 7.87971 11.5886 7.9848 11.6247 8.0836C11.6608 8.18241 11.7165 8.27289 11.7884 8.34961C11.8691 8.42281 11.9636 8.47906 12.0663 8.51502C12.1691 8.55098 12.2781 8.56593 12.3868 8.55896C12.4936 8.56534 12.6005 8.55009 12.7013 8.51411C12.802 8.47814 12.8945 8.42218 12.9731 8.34961C13.0451 8.27291 13.1008 8.18243 13.1369 8.08362C13.173 7.98481 13.1887 7.87972 13.1831 7.77468C13.1898 7.66732 13.1747 7.55972 13.1386 7.45839C13.1025 7.35706 13.0462 7.26412 12.9731 7.1852C12.8939 7.11349 12.8012 7.05836 12.7004 7.02306C12.5996 6.98775 12.4927 6.97299 12.3861 6.97964L12.3868 6.97901Z" fill="#182230"/>
</svg>
