<svg width="24" height="24" viewBox="0 0 24 24" fill="none" xmlns="http://www.w3.org/2000/svg">
<path d="M20.7084 11.5833C21.974 11.5833 23 10.5573 23 9.29167C23 8.02601 21.974 7 20.7084 7C19.4427 7 18.4167 8.02601 18.4167 9.29167C18.4167 9.7411 18.5461 10.1603 18.7696 10.5141C18.4905 10.9361 18.2235 11.4162 17.969 11.8736L17.9682 11.8751C17.8747 12.0432 17.7829 12.2082 17.6928 12.3661C16.861 13.8248 16.018 14.982 14.5623 15.2328C13.8658 15.3528 13.3211 15.1446 12.8074 14.7186C12.259 14.2638 11.7714 13.5813 11.2407 12.776C11.1721 12.6719 11.1024 12.565 11.0315 12.4564L11.0309 12.4555C10.5859 11.7734 10.0954 11.0217 9.55277 10.4463C8.9004 9.75447 8.05782 9.18984 6.96535 9.28538C6.1412 9.35746 5.50888 10.0238 5.07782 10.6248C4.61606 11.2687 4.21618 12.0778 3.89353 12.8366C3.6709 13.3602 3.47713 13.8787 3.3187 14.3335L3.29167 14.3333C2.02601 14.3333 1 15.3593 1 16.625C1 17.8907 2.02601 18.9167 3.29167 18.9167C4.55732 18.9167 5.58333 17.8907 5.58333 16.625C5.58333 15.9723 5.31043 15.3833 4.87249 14.9659C5.01876 14.5468 5.19536 14.0753 5.39572 13.6041C5.69598 12.898 6.0331 12.2323 6.38076 11.7476C6.75913 11.22 7.00867 11.104 7.09717 11.0963C7.53011 11.0584 7.92897 11.252 8.40039 11.7519C8.82577 12.203 9.21626 12.7999 9.67062 13.4943L9.67126 13.4953C9.74477 13.6076 9.81995 13.7225 9.89722 13.8398C10.4214 14.6352 11.0373 15.5287 11.8075 16.1674C12.6123 16.8349 13.6012 17.2374 14.8197 17.0275C17.0675 16.6401 18.2557 14.8065 19.0982 13.329C19.2149 13.1245 19.3233 12.9297 19.4266 12.7444L19.4272 12.7432C19.6873 12.2761 19.9143 11.8684 20.1543 11.5159C20.3317 11.56 20.5173 11.5833 20.7084 11.5833Z" fill="#404040"/>
</svg>
