<svg width="24" height="24" viewBox="0 0 24 24" fill="none" xmlns="http://www.w3.org/2000/svg">
<path d="M14.6843 10.3681H8.93394V4.5H10.8571V7.6727H12.757V4.5H14.6802V10.3675L14.6843 10.3681Z" fill="#404040"/>
<path d="M12.3735 4.5H11.2441V7.28748H12.3735V4.5Z" fill="#404040"/>
<path d="M11.6282 16.8545H5.87781V10.9864H7.80101V14.1591H9.7009V10.9864H11.6241V16.8539L11.6282 16.8545Z" fill="#404040"/>
<path d="M9.31746 10.987H8.18801V13.7745H9.31746V10.987Z" fill="#404040"/>
<path d="M18.1222 16.8545H12.3718V10.9864H14.295V14.1591H16.1949V10.9864H18.1181V16.8539L18.1222 16.8545Z" fill="#404040"/>
<path d="M15.8114 10.987H14.682V13.7745H15.8114V10.987Z" fill="#404040"/>
<path d="M21 17.5131H3V19.0534H21V17.5131Z" fill="#404040"/>
</svg>
