<svg width="24" height="24" viewBox="0 0 24 24" fill="none" xmlns="http://www.w3.org/2000/svg">
<path d="M18.3556 19.6005H4.64439C4.07566 19.6005 3.53023 19.3745 3.12808 18.9723C2.72592 18.5702 2.5 18.0248 2.5 17.4561V6.14439C2.5 5.57566 2.72592 5.03022 3.12808 4.62806C3.53023 4.22591 4.07566 4 4.64439 4H18.3556C18.9243 4 19.4698 4.22591 19.8719 4.62806C20.2741 5.03022 20.5 5.57566 20.5 6.14439V17.4561C20.5 18.0248 20.2741 18.5702 19.8719 18.9723C19.4698 19.3745 18.9243 19.6005 18.3556 19.6005ZM9.26126 14.2302C9.20252 14.2349 9.14581 14.2538 9.096 14.2853C9.0462 14.3168 9.00479 14.36 8.97534 14.4111C8.94464 14.4798 8.93182 14.5551 8.93806 14.6301C8.94431 14.7051 8.96943 14.7772 9.01108 14.8399C9.17681 15.0017 9.35805 15.1467 9.55218 15.273C10.1448 15.655 10.8309 15.8672 11.5357 15.8864C11.6063 15.8839 11.676 15.8703 11.7423 15.8463C11.7919 15.828 11.8439 15.8172 11.8967 15.8142C12.3495 15.7349 12.7728 15.5357 13.1226 15.2374C13.4056 15.022 13.6344 14.7437 13.791 14.4244C13.9476 14.1051 14.0276 13.7538 14.0247 13.3982V7.84351C14.0291 7.78688 14.0134 7.73044 13.9803 7.68427C13.9472 7.6381 13.8989 7.60515 13.8438 7.59117C13.7972 7.57865 13.7492 7.57187 13.7009 7.5711C13.6513 7.56975 13.6021 7.58079 13.5578 7.60312C13.5135 7.62546 13.4755 7.65843 13.4471 7.69911V7.73479C13.4037 7.86546 13.3898 8.00411 13.4064 8.14079C13.4064 8.18511 13.4107 8.23092 13.4107 8.27595V13.2531C13.4111 13.2627 13.4122 13.2722 13.4142 13.2816C13.4214 13.3209 13.4299 13.3688 13.3742 13.3967V13.4325C13.3512 13.6873 13.275 13.9344 13.1507 14.1579C13.0263 14.3815 12.8566 14.5766 12.6523 14.7306C12.3307 15.0073 11.9176 15.1543 11.4936 15.143C11.3135 15.1416 11.1338 15.1243 10.9568 15.0915C10.3732 14.9846 9.83407 14.7084 9.40636 14.2974C9.38846 14.2762 9.36612 14.2591 9.34092 14.2475C9.31572 14.2359 9.28829 14.23 9.26054 14.2302H9.26126Z" fill="#404040"/>
</svg>
