<svg width="24" height="24" viewBox="0 0 24 24" fill="currentColor" xmlns="http://www.w3.org/2000/svg">
<path d="M10.9731 19.3249C10.216 19.3249 9.43044 19.2634 8.90495 19.2121C9.5 19.0263 11.4932 18.4016 12.4564 18.0916C13.5148 18.0065 15.3877 17.8409 15.9362 17.7923H15.9645C16.2616 17.492 16.4865 17.128 16.622 16.7279C16.7575 16.3278 16.8001 15.9021 16.7467 15.483C16.6176 14.6827 16.1772 13.9658 15.5214 13.4891C15.9466 13.3307 16.348 13.1146 16.7143 12.8468C17.0306 13.3832 17.2372 13.9771 17.3221 14.5941C17.4198 15.148 17.4014 15.7162 17.268 16.2627C17.1347 16.8091 16.8893 17.322 16.5474 17.7687C16.5238 17.7822 14.0983 19.1242 12.6847 19.1431C12.1256 19.2843 11.5493 19.3455 10.9731 19.3249ZM8.49835 19.1689L8.29977 19.1451H8.29234C7.82862 18.8214 7.44048 18.4013 7.1546 17.9133C6.86871 17.4254 6.69186 16.8814 6.63619 16.3186C6.52817 15.5273 6.61178 14.7216 6.88002 13.9694C7.25892 14.3103 7.68843 14.5904 8.15321 14.7995C7.57491 15.5249 7.28935 16.4405 7.35283 17.366C7.39172 17.735 7.51564 18.09 7.71487 18.4031C7.9141 18.7161 8.18322 18.9787 8.50105 19.1702L8.49835 19.1689ZM8.50375 14.3057C7.99893 14.0596 7.53635 13.735 7.1333 13.344C7.18869 13.2244 7.2434 13.1136 7.30014 13.0062C7.42259 13.0363 7.54823 13.0515 7.67433 13.0514C7.73981 13.0515 7.80522 13.0474 7.8702 13.0392C8.07402 13.0151 8.27106 12.9509 8.45003 12.8504C8.62899 12.7499 8.78634 12.6151 8.91306 12.4537C9.04023 12.2945 9.1343 12.1116 9.18974 11.9156C9.24519 11.7196 9.26088 11.5144 9.23592 11.3122C9.20156 11.0432 9.09738 10.7879 8.93374 10.5717C8.7701 10.3554 8.55269 10.1858 8.30315 10.0796C8.40109 9.35015 8.50578 8.46671 8.59223 7.75684L8.59966 7.69533V7.68989C8.703 6.82939 8.80229 6.01681 8.8293 5.96075C8.8293 5.9567 8.83538 5.95613 8.83538 5.95613C8.9351 6.2762 9.00542 6.60461 9.04545 6.93745C9.04545 6.9334 9.05085 6.93283 9.05085 6.93283C9.08817 7.04357 9.1091 7.15903 9.11298 7.27582V7.28605L9.11704 7.31441V7.33469L9.12311 7.37856C9.13595 7.47379 9.15352 7.60344 9.17378 7.73177V7.73853C9.17851 7.7696 9.18323 7.8 9.18863 7.82972C9.22082 8.06462 9.28185 8.29459 9.37032 8.51455C9.41292 8.60891 9.46378 8.69942 9.5223 8.78482L9.5277 8.79356L9.5635 8.84352L9.5743 8.85705L9.58511 8.87123L9.59862 8.88805L9.6128 8.90503L9.62226 8.91575L9.63104 8.92663C9.72984 9.04815 9.85535 9.14517 9.9978 9.21026V9.2063L9.99375 9.19674C9.78724 8.84609 9.63833 8.46467 9.55269 8.06685C9.53716 7.81897 9.46083 7.20693 9.33047 6.29781C9.27577 5.91754 9.23389 5.63923 9.22848 5.60275V5.59748C9.23271 5.5935 9.23771 5.59038 9.24317 5.58841C9.24863 5.58643 9.25444 5.58558 9.26023 5.58593C9.47502 5.58593 10.3038 6.64847 10.9832 7.63662C11.2669 6.75857 11.8052 5.26652 12.0133 5.26652C12.0189 5.26648 12.0244 5.26755 12.0295 5.26982V5.30363C12.041 5.39684 12.0727 5.63798 12.118 5.96421C12.2037 6.58561 12.3206 7.39142 12.3881 7.70077C12.3881 7.71495 12.3935 7.72849 12.3956 7.742V7.75008C12.4072 8.14328 12.3674 8.53628 12.2774 8.91921C12.3899 8.81272 12.4789 8.68385 12.5388 8.54093V8.53764L12.5475 8.51735V8.50515L12.5529 8.49097L12.559 8.47547L12.5692 8.4504V8.42138C12.5739 8.40787 12.5786 8.39647 12.5827 8.38296L12.5881 8.36729C12.6182 8.26921 12.6408 8.16905 12.6556 8.06751C12.6789 7.83359 12.6737 7.59769 12.6401 7.36503V7.35415L12.636 7.31507V7.28869C12.636 7.28261 12.636 7.27661 12.636 7.27121C12.6212 7.15368 12.6022 7.01787 12.5766 6.84428L12.5732 6.81922V6.80504C12.5494 6.69704 12.5381 6.5868 12.5394 6.47623C12.5442 6.47623 12.5469 6.47623 12.5469 6.47623C12.4961 6.14867 12.4722 5.81746 12.4753 5.48601H12.4807C12.5253 5.53329 12.8589 6.32954 13.1811 7.10021L13.1878 7.11653L13.2155 7.18398V7.19074C13.5161 7.90737 13.8558 8.71923 14.1551 9.40006C13.9746 9.56183 13.8357 9.76476 13.7503 9.99155C13.6648 10.2183 13.6352 10.4623 13.664 10.7029C13.7111 11.0696 13.8905 11.4064 14.1685 11.6501C14.4465 11.8938 14.8039 12.0274 15.1736 12.0261C15.2371 12.0268 15.3005 12.0231 15.3634 12.0147C15.5647 11.9907 15.7591 11.9268 15.9355 11.8269C16.0706 11.9762 16.1982 12.1301 16.3158 12.2855C15.8812 12.6083 15.3974 12.8593 14.8832 13.0285C14.7925 12.9641 14.7069 12.8928 14.6272 12.8151C14.1648 12.0399 13.7476 11.2385 13.3776 10.4152C13.0825 9.80729 12.8495 9.32654 12.8143 9.29749H12.8056C12.792 9.53139 12.8022 9.76597 12.8359 9.99782H12.8312C12.8275 10.0797 12.8347 10.1618 12.8528 10.2417C12.865 10.3309 12.8805 10.4443 12.8927 10.5544C12.8927 10.5773 12.8967 10.6004 12.8994 10.622C12.9206 10.7881 12.9174 10.9565 12.89 11.1218C12.8737 11.1961 12.8511 11.2688 12.8224 11.3393V11.3515C12.8164 11.3657 12.8103 11.379 12.8035 11.3919C12.7968 11.4047 12.7907 11.4183 12.7839 11.4311L12.7657 11.4656C12.7046 11.5779 12.6214 11.6766 12.5212 11.756C12.6102 11.4846 12.6578 11.2014 12.6624 10.9158C12.6624 10.9037 12.659 10.8921 12.6563 10.882C12.607 10.6645 12.532 10.0978 12.478 9.66142C12.4462 9.40679 12.4226 9.20497 12.4192 9.17728C12.4178 9.17563 12.416 9.17431 12.414 9.17349C12.412 9.17266 12.4099 9.17231 12.4077 9.1725C12.2287 9.1725 11.7073 10.2721 11.427 10.9226C10.8745 10.2708 10.1923 9.57172 9.9951 9.57172C9.98302 9.57117 9.97111 9.57467 9.96132 9.58178C9.96132 9.58178 9.9647 9.60684 9.97078 9.64939C9.98226 9.73314 10.0039 9.88973 10.0282 10.0761C10.0863 10.5192 10.1565 11.0954 10.1633 11.321C10.2295 11.604 10.3502 11.8715 10.5186 12.1085H10.5138C10.3999 12.0713 10.2953 12.0101 10.2072 11.929L10.191 11.9133L10.1788 11.9019L10.1498 11.8722C10.141 11.8628 10.1322 11.854 10.1241 11.8439L10.118 11.8371C10.0702 11.7801 10.0282 11.7184 9.9924 11.6532C9.92297 11.5022 9.87739 11.3415 9.85731 11.1765L9.8465 11.1076C9.82962 10.9948 9.81611 10.8826 9.80598 10.7921C9.80566 10.7085 9.79104 10.6256 9.76275 10.5469C9.76275 10.5469 9.75937 10.547 9.75735 10.5511C9.7408 10.3159 9.68982 10.0844 9.60605 9.86409C9.60605 9.86409 9.602 9.86416 9.59997 9.86821C9.57363 9.90941 9.46488 10.4605 9.33385 11.1582C9.17845 12.1072 8.97238 13.0471 8.71651 13.974C8.65029 14.0939 8.57581 14.209 8.49362 14.3185L8.50375 14.3057Z" fill="currentColor"/>
<path d="M4.65852 11.2785C2.94226 8.05131 2.98685 6.30531 3.00441 5.88992C3.024 5.43265 3.0841 5.21447 3.18609 5.15908C3.20086 5.14289 3.22023 5.13154 3.24158 5.1266C3.26293 5.12165 3.28526 5.12333 3.30564 5.13138C3.48868 5.18812 3.44075 5.64936 3.45764 5.99991C3.47993 6.44164 3.48598 7.90809 5.39541 11.2866C6.05973 12.5188 7.16368 13.4556 8.48753 13.9106C8.66381 14.0099 8.86646 14.1017 8.8543 14.2172C8.84214 14.3327 8.58076 14.38 8.44432 14.3902H8.43554C8.23426 14.3895 6.16878 14.1194 4.65852 11.2785Z" fill="currentColor"/>
<path d="M7.80572 12.6655C7.49218 12.7054 7.1756 12.6194 6.92544 12.4262C6.67527 12.233 6.51195 11.9484 6.4713 11.635C6.43491 11.321 6.52456 11.0055 6.72056 10.7576C6.91656 10.5096 7.20291 10.3495 7.5168 10.3124C7.83033 10.2725 8.14692 10.3585 8.39708 10.5517C8.64725 10.7449 8.81056 11.0293 8.8512 11.3428C8.88759 11.6567 8.79797 11.9724 8.60197 12.2203C8.40597 12.4683 8.1196 12.6284 7.80572 12.6655ZM7.54989 10.582C7.42898 10.5963 7.31867 10.6579 7.24314 10.7534C7.16761 10.8489 7.13303 10.9703 7.14698 11.0913C7.16254 11.2122 7.22546 11.3221 7.32188 11.3966C7.41831 11.4712 7.54035 11.5042 7.66125 11.4889C7.78228 11.4745 7.8927 11.4129 7.96823 11.3173C8.04375 11.2216 8.07822 11.0998 8.06407 10.9787C8.04835 10.858 7.9854 10.7485 7.88901 10.6741C7.79263 10.5997 7.67068 10.5666 7.54989 10.582Z" fill="currentColor"/>
<path d="M15.3044 11.6583C14.9907 11.6984 14.674 11.6126 14.4237 11.4194C14.1734 11.2262 14.01 10.9416 13.9693 10.628C13.9331 10.314 14.0229 9.99836 14.219 9.7504C14.4151 9.50245 14.7015 9.34231 15.0154 9.30522C15.329 9.26527 15.6456 9.35135 15.8957 9.54452C16.1459 9.7377 16.3092 10.0223 16.3499 10.3357C16.3863 10.6497 16.2966 10.9652 16.1006 11.2131C15.9046 11.4611 15.6183 11.6212 15.3044 11.6583ZM15.0485 9.57478C14.9276 9.58908 14.8173 9.65068 14.7418 9.74619C14.6663 9.84169 14.6317 9.96333 14.6456 10.0843C14.6612 10.2052 14.7241 10.3149 14.8205 10.3894C14.9169 10.464 15.039 10.4972 15.1599 10.4818C15.2809 10.4675 15.3913 10.4057 15.4669 10.3101C15.5424 10.2144 15.5769 10.0927 15.5627 9.97168C15.547 9.85094 15.484 9.74128 15.3877 9.66688C15.2913 9.59249 15.1693 9.55941 15.0485 9.57478Z" fill="currentColor"/>
<path d="M10.5138 15.1635C10.784 14.9839 11.6026 15.8229 12.3551 15.6932C12.9582 15.5865 13.5229 14.5497 13.92 14.6584C14.6178 14.8496 13.9092 15.604 13.2892 16.0241C13.0283 16.2197 12.724 16.3492 12.4022 16.4018C12.0805 16.4543 11.7507 16.4284 11.4412 16.3261C10.7408 16.1342 9.89379 15.5803 10.5138 15.1635Z" fill="currentColor"/>
<path d="M14.7145 13.3712C14.5721 13.3588 14.2977 13.3019 14.2785 13.1845C14.2593 13.0671 14.4577 12.9814 14.6313 12.888L14.6491 12.8777C15.3156 12.669 15.9343 12.3309 16.4698 11.8826C17.0053 11.4343 17.447 10.8847 17.7696 10.2653C19.6209 6.84847 19.563 5.34551 19.568 4.89304C19.5723 4.53457 19.5004 4.06023 19.6898 4.00635C19.7118 3.99886 19.7355 3.99798 19.7579 4.0038C19.7804 4.00963 19.8007 4.02194 19.8163 4.03917C19.9238 4.09402 19.9963 4.32465 20.0367 4.79196C20.0734 5.21821 20.1952 7.00853 18.5397 10.2747C17.2409 12.8371 15.3933 13.2967 14.8577 13.3624C14.8103 13.3692 14.7624 13.3722 14.7145 13.3712Z" fill="currentColor"/>
<path d="M8.86372 20.6156C8.47618 20.4391 8.10132 20.2359 7.74184 20.0076C7.77151 19.7075 7.88477 19.4218 8.06874 19.1829C8.2869 18.9587 8.88803 18.6912 10.5124 18.6912C11.4803 18.6912 12.3672 18.7871 12.4036 18.7911L12.4084 18.8033L12.4144 18.7994C12.8609 18.5906 15.1499 17.5478 16.3704 17.5478C16.5221 17.5431 16.6734 17.5659 16.8169 17.6152C17.362 17.8259 17.9253 18.8689 18.1346 19.7145C17.6736 20.0401 17.1839 20.3231 16.6717 20.5602C16.6251 19.8611 16.1111 18.7831 15.6275 18.596C15.5209 18.5592 15.4085 18.5419 15.2958 18.5452C14.2733 18.699 13.2815 19.0134 12.357 19.4768L12.3537 19.4674C12.3496 19.4674 11.6782 19.393 10.9488 19.393C9.74448 19.393 9.2987 19.5916 9.13727 19.7584C8.96026 20.0078 8.86449 20.3056 8.86304 20.6114L8.86372 20.6156Z" fill="currentColor"/>
<path d="M4.0054 10.9853C4.38274 10.4124 4.8437 9.89915 5.37297 9.46266C5.93095 9.05094 6.54605 8.72291 7.19882 8.48895C7.2694 8.43377 7.35901 8.4089 7.44793 8.41979C7.53685 8.43068 7.6178 8.47645 7.67297 8.54703C7.72815 8.61761 7.75302 8.70722 7.74213 8.79614C7.73124 8.88506 7.68547 8.96601 7.61489 9.02118C6.94357 9.25329 6.31043 9.5838 5.73619 10.0019C5.21604 10.4298 4.77159 10.9422 4.42146 11.5176C4.35088 11.5727 4.26128 11.5976 4.17236 11.5867C4.08344 11.5758 4.00249 11.5301 3.94731 11.4595C3.89214 11.3889 3.86726 11.2993 3.87816 11.2104C3.88905 11.1215 3.93482 11.0405 4.0054 10.9853Z" fill="currentColor"/>
<path d="M17.7352 9.22474C17.2386 8.7516 16.674 8.35544 16.0601 8.04942C15.4239 7.77401 14.7508 7.59297 14.0623 7.51205C13.9811 7.4742 13.8882 7.47014 13.8041 7.50077C13.7199 7.53141 13.6514 7.59422 13.6135 7.6754C13.5756 7.75657 13.5716 7.84946 13.6022 7.93363C13.6329 8.01779 13.6957 8.08634 13.7768 8.12419C14.4831 8.19913 15.1742 8.37852 15.8277 8.65649C16.4308 8.9562 16.9791 9.35523 17.4497 9.83688C17.5309 9.87474 17.6238 9.87879 17.708 9.84816C17.7921 9.81752 17.8607 9.75471 17.8985 9.67354C17.9364 9.59236 17.9404 9.49947 17.9098 9.41531C17.8792 9.33114 17.8163 9.26259 17.7352 9.22474Z" fill="currentColor"/>
</svg>
