<svg width="24" height="24" viewBox="0 0 24 24" fill="none" xmlns="http://www.w3.org/2000/svg">
<path d="M11.5835 3.75L12.812 3.8145L12.686 6.21525L11.4575 6.15075L11.5835 3.75Z" fill="#182230"/>
<path d="M6.9142 5.30615L5.91895 6.02915L7.3327 7.97465L8.32795 7.25165L6.9142 5.30615Z" fill="#182230"/>
<path d="M9.56326 17.2508C9.11551 16.7918 8.71126 16.2923 8.35501 15.7591C7.63726 14.7638 7.21126 13.5878 7.12576 12.3638C7.11451 11.7316 7.22851 11.1023 7.46101 10.5143C7.69351 9.92631 8.04076 9.38931 8.48176 8.93631C8.94076 8.48556 9.48676 8.13231 10.086 7.89906C10.6853 7.66581 11.3265 7.55631 11.97 7.57881C12.2843 7.57956 12.5978 7.60881 12.9068 7.66656C13.446 7.76631 13.9598 7.97181 14.4195 8.27031C14.8793 8.56881 15.2753 8.95581 15.5858 9.40731C16.1745 10.2803 16.4835 11.3108 16.4723 12.3631C16.4018 13.5578 16.0125 14.7121 15.3443 15.7051C15.0128 16.2623 14.6385 16.7933 14.2253 17.2921L9.56326 17.2508ZM12.084 10.3666L10.3223 13.9208L11.682 14.3806L11.5238 17.2088L12.7958 13.8908L11.796 13.1873L12.0833 10.3658L12.084 10.3666Z" fill="#182230"/>
<path d="M3.51975 9.07422L3 10.1895L5.1795 11.2057L5.69925 10.0905L3.51975 9.07422Z" fill="#182230"/>
<path d="M9.69434 17.7502H14.2768V20.805H9.69434V17.7502Z" fill="#182230"/>
<path d="M17.3181 5.92798L18.3006 6.66823L16.8531 8.58898L15.8706 7.84873L17.3181 5.92798Z" fill="#182230"/>
<path d="M20.9999 10.6485L20.6106 9.48071L18.3291 10.2412L18.7184 11.409L20.9999 10.6485Z" fill="#182230"/>
</svg>
