<svg width="24" height="24" viewBox="0 0 24 24" fill="currentColor" xmlns="http://www.w3.org/2000/svg">
<path d="M12.0029 19.8429L11.9885 19.8517L11.9885 19.8329C8.88386 17.7906 6.1478 15.237 3.89653 12.2804C3.48319 11.6819 3.20394 11.0013 3.07789 10.2849C2.95183 9.56849 2.98194 8.8333 3.16615 8.12963C3.35035 7.42595 3.68433 6.77028 4.14523 6.20755C4.60613 5.64482 5.1831 5.18825 5.8367 4.86902C8.90909 3.49026 11.773 6.42562 12.001 6.66922C12.2235 6.42778 15.0921 3.48937 18.1649 4.86725C18.8186 5.18629 19.3957 5.64269 19.8567 6.20529C20.3178 6.76789 20.6519 7.42346 20.8364 8.12709C21.0208 8.83071 21.0511 9.56589 20.9252 10.2823C20.7994 10.9987 20.5203 11.6795 20.1072 12.2781C17.8566 15.2351 15.1213 17.7895 12.0174 19.8329L12.0174 19.8517L12.0029 19.8429Z" fill="currentColor"/>
</svg>
