<svg width="24" height="24" viewBox="0 0 24 24" fill="none" xmlns="http://www.w3.org/2000/svg">
<path d="M17.2502 9.79148C16.4692 9.4232 15.6509 9.17255 15.075 9.25877C14.6784 9.31815 14.4911 9.47327 14.356 9.66811C14.1865 9.91256 14.0791 10.2478 13.9404 10.739L13.9079 10.8549C13.6632 11.7316 13.2915 13.0633 11.7535 13.5352C10.5069 13.9177 9.48445 13.1483 8.82358 12.651L8.70742 12.5636C8.36376 12.3048 8.08052 12.0915 7.79241 11.94C7.49652 11.7844 7.26412 11.7331 7.04729 11.7625C6.31084 11.8626 5.82902 12.5258 5.54465 13.5434C5.96424 13.8973 6.23077 14.427 6.23077 15.0189C6.23077 16.0844 5.36697 16.9482 4.30142 16.9482C3.23587 16.9482 2.37207 16.0844 2.37207 15.0189C2.37207 14.0172 3.13537 13.1938 4.11203 13.0987C4.44767 11.9346 5.18874 10.5013 6.84533 10.2762C7.47772 10.1903 8.03165 10.371 8.4905 10.6123C8.89267 10.8238 9.27354 11.1114 9.59512 11.3542L9.69253 11.4277C10.4785 12.0187 10.8873 12.232 11.3135 12.1012C12.0328 11.8805 12.2111 11.3426 12.4969 10.3311L12.4994 10.3221C12.6262 9.87353 12.7898 9.29437 13.1233 8.81335C13.4936 8.27948 14.046 7.8961 14.8529 7.7753C15.9069 7.61751 17.0835 8.05445 17.89 8.43476C18.1116 8.53926 18.3177 8.64568 18.5015 8.74588C18.8312 8.48281 19.2491 8.32556 19.7038 8.32556C20.7693 8.32556 21.6331 9.18936 21.6331 10.2549C21.6331 11.3205 20.7693 12.1843 19.7038 12.1843C18.6382 12.1843 17.7744 11.3205 17.7744 10.2549C17.7744 10.1994 17.7768 10.1444 17.7814 10.0901L17.7838 10.0631C17.6227 9.97518 17.4426 9.88221 17.2502 9.79148Z" fill="#182230"/>
</svg>
