<svg width="24" height="24" viewBox="0 0 24 24" fill="currentColor" xmlns="http://www.w3.org/2000/svg">
<path d="M20.9652 15.58L16.2052 10.8201C15.8852 10.5001 15.3852 10.5001 15.0652 10.8201L13.5052 12.38L11.6251 10.5001L13.1852 8.94005C13.5052 8.62005 13.5052 8.12006 13.1852 7.80006L8.42515 3.04005C8.10515 2.72005 7.60516 2.72005 7.28516 3.04005L3.02515 7.30006C2.86515 7.46006 2.78516 7.66007 2.78516 7.86007C2.78516 8.08007 2.86515 8.28008 3.02515 8.42008L7.78516 13.18C7.94516 13.34 8.14514 13.4201 8.34514 13.4201C8.54514 13.4201 8.74515 13.34 8.90515 13.18L10.4652 11.6201L12.3451 13.5001L10.7852 15.0601C10.4652 15.3801 10.4652 15.8801 10.7852 16.2001L15.5451 20.9601C15.7051 21.1201 15.9052 21.2001 16.1052 21.2001C16.3252 21.2001 16.5252 21.1201 16.6652 20.9601L20.9251 16.7001C21.2851 16.4001 21.2852 15.88 20.9652 15.58ZM8.36516 11.48L4.74514 7.86007L7.86516 4.74005L11.4852 8.36007L10.4852 9.36007L9.88516 8.76007C9.56516 8.44007 9.06514 8.44007 8.74514 8.76007C8.42514 9.08007 8.42514 9.58006 8.74514 9.90006L9.34514 10.5001L8.36516 11.48ZM16.1451 19.2601L12.5251 15.64L13.5251 14.64L14.1251 15.2401C14.2851 15.4001 14.4852 15.48 14.6852 15.48C14.8852 15.48 15.0851 15.4001 15.2451 15.2401C15.5651 14.9201 15.5651 14.4201 15.2451 14.1001L14.6451 13.5001L15.6451 12.5001L19.2652 16.1201L16.1451 19.2601Z" fill="currentColor"/>
</svg>
