<svg width="24" height="24" viewBox="0 0 24 24" fill="none" xmlns="http://www.w3.org/2000/svg">
<path d="M7.96471 8.14827H6.22422V4.63869H7.96471L14.7051 3.40454C14.8666 3.37496 15.0329 3.38562 15.1893 3.43556L20.1948 5.03371C20.3041 5.06858 20.3617 5.18796 20.321 5.29516L19.9853 6.18012C19.8073 6.64941 19.309 6.91404 18.8205 6.7987L15.2504 5.95576C15.0554 5.9097 14.851 5.92332 14.6637 5.99484L12.1605 6.95113C12.083 6.98072 12.0319 7.05504 12.0319 7.13796V7.35787C12.0319 7.46833 12.1214 7.55787 12.2319 7.55787H14.0564C14.6087 7.55787 15.0564 8.00558 15.0564 8.55787V9.16186C15.0564 9.27232 14.9669 9.36186 14.8564 9.36186H10.6579C10.5045 9.36186 10.3531 9.32655 10.2155 9.25867L7.96471 8.14827Z" fill="#182230"/>
<path d="M3.604 8.11373H5.37354V4.60766H3.604V8.11373Z" fill="#182230"/>
<path fill-rule="evenodd" clip-rule="evenodd" d="M5.2591 18.1361V15.2804H6.09901L7.87554 18.1361H9.62663C9.28727 17.6474 8.55765 16.5666 7.43777 14.8935C7.87894 14.7001 8.21999 14.4337 8.46093 14.0943C8.70188 13.7516 8.82235 13.3613 8.82235 12.9236C8.82235 12.1736 8.57971 11.6153 8.09443 11.2488C7.60915 10.8789 6.86087 10.694 5.84958 10.694H3.68109V18.1361H5.2591ZM5.76814 13.9976H5.2591V11.9869H5.73759C6.24663 11.9869 6.62162 12.0616 6.86256 12.2109C7.1069 12.3602 7.22907 12.6114 7.22907 12.9643C7.22907 13.3206 7.11029 13.5819 6.87274 13.7482C6.63519 13.9145 6.26699 13.9976 5.76814 13.9976Z" fill="#182230"/>
<path fill-rule="evenodd" clip-rule="evenodd" d="M12.3465 17.51C12.7266 17.9953 13.2509 18.2379 13.9194 18.2379C14.364 18.2379 14.7508 18.1208 15.08 17.8867C15.4092 17.6525 15.662 17.3114 15.8385 16.8635C16.0183 16.4155 16.1083 15.8878 16.1083 15.2804C16.1083 14.3573 15.9182 13.6362 15.5381 13.117C15.1581 12.5978 14.6321 12.3382 13.9601 12.3382C13.2475 12.3382 12.7096 12.6198 12.3465 13.1832H12.2752L12.0563 12.4451H10.7939V20.6405H12.3465V18.3346C12.3465 18.2599 12.3193 17.9851 12.265 17.51H12.3465ZM12.6214 13.9365C12.7978 13.699 13.0778 13.5802 13.4613 13.5802C13.8278 13.5802 14.0959 13.721 14.2656 14.0027C14.4386 14.281 14.5252 14.7001 14.5252 15.26C14.5252 16.4071 14.1773 16.9806 13.4816 16.9806C13.088 16.9806 12.7995 16.8482 12.6163 16.5835C12.4364 16.3188 12.3465 15.8811 12.3465 15.2702V15.1022C12.3533 14.5593 12.4449 14.1707 12.6214 13.9365Z" fill="#182230"/>
</svg>
