<svg width="24" height="24" viewBox="0 0 24 24" fill="currentColor" xmlns="http://www.w3.org/2000/svg">
<path d="M12.0781 21.0034C11.5421 21.0034 9.93038 19.0883 8.5595 16.8206C6.81871 13.9421 5.81999 11.1875 5.81999 9.26406C5.80253 8.2787 5.98592 7.3001 6.35898 6.38792C6.67553 5.64011 7.16135 4.97599 7.77818 4.44784C8.99595 3.47401 10.5194 2.96317 12.0781 3.006C13.6378 2.96238 15.1624 3.47327 16.3809 4.44784C16.9981 4.97591 17.4841 5.64004 17.8009 6.38792C18.174 7.3001 18.3574 8.2787 18.3399 9.26406C18.3361 13.7655 13.1953 21.0034 12.0781 21.0034ZM12.1905 6.03916C11.5306 6.03916 10.8856 6.23483 10.3369 6.60143C9.78819 6.96803 9.36053 7.4891 9.10796 8.09874C8.8554 8.70839 8.78928 9.37923 8.91796 10.0265C9.04665 10.6737 9.36435 11.2682 9.83091 11.7349C10.2975 12.2015 10.8919 12.5194 11.5391 12.6482C12.1863 12.777 12.8572 12.7111 13.4669 12.4587C14.0766 12.2062 14.5978 11.7787 14.9645 11.2301C15.3312 10.6815 15.527 10.0364 15.5272 9.37654C15.5264 8.49179 15.1746 7.64349 14.5491 7.01781C13.9235 6.39212 13.0753 6.04016 12.1905 6.03916Z" fill="currentColor"/>
</svg>
