<svg width="24" height="24" viewBox="0 0 24 24" fill="currentColor" xmlns="http://www.w3.org/2000/svg">
<path d="M6.3463 12.8845H17.7096C17.8369 12.8901 17.9641 12.8699 18.0834 12.825C18.2027 12.7801 18.3116 12.7116 18.4037 12.6234C18.4958 12.5353 18.5691 12.4295 18.6192 12.3122C18.6692 12.195 18.695 12.0689 18.695 11.9414C18.695 11.814 18.6692 11.6878 18.6192 11.5706C18.5691 11.4534 18.4958 11.3475 18.4037 11.2594C18.3116 11.1713 18.2027 11.1027 18.0834 11.0579C17.9641 11.013 17.8369 10.9927 17.7096 10.9983H6.3463L7.61468 9.77906C7.7054 9.69327 7.77766 9.58987 7.82704 9.4752C7.87643 9.36052 7.9019 9.23698 7.9019 9.11213C7.9019 8.98727 7.87643 8.86373 7.82704 8.74906C7.77766 8.63438 7.7054 8.53099 7.61468 8.4452C7.42731 8.26781 7.1791 8.16895 6.92108 8.16895C6.66305 8.16895 6.41484 8.26781 6.22747 8.4452L3.28509 11.2742C3.26205 11.296 3.24083 11.3191 3.22022 11.3427L3.20627 11.3609C3.19111 11.3791 3.17656 11.3973 3.16322 11.4167L3.15231 11.4343C3.13897 11.4543 3.12563 11.4749 3.11351 11.4949L3.10684 11.5076C3.09471 11.5307 3.08259 11.5543 3.07228 11.578L3.06864 11.587C3.05773 11.6125 3.04803 11.638 3.03954 11.6647C3.03954 11.6677 3.03954 11.6713 3.03954 11.675C3.03166 11.701 3.02438 11.7271 3.01893 11.7538C3.01893 11.7617 3.01893 11.7702 3.01529 11.778C3.01104 11.8005 3.00741 11.8223 3.00498 11.8453C2.99834 11.908 2.99834 11.9712 3.00498 12.0339C3.00498 12.0569 3.01165 12.0794 3.01529 12.1018C3.01529 12.1097 3.01529 12.1176 3.01893 12.1254C3.02438 12.1527 3.03166 12.1788 3.03954 12.2055V12.2152C3.04803 12.2419 3.05773 12.2679 3.06864 12.2934L3.07167 12.3019C3.08198 12.3261 3.09411 12.3498 3.10684 12.3728L3.1129 12.3855C3.12503 12.4068 3.13837 12.4274 3.1517 12.4462L3.16201 12.4632C3.17535 12.4826 3.19051 12.5013 3.20506 12.5195L3.219 12.5377C3.23962 12.5614 3.26084 12.5844 3.28388 12.6062L6.22626 15.4358C6.41356 15.6134 6.6618 15.7123 6.91986 15.7123C7.17793 15.7123 7.42617 15.6134 7.61347 15.4358C7.70419 15.3501 7.77644 15.2467 7.82583 15.132C7.87521 15.0173 7.90068 14.8938 7.90068 14.7689C7.90068 14.6441 7.87521 14.5205 7.82583 14.4058C7.77644 14.2912 7.70419 14.1878 7.61347 14.102L6.3463 12.8845Z" fill="currentColor"/>
<path d="M14.5253 5.25C13.4534 5.25522 12.3999 5.52918 11.4612 6.04681C10.5226 6.56445 9.72869 7.30922 9.15228 8.21299C9.03507 8.39348 8.99203 8.61224 9.03212 8.82368C9.07222 9.03512 9.19236 9.22294 9.36751 9.34799C9.45343 9.40771 9.55056 9.44941 9.65303 9.47058C9.7555 9.49174 9.8612 9.49193 9.96375 9.47114C10.0663 9.45035 10.1636 9.409 10.2497 9.34959C10.3358 9.29018 10.409 9.21395 10.4649 9.12548C10.9006 8.44213 11.5008 7.87902 12.2105 7.48773C12.9202 7.09645 13.7167 6.88948 14.5271 6.8858C15.8392 6.92891 17.0832 7.48045 17.9961 8.42386C18.909 9.36726 19.4194 10.6286 19.4194 11.9414C19.4194 13.2542 18.909 14.5156 17.9961 15.459C17.0832 16.4024 15.8392 16.954 14.5271 16.9971C13.7189 16.9934 12.9245 16.7876 12.2162 16.3985C11.5078 16.0093 10.9081 15.4491 10.4716 14.7689C10.4155 14.6806 10.3421 14.6045 10.2559 14.5452C10.1696 14.486 10.0722 14.4449 9.9696 14.4243C9.86699 14.4037 9.76128 14.4042 9.65884 14.4256C9.55641 14.447 9.45936 14.4889 9.37357 14.5488C9.19865 14.6743 9.07888 14.8624 9.03924 15.0739C8.99959 15.2855 9.04312 15.5042 9.16076 15.6844C9.73804 16.5844 10.5313 17.3258 11.4682 17.841C12.4052 18.3561 13.4561 18.6288 14.5253 18.6341C16.2619 18.5768 17.9082 17.8467 19.1164 16.598C20.3246 15.3493 21 13.6799 21 11.9423C21 10.2048 20.3246 8.53537 19.1164 7.28668C17.9082 6.03798 16.2619 5.30727 14.5253 5.25Z" fill="currentColor"/>
</svg>
