<svg width="24" height="24" viewBox="0 0 24 24" fill="currentColor" xmlns="http://www.w3.org/2000/svg">
<path d="M11.6129 6.62178C11.5941 6.67428 11.5865 6.73007 11.5906 6.78562C11.5874 6.8408 11.5957 6.89604 11.6152 6.94784C11.6347 6.99965 11.6649 7.04688 11.7038 7.08655C11.7467 7.124 11.7967 7.15272 11.8508 7.17107C11.905 7.18942 11.9622 7.19704 12.0194 7.19348C12.0759 7.19678 12.1326 7.1888 12.186 7.17003C12.2394 7.15126 12.2884 7.12208 12.3302 7.08421C12.4018 6.99998 12.4411 6.89347 12.4411 6.78343C12.4411 6.6734 12.4018 6.56689 12.3302 6.48266C12.2444 6.408 12.1322 6.37007 12.0182 6.37718C11.9025 6.36917 11.7883 6.4063 11.6999 6.48061C11.6614 6.52121 11.6317 6.56928 11.6129 6.62178Z" fill="currentColor"/>
<path d="M11.7242 5.96436H12.3169L12.4407 3.61832H11.6004L11.7242 5.96436Z" fill="currentColor"/>
<path fill-rule="evenodd" clip-rule="evenodd" d="M12.605 1.79699L16.5054 7.56715C16.7202 7.88532 16.568 8.42786 16.264 8.42874L7.7361 8.42698C7.43176 8.42698 7.27959 7.88327 7.4947 7.5654L11.398 1.79699C11.4538 1.68594 11.5399 1.5925 11.6465 1.52718C11.7531 1.46186 11.8761 1.42725 12.0015 1.42725C12.1269 1.42725 12.2499 1.46186 12.3565 1.52718C12.4631 1.5925 12.5492 1.68594 12.605 1.79699ZM8.94107 7.6288H15.0575C15.2756 7.6288 15.3849 7.23906 15.2307 7.01088L12.4319 2.87418C12.3918 2.79452 12.3301 2.7275 12.2536 2.68064C12.1771 2.63379 12.089 2.60896 11.999 2.60896C11.909 2.60896 11.8208 2.63379 11.7444 2.68064C11.6679 2.7275 11.6062 2.79452 11.5661 2.87418L8.76792 7.01088C8.61397 7.23906 8.72301 7.6288 8.94107 7.6288Z" fill="currentColor"/>
<path d="M12.3008 9.67461L12.3103 9.71081L20.0407 9.73372L21.8705 12.8317L14.3487 14.2439L12.3303 9.78549L13.6673 15.0464L20.0407 13.7576V20.8474L12.3008 22.5664V9.67461ZM3.95716 20.8516V13.7618L10.3294 15.0505L11.6392 9.97002L9.64679 14.2439L2.12939 12.8338L3.96023 9.73575H11.7409V9.75752L11.6989 9.84776V22.5726L3.95716 20.8516Z" fill="currentColor"/>
</svg>
