<svg width="24" height="24" viewBox="0 0 24 24" fill="currentColor" xmlns="http://www.w3.org/2000/svg">
<path d="M6.16045 18.0899C5.59925 18.0899 5.06103 17.8669 4.6642 17.4701C4.26737 17.0733 4.04443 16.5351 4.04443 15.9739V9.38828C4.04443 9.34014 4.04443 9.29094 4.04919 9.24333C4.26873 10.6589 11.8647 13.606 11.9409 13.6341C12.0171 13.6044 19.6146 10.65 19.8326 9.24333C19.8363 9.30099 19.8379 9.34913 19.8379 9.38828V15.9733C19.8372 16.5343 19.614 17.0721 19.2173 17.4688C18.8207 17.8655 18.2828 18.0886 17.7219 18.0893L6.16045 18.0899ZM4.16134 8.03561V7.40081C4.16134 5.99312 5.09186 6 6.38422 6H17.4986C18.791 6 19.9553 5.99312 19.9553 7.39922V8.03402C19.9553 9.44012 11.9414 12.3613 11.9414 12.3613C11.9414 12.3613 4.16134 9.44118 4.16134 8.03561Z" fill="currentColor"/>
</svg>
