<svg width="24" height="24" viewBox="0 0 24 24" fill="currentColor" xmlns="http://www.w3.org/2000/svg">
<path fill-rule="evenodd" clip-rule="evenodd" d="M8.09375 11.25C10.3122 11.25 11.6875 9.86698 11.6875 8.625C11.6875 7.38302 10.3122 6 8.09375 6C5.87528 6 4.5 7.38302 4.5 8.625C4.5 9.86698 5.87528 11.25 8.09375 11.25ZM8.09375 12.25C10.6308 12.25 12.6875 10.627 12.6875 8.625C12.6875 6.62297 10.6308 5 8.09375 5C5.55669 5 3.5 6.62297 3.5 8.625C3.5 10.627 5.55669 12.25 8.09375 12.25Z" fill="currentColor"/>
<path fill-rule="evenodd" clip-rule="evenodd" d="M18.6987 8.31465C19.1323 8.02292 19.25 7.7271 19.25 7.53125C19.25 7.3354 19.1323 7.03958 18.6987 6.74785C18.2713 6.46028 17.6239 6.25 16.8594 6.25C16.0948 6.25 15.4475 6.46028 15.0201 6.74785C14.5865 7.03958 14.4688 7.3354 14.4688 7.53125C14.4688 7.7271 14.5865 8.02292 15.0201 8.31465C15.4475 8.60222 16.0948 8.8125 16.8594 8.8125C17.6239 8.8125 18.2713 8.60222 18.6987 8.31465ZM16.8594 9.8125C18.732 9.8125 20.25 8.79115 20.25 7.53125C20.25 6.27135 18.732 5.25 16.8594 5.25C14.9868 5.25 13.4688 6.27135 13.4688 7.53125C13.4688 8.79115 14.9868 9.8125 16.8594 9.8125Z" fill="currentColor"/>
<path fill-rule="evenodd" clip-rule="evenodd" d="M15.7279 17.4905C17.6839 16.4438 18.244 14.5755 17.6581 13.4805C17.0721 12.3854 15.207 11.8148 13.251 12.8615C11.2949 13.9082 10.7348 15.7764 11.3208 16.8715C11.9067 17.9666 13.7718 18.5371 15.7279 17.4905ZM16.1997 18.3722C18.4366 17.1752 19.4843 14.7739 18.5398 13.0087C17.5952 11.2435 15.0161 10.7828 12.7792 11.9798C10.5422 13.1768 9.49453 15.5781 10.4391 17.3433C11.3836 19.1085 13.9627 19.5692 16.1997 18.3722Z" fill="currentColor"/>
<path d="M7.625 8.03125C7.625 8.53176 7.21926 8.9375 6.71875 8.9375C6.21824 8.9375 5.8125 8.53176 5.8125 8.03125C5.8125 7.53074 6.21824 7.125 6.71875 7.125C7.21926 7.125 7.625 7.53074 7.625 8.03125Z" fill="currentColor"/>
<path d="M17.0207 14.6447C17.0207 15.1453 16.6149 15.551 16.1144 15.551C15.6139 15.551 15.2082 15.1453 15.2082 14.6447C15.2082 14.1442 15.6139 13.7385 16.1144 13.7385C16.6149 13.7385 17.0207 14.1442 17.0207 14.6447Z" fill="currentColor"/>
<path d="M14.8332 16.6447C14.8332 17.0417 14.5114 17.3635 14.1144 17.3635C13.7175 17.3635 13.3957 17.0417 13.3957 16.6447C13.3957 16.2478 13.7175 15.926 14.1144 15.926C14.5114 15.926 14.8332 16.2478 14.8332 16.6447Z" fill="currentColor"/>
</svg>
