<svg width="25" height="24" viewBox="0 0 25 24" fill="none" xmlns="http://www.w3.org/2000/svg">
<path d="M12.5 21.0002C11.3178 21.003 10.1468 20.7711 9.05475 20.3183C7.9627 19.8654 6.97132 19.2005 6.13797 18.3619C5.29937 17.5286 4.63436 16.5373 4.18156 15.4453C3.72875 14.3532 3.49712 13.1823 3.50003 12.0001C3.49712 10.8179 3.72875 9.64662 4.18156 8.55456C4.63436 7.46249 5.29937 6.47117 6.13797 5.63788C6.97132 4.79934 7.9627 4.13436 9.05475 3.68156C10.1468 3.22875 11.3178 2.99721 12.5 3.00003C13.6822 2.99721 14.8532 3.22875 15.9453 3.68156C17.0373 4.13436 18.0288 4.79934 18.8621 5.63788C19.7007 6.47117 20.3656 7.46249 20.8184 8.55456C21.2712 9.64662 21.5029 10.8179 21.5 12.0001C21.5029 13.1823 21.2712 14.3532 20.8184 15.4453C20.3656 16.5373 19.7007 17.5286 18.8621 18.3619C18.0288 19.2005 17.0373 19.8654 15.9453 20.3183C14.8532 20.7711 13.6822 21.003 12.5 21.0002ZM9.50594 13.1506L15.0922 14.0871H15.1868L19.174 12.7752C19.2284 12.7544 19.273 12.7137 19.299 12.6615C19.325 12.6094 19.3305 12.5493 19.3145 12.4933L19.174 12.1179C19.1111 11.9315 18.9913 11.7697 18.8315 11.655C18.6717 11.5403 18.48 11.4787 18.2833 11.4788C18.2047 11.4793 18.1266 11.4891 18.0506 11.5087L15.1411 12.2126L12.7956 11.2761V10.8105H14.2031C14.4517 10.8099 14.69 10.7107 14.8657 10.5347C15.0413 10.3588 15.1401 10.1204 15.1403 9.87178V9.63917C15.1403 9.57744 15.1158 9.51803 15.0721 9.47438C15.0285 9.43073 14.9692 9.40619 14.9075 9.40619H11.389L9.51371 10.3449H8.10557V13.1593L9.50594 13.1506ZM6.26053 10.3328V13.1737H7.68117V10.3328H6.26053Z" fill="#182230"/>
</svg>
