<svg width="24" height="24" viewBox="0 0 24 24" fill="none" xmlns="http://www.w3.org/2000/svg">
<path d="M9.73135 17.9958C9.88481 18.0716 10.0533 18.1113 10.2244 18.1104C10.2985 18.1095 10.3734 18.1007 10.4458 18.0848L13.1526 17.5468C13.4525 17.5407 13.7523 17.5168 14.0496 17.4754L10.1591 13.6652C9.99947 13.674 9.84336 13.7172 9.70224 13.7931C9.56112 13.8689 9.43764 13.9739 9.34151 14.1018C9.21538 14.2676 9.13865 14.4643 9.11836 14.6715C9.09808 14.8788 9.13689 15.087 9.22861 15.2731L9.53731 15.8878L9.22861 16.5026C9.13689 16.6887 9.09896 16.8977 9.11836 17.1041C9.13777 17.3105 9.21538 17.508 9.34151 17.6738C9.4447 17.8105 9.57788 17.9208 9.73135 17.9966V17.9958ZM15.3549 12.9093L16.7282 14.2544L16.7343 14.2535L19.7834 11.4514H15.7809C15.7756 11.9674 15.6292 12.4719 15.3558 12.9093H15.3549ZM15.5445 10.3392H20.7545V10.3075C20.7615 10.266 20.7615 10.2281 20.7615 10.1902L20.7624 10.1716C20.7712 10.0411 20.7792 9.91674 20.7792 9.7765C20.7792 8.2489 20.3302 6.75569 19.487 5.48121C18.6439 4.20674 17.4443 3.21009 16.0385 2.61386L14.0487 8.87599C14.7172 9.15294 15.2526 9.67684 15.5445 10.3383V10.3392ZM8.55918 8.67225H12.9488L14.9845 2.26901C14.338 2.09437 13.6712 2.00441 13.0009 2H4.11307C3.8176 2 3.53537 2.1173 3.32634 2.32634C3.1173 2.53537 3 2.8176 3 3.11307C3 4.58776 3.58564 6.00159 4.62815 7.0441C5.67066 8.08661 7.08538 8.67225 8.55918 8.67225ZM5.46957 3.75163C5.5613 3.69077 5.6689 3.65814 5.77915 3.65902C5.92644 3.6599 6.06668 3.719 6.17075 3.82307C6.27483 3.92715 6.33304 4.06827 6.33304 4.21556C6.33304 4.32581 6.30041 4.43341 6.23955 4.52425C6.17869 4.6151 6.09137 4.68654 5.98995 4.72888C5.88852 4.77121 5.7765 4.7818 5.6689 4.76063C5.5613 4.73946 5.46163 4.68566 5.38402 4.60804C5.3064 4.53043 5.25348 4.43076 5.23232 4.32316C5.21115 4.21556 5.22261 4.10355 5.26495 4.00212C5.30729 3.90069 5.37873 3.81425 5.47045 3.7534L5.46957 3.75163ZM15.8453 17.7118L12.9947 20.5624L14.4324 22L17.2829 19.1494L20.1335 22L21.5712 20.5624L18.7206 17.7118L21.5712 14.8612L20.1335 13.4235L17.2829 16.2741L14.4324 13.4235L12.9947 14.8612L15.8453 17.7118Z" fill="#182230"/>
</svg>
