<svg width="24" height="24" viewBox="0 0 24 24" fill="none" xmlns="http://www.w3.org/2000/svg">
<path d="M5.25001 8.37499H16.5V9.49999H5.25001V8.37499Z" fill="#182230"/>
<path d="M15.3756 15.125H11.4378V16.25H15.3756V15.125Z" fill="#182230"/>
<path d="M11.4378 12.875H16.5006V14H11.4378V12.875Z" fill="#182230"/>
<path d="M16.5006 10.625H11.4378V11.75H16.5006V10.625Z" fill="#182230"/>
<path d="M5.25001 10.625H10.3128V16.25H5.25001V10.625Z" fill="#182230"/>
<path fill-rule="evenodd" clip-rule="evenodd" d="M3 5H18.75V7.25H21V17.375C21 19.5902 19.3122 19.625 19.3122 19.625H5.25C3 19.625 3 17.375 3 17.375V5ZM4.81573 18.4209C4.95367 18.4763 5.10139 18.5032 5.25 18.5H18.0054C17.7413 18.1863 17.6055 17.7845 17.625 17.375V6.125H4.125V17.375C4.12181 17.5236 4.14873 17.6713 4.20413 17.8093C4.25954 17.9472 4.34229 18.0725 4.4474 18.1776C4.55251 18.2827 4.6778 18.3655 4.81573 18.4209Z" fill="#182230"/>
</svg>
