<svg width="24" height="24" viewBox="0 0 24 24" fill="none" xmlns="http://www.w3.org/2000/svg">
<path d="M11.5 18.5034C10.5553 18.5034 10.3947 18.5215 9.5 18.5034C9.67058 19.1121 9.94154 20.0621 10.4488 20.4393C10.956 20.8165 11.5741 21.0147 12.2061 21.0029C12.8396 21.015 13.4592 20.8159 13.9671 20.437C14.475 20.058 14.8311 19.1142 15 18.5034C14.1216 18.5233 13.4272 18.501 12.5 18.5034H11.5Z" fill="#182230"/>
<path d="M18.1303 14.4054H18.0953C17.8262 10.0696 15.5712 3.00342 12.2091 3.00342C8.74265 3.00342 6.44475 10.0618 6.29695 14.4157C6.10269 14.6805 2.91978 17.6269 3.95743 18.4474C4.28863 18.7092 6.60341 18.8613 9.40203 18.9168C10.2973 18.9349 11.2408 18.9427 12.1856 18.9415H12.2803C13.2069 18.9415 14.1318 18.9276 15.0101 18.9077C17.8763 18.8426 20.2376 18.6851 20.4771 18.4468C21.4634 17.4677 18.1303 14.4054 18.1303 14.4054Z" fill="#182230"/>
</svg>
