<svg width="24" height="24" viewBox="0 0 24 24" fill="none" xmlns="http://www.w3.org/2000/svg">
<path d="M5.22521 14.6495C5.596 14.2085 6.08508 13.8826 6.63486 13.7102C7.18463 13.5379 7.77221 13.5262 8.32841 13.6766C8.35866 13.63 8.39175 13.5854 8.4275 13.5429L12.6742 8.48181C12.71 8.43904 12.7484 8.39852 12.7891 8.36049C12.5397 7.82999 12.4501 7.23835 12.5312 6.65778C12.6124 6.0772 12.8608 5.53281 13.2461 5.09104C13.6315 4.64927 14.1371 4.32922 14.7013 4.16997C15.2654 4.01072 15.8638 4.01915 16.4232 4.19423L14.9294 5.97447C14.7315 6.21034 14.6354 6.51517 14.6622 6.82191C14.6891 7.12864 14.8366 7.41216 15.0725 7.61008C15.3084 7.808 15.6132 7.90411 15.92 7.87727C16.2267 7.85044 16.5102 7.70285 16.7081 7.46698L18.2019 5.68674C18.458 6.18031 18.5728 6.73505 18.5337 7.28974C18.4945 7.84443 18.3029 8.37752 17.9799 8.8302C17.657 9.28289 17.2153 9.63757 16.7035 9.85512C16.1918 10.0727 15.6299 10.1446 15.0798 10.0631C15.0312 10.1651 14.9699 10.2606 14.8973 10.3472L10.6498 15.4093C10.577 15.4958 10.4937 15.5728 10.4016 15.6383C10.5774 16.1659 10.6041 16.7317 10.4788 17.2735C10.3534 17.8152 10.0808 18.3118 9.69106 18.7085C9.30133 19.1051 8.80962 19.3864 8.27016 19.5213C7.7307 19.6562 7.16446 19.6395 6.6339 19.473L8.12555 17.6953C8.32347 17.4594 8.41958 17.1546 8.39275 16.8479C8.36591 16.5411 8.21832 16.2576 7.98245 16.0597C7.74658 15.8618 7.44175 15.7657 7.13501 15.7925C6.82828 15.8193 6.54476 15.9669 6.34685 16.2028L4.85304 17.983C4.57792 17.453 4.46642 16.8532 4.53268 16.2597C4.59894 15.6662 4.83997 15.1058 5.22521 14.6495Z" fill="#404040"/>
</svg>
