<svg width="24" height="24" viewBox="0 0 24 24" fill="none" xmlns="http://www.w3.org/2000/svg">
<path fill-rule="evenodd" clip-rule="evenodd" d="M4.61133 4.88428C4.88747 4.88428 5.11133 5.10813 5.11133 5.38428L5.11133 18.1158L19.3888 18.1158C19.6649 18.1158 19.8888 18.3396 19.8888 18.6158C19.8888 18.8919 19.6649 19.1158 19.3888 19.1158L4.61133 19.1158C4.47872 19.1158 4.35154 19.0631 4.25777 18.9693C4.16401 18.8755 4.11133 18.7484 4.11133 18.6158L4.11133 5.38428C4.11133 5.10813 4.33519 4.88428 4.61133 4.88428Z" fill="#404040"/>
<path fill-rule="evenodd" clip-rule="evenodd" d="M17.1203 8.06436C17.3269 8.24753 17.346 8.56354 17.1628 8.77019L13.664 12.7176C13.4913 12.9124 13.1981 12.9421 12.9898 12.7859L11.2199 11.4585L7.59824 15.8785C7.42322 16.0921 7.10819 16.1233 6.89459 15.9483C6.68099 15.7733 6.64972 15.4583 6.82473 15.2447L10.7499 10.4542C10.9197 10.247 11.2224 10.2104 11.4367 10.3711L13.2212 11.7095L16.4144 8.10688C16.5976 7.90023 16.9136 7.8812 17.1203 8.06436Z" fill="#404040"/>
</svg>
