<svg width="25" height="24" viewBox="0 0 25 24" fill="none" xmlns="http://www.w3.org/2000/svg">
<path d="M12 21C10.8178 21.0027 9.64691 20.7708 8.55488 20.318C7.46285 19.8653 6.47124 19.201 5.63785 18.3625C4.79939 17.5291 4.13472 16.5375 3.68193 15.4455C3.22913 14.3534 2.99729 13.1825 3.00002 12.0004C3.00228 9.61413 3.95129 7.32628 5.63861 5.63896C7.32593 3.95164 9.61377 3.00226 12 3C14.3862 3.00226 16.6741 3.95164 18.3614 5.63896C20.0487 7.32628 20.9977 9.61413 21 12.0004C21.0027 13.1825 20.7709 14.3534 20.3181 15.4455C19.8653 16.5375 19.2002 17.5291 18.3618 18.3625C17.5284 19.201 16.5372 19.8653 15.4451 20.318C14.3531 20.7708 13.1822 21.0027 12 21ZM9.73608 14.1105C9.89509 14.1096 10.0494 14.1647 10.1721 14.2658C10.2405 14.323 10.2968 14.3934 10.3377 14.4726C10.3786 14.5519 10.403 14.6383 10.41 14.7272C10.4181 14.8161 10.4086 14.9057 10.382 14.9909C10.3554 15.0761 10.3123 15.1557 10.2551 15.2242L9.38301 16.2653C9.5538 16.3171 9.73112 16.3429 9.90959 16.3426C10.1678 16.3428 10.4228 16.286 10.6567 16.1766C10.8905 16.0672 11.0975 15.9082 11.2628 15.7099C11.4578 15.4766 11.5897 15.1966 11.6454 14.8977C11.7011 14.5988 11.6789 14.2908 11.581 14.0029C11.6536 13.9566 11.7187 13.8997 11.7742 13.8339L14.1738 10.973C14.2296 10.907 14.275 10.8325 14.3075 10.7525C14.3976 10.7662 14.4883 10.7735 14.5795 10.7737C14.8373 10.774 15.0924 10.718 15.3262 10.6093C15.5599 10.5006 15.7668 10.3414 15.9327 10.1441C16.1574 9.8773 16.298 9.55045 16.3365 9.2038C16.3751 8.85714 16.31 8.50645 16.1494 8.19685L15.2754 9.23789C15.2118 9.31385 15.1322 9.37487 15.0424 9.4167C14.9526 9.45853 14.8547 9.48053 14.7556 9.48035C14.5966 9.48142 14.4422 9.42634 14.3196 9.32502C14.2511 9.26796 14.1948 9.19806 14.1537 9.11894C14.1125 9.03981 14.0872 8.95325 14.0798 8.86436C14.0716 8.77533 14.0812 8.68529 14.1078 8.59993C14.1345 8.51458 14.1778 8.43514 14.2351 8.36657L15.1072 7.32781C14.9358 7.27364 14.757 7.24655 14.5772 7.24674C14.3198 7.24703 14.0659 7.30355 13.8328 7.41267C13.5997 7.52178 13.3933 7.68042 13.2282 7.87788C13.0112 8.13737 12.873 8.45381 12.8304 8.78935C12.7878 9.1249 12.8424 9.46579 12.9876 9.77129C12.9463 9.80474 12.9084 9.84181 12.8744 9.88267L10.4691 12.7444C10.4356 12.7857 10.406 12.8298 10.3801 12.8762C10.2285 12.834 10.0719 12.8126 9.91452 12.8126C9.65631 12.8119 9.4009 12.8675 9.1667 12.9762C8.9325 13.085 8.72516 13.2438 8.55904 13.4414C8.33472 13.7084 8.19449 14.0359 8.15596 14.3825C8.11744 14.729 8.18251 15.0797 8.34273 15.3894L9.21708 14.3506C9.28054 14.2753 9.35951 14.2148 9.44893 14.1734C9.53834 14.1319 9.63602 14.1101 9.73457 14.1105H9.73608Z" fill="#182230"/>
</svg>
