<svg width="24" height="24" viewBox="0 0 24 24" fill="none" xmlns="http://www.w3.org/2000/svg">
<path d="M12 21C10.8178 21.0028 9.64655 20.7709 8.5545 20.3181C7.46245 19.8653 6.47116 19.2003 5.63785 18.3618C4.79936 17.5284 4.13472 16.5375 3.68193 15.4455C3.22913 14.3535 2.99725 13.1818 3.00002 11.9996C2.99725 10.8174 3.22913 9.64654 3.68193 8.5545C4.13472 7.46247 4.79936 6.4716 5.63785 5.63823C6.47116 4.79967 7.46245 4.13473 8.5545 3.68193C9.64655 3.22913 10.8178 2.99717 12 3.00003C13.1822 2.99708 14.3531 3.22837 15.4451 3.68117C16.5372 4.13398 17.5285 4.7996 18.3618 5.63823C19.2003 6.4716 19.8653 7.46247 20.3181 8.5545C20.7709 9.64654 21.0028 10.8174 21 11.9996C21.0028 13.1818 20.7709 14.3535 20.3181 15.4455C19.8653 16.5375 19.2003 17.5284 18.3618 18.3618C17.5285 19.2004 16.5372 19.8653 15.4451 20.3181C14.3531 20.7709 13.1822 21.0029 12 21ZM14.9799 12.2239C14.7741 12.2239 14.5769 12.3057 14.4314 12.4512C14.2859 12.5967 14.2041 12.794 14.2041 12.9997V14.6401C14.2041 14.8459 14.2859 15.0432 14.4314 15.1887C14.5769 15.3342 14.7741 15.416 14.9799 15.416H16.6203C16.826 15.416 17.0233 15.3342 17.1688 15.1887C17.3143 15.0432 17.3961 14.8459 17.3961 14.6401V12.9997C17.3961 12.794 17.3143 12.5967 17.1688 12.4512C17.0233 12.3057 16.826 12.2239 16.6203 12.2239H14.9799ZM11.1495 12.2239C10.9437 12.2239 10.7465 12.3057 10.601 12.4512C10.4555 12.5967 10.3737 12.794 10.3737 12.9997V14.6401C10.3737 14.8459 10.4555 15.0432 10.601 15.1887C10.7465 15.3342 10.9437 15.416 11.1495 15.416H12.7899C12.9956 15.416 13.1929 15.3342 13.3384 15.1887C13.4839 15.0432 13.5657 14.8459 13.5657 14.6401V12.9997C13.5657 12.794 13.4839 12.5967 13.3384 12.4512C13.1929 12.3057 12.9956 12.2239 12.7899 12.2239H11.1495ZM7.31912 12.2239C7.11335 12.2239 6.91607 12.3057 6.77057 12.4512C6.62507 12.5967 6.54327 12.794 6.54327 12.9997V14.6401C6.54327 14.8459 6.62507 15.0432 6.77057 15.1887C6.91607 15.3342 7.11335 15.416 7.31912 15.416H8.95947C9.16524 15.416 9.36252 15.3342 9.50803 15.1887C9.65353 15.0432 9.73533 14.8459 9.73533 14.6401V12.9997C9.73533 12.794 9.65353 12.5967 9.50803 12.4512C9.36252 12.3057 9.16524 12.2239 8.95947 12.2239H7.31912ZM14.9792 8.39388C14.7734 8.39388 14.5761 8.47568 14.4306 8.62118C14.2851 8.76668 14.2033 8.96396 14.2033 9.16973V10.8101C14.2033 11.0159 14.2851 11.2131 14.4306 11.3586C14.5761 11.5041 14.7734 11.5859 14.9792 11.5859H16.6195C16.8253 11.5859 17.0226 11.5041 17.1681 11.3586C17.3136 11.2131 17.3954 11.0159 17.3954 10.8101V9.16973C17.3954 8.96396 17.3136 8.76668 17.1681 8.62118C17.0226 8.47568 16.8253 8.39388 16.6195 8.39388H14.9792ZM11.1488 8.39388C10.943 8.39388 10.7457 8.47568 10.6002 8.62118C10.4547 8.76668 10.3729 8.96396 10.3729 9.16973V10.8101C10.3729 11.0159 10.4547 11.2131 10.6002 11.3586C10.7457 11.5041 10.943 11.5859 11.1488 11.5859H12.7891C12.9949 11.5859 13.1922 11.5041 13.3377 11.3586C13.4832 11.2131 13.565 11.0159 13.565 10.8101V9.16973C13.565 8.96396 13.4832 8.76668 13.3377 8.62118C13.1922 8.47568 12.9949 8.39388 12.7891 8.39388H11.1488ZM7.31836 8.39388C7.11259 8.39388 6.91531 8.47568 6.76981 8.62118C6.62431 8.76668 6.54251 8.96396 6.54251 9.16973V10.8101C6.54251 11.0159 6.62431 11.2131 6.76981 11.3586C6.91531 11.5041 7.11259 11.5859 7.31836 11.5859H8.95872C9.16448 11.5859 9.36177 11.5041 9.50727 11.3586C9.65277 11.2131 9.73457 11.0159 9.73457 10.8101V9.16973C9.73457 8.96396 9.65277 8.76668 9.50727 8.62118C9.36177 8.47568 9.16448 8.39388 8.95872 8.39388H7.31836Z" fill="#182230"/>
</svg>
