<svg width="24" height="24" viewBox="0 0 24 24" fill="none" xmlns="http://www.w3.org/2000/svg">
<path d="M7.06453 19.1025C5.95548 19.0693 4.90486 18.5978 4.1432 17.791C3.38153 16.9841 2.97096 15.9076 3.0016 14.7985V13.094C3.0016 10.7169 5.39657 13.8645 7.428 13.8645C9.45944 13.8645 10.1298 12.3341 11.8197 12.2859C13.5097 12.2377 14.4314 13.7856 16.4273 13.8645C17.2511 13.7942 18.0421 13.5103 18.7228 13.0411C19.9767 12.3184 20.9984 11.5956 20.9984 13.094V14.7985C21.0295 15.9078 20.6192 16.984 19.8573 17.791C19.0954 18.5979 18.0442 19.0699 16.9348 19.1025H7.06453ZM18.247 9.47573V4.5H20.9978V9.47573H18.247ZM18.4881 9.0405H20.7578V4.93523H18.4881V9.0405ZM14.4187 9.47573V4.5H17.1695V9.47573H14.4187ZM14.6599 9.0405H16.929V4.93523H14.6599V9.0405ZM10.4046 9.47573V4.5H13.3495V9.47573H10.4046ZM6.91455 9.47573V4.5H9.66473V9.47573H6.91455ZM3.00454 9.47573V4.5H5.95058V9.47573H3.00454Z" fill="#182230"/>
</svg>
