<svg width="24" height="24" viewBox="0 0 24 24" fill="currentColor" xmlns="http://www.w3.org/2000/svg">
<path d="M5.70805 21C5.38766 21 5.08038 20.8727 4.85383 20.6462C4.62728 20.4196 4.5 20.1123 4.5 19.7919V10.4126C4.5 10.0922 4.62728 9.78495 4.85383 9.55839C5.08038 9.33184 5.38766 9.20456 5.70805 9.20456H6.31208C6.51385 7.77716 7.06538 6.42178 7.91758 5.25906C8.37483 4.58638 8.98445 4.03117 9.69683 3.63861C10.4092 3.24606 11.2042 3.02725 12.0171 3C12.8301 3.02744 13.6251 3.24633 14.3375 3.63886C15.05 4.0314 15.6597 4.58651 16.1172 5.25906C16.9697 6.42158 17.5211 7.77708 17.7221 9.20456H18.3612C18.6816 9.20456 18.9889 9.33184 19.2154 9.55839C19.442 9.78495 19.5693 10.0922 19.5693 10.4126V19.7919C19.5693 20.1123 19.442 20.4196 19.2154 20.6462C18.9889 20.8727 18.6816 21 18.3612 21H5.70805ZM10.3965 13.913C10.3971 14.1316 10.4476 14.3472 10.544 14.5434C10.6403 14.7397 10.7802 14.9114 10.9528 15.0455L10.3965 17.255H13.2584L12.6972 15.0515C12.8908 14.9036 13.0433 14.7088 13.1406 14.4854C13.2378 14.2621 13.2764 14.0177 13.2529 13.7752C13.2293 13.5328 13.1443 13.3004 13.0059 13.1C12.8675 12.8995 12.6802 12.7377 12.4619 12.6298C12.2435 12.5219 12.0012 12.4715 11.7579 12.4833C11.5146 12.4952 11.2784 12.5688 11.0715 12.6974C10.8646 12.826 10.6939 13.0052 10.5756 13.2181C10.4573 13.431 10.3952 13.6706 10.3953 13.9142L10.3965 13.913ZM15.3169 9.20456C14.885 6.97812 13.5652 5.34785 12.0171 5.34785C10.469 5.34785 9.14799 6.97873 8.71671 9.20456H15.3169Z" fill="currentColor"/>
</svg>
