<svg width="24" height="24" viewBox="0 0 24 24" fill="none" xmlns="http://www.w3.org/2000/svg">
<path d="M9.00616 7.99396C9.13 8.11392 9.30692 8.11392 9.44845 8.02823C9.94382 7.70263 10.4923 7.47984 11.0938 7.35988C11.253 7.32561 11.3769 7.20565 11.3769 7.03427L11.3769 3.93244C11.3769 3.72679 11.1999 3.57256 11.0053 3.60683C9.41307 3.79534 7.96234 4.39514 6.777 5.30342C6.61777 5.42338 6.60008 5.6633 6.7593 5.8004L9.00616 7.99396Z" fill="#404040"/>
<path d="M14.5437 8.0454C14.0484 7.7198 13.4999 7.49701 12.8984 7.37705C12.7392 7.34278 12.6153 7.20568 12.633 7.05144V3.93247C12.633 3.74396 12.8099 3.58973 13.0046 3.60687C14.5968 3.79538 16.0475 4.39518 17.2329 5.30345C17.3921 5.42341 17.3921 5.66333 17.2506 5.80043L14.986 8.01113C14.8622 8.13109 14.6853 8.13109 14.5437 8.0454Z" fill="#404040"/>
<path d="M3.95723 11.6533H7.15944C7.31867 11.6533 7.4602 11.5334 7.49558 11.3791C7.61943 10.7965 7.84942 10.2652 8.18556 9.78539C8.27402 9.64829 8.27402 9.47692 8.15018 9.35696L5.86794 7.16339C5.72641 7.0263 5.47872 7.0263 5.35488 7.18053C4.41722 8.32872 3.798 9.73398 3.60339 11.2763C3.5857 11.482 3.74493 11.6533 3.95723 11.6533Z" fill="#404040"/>
<path d="M8.16778 14.7209C7.83164 14.2411 7.60165 13.7098 7.47781 13.1272C7.44242 12.9729 7.31858 12.853 7.14166 12.853H3.95714C3.74484 12.853 3.58561 13.0243 3.621 13.2128C3.81561 14.7552 4.43482 16.1604 5.37248 17.3086C5.49633 17.4629 5.74401 17.48 5.88555 17.3258L8.15009 15.1322C8.25624 15.0294 8.25624 14.858 8.16778 14.7209Z" fill="#404040"/>
<path d="M16.8545 12.8529H20.0567C20.269 12.8529 20.4283 13.0243 20.3929 13.2299C20.1983 14.7723 19.5791 16.1775 18.6414 17.3257C18.5176 17.48 18.2699 17.48 18.1283 17.3429L15.8638 15.1493C15.7399 15.0293 15.7399 14.858 15.8284 14.7209C16.1646 14.241 16.3945 13.7098 16.5184 13.1271C16.5538 12.9729 16.6953 12.8529 16.8545 12.8529Z" fill="#404040"/>
<path d="M11.1049 16.6231C10.5033 16.5032 9.95489 16.2804 9.45952 15.9548C9.31798 15.8691 9.14106 15.8691 9.01722 15.989L6.75267 18.1997C6.61114 18.3368 6.61114 18.5768 6.77037 18.6967C7.95572 19.605 9.40644 20.2048 10.9987 20.3933C11.1933 20.4104 11.3702 20.2562 11.3702 20.0677V16.9487C11.3879 16.7945 11.2641 16.6574 11.1049 16.6231Z" fill="#404040"/>
<path d="M16.8548 11.6533C16.6779 11.6533 16.554 11.5334 16.5186 11.3791C16.4125 10.7965 16.1648 10.2481 15.8463 9.78536C15.7579 9.64827 15.7579 9.47689 15.8817 9.35693L18.1286 7.18051C18.2701 7.02627 18.5178 7.04341 18.6416 7.19765C19.5793 8.34584 20.1985 9.75109 20.3931 11.2934C20.4285 11.4819 20.2693 11.6533 20.057 11.6533H16.8548Z" fill="#404040"/>
<path d="M14.9971 16.0062C14.8733 15.8862 14.6963 15.8862 14.5548 15.9719C14.0594 16.2975 13.511 16.5203 12.9095 16.6402C12.7502 16.6745 12.6264 16.7945 12.6264 16.9658V20.0677C12.6264 20.2733 12.8033 20.4276 12.9979 20.3933C14.5902 20.2048 16.0409 19.605 17.2263 18.6967C17.3855 18.5767 17.4032 18.3368 17.244 18.1997L14.9971 16.0062Z" fill="#404040"/>
</svg>
