<svg width="24" height="24" viewBox="0 0 24 24" fill="currentColor" xmlns="http://www.w3.org/2000/svg">
<path d="M21 19.1464H3V5.00342H21V19.1456V19.1464ZM14.6659 17.7575C14.7527 17.8241 14.859 17.8604 14.9684 17.8605H20.2168C20.3525 17.8594 20.4823 17.8045 20.5776 17.7078C20.6729 17.6111 20.726 17.4805 20.7251 17.3447L19.9241 13.2266C19.9244 13.0903 19.8708 12.9595 19.7749 12.8626C19.7281 12.8148 19.6722 12.7768 19.6105 12.7509C19.5488 12.725 19.4826 12.7116 19.4157 12.7118H14.8451C14.7599 12.7114 14.6761 12.7332 14.6019 12.775C14.5275 12.7337 14.4438 12.7119 14.3587 12.7118H9.71351C9.61436 12.711 9.51714 12.7392 9.43378 12.7929C9.35115 12.739 9.25436 12.7107 9.15568 12.7118H4.58514C4.44951 12.713 4.31993 12.7681 4.22478 12.8648C4.12964 12.9614 4.07671 13.0918 4.07757 13.2274L3.27649 17.3456C3.27615 17.4819 3.32979 17.6128 3.42568 17.7097C3.47245 17.7575 3.52832 17.7955 3.59001 17.8214C3.6517 17.8473 3.71796 17.8606 3.78487 17.8605H9.03325C9.15848 17.8601 9.27905 17.8129 9.37135 17.7283C9.46523 17.813 9.58707 17.8601 9.71351 17.8605H14.3603C14.4707 17.8606 14.5781 17.8244 14.6659 17.7575ZM9.10865 6.72154L3.79622 12.0729H20.1081L16.4943 8.99175L13.0889 11.0302L9.11595 6.72154H9.10865ZM13.607 6.93157C13.3513 6.932 13.1062 7.03376 12.9255 7.21464C12.7448 7.39552 12.6432 7.64069 12.643 7.89639C12.6432 8.152 12.7448 8.39709 12.9256 8.57784C13.1063 8.75858 13.3514 8.8602 13.607 8.86041C13.8627 8.8602 14.1079 8.75866 14.2888 8.57793C14.4696 8.39721 14.5715 8.15208 14.5719 7.89639C14.5715 7.64069 14.4696 7.39566 14.2888 7.21494C14.1079 7.03421 13.8627 6.93257 13.607 6.93236V6.93157ZM19.7262 17.2515H18.5311C18.4295 17.2506 18.3324 17.2095 18.2611 17.1372C18.1898 17.0648 18.1502 16.9672 18.1508 16.8656V15.8642C18.1502 15.7627 18.1898 15.665 18.2611 15.5927C18.3324 15.5203 18.4295 15.4791 18.5311 15.4782H19.7262C19.8278 15.4791 19.9249 15.5203 19.9962 15.5927C20.0675 15.665 20.1071 15.7627 20.1065 15.8642V16.8656C20.1071 16.9672 20.0675 17.0648 19.9962 17.1372C19.9249 17.2095 19.8278 17.2506 19.7262 17.2515ZM17.4341 17.2515H16.2405C16.1902 17.2512 16.1404 17.241 16.094 17.2214C16.0476 17.2018 16.0055 17.1733 15.9701 17.1375C15.9347 17.1016 15.9067 17.0592 15.8877 17.0126C15.8687 16.9659 15.8591 16.9159 15.8595 16.8656V15.8642C15.8591 15.8139 15.8687 15.7639 15.8877 15.7173C15.9067 15.6706 15.9347 15.6282 15.9701 15.5924C16.0055 15.5565 16.0476 15.528 16.094 15.5084C16.1404 15.4889 16.1902 15.4786 16.2405 15.4782H17.4324C17.534 15.4791 17.6311 15.5203 17.7024 15.5927C17.7737 15.665 17.8134 15.7627 17.8127 15.8642V16.8656C17.8134 16.9672 17.7737 17.0648 17.7024 17.1372C17.6311 17.2095 17.534 17.2506 17.4324 17.2515H17.4341ZM7.76189 17.2515H6.56757C6.466 17.2506 6.36891 17.2095 6.29762 17.1372C6.22633 17.0648 6.18665 16.9672 6.1873 16.8656V15.8642C6.18665 15.7627 6.22633 15.665 6.29762 15.5927C6.36891 15.5203 6.466 15.4791 6.56757 15.4782H7.7627C7.86428 15.4791 7.96136 15.5203 8.03265 15.5927C8.10395 15.665 8.14362 15.7627 8.14298 15.8642V16.8656C8.14362 16.9672 8.10395 17.0648 8.03265 17.1372C7.96136 17.2095 7.86428 17.2506 7.7627 17.2515H7.76189ZM5.47054 17.2515H4.2754C4.17383 17.2506 4.07675 17.2095 4.00545 17.1372C3.93416 17.0648 3.89448 16.9672 3.89513 16.8656V15.8642C3.89448 15.7627 3.93416 15.665 4.00545 15.5927C4.07675 15.5203 4.17383 15.4791 4.2754 15.4782H5.47054C5.57211 15.4791 5.6692 15.5203 5.74049 15.5927C5.81178 15.665 5.85146 15.7627 5.85081 15.8642V16.8656C5.85146 16.967 5.8119 17.0645 5.74078 17.1369C5.66966 17.2092 5.57278 17.2504 5.47135 17.2515H5.47054ZM13.8592 17.241H12.643C12.5397 17.2401 12.4409 17.1984 12.3684 17.1248C12.2959 17.0512 12.2556 16.9519 12.2562 16.8486V15.831C12.2556 15.7277 12.2959 15.6283 12.3684 15.5547C12.4409 15.4812 12.5397 15.4394 12.643 15.4386H13.8592C13.9625 15.4394 14.0612 15.4812 14.1337 15.5547C14.2062 15.6283 14.2466 15.7277 14.2459 15.831V16.8486C14.2468 16.9519 14.2067 17.0513 14.1343 17.125C14.0619 17.1987 13.9633 17.2407 13.86 17.2418L13.8592 17.241ZM11.5297 17.241H10.3135C10.2102 17.2401 10.1115 17.1984 10.039 17.1248C9.96647 17.0512 9.92611 16.9519 9.92676 16.8486V15.831C9.92611 15.7277 9.96647 15.6283 10.039 15.5547C10.1115 15.4812 10.2102 15.4394 10.3135 15.4386H11.5297C11.633 15.4394 11.7318 15.4812 11.8043 15.5547C11.8768 15.6283 11.9171 15.7277 11.9165 15.831V16.8486C11.9174 16.9519 11.8772 17.0513 11.8048 17.125C11.7325 17.1987 11.6338 17.2407 11.5305 17.2418L11.5297 17.241ZM13.8722 15.214H12.6559C12.5527 15.2131 12.4539 15.1713 12.3814 15.0978C12.3089 15.0242 12.2685 14.9248 12.2692 14.8215V13.804C12.2685 13.7007 12.3089 13.6013 12.3814 13.5277C12.4539 13.4541 12.5527 13.4124 12.6559 13.4115H13.8722C13.9755 13.4124 14.0742 13.4541 14.1467 13.5277C14.2192 13.6013 14.2596 13.7007 14.2589 13.804V14.8215C14.2598 14.9248 14.2196 15.0242 14.1473 15.098C14.0749 15.1717 13.9763 15.2137 13.873 15.2148L13.8722 15.214ZM11.5419 15.214H10.3257C10.2224 15.2131 10.1236 15.1713 10.0511 15.0978C9.97863 15.0242 9.93827 14.9248 9.93892 14.8215V13.804C9.93827 13.7007 9.97863 13.6013 10.0511 13.5277C10.1236 13.4541 10.2224 13.4124 10.3257 13.4115H11.5419C11.6452 13.4124 11.7439 13.4541 11.8164 13.5277C11.8889 13.6013 11.9293 13.7007 11.9287 13.804V14.8215C11.9295 14.9248 11.8894 15.0242 11.817 15.098C11.7446 15.1717 11.646 15.2137 11.5427 15.2148L11.5419 15.214ZM18.9373 15.1726H17.7422C17.6406 15.1717 17.5435 15.1306 17.4722 15.0583C17.4009 14.9859 17.3612 14.8883 17.3619 14.7867V13.7854C17.3612 13.6838 17.4009 13.586 17.4722 13.5137C17.5435 13.4413 17.6406 13.4002 17.7422 13.3993H18.9373C19.0389 13.4002 19.136 13.4413 19.2072 13.5137C19.2785 13.586 19.3182 13.6838 19.3176 13.7854V14.7867C19.3184 14.8883 19.279 14.986 19.2078 15.0585C19.1367 15.131 19.0397 15.1723 18.9381 15.1734L18.9373 15.1726ZM16.6451 15.1726H15.4508C15.3492 15.1717 15.2522 15.1306 15.1809 15.0583C15.1096 14.9859 15.0699 14.8883 15.0705 14.7867V13.7854C15.0699 13.6838 15.1096 13.586 15.1809 13.5137C15.2522 13.4413 15.3492 13.4002 15.4508 13.3993H16.6451C16.7467 13.4002 16.8438 13.4413 16.9151 13.5137C16.9864 13.586 17.0261 13.6838 17.0254 13.7854V14.7867C17.0263 14.8883 16.9868 14.986 16.9157 15.0585C16.8445 15.131 16.7475 15.1723 16.6459 15.1734L16.6451 15.1726ZM8.55 15.1726H7.35487C7.25329 15.1717 7.15621 15.1306 7.08492 15.0583C7.01362 14.9859 6.97395 14.8883 6.9746 14.7867V13.7854C6.97395 13.6838 7.01362 13.586 7.08492 13.5137C7.15621 13.4413 7.25329 13.4002 7.35487 13.3993H8.55C8.65158 13.4002 8.74866 13.4413 8.81995 13.5137C8.89124 13.586 8.93092 13.6838 8.93027 13.7854V14.7867C8.93114 14.8883 8.89167 14.986 8.82053 15.0585C8.74939 15.131 8.65239 15.1723 8.55081 15.1734L8.55 15.1726ZM6.25784 15.1726H5.06351C4.96194 15.1717 4.86485 15.1306 4.79356 15.0583C4.72227 14.9859 4.68259 14.8883 4.68324 14.7867V13.7854C4.68259 13.6838 4.72227 13.586 4.79356 13.5137C4.86485 13.4413 4.96194 13.4002 5.06351 13.3993H6.25784C6.35941 13.4002 6.4565 13.4413 6.52779 13.5137C6.59908 13.586 6.63876 13.6838 6.63811 13.7854V14.7867C6.63897 14.8881 6.59962 14.9857 6.52865 15.0582C6.45769 15.1307 6.36089 15.1721 6.25946 15.1734L6.25784 15.1726Z" fill="currentColor"/>
</svg>
