<svg width="24" height="24" viewBox="0 0 24 24" fill="none" xmlns="http://www.w3.org/2000/svg">
<path d="M20.9971 12.2299C20.9484 14.1338 20.2971 15.9732 19.1367 17.4834C17.9764 18.9936 16.3668 20.0968 14.5397 20.6342C12.7126 21.1717 10.7621 21.1156 8.96885 20.4742C7.1756 19.8328 5.63206 18.639 4.5603 17.0647C3.48855 15.4903 2.94385 13.6166 3.00458 11.713C3.0653 9.8095 3.72832 7.97428 4.89823 6.47145C6.06814 4.96863 7.68463 3.87567 9.51512 3.34984C11.3456 2.824 13.2957 2.89241 15.0849 3.5452L12 12L20.9971 12.2299Z" fill="#182230"/>
<path d="M20.1185 10.9976H13.6044L15.903 4.8827C17.147 5.5248 18.0682 6.30776 18.8442 7.48363C19.6201 8.65951 20.0174 9.60132 20.1185 10.9976Z" fill="#182230"/>
</svg>
