<svg width="24" height="24" viewBox="0 0 24 24" fill="currentColor" xmlns="http://www.w3.org/2000/svg">
<path d="M19.3003 6.75L20.4003 7.75C20.6003 7.95 20.6003 8.25 20.3003 8.35C19.6003 9.25 18.5003 9.45 17.5003 9.05L13.9003 14.15C14.6003 15.05 14.6003 16.45 13.8003 17.35C13.6003 17.55 13.3003 17.55 13.1003 17.35L11.169 15.6743L4.00024 21.25L8.56326 13.4135L6.30027 11.45C6.10027 11.25 6.10027 10.95 6.30027 10.75C7.20027 9.85 8.50027 9.65 9.50027 10.25L14.1003 6.05C13.6003 5.15 13.7003 3.95 14.4003 3.15C14.6003 2.95 14.9003 2.95 15.1003 3.15L17.8003 5.45L19.3003 6.75Z" fill="currentColor"/>
</svg>
