<svg width="24" height="24" viewBox="0 0 24 24" fill="currentColor" xmlns="http://www.w3.org/2000/svg">
<path fill-rule="evenodd" clip-rule="evenodd" d="M16.4098 4.16283C16.665 4.26835 16.7863 4.56077 16.6808 4.81595L16.1856 6.01348C16.7255 6.32553 17.2336 6.81497 17.5727 7.46462L18.7439 7.06252C19.0051 6.97285 19.2895 7.11188 19.3792 7.37306C19.4688 7.63424 19.3298 7.91866 19.0686 8.00833L17.9089 8.40649C17.9802 8.74662 18.0074 9.11194 17.9813 9.49989H19.125C19.4011 9.49989 19.625 9.72374 19.625 9.99989C19.625 10.276 19.4011 10.4999 19.125 10.4999H17.804C17.7074 10.841 17.5717 11.1941 17.393 11.5584L18.5496 12.1813C18.7927 12.3122 18.8837 12.6155 18.7527 12.8586C18.6218 13.1017 18.3185 13.1927 18.0754 13.0617L16.8968 12.4269C16.7092 12.7154 16.4949 13.0102 16.2522 13.3112L17.3477 14.2065C17.5615 14.3812 17.5931 14.6962 17.4184 14.91C17.2437 15.1239 16.9287 15.1555 16.7148 14.9808L15.595 14.0656C15.2158 14.471 14.7851 14.8871 14.2981 15.3135C14.2337 15.3699 14.1697 15.4253 14.106 15.4797L14.9497 16.5122C15.1244 16.726 15.0927 17.041 14.8789 17.2157C14.665 17.3904 14.35 17.3587 14.1753 17.1449L13.3284 16.1085C12.8284 16.4896 12.353 16.8059 11.9014 17.065L12.3167 18.2751C12.4063 18.5363 12.2672 18.8207 12.006 18.9103C11.7449 18.9999 11.4605 18.8609 11.3708 18.5997L11.001 17.5219C10.4436 17.7664 9.92578 17.9199 9.44584 17.9991V19.3749C9.44584 19.651 9.22199 19.8749 8.94584 19.8749C8.6697 19.8749 8.44584 19.651 8.44584 19.3749V18.0604C7.68009 18.0227 7.06157 17.7848 6.58139 17.4832L5.51264 18.5693C5.31896 18.7662 5.00239 18.7687 4.80556 18.575C4.60873 18.3813 4.60618 18.0648 4.79986 17.8679L5.80874 16.8427C5.61696 16.6362 5.47783 16.4413 5.38665 16.2932C4.96726 15.6117 5.0872 14.7591 5.61934 14.0321L4.52823 12.9817C4.32929 12.7902 4.32328 12.4737 4.51479 12.2747C4.70631 12.0758 5.02283 12.0698 5.22177 12.2613L6.32563 13.324C6.67491 13.0579 7.0999 12.8212 7.60075 12.6274C7.83019 12.5385 8.0401 12.4562 8.23428 12.3777L7.59574 11.2455C7.46009 11.005 7.5451 10.7 7.78562 10.5644C8.02615 10.4287 8.3311 10.5137 8.46676 10.7543L9.15504 11.9746C9.82983 11.645 10.3193 11.2974 10.9346 10.6852L10.0125 9.99363C9.79158 9.82794 9.74682 9.51454 9.91251 9.29363C10.0782 9.07272 10.3916 9.02795 10.6125 9.19364L11.5937 9.92953C11.7639 9.66714 11.9203 9.3484 12.0764 8.98717C12.159 8.79598 12.2446 8.58448 12.3324 8.36754C12.4094 8.17727 12.4881 7.9828 12.568 7.79416L11.6458 7.39652C11.3922 7.28719 11.2753 6.99299 11.3846 6.73942C11.4939 6.48584 11.7881 6.36891 12.0417 6.47825L13.0018 6.89223C13.1739 6.59157 13.3763 6.30929 13.6247 6.08712C14.0106 5.74195 14.4991 5.5508 15.0962 5.62912C15.1479 5.6359 15.1999 5.64443 15.2519 5.65464L15.7567 4.43382C15.8622 4.17864 16.1546 4.05731 16.4098 4.16283ZM14.2914 6.83246C14.0787 7.02271 13.8824 7.33073 13.682 7.75073C13.5376 8.05334 13.413 8.36255 13.2812 8.68953C13.1917 8.91159 13.0989 9.14184 12.9944 9.3838C12.753 9.94253 12.4615 10.5277 12.0533 10.9658C11.026 12.0682 10.3369 12.558 9.14649 13.0795C8.79931 13.2316 8.41026 13.3863 7.96174 13.5599C7.37393 13.7875 6.94819 14.0697 6.65781 14.356C6.06033 14.945 6.06593 15.489 6.23831 15.7691C6.33575 15.9274 6.53244 16.1918 6.83883 16.44C7.27899 16.7966 7.94885 17.1242 8.91079 17.0566C9.49609 17.0155 10.2086 16.8269 11.0615 16.3847C11.6676 16.0704 12.3429 15.6287 13.0907 15.0236C13.2695 14.8789 13.4524 14.725 13.6393 14.5612C14.2419 14.0335 14.747 13.5287 15.1669 13.0485C15.6439 12.503 16.01 11.9905 16.2844 11.5133C16.6264 10.9187 16.8251 10.3807 16.9204 9.9022C17.0496 9.25362 16.9909 8.70498 16.8298 8.25544C16.5484 7.47023 15.9382 6.94576 15.3639 6.72499C15.2226 6.67067 15.0881 6.63661 14.9662 6.62063C14.6859 6.58386 14.4823 6.66171 14.2914 6.83246Z" fill="currentColor"/>
</svg>
