<svg width="24" height="24" viewBox="0 0 24 24" fill="currentColor" xmlns="http://www.w3.org/2000/svg">
<path d="M7.46708 19.7172C7.26608 19.7172 7.07258 19.6369 6.93083 19.4952C6.78908 19.3534 6.70883 19.1599 6.70883 18.9589C6.70883 18.7579 6.78908 18.5644 6.93083 18.4227C7.07258 18.2809 7.26608 18.2007 7.46708 18.2007H9.73208V16.6834H4.80158C4.23683 16.6834 3.69608 16.4592 3.29708 16.0602C2.89808 15.6612 2.67383 15.1197 2.67383 14.5557V6.41816C2.67383 5.85416 2.89808 5.31266 3.29708 4.91366C3.69608 4.51466 4.23758 4.29041 4.80158 4.29041H19.1986C19.7633 4.29041 20.3041 4.51466 20.7031 4.91366C21.1021 5.31266 21.3263 5.85416 21.3263 6.41816V14.5549C21.3263 15.1197 21.1021 15.6604 20.7031 16.0594C20.3041 16.4584 19.7626 16.6827 19.1986 16.6827H14.2703V18.1999H16.5368C16.7378 18.1999 16.9313 18.2802 17.0731 18.4219C17.2148 18.5637 17.2951 18.7572 17.2951 18.9582C17.2951 19.1592 17.2148 19.3527 17.0731 19.4944C16.9306 19.6369 16.7378 19.7164 16.5368 19.7164L7.46708 19.7172ZM4.69058 6.6364V14H19.3103V6.6364C19.3103 6.3544 19.1986 6.08366 18.9983 5.88416C18.7981 5.68466 18.5281 5.57216 18.2461 5.57216H5.75483C5.47283 5.57216 5.20208 5.68391 5.00258 5.88416C4.80308 6.08441 4.69058 6.3544 4.69058 6.6364Z" fill="currentColor"/>
</svg>
