<svg width="24" height="24" viewBox="0 0 24 24" fill="none" xmlns="http://www.w3.org/2000/svg">
<path d="M8.83276 21.1429C8.38501 21.1429 7.95601 20.9651 7.63951 20.6486C7.32301 20.3321 7.14526 19.9031 7.14526 19.4554V4.55064C7.14526 4.10289 7.32301 3.67464 7.63951 3.35814C7.95601 3.04164 8.38501 2.86389 8.83276 2.86389H15.1673C15.615 2.86389 16.044 3.04164 16.3605 3.35814C16.677 3.67464 16.8548 4.10364 16.8548 4.55064V19.4554C16.8548 19.9031 16.677 20.3321 16.3605 20.6486C16.044 20.9651 15.615 21.1429 15.1673 21.1429H8.83276ZM9.25426 4.42389C8.70301 4.42389 8.25601 4.87089 8.25601 5.42214V16.5049C8.25601 17.0561 8.70301 17.5031 9.25426 17.5031H14.7458C15.297 17.5031 15.744 17.0561 15.744 16.5049V5.42214C15.744 4.87089 15.297 4.42389 14.7458 4.42389H9.25426ZM12 20.3501C12.4898 20.3501 12.8865 19.9534 12.8865 19.4629C12.8865 18.9724 12.4898 18.5764 12 18.5764C11.5103 18.5764 11.1135 18.9731 11.1135 19.4629C11.1135 19.9526 11.5103 20.3501 12 20.3501Z" fill="#182230"/>
</svg>
