<svg width="24" height="24" viewBox="0 0 24 24" fill="currentColor" xmlns="http://www.w3.org/2000/svg">
<path d="M17.7863 19.4544C17.6071 19.4544 17.4352 19.3832 17.3084 19.2565C17.1817 19.1298 17.1105 18.9578 17.1105 18.7786V12.4066C17.1105 12.2274 17.1817 12.0555 17.3084 11.9288C17.4352 11.802 17.6071 11.7308 17.7863 11.7308H20.3241C20.5034 11.7308 20.6753 11.802 20.802 11.9288C20.9288 12.0555 21 12.2274 21 12.4066V18.7786C21 18.9578 20.9288 19.1298 20.802 19.2565C20.6753 19.3832 20.5034 19.4544 20.3241 19.4544H17.7863ZM18.7548 19.0111C18.755 19.1046 18.7922 19.1943 18.8583 19.2604C18.9245 19.3265 19.0141 19.3637 19.1076 19.3639C19.1539 19.3639 19.1998 19.3548 19.2426 19.337C19.2854 19.3193 19.3243 19.2933 19.3571 19.2605C19.3898 19.2278 19.4158 19.1889 19.4335 19.1461C19.4513 19.1033 19.4604 19.0574 19.4604 19.0111C19.4602 18.9175 19.423 18.8279 19.3569 18.7618C19.2908 18.6957 19.2011 18.6585 19.1076 18.6583C19.0142 18.6586 18.9246 18.6959 18.8585 18.762C18.7925 18.8281 18.7552 18.9176 18.7548 19.0111ZM17.6059 13.2048V17.2735C17.6059 17.4527 17.6771 17.6246 17.8038 17.7513C17.9306 17.8781 18.1025 17.9493 18.2817 17.9493H19.8287C20.008 17.9493 20.1799 17.8781 20.3066 17.7513C20.4334 17.6246 20.5046 17.4527 20.5046 17.2735V13.2048C20.5046 13.0256 20.4334 12.8537 20.3066 12.7269C20.1799 12.6002 20.008 12.529 19.8287 12.529H18.2844C18.1955 12.5288 18.1074 12.5462 18.0252 12.5801C17.943 12.6141 17.8683 12.6638 17.8054 12.7267C17.7425 12.7895 17.6926 12.8642 17.6586 12.9464C17.6246 13.0285 17.6071 13.1166 17.6072 13.2055L17.6059 13.2048ZM7.12609 18.5407C6.95281 18.5405 6.78668 18.4716 6.66415 18.3491C6.54162 18.2265 6.47271 18.0604 6.47253 17.8871C6.47271 17.7139 6.54162 17.5477 6.66415 17.4252C6.78668 17.3027 6.95281 17.2337 7.12609 17.2336H9.07727V15.9271H4.35171C3.99321 15.9271 3.6494 15.7847 3.3959 15.5312C3.14241 15.2777 3 14.9339 3 14.5754V6.60512C3 6.24663 3.14241 5.90284 3.3959 5.64934C3.6494 5.39585 3.99321 5.25342 4.35171 5.25342H17.7133C18.0718 5.25342 18.4156 5.39585 18.6691 5.64934C18.9226 5.90284 19.065 6.24663 19.065 6.60512V11.0252H17.3281V7.03224C17.3281 6.85299 17.2569 6.68113 17.1301 6.55439C17.0034 6.42764 16.8315 6.35638 16.6522 6.35638H5.41212C5.23287 6.35638 5.06097 6.42764 4.93422 6.55439C4.80747 6.68113 4.73627 6.85299 4.73627 7.03224V14.1463C4.73627 14.3255 4.80747 14.4975 4.93422 14.6242C5.06097 14.7509 5.23287 14.8221 5.41212 14.8221H16.4049V15.9265H12.9871V17.2329H14.9389C15.1122 17.2331 15.2784 17.302 15.4009 17.4246C15.5234 17.5471 15.5923 17.7132 15.5925 17.8865C15.5923 18.0598 15.5234 18.2259 15.4009 18.3484C15.2784 18.4709 15.1122 18.5399 14.9389 18.5401L7.12609 18.5407Z" fill="currentColor"/>
</svg>
