<svg width="25" height="24" viewBox="0 0 25 24" fill="none" xmlns="http://www.w3.org/2000/svg">
<path d="M3.5 12C3.50024 10.2199 4.02829 8.47987 5.01738 6.99985C6.00647 5.51982 7.41219 4.3663 9.0568 3.68512C10.7014 3.00393 12.5111 2.82568 14.257 3.17289C16.0029 3.52011 17.6067 4.3772 18.8655 5.6358C19.912 6.68248 20.6842 7.97108 21.1137 9.38747C21.5432 10.8039 21.6168 12.3043 21.328 13.7559C21.0392 15.2076 20.3968 16.5655 19.4578 17.7096C18.5188 18.8537 17.3121 19.7486 15.9447 20.3149C14.5773 20.8813 13.0913 21.1017 11.6183 20.9567C10.1454 20.8116 8.73092 20.3055 7.50026 19.4832C6.2696 18.661 5.26071 17.5479 4.56295 16.2426C3.86519 14.9373 3.50009 13.4801 3.5 12H3.5ZM5.95496 12C5.95481 13.2948 6.33862 14.5605 7.05785 15.6372C7.77708 16.7138 8.79942 17.553 9.99559 18.0486C11.1918 18.5442 12.508 18.6739 13.7779 18.4214C15.0478 18.1689 16.2144 17.5455 17.1299 16.63C18.0455 15.7145 18.6691 14.5481 18.9217 13.2782C19.1744 12.0083 19.0448 10.692 18.5493 9.49579C18.0539 8.29957 17.2148 7.27713 16.1383 6.55778C15.0617 5.83843 13.796 5.45447 12.5013 5.45447C10.7658 5.45645 9.102 6.14668 7.87477 7.37376C6.64755 8.60084 5.95713 10.2646 5.95496 12ZM6.70115 11.9254C6.7013 10.7926 7.03735 9.68528 7.66681 8.74346C8.29627 7.80163 9.19087 7.06761 10.2375 6.63421C11.2841 6.2008 12.4358 6.08748 13.5468 6.30857C14.6578 6.52966 15.6783 7.07523 16.4793 7.8763C17.2802 8.67737 17.8257 9.69796 18.0466 10.809C18.2676 11.9201 18.1541 13.0717 17.7206 14.1182C17.287 15.1648 16.5529 16.0593 15.611 16.6887C14.6691 17.318 13.5617 17.6539 12.4289 17.6539C10.91 17.6527 9.45369 17.0489 8.37955 15.9751C7.30541 14.9012 6.70124 13.445 6.69966 11.9262L6.70115 11.9254ZM12.6348 14.4162L14.5234 15.425C14.5633 15.4466 14.6079 15.4579 14.6533 15.4579C14.6938 15.4577 14.7337 15.4487 14.7703 15.4314C14.807 15.4141 14.8393 15.389 14.8652 15.3579C14.8913 15.3274 14.9102 15.2915 14.9207 15.2528C14.9311 15.2141 14.9328 15.1735 14.9256 15.134L14.5779 13.0216C14.5707 12.9775 14.5742 12.9324 14.5883 12.89C14.6023 12.8477 14.6264 12.8093 14.6585 12.7783L16.2009 11.2941C16.2376 11.2583 16.2637 11.213 16.2762 11.1633C16.2887 11.1135 16.2871 11.0613 16.2716 11.0124C16.2561 10.9634 16.2274 10.9198 16.1885 10.8863C16.1497 10.8528 16.1023 10.8307 16.0516 10.8226L13.9347 10.5009C13.8908 10.4945 13.8491 10.4775 13.8132 10.4515C13.7772 10.4256 13.748 10.3913 13.728 10.3517L12.7938 8.42206C12.7712 8.37537 12.7359 8.33602 12.692 8.30855C12.648 8.28109 12.5971 8.26663 12.5453 8.26686C12.4944 8.26607 12.4443 8.27965 12.4007 8.30605C12.3571 8.33244 12.3219 8.37058 12.2991 8.41609L11.335 10.3323C11.3153 10.3724 11.286 10.4071 11.2496 10.4331C11.2133 10.4591 11.1711 10.4758 11.1268 10.4815L9.00612 10.78C8.95528 10.7872 8.90744 10.8084 8.86801 10.8412C8.82858 10.8741 8.79913 10.9174 8.78299 10.9661C8.76685 11.0149 8.76465 11.0671 8.77666 11.1171C8.78866 11.167 8.81438 11.2126 8.85092 11.2486L10.3739 12.7537C10.4052 12.7852 10.4284 12.824 10.4414 12.8665C10.4544 12.909 10.4568 12.954 10.4485 12.9977L10.0754 15.1057C10.0682 15.145 10.0697 15.1855 10.0799 15.2242C10.0901 15.2629 10.1087 15.2988 10.1344 15.3295C10.1603 15.3606 10.1926 15.3857 10.2293 15.403C10.2659 15.4203 10.3058 15.4293 10.3463 15.4295C10.3907 15.4296 10.4345 15.4188 10.4739 15.3982L12.3796 14.4117C12.4192 14.3907 12.4632 14.3798 12.508 14.3798C12.5527 14.3798 12.5968 14.3907 12.6363 14.4117L12.6348 14.4162Z" fill="#182230"/>
</svg>
