<svg width="24" height="24" viewBox="0 0 24 24" fill="currentColor" xmlns="http://www.w3.org/2000/svg">
<path d="M16.933 20.6801H7.06389C6.00921 20.7011 4.98923 20.3031 4.22748 19.5734C3.46572 18.8436 3.02432 17.8417 3 16.7871L3 4.55319C3 4.00218 3.15383 3.75 3.48356 3.75C3.98712 3.84682 4.46595 4.04431 4.89135 4.33065C5.6523 4.83197 6.52089 5.14648 7.42639 5.24858C8.2932 5.23047 9.13733 4.96825 9.86183 4.49204C10.4442 4.10334 11.1178 3.87322 11.8162 3.82439H11.8931C12.6326 3.86728 13.3497 4.09347 13.9799 4.48258C14.7246 4.92693 15.5635 5.18936 16.4286 5.24858H16.498C17.2865 5.17258 18.0476 4.91888 18.7241 4.50654L19.0027 4.36028L19.0135 4.3546C19.4635 4.06088 19.9673 3.85905 20.4956 3.76072C20.8386 3.76072 21 4.0129 21 4.55319V16.7871C20.9757 17.8423 20.5338 18.8447 19.7714 19.5745C19.009 20.3043 17.9882 20.7019 16.933 20.6801ZM11.0408 15.1567C10.9212 15.1569 10.8037 15.1876 10.6993 15.2459C10.595 15.3042 10.5072 15.3882 10.4445 15.49C10.3817 15.5917 10.346 15.7078 10.3406 15.8272C10.3353 15.9467 10.3606 16.0655 10.4141 16.1724L10.6083 16.5608L10.4141 16.9485C10.3606 17.0554 10.3353 17.1743 10.3406 17.2938C10.346 17.4133 10.3818 17.5294 10.4446 17.6312C10.5075 17.7329 10.5953 17.8169 10.6997 17.8752C10.8042 17.9335 10.9218 17.9641 11.0414 17.9641C11.0875 17.9643 11.1336 17.9599 11.1788 17.9509L12.888 17.6086C13.4765 17.5967 14.0579 17.4782 14.6041 17.2587L13.4529 15.3717C13.2589 15.4513 13.0522 15.4958 12.8426 15.5029L11.1801 15.17C11.1349 15.1609 11.0888 15.1562 11.0427 15.1561L11.0408 15.1567ZM14.5486 13.7584C14.5436 14.2192 14.3601 14.6602 14.0367 14.9884L15.2389 16.9573C15.8311 16.6161 16.3457 16.1554 16.7502 15.6046C17.1547 15.0538 17.4403 14.4249 17.5886 13.7578L14.5486 13.7584ZM14.7131 8.18144L13.4579 12.135C13.8802 12.3095 14.2189 12.6401 14.4036 13.058H17.6895C17.6895 13.0271 17.6933 12.9981 17.6952 12.9703C17.7015 12.8758 17.7065 12.7951 17.7065 12.7049C17.7068 11.7406 17.4232 10.7974 16.891 9.99324C16.3588 9.18903 15.6016 8.55933 14.7138 8.1827L14.7131 8.18144ZM7.18493 7.79371C6.99893 7.79404 6.82065 7.86808 6.68913 7.9996C6.55761 8.13112 6.48357 8.3094 6.48324 8.4954C6.48408 9.42554 6.8539 10.3173 7.51154 10.9751C8.16919 11.6329 9.06093 12.0029 9.99107 12.0039H12.7651L14.0512 7.96141C13.6427 7.85197 13.2219 7.79561 12.7991 7.79371H7.18493ZM8.23715 9.54258C8.16768 9.54271 8.09972 9.52222 8.04189 9.48371C7.98406 9.4452 7.93895 9.3904 7.91227 9.32624C7.8856 9.26209 7.87856 9.19146 7.89203 9.1233C7.90551 9.05514 7.93891 8.99251 7.98799 8.94334C8.03708 8.89416 8.09965 8.86065 8.16778 8.84705C8.23592 8.83345 8.30656 8.84037 8.37076 8.86693C8.43496 8.89349 8.48985 8.9385 8.52846 8.99626C8.56707 9.05402 8.58769 9.12194 8.58769 9.19142C8.58752 9.28439 8.55056 9.37352 8.48487 9.43932C8.41919 9.50512 8.33013 9.54225 8.23715 9.54258Z" fill="currentColor"/>
</svg>
