<svg width="24" height="24" viewBox="0 0 24 24" fill="none" xmlns="http://www.w3.org/2000/svg">
<path d="M9.0899 17.465H3V3H15.1811V9.30195C14.8164 9.39617 14.4684 9.54567 14.149 9.74528C13.6155 10.0963 12.9938 10.29 12.3552 10.3039C11.6878 10.2287 11.0475 9.99686 10.4865 9.6274C10.1727 9.41609 9.8195 9.27031 9.44802 9.19881C9.20458 9.19881 9.09183 9.38716 9.09183 9.7914V11.3751H5.03018V11.8818H9.0899V14.42H5.03018V14.9268H9.0899V17.465ZM5.03018 8.32947V8.83621H13.4866V8.32947H5.03018ZM5.03018 5.28451V5.7919H13.4866V5.28451H5.03018Z" fill="#404040"/>
<path d="M18.5784 20.7239H12.698C12.0696 20.7364 11.4619 20.4994 11.008 20.0647C10.5541 19.63 10.291 19.0331 10.2764 18.4048V11.1162C10.2764 10.7895 10.368 10.6377 10.564 10.6377C10.8642 10.6953 11.1497 10.813 11.4033 10.9836C11.8568 11.2822 12.3743 11.4694 12.9139 11.5301C13.4301 11.52 13.933 11.3646 14.3649 11.0816C14.7117 10.8491 15.1132 10.7111 15.5296 10.6812H15.5758C16.0161 10.7069 16.4432 10.8416 16.8186 11.0733C17.2615 11.3381 17.7606 11.4948 18.2754 11.5307H18.3164C18.787 11.485 19.2411 11.3329 19.6444 11.0861L19.8104 10.999H19.8148C20.0836 10.8234 20.3845 10.7027 20.7002 10.6441C20.9046 10.6441 21 10.794 21 11.1162V18.4048C20.9854 19.0331 20.7223 19.63 20.2684 20.0647C19.8145 20.4994 19.2068 20.7364 18.5784 20.7239ZM15.0677 17.4336C14.9966 17.4337 14.9266 17.4521 14.8645 17.4868C14.8024 17.5215 14.7502 17.5715 14.7128 17.6321C14.6754 17.6926 14.6541 17.7617 14.6508 17.8328C14.6476 17.9039 14.6625 17.9746 14.6942 18.0383L14.8102 18.2696L14.6942 18.5002C14.6623 18.5639 14.6472 18.6347 14.6504 18.7059C14.6536 18.777 14.6749 18.8462 14.7123 18.9068C14.7497 18.9674 14.802 19.0174 14.8642 19.0521C14.9265 19.0868 14.9965 19.105 15.0677 19.105C15.0952 19.1052 15.1227 19.1026 15.1497 19.0973L16.1683 18.8936C16.5198 18.8869 16.8671 18.8164 17.1934 18.6854L16.504 17.5617C16.3886 17.6091 16.2656 17.6356 16.1408 17.6399L15.1504 17.4413C15.1231 17.436 15.0955 17.4334 15.0677 17.4336ZM17.1575 16.6007C17.1546 16.8753 17.0453 17.138 16.8525 17.3336L17.5688 18.5066C17.9215 18.3034 18.2281 18.0289 18.469 17.7008C18.71 17.3727 18.8801 16.9981 18.9686 16.6007H17.1575ZM17.2555 13.2778L16.5072 15.6347C16.7585 15.7389 16.96 15.936 17.0697 16.185H19.0288C19.0288 16.167 19.0288 16.1497 19.032 16.1324C19.0358 16.0761 19.039 16.028 19.039 15.9742C19.0392 15.3997 18.8703 14.8379 18.5532 14.3588C18.2361 13.8797 17.785 13.5046 17.2561 13.2803L17.2555 13.2778ZM12.771 13.0471C12.6601 13.0471 12.5537 13.0912 12.4752 13.1696C12.3968 13.2481 12.3527 13.3545 12.3527 13.4655C12.3534 14.0192 12.5735 14.55 12.9648 14.9417C13.3562 15.3334 13.8868 15.554 14.4405 15.5552H16.0934L16.8622 13.1471C16.6179 13.0814 16.3662 13.0476 16.1132 13.0465L12.771 13.0471ZM13.3963 14.0888C13.3551 14.0883 13.315 14.0756 13.281 14.0524C13.247 14.0292 13.2207 13.9964 13.2052 13.9583C13.1898 13.9201 13.186 13.8782 13.1943 13.8379C13.2026 13.7976 13.2226 13.7606 13.2519 13.7316C13.2811 13.7026 13.3183 13.6829 13.3587 13.675C13.3991 13.6671 13.4409 13.6713 13.4789 13.6871C13.5169 13.7029 13.5495 13.7295 13.5724 13.7637C13.5953 13.7979 13.6076 13.8381 13.6077 13.8793C13.6077 13.907 13.6022 13.9344 13.5916 13.9599C13.5809 13.9855 13.5653 14.0086 13.5457 14.0281C13.526 14.0476 13.5027 14.063 13.4771 14.0734C13.4514 14.0838 13.424 14.0891 13.3963 14.0888Z" fill="#404040"/>
</svg>
