<svg width="25" height="24" viewBox="0 0 25 24" fill="none" xmlns="http://www.w3.org/2000/svg">
<path d="M11.9748 20.9996C10.1998 20.9998 8.46456 20.4736 6.98862 19.4875C5.51268 18.5014 4.36233 17.0998 3.68307 15.4598C3.00381 13.8199 2.82614 12.0154 3.17255 10.2745C3.51896 8.53359 4.37388 6.93453 5.62917 5.67955C6.46006 4.83525 7.44988 4.16379 8.54155 3.70391C9.63321 3.24403 10.8051 3.00482 11.9897 3.00007C13.1743 2.99533 14.3481 3.22515 15.4434 3.67627C16.5387 4.1274 17.5338 4.79091 18.3715 5.62853C19.2091 6.46616 19.8726 7.46132 20.3237 8.55663C20.7749 9.65195 21.0047 10.8257 20.9999 12.0103C20.9952 13.1949 20.756 14.3668 20.2961 15.4585C19.8362 16.5501 19.1647 17.5399 18.3204 18.3708C17.4891 19.2068 16.5002 19.8696 15.4109 20.3208C14.3217 20.772 13.1538 21.0027 11.9748 20.9996ZM8.13886 15.3444V16.6648H16.3977V15.3468L8.13886 15.3444ZM6.71436 8.93869L8.17457 12.7919V15.0075H16.4054V12.7359L17.6365 8.98095L14.0589 10.3673L12.1784 7.38323L10.1485 10.5162L6.71436 8.93869Z" fill="#182230"/>
</svg>
