<svg width="25" height="24" viewBox="0 0 25 24" fill="none" xmlns="http://www.w3.org/2000/svg">
<path d="M12.5 21C11.3178 21.0028 10.1465 20.7709 9.0545 20.3181C7.96245 19.8653 6.97116 19.2003 6.13785 18.3618C5.29939 17.5284 4.63472 16.5375 4.18193 15.4455C3.72913 14.3535 3.49729 13.1826 3.50002 12.0004C3.49742 10.8182 3.72914 9.64727 4.18193 8.55526C4.63471 7.46325 5.2995 6.4717 6.13785 5.63823C6.97114 4.79964 7.96245 4.13473 9.0545 3.68193C10.1466 3.22913 11.3178 2.99712 12.5 3.00003C13.6822 2.99712 14.8531 3.22913 15.9451 3.68193C17.0372 4.13473 18.0285 4.79964 18.8618 5.63823C19.7001 6.4717 20.3649 7.46325 20.8177 8.55526C21.2705 9.64727 21.5026 10.8182 21.5 12.0004C21.5027 13.1826 21.2709 14.3535 20.8181 15.4455C20.3653 16.5375 19.7002 17.5284 18.8618 18.3618C18.0285 19.2003 17.0372 19.8653 15.9451 20.3181C14.8531 20.7709 13.6822 21.0028 12.5 21ZM12.7837 6.85656C12.1056 7.56406 11.4753 8.316 10.8964 9.10684C10.0367 10.2931 9.01245 12.0092 9.01245 13.4445C9.01245 15.8349 10.211 16.9487 12.7845 16.9487C13.7487 17.0145 14.7086 16.7659 15.5197 16.2403C15.9226 15.902 16.2376 15.4711 16.4384 14.9848C16.6391 14.4985 16.7195 13.9708 16.6725 13.4468C16.6725 12.0107 15.6151 10.2954 14.7283 9.10912C14.1334 8.32207 13.4872 7.57524 12.794 6.87323C12.794 6.87323 12.7879 6.86723 12.7879 6.8649L12.7837 6.85656ZM12.7837 16.185C10.9434 16.185 10.0872 15.3893 10.0872 13.6801C10.0872 11.7211 12.7566 9.00063 12.7837 8.97425C12.8978 9.08675 15.5636 11.7296 15.5636 13.6801C15.5613 15.363 14.6528 16.1857 12.7815 16.1857L12.7837 16.185Z" fill="#182230"/>
</svg>
