<svg width="24" height="24" viewBox="0 0 24 24" fill="currentColor" xmlns="http://www.w3.org/2000/svg">
<path d="M7.9607 18.1268C7.86118 17.9998 7.80028 17.8469 7.78523 17.6863C7.77019 17.5257 7.80165 17.3642 7.87585 17.2209L8.11452 16.7442L7.87585 16.2699C7.80236 16.1266 7.77131 15.9653 7.78634 15.805C7.80137 15.6446 7.86186 15.4919 7.9607 15.3647C8.04254 15.2587 8.14763 15.173 8.26785 15.114C8.38807 15.0551 8.52021 15.0245 8.65411 15.0247C8.71023 15.0248 8.76622 15.0301 8.82135 15.0406L10.8808 15.4489C10.9946 15.4463 11.1079 15.434 11.2196 15.4123V18.0193C11.1177 18.026 11.0261 18.0297 10.9407 18.0315L8.82135 18.4484C8.76555 18.4601 8.70868 18.4661 8.65166 18.4661C8.51827 18.4658 8.38672 18.435 8.26699 18.3762C8.14726 18.3174 8.04251 18.2321 7.9607 18.1268ZM17.2619 18.2V12.4415H18.1488L18.3026 12.9604H18.3527C18.4716 12.7692 18.6395 12.6134 18.8389 12.509C19.0383 12.4045 19.262 12.3553 19.4868 12.3664C19.7027 12.3585 19.9172 12.4046 20.1107 12.5005C20.3043 12.5965 20.4709 12.7392 20.5953 12.9158C20.8867 13.3671 21.0269 13.8994 20.9957 14.4357C21.0038 14.8149 20.9403 15.1922 20.8083 15.5478C20.704 15.8345 20.5179 16.0843 20.273 16.2663C20.034 16.4323 19.7484 16.5178 19.4575 16.5104C19.2458 16.5196 19.035 16.4779 18.8427 16.3889C18.6504 16.2999 18.4822 16.1662 18.3521 15.9989H18.2947C18.3326 16.3322 18.3521 16.5257 18.3521 16.5782V18.1988L17.2619 18.2ZM18.5438 13.4877C18.398 13.7357 18.3306 14.0218 18.3503 14.3087V14.4235C18.3249 14.7431 18.3914 15.0633 18.5419 15.3464C18.6107 15.4408 18.7025 15.516 18.8086 15.5648C18.9148 15.6137 19.0316 15.6345 19.148 15.6254C19.6364 15.6254 19.8805 15.2223 19.8805 14.4162C19.8991 14.1101 19.8359 13.8046 19.6974 13.5311C19.6389 13.4348 19.555 13.3564 19.4551 13.3044C19.3551 13.2525 19.2428 13.2289 19.1303 13.2363C19.0199 13.2279 18.909 13.2463 18.8072 13.29C18.7054 13.3337 18.6157 13.4013 18.5456 13.4871L18.5438 13.4877ZM15.4588 16.4378L14.2105 14.4314H13.6209V16.4378H12.5118V11.2104H14.0378C14.5915 11.1684 15.1441 11.3044 15.6151 11.5986C15.7885 11.7392 15.9253 11.9196 16.0138 12.1246C16.1023 12.3295 16.14 12.5528 16.1235 12.7754C16.1279 13.069 16.039 13.3565 15.8696 13.5964C15.6866 13.8469 15.4377 14.0417 15.1506 14.1592C15.938 15.3348 16.4507 16.0941 16.6888 16.4372L15.4588 16.4378ZM13.6209 13.5317H13.9786C14.2491 13.5516 14.5193 13.4906 14.755 13.3565C14.8397 13.2935 14.907 13.2101 14.9507 13.114C14.9944 13.0179 15.0129 12.9124 15.0047 12.8071C15.014 12.704 14.9953 12.6003 14.9503 12.507C14.9054 12.4137 14.836 12.3343 14.7495 12.2773C14.5035 12.1558 14.2297 12.1017 13.956 12.1205H13.6209V13.5317ZM10.7826 11.1621H7.34786C6.20143 11.1672 5.09982 10.7172 4.28472 9.91106C3.46962 9.10488 3.00759 8.0083 3 6.86188C3.00113 6.63248 3.09322 6.4129 3.25606 6.25132C3.4189 6.08974 3.63919 5.99935 3.86859 6H10.8271C11.3514 6.00298 11.8732 6.07251 12.38 6.20693L10.7832 11.1615L10.7826 11.1621ZM4.73963 7.71644C4.73915 7.80235 4.76417 7.88647 4.81154 7.95815C4.85891 8.02983 4.92648 8.08583 5.0057 8.11907C5.08492 8.15231 5.17223 8.16129 5.25656 8.14487C5.34089 8.12845 5.41845 8.08737 5.47941 8.02684C5.54038 7.9663 5.582 7.88904 5.59901 7.80482C5.61603 7.72061 5.60766 7.63325 5.57498 7.55379C5.5423 7.47434 5.48677 7.40637 5.41543 7.3585C5.34409 7.31063 5.26015 7.28501 5.17423 7.28489C5.11723 7.28449 5.0607 7.29537 5.00792 7.31691C4.95513 7.33844 4.90713 7.37021 4.86667 7.41038C4.82622 7.45055 4.79412 7.49833 4.77221 7.55096C4.7503 7.60359 4.73902 7.66004 4.73902 7.71705L4.73963 7.71644ZM16.682 10.3802H11.9466L13.2028 6.47794C14.0351 6.83021 14.779 7.36278 15.3806 8.03727C15.9823 8.71175 16.4268 9.51134 16.682 10.3784V10.3802Z" fill="currentColor"/>
</svg>
