<svg width="24" height="24" viewBox="0 0 24 24" fill="currentColor" xmlns="http://www.w3.org/2000/svg">
<path d="M3.61892 19.5648L3.4504 19.3963C3.36682 19.3131 3.30051 19.2141 3.25526 19.1052C3.21001 18.9963 3.18672 18.8795 3.18672 18.7615C3.18672 18.6435 3.21001 18.5267 3.25526 18.4178C3.30051 18.3089 3.36682 18.2099 3.4504 18.1267L7.20772 14.373C7.29043 14.2893 7.38897 14.2229 7.4976 14.1777C7.60623 14.1325 7.72278 14.1094 7.84044 14.1097C7.95869 14.1096 8.07582 14.1327 8.1851 14.1779C8.29439 14.2231 8.3937 14.2894 8.47735 14.373L11.2961 17.1917L17.5753 10.9125C17.3924 10.7326 17.2094 10.5527 17.0301 10.3674L16.7704 10.1041C16.6731 10.03 16.6038 9.92497 16.5739 9.8063C16.5441 9.68763 16.5554 9.56234 16.6061 9.45097C16.633 9.38818 16.6714 9.33101 16.7195 9.28245C16.8517 9.16691 17.024 9.10791 17.1992 9.11812C18.2386 9.07074 19.2737 9.01917 20.3125 8.97179H20.3724C20.4588 8.96595 20.5454 8.97819 20.6268 9.00772C20.7082 9.03725 20.7825 9.08343 20.845 9.14331C20.9034 9.21036 20.9469 9.28899 20.9728 9.37406C20.9986 9.45913 21.0062 9.5487 20.995 9.63689L20.9458 10.6504C20.9128 11.3275 20.8798 12.0004 20.8504 12.6733C20.8544 12.8637 20.785 13.0484 20.6567 13.1891C20.6108 13.2338 20.5589 13.272 20.5026 13.3025C20.4245 13.3469 20.3363 13.3706 20.2465 13.3714C20.1634 13.3651 20.0825 13.3417 20.0088 13.3027C19.9351 13.2637 19.8703 13.2099 19.8183 13.1447L19.017 12.3477L11.9342 19.4305C11.8506 19.5142 11.7514 19.5806 11.6422 19.6259C11.5329 19.6712 11.4158 19.6945 11.2976 19.6945C11.1793 19.6945 11.0622 19.6712 10.953 19.6259C10.8438 19.5806 10.7445 19.5142 10.661 19.4305L7.84223 16.6118L4.88856 19.5648C4.80527 19.6484 4.70632 19.7146 4.59739 19.7598C4.48846 19.805 4.37168 19.8283 4.25374 19.8283C4.1358 19.8283 4.01902 19.805 3.91009 19.7598C3.80115 19.7146 3.70221 19.6484 3.61892 19.5648ZM8.44496 11.7683V5.16889H9.46151L9.63783 5.76382H9.6978C9.83406 5.54479 10.0264 5.36618 10.2549 5.2465C10.4834 5.12681 10.7398 5.07041 10.9974 5.08313C11.2447 5.07366 11.4905 5.12607 11.7124 5.23562C11.9343 5.34516 12.1254 5.50837 12.2683 5.71045C12.6021 6.22781 12.7628 6.83796 12.727 7.45267C12.7368 7.88743 12.6639 8.32009 12.5123 8.7277C12.3929 9.05632 12.1798 9.34278 11.8994 9.55173C11.6258 9.74303 11.2983 9.84218 10.9644 9.8348C10.7219 9.84538 10.4803 9.7977 10.2599 9.69576C10.0395 9.59382 9.8468 9.44058 9.6978 9.24886H9.63243C9.67601 9.63149 9.6978 9.85279 9.6978 9.91277V11.7719L8.44496 11.7683ZM9.91671 6.36835C9.74939 6.6524 9.67203 6.98046 9.69481 7.30933V7.44487C9.66584 7.81102 9.74199 8.17783 9.91431 8.5022C9.993 8.61053 10.0982 8.69686 10.2198 8.75293C10.3414 8.809 10.4753 8.83294 10.6088 8.82245C11.1685 8.82245 11.4484 8.36066 11.4484 7.43707C11.4707 7.08646 11.3993 6.73622 11.2415 6.42233C11.1744 6.31189 11.0784 6.22196 10.9637 6.16232C10.8491 6.10268 10.7203 6.07562 10.5914 6.08408C10.4643 6.07344 10.3366 6.09374 10.2191 6.14325C10.1016 6.19276 9.99784 6.26999 9.91671 6.36835ZM6.37889 9.75084L4.94793 7.45267H4.27323V9.75084H3V3.75832H4.74702C5.38084 3.71091 6.01325 3.86702 6.55221 4.20392C6.7519 4.36453 6.90971 4.57111 7.01217 4.806C7.11463 5.04089 7.15868 5.2971 7.14055 5.55272C7.14676 5.88942 7.04573 6.21938 6.85208 6.4949C6.6418 6.78279 6.35569 7.00661 6.02565 7.14141C6.92764 8.4884 7.51518 9.35822 7.78826 9.75084H6.37889ZM4.27323 6.41933H4.68105C4.99087 6.44192 5.30042 6.372 5.57045 6.21842C5.66767 6.14589 5.74499 6.04997 5.79521 5.93956C5.84543 5.82916 5.86694 5.70785 5.85772 5.5869C5.86838 5.46866 5.84673 5.34975 5.79508 5.24285C5.74343 5.13596 5.66371 5.0451 5.56445 4.97997C5.28299 4.84087 4.9697 4.77879 4.65646 4.80005H4.27323V6.41933Z" fill="currentColor"/>
</svg>
