<svg width="24" height="24" viewBox="0 0 24 24" fill="currentColor" xmlns="http://www.w3.org/2000/svg">
<path d="M5.99998 3H18V6.99975H5.99998V3ZM5.00023 8.00025H19.0005C20.6602 8.00025 22.0005 9.3405 22.0005 11.0002V17.0002H18.0007V21H6.00073V17.0002H2.00098V11.0002C2.00098 9.3405 3.34123 8.00025 5.00098 8.00025H5.00023ZM8.00023 18.9998H16.0005V13.9995H8.00023V18.9998ZM18.9997 12C18.45 12 18 11.55 18 11.0002C18 10.4505 18.45 10.0005 18.9997 10.0005C19.5495 10.0005 19.9995 10.4505 19.9995 11.0002C19.9995 11.55 19.5495 12 18.9997 12Z" fill="currentColor"/>
</svg>
