<svg width="25" height="24" viewBox="0 0 25 24" fill="none" xmlns="http://www.w3.org/2000/svg">
<path d="M13.9858 11.7997H16.5291V13.9194H13.9858V11.7997Z" fill="#182230"/>
<path d="M11.2129 10.7166H8.12807V13.2878H11.2129V10.7166Z" fill="#182230"/>
<path fill-rule="evenodd" clip-rule="evenodd" d="M12.5 20.9997C11.3178 21.0026 10.1467 20.771 9.05469 20.3182C7.96263 19.8654 6.97129 19.2005 6.13797 18.3619C5.29937 17.5286 4.63441 16.5373 4.1816 15.4452C3.7288 14.3532 3.49712 13.1823 3.50003 12.0001C3.49712 10.8179 3.7288 9.6466 4.1816 8.55454C4.63441 7.46248 5.29937 6.47117 6.13797 5.63787C6.97129 4.79931 7.96263 4.13436 9.05469 3.68156C10.1467 3.22875 11.3178 2.99716 12.5 3.00003C13.6822 2.99716 14.8532 3.22875 15.9453 3.68156C17.0373 4.13436 18.0287 4.79931 18.862 5.63787C19.7006 6.47117 20.3656 7.46248 20.8184 8.55454C21.2712 9.6466 21.5029 10.8179 21.5 12.0001C21.5029 13.1823 21.2712 14.3532 20.8184 15.4452C20.3656 16.5373 19.7006 17.5286 18.862 18.3619C18.0287 19.2005 17.0373 19.8654 15.9453 20.3182C14.8532 20.771 13.6822 21.0026 12.5 20.9997ZM15.1146 10.1036C14.7031 10.1036 14.3084 10.2672 14.0174 10.5582C13.7264 10.8492 13.5629 11.2438 13.5629 11.6553V15.3338C13.5629 15.7454 13.7264 16.14 14.0174 16.431C14.3084 16.722 14.7031 16.8856 15.1146 16.8856H15.4041C15.8156 16.8856 16.2103 16.722 16.5013 16.431C16.7923 16.14 16.9558 15.7454 16.9558 15.3338V11.6553C16.9558 11.245 16.7932 10.8517 16.5037 10.5609C16.2142 10.2701 15.8213 10.1055 15.411 10.1036H16.1093V9.60809C16.1093 9.40232 16.0276 9.20504 15.882 9.05953C15.7365 8.91403 15.5392 8.83223 15.3334 8.83223H15.1883C14.9826 8.83223 14.7852 8.91403 14.6397 9.05953C14.4942 9.20504 14.4125 9.40232 14.4125 9.60809V10.1036H15.1146ZM9.16767 8.66062C8.75613 8.66062 8.36147 8.82422 8.07047 9.11522C7.77946 9.40623 7.61596 9.80079 7.61596 10.2123V15.3331C7.61596 15.7446 7.77946 16.1392 8.07047 16.4302C8.36147 16.7212 8.75613 16.8848 9.16767 16.8848H10.1763C10.5878 16.8848 10.9825 16.7212 11.2735 16.4302C11.5645 16.1392 11.728 15.7446 11.728 15.3331V10.2123C11.728 9.8024 11.5658 9.40899 11.2768 9.11825C10.9878 8.82752 10.5955 8.66308 10.1856 8.66062H10.6992V7.89499C10.6992 7.68922 10.6175 7.49193 10.472 7.34643C10.3265 7.20093 10.1291 7.11913 9.92336 7.11913H9.41752C9.21175 7.11913 9.01441 7.20093 8.86891 7.34643C8.72341 7.49193 8.64166 7.68922 8.64166 7.89499V8.66062H9.16767Z" fill="#182230"/>
</svg>
