<svg width="24" height="24" viewBox="0 0 24 24" fill="currentColor" xmlns="http://www.w3.org/2000/svg">
<path d="M7.24036 17.756L5.03018 18.0871V14.2321C5.03018 14.2321 7.45093 13.866 9.49376 13.6882C10.6349 13.59 16.5098 13.4145 16.9941 13.9382C17.2039 14.1614 16.5061 14.9396 16.2926 15.162C15.8707 15.6002 14.5814 15.5949 13.7497 15.5897C13.5809 15.5897 13.4313 15.5897 13.3116 15.5897C12.3705 15.6091 10.2913 15.6262 10.2913 15.6262C10.2913 15.6262 14.0168 16.4177 15.8372 15.8494C16.8519 15.531 19.2177 14.0238 19.7288 13.9152C20.1342 13.8274 20.8633 13.6094 20.9726 14.026C21.1623 14.7425 20.3224 15.4351 19.8046 15.8859C18.9402 16.641 15.7665 19.136 14.815 19.3674C14.6439 19.4039 14.4693 19.4206 14.2943 19.4173C12.2061 19.4128 7.24036 17.756 7.24036 17.756ZM3 18.0737V14.2366H4.62471V18.0737H3ZM16.291 11.9906H8.95143V4.5H11.4064V8.54993H13.8308V4.5H16.2858V11.9891L16.291 11.9906ZM11.9018 8.05818V4.5H13.3444V8.05745L11.9018 8.05818Z" fill="currentColor"/>
</svg>
