<svg width="24" height="24" viewBox="0 0 24 24" fill="currentColor" xmlns="http://www.w3.org/2000/svg">
<path d="M18.8949 21H15.777V17.82H16.8211V19.541H17.8515V17.82H18.8963V21H18.8949ZM13.5063 21H10.3884V17.82H11.4325V19.541H12.4631V17.82H13.5079V21H13.5063ZM8.11789 21H5V17.82H6.0441V19.541H7.07526V17.82H8.11936V21H8.11789ZM17.03 19.329V17.8147H17.6425V19.329H17.03ZM11.6415 19.329V17.8147H12.2541V19.329H11.6415ZM6.25381 19.329V17.8147H6.86629V19.329H6.25381ZM16.8748 17.3695V15.1238H12.8332V17.3695H11.4863V15.1238H7.44551V17.3695H6.09863V13.7762H18.2225V17.3695H16.8748ZM11.4863 13.7762V9.06155H12.8332V13.7762H11.4863ZM14.8873 8.53234H9.46633V3H11.2834V5.99145H13.074V3H14.8911V8.53234H14.8873ZM11.6446 5.62795V3H12.7098V5.62795H11.6446Z" fill="currentColor"/>
</svg>
