<svg width="24" height="24" viewBox="0 0 24 24" fill="none" xmlns="http://www.w3.org/2000/svg">
<path d="M3 12.0034C3 10.2234 3.52784 8.48333 4.51677 7.00329C5.50571 5.52325 6.91131 4.36969 8.55585 3.68851C10.2004 3.00732 12.01 2.82909 13.7558 3.17635C15.5016 3.52362 17.1053 4.38079 18.364 5.63946C19.6226 6.89813 20.4798 8.50178 20.8271 10.2476C21.1743 11.9934 20.9961 13.803 20.3149 15.4476C19.6337 17.0921 18.4802 18.4977 17.0001 19.4866C15.5201 20.4756 13.78 21.0034 12 21.0034C9.61396 21.0005 7.32648 20.0513 5.6393 18.3641C3.95211 16.6769 3.00295 14.3895 3 12.0034H3ZM13.1143 13.9423C14.364 14.1137 13.596 15.948 13.9123 17.0186C14.2286 18.0891 11.8903 18.2297 11.9451 19.2531C11.9499 19.3384 11.9675 19.4225 11.9974 19.5026C13.3241 19.5018 14.6269 19.1493 15.7731 18.4811C16.9192 17.8128 17.8677 16.8527 18.522 15.6986C18.0077 15.5786 17.3477 14.7248 16.6654 13.872C15.8083 12.8014 14.9203 11.7291 14.2526 12.1106C12.8931 12.882 11.8363 12.1054 10.4109 11.0631C9.87223 10.7229 9.23546 10.572 8.60143 10.6346C7.83 10.6346 7.29171 10.6346 7.52657 9.43456C7.73486 8.36571 12.462 8.11542 12.7783 7.56171C13.2317 6.68914 12.6857 5.35542 12.5143 4.52056C12.3429 4.50942 12.1714 4.50342 12 4.50342C10.5689 4.50275 9.16743 4.91175 7.9613 5.68209C6.75518 6.45243 5.79476 7.55192 5.19353 8.85065C4.5923 10.1494 4.37539 11.5931 4.56842 13.0111C4.76145 14.4292 5.35636 15.7624 6.28286 16.8531C6.56914 16.8463 6.96857 16.86 7.40571 16.8737C8.77714 16.9157 10.5677 16.9594 10.7486 16.3594C10.8566 15.9308 11.7917 13.9303 12.9771 13.9303C13.0231 13.9312 13.0689 13.9353 13.1143 13.9423ZM7.998 14.1514C7.03714 13.6637 6.60343 12.6377 5.82429 12.78C5.04514 12.9223 4.73486 10.632 5.42743 9.76542C5.76086 9.34799 6.84771 11.9237 7.66286 12.0617C7.92727 12.0269 8.18822 11.9696 8.44286 11.8903C9.372 11.6606 10.7571 11.4326 10.7323 12.78C10.7583 12.9961 10.7364 13.2153 10.6681 13.4219C10.5998 13.6286 10.4868 13.8177 10.3371 13.9757C10.1874 14.1338 10.0048 14.2569 9.8021 14.3363C9.59944 14.4157 9.38176 14.4494 9.16457 14.4351C8.75922 14.4303 8.3603 14.3333 7.998 14.1514Z" fill="#182230"/>
</svg>
