<svg width="25" height="24" viewBox="0 0 25 24" fill="none" xmlns="http://www.w3.org/2000/svg">
<path d="M12.5133 3C10.8056 3 9.60812 3.78325 8.81807 4.75248C8.15442 5.56664 7.77473 6.51408 7.60163 7.25353C6.74339 7.10229 5.69892 7.28451 4.82729 7.80427C3.80435 8.41425 3 9.50149 3 11.0815C3 11.8684 3.20891 12.5033 3.56118 13.0064C3.91125 13.5065 4.38861 13.8563 4.89658 14.1002C5.90352 14.5836 7.07713 14.673 7.79419 14.673H8.67173L10.3141 12.2236C10.7477 11.5769 11.6235 11.4042 12.2702 11.8378C12.8666 12.2377 13.0599 13.0136 12.7463 13.6391L13.1137 13.0814C13.5784 12.3762 14.5267 12.1812 15.2319 12.6458C15.7896 13.0132 16.0283 13.6831 15.874 14.2961L16.2799 13.6906C16.7136 13.0439 17.5894 12.8712 18.2361 13.3048C18.6862 13.6067 18.9067 14.1227 18.8529 14.6266C19.3319 14.5425 19.8365 14.3752 20.2987 14.086C21.2389 13.4977 21.9578 12.4323 21.9578 10.6806C21.9578 9.03617 21.1247 8.01848 20.0896 7.46289C19.2083 6.98989 18.1832 6.85006 17.3962 6.90677C17.2289 6.2233 16.8524 5.34651 16.1861 4.59533C15.3984 3.70719 14.2084 3 12.5133 3Z" fill="#182230"/>
<path d="M11.8563 12.4552C12.1621 12.6602 12.2438 13.0742 12.0387 13.38L9.91593 16.5459C9.71091 16.8517 9.29685 16.9333 8.99109 16.7283C8.68533 16.5233 8.60367 16.1092 8.80869 15.8035L10.9315 12.6376C11.1365 12.3318 11.5506 12.2501 11.8563 12.4552Z" fill="#182230"/>
<path d="M14.9944 14.3205C15.2141 13.9871 15.1219 13.5387 14.7885 13.319C14.455 13.0993 14.0067 13.1915 13.787 13.525L9.96333 19.3286C9.74365 19.662 9.83587 20.1104 10.1693 20.33C10.5027 20.5497 10.9511 20.4575 11.1708 20.1241L14.9944 14.3205Z" fill="#182230"/>
<path d="M18.0046 14.847C18.2096 14.5412 18.1279 14.1272 17.8222 13.9222C17.5164 13.7171 17.1024 13.7988 16.8973 14.1046L14.7745 17.2705C14.5695 17.5762 14.6511 17.9903 14.9569 18.1953C15.2627 18.4003 15.6767 18.3187 15.8817 18.0129L18.0046 14.847Z" fill="#182230"/>
</svg>
