<svg width="24" height="24" viewBox="0 0 24 24" fill="none" xmlns="http://www.w3.org/2000/svg">
<path d="M12.0363 3C10.2347 3 8.9714 3.82631 8.13792 4.84882C7.43778 5.70774 7.03722 6.70727 6.8546 7.48737C5.94918 7.32781 4.84729 7.52005 3.92774 8.06838C2.84857 8.7119 2 9.85891 2 11.5258C2 12.3472 2.19391 13.0117 2.52722 13.5414C2.85976 14.07 3.31755 14.443 3.81333 14.7042C4.79369 15.2207 5.95095 15.3147 6.70732 15.3147H8.87238C8.88968 15.2452 8.91501 15.175 8.94909 15.1052L10.5795 11.7635C10.632 11.5416 10.7592 11.381 10.8824 11.2801C11.107 11.0959 11.3547 11.0681 11.4871 11.0681H14.5048C14.8908 11.0681 15.2562 11.2884 15.4147 11.6675C15.5613 12.0179 15.4836 12.3846 15.2964 12.645L14.6343 13.578C14.9145 13.6627 15.1109 13.8647 15.2145 14.0505C15.3531 14.2992 15.4055 14.6469 15.2481 14.9802L15.4422 14.6855C15.8512 14.0647 16.6861 13.8929 17.3069 14.3019C17.6733 14.5434 17.8833 14.933 17.9099 15.3396C18.6165 15.335 19.4878 15.1722 20.2497 14.6955C21.2416 14.0748 22 12.9508 22 11.1028C22 9.36801 21.1211 8.29437 20.0291 7.70824C19.0993 7.20923 18.0179 7.06172 17.1876 7.12154C17.0111 6.4005 16.6139 5.47551 15.911 4.68303C15.08 3.74607 13.8246 3 12.0363 3Z" fill="#182230"/>
<path d="M11.4872 11.917H14.5048C14.6316 11.917 14.6824 12.0469 14.6063 12.1508L13.1862 14.152C13.1101 14.2559 13.1862 14.3859 13.2876 14.3859H14.3527C14.4542 14.3859 14.5302 14.5159 14.4795 14.6198L11.132 19.7656C11.056 19.8955 10.8531 19.8176 10.8784 19.6616L11.6139 15.8673C11.6393 15.7894 11.5632 15.6853 11.4872 15.6853H9.83876C9.73737 15.6853 9.6612 15.5814 9.71195 15.4774L11.411 11.9949C11.3857 11.943 11.4364 11.917 11.4872 11.917Z" fill="#182230"/>
<path d="M16.1162 14.976C16.3253 14.7664 16.6597 14.7254 16.9165 14.8946C17.2101 15.088 17.2912 15.4828 17.0979 15.7764L13.7316 20.8856C13.5382 21.1792 13.1435 21.2603 12.8499 21.0669C12.5564 20.8736 12.4752 20.4788 12.6686 20.1853L16.0349 15.076C16.059 15.0393 16.0863 15.0059 16.1162 14.976Z" fill="#182230"/>
<path d="M18.9008 17.678C19.0813 17.4087 19.0095 17.0442 18.7402 16.8637C18.4711 16.6832 18.1065 16.7552 17.926 17.0243L16.0571 19.8115C15.8766 20.0807 15.9486 20.4452 16.2177 20.6257C16.4869 20.8062 16.8514 20.7343 17.0319 20.4651L18.9008 17.678Z" fill="#182230"/>
</svg>
