<svg width="25" height="24" viewBox="0 0 25 24" fill="none" xmlns="http://www.w3.org/2000/svg">
<path d="M8.81807 5.75248C9.60812 4.78325 10.8056 4 12.5133 4C14.2084 4 15.3984 4.70719 16.1861 5.59533C16.8524 6.34651 17.2289 7.2233 17.3962 7.90677C18.1832 7.85006 19.2083 7.98989 20.0896 8.46289C21.1247 9.01848 21.9578 10.0362 21.9578 11.6806C21.9578 13.4323 21.2389 14.4977 20.2987 15.086C19.3919 15.6534 18.3217 15.7516 17.6023 15.673H16.9633C17.0169 15.4262 17.042 15.1652 17.042 14.8949C17.042 13.9445 16.5023 13.0203 16.1172 12.4577C15.9059 12.1491 15.6965 11.8868 15.5405 11.702C15.462 11.6091 15.3959 11.5343 15.3481 11.4815C15.3242 11.4551 15.3049 11.434 15.2908 11.4189L15.2737 11.4007L15.2663 11.3929L14.542 10.6348L13.8176 11.3929L13.8157 11.3949L13.8103 11.4007L13.7932 11.4189C13.7791 11.434 13.7598 11.4551 13.7359 11.4815C13.6881 11.5343 13.6219 11.6091 13.5435 11.702C13.3875 11.8868 13.1781 12.1491 12.9668 12.4577C12.5817 13.0203 12.042 13.9445 12.042 14.8949C12.042 15.1543 12.0651 15.4051 12.1143 15.6431C12.0721 15.5777 12.0307 15.5158 11.9909 15.4577C11.7797 15.1491 11.5703 14.8868 11.4143 14.702C11.3358 14.6091 11.2697 14.5343 11.2219 14.4815C11.198 14.4551 11.1786 14.434 11.1645 14.4189L11.1474 14.4007L11.142 14.3949L11.1401 14.3929L11.1388 14.3915L10.4158 13.6348L9.69276 14.3915L9.69141 14.3929L9.68952 14.3949L9.6841 14.4007L9.667 14.4189C9.65291 14.434 9.63354 14.4551 9.60964 14.4815C9.56189 14.5343 9.49572 14.6091 9.41725 14.702C9.26123 14.8868 9.05189 15.1491 8.8406 15.4577C8.79484 15.5246 8.7469 15.5965 8.69794 15.673H7.46202C6.74507 15.673 5.64811 15.5839 4.71884 15.0943C4.24889 14.8467 3.81496 14.4931 3.49975 13.9921C3.18381 13.49 3 12.8601 3 12.0815C3 10.5015 3.80435 9.41425 4.82729 8.80427C5.69892 8.28451 6.74339 8.10229 7.60163 8.25353C7.77473 7.51408 8.15442 6.56664 8.81807 5.75248Z" fill="#182230"/>
<path d="M16.042 14.8949C16.042 16.1375 15.3704 16.5824 14.542 16.5824C13.7136 16.5824 13.042 16.1375 13.042 14.8949C13.042 13.6522 14.542 12.0824 14.542 12.0824C14.542 12.0824 16.042 13.6522 16.042 14.8949Z" fill="#182230"/>
<path d="M11.9158 17.8949C11.9158 19.1375 11.2442 19.5824 10.4158 19.5824C9.58734 19.5824 8.91577 19.1375 8.91577 17.8949C8.91577 16.6522 10.4158 15.0824 10.4158 15.0824C10.4158 15.0824 11.9158 16.6522 11.9158 17.8949Z" fill="#182230"/>
</svg>
