<svg width="24" height="24" viewBox="0 0 24 24" fill="currentColor" xmlns="http://www.w3.org/2000/svg">
<path d="M6.61945 19.2073C6.09709 19.2073 5.59613 18.9998 5.22677 18.6304C4.85741 18.2611 4.6499 17.7601 4.6499 17.2378V11.1081C4.6499 11.0632 4.6499 11.0179 4.65433 10.9731C4.85867 12.2908 11.9288 15.0338 11.9998 15.0599C12.0707 15.0324 19.1423 12.2824 19.3457 10.9731C19.3486 11.0268 19.3501 11.0716 19.3501 11.1081V17.2373C19.3494 17.7594 19.1417 18.26 18.7725 18.6292C18.4033 18.9985 17.9027 19.2062 17.3805 19.2068L6.61945 19.2073ZM4.6568 10.9229H4.6499V9.02772C4.6499 8.35167 6.61945 7.29255 8.27042 6.52295C10.0662 5.68589 11.8737 5.0064 11.8909 5C11.9702 5.02905 13.8167 5.70756 15.6203 6.52295C17.322 7.29255 19.3501 8.35167 19.3501 9.02772V10.9219H19.3427C19.2043 10.2326 17.1861 9.19513 15.5164 8.44523C13.7827 7.66726 12.081 7.03897 11.8929 6.96954C11.8747 6.97545 10.1351 7.62983 8.37185 8.4467C6.75141 9.19562 4.79171 10.2331 4.65729 10.9224L4.6568 10.9229Z" fill="currentColor"/>
</svg>
