<svg width="24" height="24" viewBox="0 0 24 24" fill="currentColor" xmlns="http://www.w3.org/2000/svg">
<path d="M17.8761 6.87615C18.6747 7.61964 19.3205 8.51185 19.7772 9.50275C20.1413 9.21429 20.4394 8.84998 20.6499 8.4359C20.8604 8.02182 20.9789 7.56716 20.9974 7.10302C21.0159 6.63888 20.9339 6.17622 20.757 5.74671C20.5801 5.3172 20.3125 4.93097 19.9726 4.61446C19.6326 4.29795 19.2282 4.05863 18.7872 3.91287C18.3461 3.76711 17.8788 3.71836 17.4172 3.76995C16.9555 3.82154 16.5105 3.97226 16.1125 4.21178C15.7145 4.45131 15.373 4.77399 15.1113 5.15775C16.1365 5.54392 17.0759 6.12778 17.8761 6.87615Z" fill="currentColor"/>
<path d="M4.37411 9.61694C3.98458 9.34398 3.66025 8.98822 3.42439 8.57517C3.18852 8.16212 3.04696 7.702 3.00984 7.2278C2.97271 6.7536 3.04096 6.27706 3.20967 5.83233C3.37839 5.38761 3.6434 4.98572 3.98571 4.65547C4.32803 4.32521 4.73916 4.07478 5.18964 3.92211C5.64013 3.76944 6.11881 3.71832 6.59137 3.77242C7.06394 3.82651 7.51869 3.98448 7.92302 4.235C8.32735 4.48552 8.67125 4.82238 8.93008 5.22145C6.89836 6.03925 5.26448 7.61596 4.37411 9.61694Z" fill="currentColor"/>
<path fill-rule="evenodd" clip-rule="evenodd" d="M12.1055 19.7741C11.1562 19.7765 10.216 19.5906 9.33903 19.2272C8.4621 18.8639 7.66592 18.3302 6.99653 17.6572C6.32348 16.9879 5.78983 16.1917 5.42647 15.3147C5.06311 14.4378 4.87727 13.4975 4.87964 12.5483C4.87727 11.5991 5.06311 10.6588 5.42647 9.78184C5.78983 8.9049 6.32348 8.10872 6.99653 7.43934C7.66592 6.76633 8.4621 6.23271 9.33903 5.86935C10.216 5.50599 11.1562 5.3201 12.1055 5.32244C13.0547 5.3201 13.995 5.50599 14.8719 5.86935C15.7488 6.23271 16.545 6.76633 17.2144 7.43934C17.8875 8.10872 18.4211 8.9049 18.7845 9.78184C19.1478 10.6588 19.3337 11.5991 19.3313 12.5483C19.3337 13.4975 19.1478 14.4378 18.7845 15.3147C18.4211 16.1917 17.8875 16.9879 17.2144 17.6572C16.545 18.3302 15.7488 18.8639 14.8719 19.2272C13.995 19.5906 13.0547 19.7765 12.1055 19.7741ZM11.811 8.1023C11.6777 8.10246 11.55 8.15545 11.4558 8.24965C11.3616 8.34385 11.3086 8.47157 11.3084 8.60478V13.1277C11.3084 13.2242 11.3363 13.3188 11.3886 13.3999C11.441 13.481 11.5156 13.5453 11.6036 13.5851C11.6434 13.6733 11.7078 13.7481 11.789 13.8006C11.8702 13.8532 11.9649 13.8812 12.0616 13.8814H15.5796C15.7128 13.8813 15.8405 13.8283 15.9347 13.7341C16.0289 13.6399 16.0818 13.5122 16.082 13.3789C16.0818 13.2457 16.0289 13.118 15.9347 13.0238C15.8405 12.9296 15.7128 12.8766 15.5796 12.8765H12.3134V8.60478C12.3132 8.47157 12.2603 8.34385 12.1661 8.24965C12.0719 8.15545 11.9442 8.10246 11.811 8.1023Z" fill="currentColor"/>
</svg>
