<svg width="24" height="24" viewBox="0 0 24 24" fill="currentColor" xmlns="http://www.w3.org/2000/svg">
<path d="M5.52118 13.5428H10.4456L13.5552 13.542H18.4788C18.8853 13.5332 19.2721 13.3669 19.5565 13.0787C19.8408 12.7906 20 12.4035 20 12.0003C20 11.5972 19.8408 11.2101 19.5565 10.9219C19.2721 10.6337 18.8853 10.4674 18.4788 10.4586H13.5552L10.4456 10.4594H5.52118C5.1147 10.4682 4.72787 10.6345 4.44354 10.9226C4.15922 11.2108 4 11.5979 4 12.0011C4 12.4042 4.15922 12.7913 4.44354 13.0795C4.72787 13.3677 5.1147 13.534 5.52118 13.5428Z" fill="currentColor"/>
</svg>
