<svg width="24" height="24" viewBox="0 0 24 24" fill="currentColor" xmlns="http://www.w3.org/2000/svg">
<path d="M19.1159 17.3146H4.88409C4.3844 17.3146 3.90517 17.1161 3.55184 16.7628C3.1985 16.4094 3 15.9302 3 15.4305V7.88409C3 7.3844 3.1985 6.90517 3.55184 6.55184C3.90517 6.1985 4.3844 6 4.88409 6H19.1159C19.6156 6 20.0948 6.1985 20.4482 6.55184C20.8015 6.90517 21 7.3844 21 7.88409V15.4305C21 15.9302 20.8015 16.4094 20.4482 16.7628C20.0948 17.1161 19.6156 17.3146 19.1159 17.3146ZM13.0837 8.05806C13.052 8.05815 13.0203 8.06025 12.9888 8.06434C12.9409 8.07043 12.8951 8.08769 12.855 8.11475C12.815 8.1418 12.7819 8.17789 12.7583 8.22009C12.7186 8.2933 12.695 8.3742 12.6893 8.45732C12.6835 8.54043 12.6957 8.62381 12.7251 8.70179C12.7408 8.74261 12.7778 8.81358 12.8293 8.91155C13.3717 9.86324 13.6709 10.9341 13.7004 12.0291C13.7378 13.0856 13.3914 14.1199 12.7251 14.9407C12.6779 15.0025 12.6446 15.0738 12.6275 15.1496C12.6104 15.2255 12.6098 15.3042 12.6258 15.3803C12.6335 15.4423 12.6553 15.5018 12.6894 15.5542C12.7236 15.6065 12.7693 15.6504 12.823 15.6824C12.8891 15.7143 12.9619 15.7299 13.0353 15.7276C13.2825 15.7229 13.5193 15.6277 13.701 15.46C14.3633 14.4364 14.7265 13.2481 14.7498 12.0291C14.7086 10.7663 14.3528 9.53366 13.7148 8.44304L13.6998 8.41604C13.6393 8.30602 13.55 8.21456 13.4414 8.15149C13.3329 8.08841 13.2092 8.05611 13.0837 8.05806ZM11.3754 9.06291C11.3076 9.0619 11.2403 9.07561 11.1782 9.1031C11.1301 9.12723 11.0874 9.16097 11.0529 9.20223C11.0183 9.2435 10.9926 9.29141 10.9773 9.34301C10.9312 9.47139 10.9371 9.61266 10.9936 9.73679C11.0256 9.78836 11.0608 9.83786 11.0991 9.885C11.6046 10.4856 11.8923 11.2394 11.9155 12.0241C11.9434 12.3899 11.8819 12.7571 11.7364 13.094C11.5909 13.4308 11.3657 13.7272 11.0802 13.9578L11.0645 13.9703C11.012 14.0261 10.972 14.0924 10.947 14.1649C10.922 14.2373 10.9126 14.3142 10.9195 14.3905C10.9173 14.4517 10.9293 14.5126 10.9544 14.5685C10.9796 14.6244 11.0173 14.6737 11.0645 14.7127C11.1348 14.7566 11.2166 14.7785 11.2994 14.7755C11.4852 14.77 11.6646 14.7065 11.8125 14.594C12.5028 13.9068 12.9236 12.9946 12.9983 12.0234C12.9198 11.0316 12.5422 10.0869 11.9155 9.31412C11.8487 9.23621 11.7659 9.17362 11.6727 9.13059C11.5794 9.08757 11.4781 9.06513 11.3754 9.06479V9.06291ZM10.0339 10.3661C9.96346 10.3633 9.89355 10.3798 9.83172 10.4138C9.79968 10.4353 9.77235 10.4631 9.7514 10.4955C9.73045 10.5279 9.71633 10.5642 9.70988 10.6022C9.68295 10.7258 9.70005 10.8548 9.75824 10.9671C9.78099 10.9954 9.80621 11.0217 9.83361 11.0456C9.98783 11.1788 10.1105 11.3445 10.1929 11.5309C10.2752 11.7173 10.3151 11.9196 10.3097 12.1233C10.3097 12.8141 10.0264 12.9781 9.87443 13.0654L9.83172 13.0905C9.7488 13.1676 9.69885 13.2738 9.6923 13.3869C9.67996 13.4428 9.67945 13.5007 9.69081 13.5568C9.70216 13.613 9.72513 13.6661 9.75824 13.7129C9.79397 13.7449 9.83581 13.7694 9.88126 13.7848C9.9267 13.8002 9.97479 13.8063 10.0226 13.8027C10.1496 13.8034 10.2748 13.7725 10.3869 13.7129C10.8261 13.2929 11.0987 12.7284 11.1544 12.1233C11.1134 11.5311 10.8796 10.9686 10.4886 10.5218C10.3592 10.4197 10.1988 10.3647 10.0339 10.3661Z" fill="currentColor"/>
</svg>
