<svg width="25" height="24" viewBox="0 0 25 24" fill="none" xmlns="http://www.w3.org/2000/svg">
<path d="M13.6121 22.8654C13.4702 22.8654 13.3342 22.809 13.2339 22.7087C13.1337 22.6084 13.0773 22.4724 13.0773 22.3306C13.0773 22.1888 13.1337 22.0528 13.2339 21.9525C13.3342 21.8522 13.4702 21.7959 13.6121 21.7959H15.2088V20.7264H11.7333C11.3355 20.7264 10.954 20.5683 10.6727 20.287C10.3914 20.0057 10.2333 19.6242 10.2333 19.2264V13.4904C10.2333 13.0925 10.3914 12.711 10.6727 12.4297C10.954 12.1484 11.3355 11.9904 11.7333 11.9904H21.8816C22.2794 11.9904 22.6609 12.1484 22.9422 12.4297C23.2235 12.711 23.3816 13.0925 23.3816 13.4904V19.2256C23.3816 19.6234 23.2235 20.005 22.9422 20.2863C22.6609 20.5676 22.2794 20.7256 21.8816 20.7256H18.4076V21.7951H20.0051C20.1469 21.7951 20.2829 21.8514 20.3832 21.9517C20.4835 22.052 20.5398 22.188 20.5398 22.3298C20.5398 22.4717 20.4835 22.6077 20.3832 22.708C20.2829 22.8083 20.1469 22.8646 20.0051 22.8646L13.6121 22.8654ZM11.6553 13.6448V19.0726C11.6553 19.2715 11.7343 19.4623 11.875 19.6029C12.0156 19.7436 12.2064 19.8226 12.4053 19.8226H21.2103C21.4092 19.8226 21.6 19.7436 21.7407 19.6029C21.8813 19.4623 21.9603 19.2715 21.9603 19.0726V13.6448C21.9603 13.4459 21.8813 13.2552 21.7407 13.1145C21.6 12.9739 21.4092 12.8948 21.2103 12.8948H12.4053C12.2064 12.8948 12.0156 12.9739 11.875 13.1145C11.7343 13.2552 11.6553 13.4459 11.6553 13.6448ZM9.33032 20.1084H4.75532V16.3906H9.28232V19.7214C9.28249 19.8504 9.29913 19.979 9.33182 20.1038L9.33032 20.1084ZM4.22357 20.1084H1.20557C1.18926 18.0235 1.96687 16.0105 3.38057 14.4781C3.64155 14.1978 3.92308 13.9373 4.22282 13.6989V20.1076L4.22357 20.1084ZM15.9378 19.1836C15.8407 19.0666 15.7876 18.9194 15.7876 18.7673C15.7876 18.6153 15.8407 18.4681 15.9378 18.3511C16.0575 18.2492 16.2123 18.1983 16.3691 18.2094C16.4458 18.2045 16.5226 18.2147 16.5953 18.2396C16.6681 18.2644 16.7352 18.3033 16.7928 18.3541C16.8902 18.4695 16.9436 18.6156 16.9436 18.7666C16.9436 18.9176 16.8902 19.0637 16.7928 19.1791C16.7362 19.2311 16.6697 19.2711 16.5973 19.2969C16.5249 19.3226 16.448 19.3336 16.3713 19.3291C16.2928 19.3349 16.214 19.325 16.1394 19.2999C16.0648 19.2748 15.996 19.235 15.9371 19.1828L15.9378 19.1836ZM15.8913 17.6431V17.3986C15.8869 17.2066 15.9334 17.0169 16.0263 16.8489C16.1567 16.6517 16.3249 16.4824 16.5213 16.3509C16.6923 16.2404 16.846 16.1051 16.9773 15.9496C17.0504 15.8489 17.0893 15.7275 17.0883 15.6031C17.0916 15.5397 17.0787 15.4765 17.0509 15.4195C17.0231 15.3624 16.9813 15.3133 16.9293 15.2769C16.7972 15.1947 16.6428 15.1556 16.4876 15.1651C16.0926 15.1834 15.7073 15.2939 15.3626 15.4876L15.0033 14.7661C15.4781 14.4953 16.0153 14.3531 16.5618 14.3536C16.949 14.3333 17.331 14.4489 17.6418 14.6806C17.7718 14.7843 17.8758 14.917 17.9453 15.0681C18.0149 15.2191 18.0481 15.3844 18.0423 15.5506C18.0477 15.7708 17.9905 15.9879 17.8773 16.1769C17.7068 16.4114 17.4945 16.6125 17.2511 16.7701C17.1015 16.8692 16.9667 16.9889 16.8506 17.1256C16.7905 17.2212 16.7611 17.333 16.7666 17.4459V17.6439L15.8913 17.6431ZM9.28157 15.8619H6.34607V12.5281C7.08212 12.2738 7.85557 12.1445 8.63432 12.1456C9.05659 12.1454 9.47803 12.183 9.89357 12.2581C9.70438 12.3979 9.55055 12.5801 9.44441 12.79C9.33827 13 9.28276 13.2319 9.28232 13.4671V15.8604L9.28157 15.8619ZM5.81507 15.8619H4.75457V13.1529C5.0952 12.9611 5.44998 12.7956 5.81582 12.6579V15.8604L5.81507 15.8619ZM4.39007 7.57735H12.7376C12.6877 8.65077 12.2262 9.66371 11.4489 10.4057C10.6717 11.1477 9.6384 11.5617 8.56382 11.5617C7.48925 11.5617 6.45598 11.1477 5.67871 10.4057C4.90144 9.66371 4.43993 8.65077 4.39007 7.57735ZM15.6618 7.0471H1.73582L8.81657 1.2406L15.6633 7.04485L15.6618 7.0471Z" fill="#182230"/>
</svg>
