<svg width="24" height="24" viewBox="0 0 24 24" fill="none" xmlns="http://www.w3.org/2000/svg">
<path fill-rule="evenodd" clip-rule="evenodd" d="M11.6445 3.55371L12.0903 3.2252L12.0952 3.23189L12.1088 3.2504L12.1608 3.3217C12.2061 3.38406 12.2723 3.47555 12.3564 3.59297C12.5246 3.82777 12.7644 4.16637 13.0519 4.583C13.6267 5.41576 14.394 6.56268 15.1621 7.81705C15.9292 9.06956 16.7031 10.439 17.2872 11.7152C17.8613 12.9699 18.2891 14.2116 18.2891 15.1816C18.2891 18.8513 15.3142 21.8262 11.6445 21.8262C7.97486 21.8262 5 18.8513 5 15.1816C5 14.2116 5.42776 12.9699 6.00191 11.7152C6.58592 10.439 7.3599 9.06956 8.12692 7.81705C8.89508 6.56268 9.66236 5.41576 10.2371 4.583C10.5247 4.16637 10.7645 3.82777 10.9327 3.59297C11.0167 3.47555 11.083 3.38406 11.1283 3.3217L11.1803 3.2504L11.1939 3.23189L11.1988 3.2252L11.6445 3.55371ZM11.6445 3.55371C12.0903 3.2252 12.0902 3.22509 12.0903 3.2252C11.9859 3.08359 11.8204 3 11.6445 3C11.4686 3 11.3032 3.08359 11.1988 3.2252C11.1989 3.22509 11.1988 3.2252 11.6445 3.55371ZM11.1485 5.21206C11.3372 4.93872 11.5049 4.69966 11.6445 4.50244C11.7842 4.69966 11.9519 4.93872 12.1405 5.21206C12.7078 6.03393 13.4632 7.16327 14.2177 8.3954C14.9734 9.62939 15.7222 10.9567 16.2802 12.1761C16.8481 13.417 17.1816 14.4697 17.1816 15.1816C17.1816 18.2397 14.7026 20.7187 11.6445 20.7187C8.58647 20.7187 6.10742 18.2397 6.10742 15.1816C6.10742 14.4697 6.44101 13.417 7.0089 12.1761C7.56691 10.9567 8.31564 9.62939 9.07132 8.3954C9.82586 7.16327 10.5813 6.03393 11.1485 5.21206ZM12.4506 12.2047V9.96854H10.8386V12.2047H8.60236V13.8167H10.8386V16.0529H12.4506V13.8167H14.6867V12.2047H12.4506ZM8.60236 17.9866V16.7713H14.6867V17.9866H8.60236Z" fill="#182230"/>
</svg>
