<svg width="24" height="24" viewBox="0 0 24 24" fill="currentColor" xmlns="http://www.w3.org/2000/svg">
<path d="M12.7904 21.0019H10.522C10.3637 21.0019 10.2119 20.939 10.0999 20.827C9.98795 20.7151 9.92501 20.5632 9.92501 20.4049V18.608C9.30883 18.4141 8.72285 18.1348 8.18421 17.7782L7.03864 18.9226C6.98336 18.9782 6.91754 19.0223 6.84509 19.0524C6.77264 19.0824 6.69498 19.0977 6.61656 19.0975C6.53804 19.0978 6.46029 19.0824 6.38773 19.0524C6.31518 19.0224 6.24927 18.9783 6.19389 18.9226L4.59039 17.3191C4.53474 17.2639 4.4907 17.1981 4.46067 17.1256C4.43065 17.0532 4.41525 16.9755 4.41549 16.897C4.41525 16.8186 4.43065 16.7409 4.46067 16.6685C4.4907 16.596 4.53474 16.5302 4.59039 16.475L5.86071 15.2046C5.56164 14.6321 5.34438 14.0204 5.21535 13.3874H3.59698C3.43865 13.3874 3.28685 13.3245 3.1749 13.2126C3.06294 13.1006 3 12.9488 3 12.7904V10.5219C3 10.3636 3.06294 10.2117 3.1749 10.0998C3.28685 9.98784 3.43865 9.92495 3.59698 9.92495H5.39316C5.5871 9.3082 5.8669 8.72179 6.22421 8.18297L5.07864 7.03856C4.96672 6.92661 4.90403 6.77479 4.90403 6.61649C4.90403 6.4582 4.96672 6.30638 5.07864 6.19443L6.68214 4.59094C6.73743 4.53532 6.80325 4.49122 6.87569 4.46119C6.94814 4.43117 7.0258 4.41582 7.10423 4.41603C7.18265 4.41582 7.26031 4.43117 7.33276 4.46119C7.4052 4.49122 7.47102 4.53532 7.52631 4.59094L8.79663 5.86311C9.15748 5.67454 9.53437 5.51812 9.92267 5.39567V3.59698C9.92267 3.43865 9.98532 3.28681 10.0973 3.17485C10.2092 3.0629 10.3613 3 10.5197 3H12.7881C12.9464 3 13.0982 3.0629 13.2101 3.17485C13.3221 3.28681 13.385 3.43865 13.385 3.59698V5.21479C14.0184 5.3441 14.6305 5.56173 15.2034 5.86132L16.4737 4.58975C16.529 4.53413 16.5948 4.49002 16.6672 4.46C16.7397 4.42997 16.8174 4.41462 16.8958 4.41484C16.9742 4.41462 17.0519 4.42997 17.1243 4.46C17.1968 4.49002 17.2626 4.53413 17.3179 4.58975L18.9214 6.19324C19.0333 6.30519 19.0963 6.457 19.0963 6.6153C19.0963 6.7736 19.0333 6.92541 18.9214 7.03736L17.7758 8.18177C18.1333 8.72048 18.4131 9.30691 18.6068 9.92375H20.403C20.5613 9.92375 20.7131 9.98665 20.8251 10.0986C20.9371 10.2106 21 10.3624 21 10.5207V12.7893C21 12.9476 20.9371 13.0994 20.8251 13.2114C20.7131 13.3233 20.5613 13.3862 20.403 13.3862H18.7852C18.6561 14.0192 18.4389 14.6308 18.1399 15.2034L19.4102 16.4738C19.5221 16.5858 19.5851 16.7376 19.5851 16.8959C19.5851 17.0542 19.5221 17.206 19.4102 17.3179L17.807 18.9214C17.7517 18.977 17.6859 19.0211 17.6134 19.0512C17.541 19.0812 17.4633 19.0965 17.3849 19.0963C17.3065 19.0965 17.2288 19.0812 17.1564 19.0512C17.0839 19.0211 17.0181 18.977 16.9628 18.9214L15.8173 17.777C15.0788 18.267 14.2524 18.6094 13.3839 18.7853V20.4031C13.3843 20.5611 13.3222 20.7129 13.211 20.8251C13.0998 20.9374 12.9484 21.0009 12.7904 21.0019ZM12.0036 9.23185C11.2693 9.23264 10.5653 9.52465 10.046 10.0438C9.52669 10.563 9.23453 11.2669 9.23358 12.0012C9.23469 12.7354 9.52698 13.4391 10.0463 13.9581C10.5655 14.477 11.2695 14.7688 12.0036 14.7694C12.7377 14.7688 13.4415 14.477 13.9607 13.958C14.4799 13.439 14.7722 12.7353 14.7731 12.0012C14.772 11.2668 14.4794 10.5629 13.9599 10.0438C13.4403 9.52471 12.7363 9.23293 12.0019 9.23245L12.0036 9.23185Z" fill="currentColor"/>
</svg>
