<svg width="25" height="24" viewBox="0 0 25 24" fill="none" xmlns="http://www.w3.org/2000/svg">
<path d="M12.5 20.4C11.3178 20.4027 10.1468 20.1788 9.05474 19.7411C7.96269 19.3033 6.9713 18.6606 6.13795 17.85C5.29942 17.0445 4.6345 16.086 4.1817 15.0304C3.7289 13.9747 3.49721 12.8428 3.50003 11.7C3.49721 10.5572 3.7289 9.42521 4.1817 8.36956C4.6345 7.31391 5.29942 6.35558 6.13795 5.55001C6.9713 4.73943 7.96269 4.0967 9.05474 3.65899C10.1468 3.22128 11.3178 2.99727 12.5 2.99999C13.6822 2.99731 14.8532 3.22128 15.9452 3.65899C17.0373 4.0967 18.0287 4.73946 18.8621 5.55001C19.7006 6.35556 20.3656 7.31391 20.8184 8.36956C21.2712 9.42522 21.5028 10.5572 21.5 11.7C21.5028 12.8428 21.2712 13.9748 20.8184 15.0305C20.3656 16.0861 19.7006 17.0445 18.8621 17.85C18.0287 18.6606 17.0373 19.3033 15.9452 19.741C14.8532 20.1787 13.6822 20.4026 12.5 20.4ZM15.5336 15.3503C15.2726 15.3505 15.0222 15.4508 14.8376 15.6292C14.6531 15.8077 14.5493 16.0496 14.549 16.302C14.5492 16.5541 14.6528 16.7958 14.8371 16.9742C15.0214 17.1526 15.2713 17.2532 15.5321 17.2537C15.7931 17.2535 16.0434 17.1532 16.228 16.9748C16.4126 16.7963 16.5164 16.5543 16.5166 16.302C16.5164 16.0496 16.4126 15.8077 16.228 15.6292C16.0434 15.4508 15.7931 15.3505 15.5321 15.3503H15.5336ZM10.911 15.3503C10.65 15.3505 10.3997 15.4508 10.2151 15.6292C10.0305 15.8077 9.92668 16.0496 9.92647 16.302C9.92668 16.5541 10.0303 16.7958 10.2145 16.9742C10.3988 17.1526 10.6487 17.2532 10.9095 17.2537C11.1706 17.2536 11.421 17.1532 11.6057 16.9748C11.7905 16.7964 11.8944 16.5544 11.8948 16.302C11.8944 16.0495 11.7905 15.8076 11.6057 15.6291C11.421 15.4507 11.1706 15.3505 10.9095 15.3503H10.911ZM7.01312 7.75424C6.90488 7.75424 6.80108 7.79579 6.72455 7.86978C6.64801 7.94376 6.60502 8.04411 6.60502 8.14874C6.60522 8.2533 6.64829 8.35358 6.72478 8.42752C6.80127 8.50146 6.90495 8.54304 7.01312 8.54324H8.89225V9.45602C8.85332 9.60844 8.84725 9.76696 8.87441 9.92175C8.88294 10.0275 8.89225 10.137 8.89225 10.254L9.92725 13.7542C9.92725 13.8712 9.91794 13.9792 9.90941 14.0865C9.88846 14.3317 9.87216 14.5252 9.98699 14.6415C10.039 14.6844 10.0996 14.7165 10.165 14.7359C10.2304 14.7552 10.2992 14.7614 10.3672 14.754H16.2171C16.2852 14.7615 16.3542 14.7554 16.4197 14.736C16.4853 14.7167 16.546 14.6845 16.5981 14.6415C16.709 14.5252 16.6927 14.331 16.6757 14.0857C16.6671 13.98 16.6578 13.8705 16.6578 13.7535L17.6921 10.2533C17.6921 10.137 17.7014 10.0283 17.7099 9.92101C17.7309 9.67577 17.7471 9.48227 17.6323 9.36602C17.5803 9.32312 17.5197 9.29098 17.4543 9.27163C17.3889 9.25228 17.3201 9.24611 17.2521 9.2535H9.7069V8.14801C9.7069 8.04338 9.66391 7.94303 9.58738 7.86904C9.51084 7.79506 9.40704 7.7535 9.2988 7.7535L7.01312 7.75424Z" fill="#182230"/>
</svg>
