<svg width="24" height="24" viewBox="0 0 24 24" fill="currentColor" xmlns="http://www.w3.org/2000/svg">
<path d="M10.9257 13.8889C11.3199 14.2335 11.8257 14.4232 12.3492 14.4228C12.7018 14.423 13.049 14.3368 13.3605 14.1719C13.6721 14.007 13.9386 13.7684 14.1367 13.4768C14.3348 13.1852 14.4586 12.8496 14.4972 12.4992C14.5358 12.1488 14.488 11.7943 14.358 11.4666C14.2391 11.7066 14.0553 11.9084 13.8275 12.0492C13.5997 12.19 13.3371 12.2642 13.0692 12.2634C12.6873 12.2634 12.3211 12.1117 12.051 11.8416C11.781 11.5716 11.6292 11.2053 11.6292 10.8234C11.6284 10.5995 11.6804 10.3785 11.781 10.1784C11.2758 10.3157 10.8377 10.6318 10.5481 11.0679C10.2585 11.5041 10.1371 12.0305 10.2066 12.5494C10.2761 13.0683 10.5316 13.5443 10.9257 13.8889Z" fill="currentColor"/>
<path fill-rule="evenodd" clip-rule="evenodd" d="M3 12.1206C3 13.806 8.4042 17.49 12.4716 17.49C14.5723 17.3826 16.5925 16.6478 18.2712 15.3804C19.878 14.2398 21 12.8994 21 12.1206C21 11.3418 19.878 10.0014 18.2718 8.8602C16.593 7.59242 14.5726 6.85735 12.4716 6.75C8.4042 6.75 3 10.4352 3 12.1206ZM10.3515 9.26951C10.9432 8.8742 11.6387 8.66308 12.3502 8.6628C13.3048 8.66354 14.2201 9.04296 14.8953 9.71781C15.5706 10.3927 15.9505 11.308 15.9516 12.2628C15.9516 12.9748 15.7405 13.6708 15.3449 14.2629C14.9493 14.8549 14.3871 15.3163 13.7293 15.5888C13.0714 15.8612 12.3476 15.9325 11.6493 15.7936C10.9509 15.6547 10.3095 15.3119 9.80602 14.8084C9.30255 14.3049 8.95968 13.6635 8.82077 12.9651C8.68187 12.2668 8.75316 11.543 9.02563 10.8851C9.29811 10.2273 9.75953 9.66508 10.3515 9.26951Z" fill="currentColor"/>
</svg>
