<svg width="24" height="24" viewBox="0 0 24 24" fill="currentColor" xmlns="http://www.w3.org/2000/svg">
<path d="M3.73796 6.3838C3.865 6.29214 4.00136 6.21414 4.14478 6.1511C4.00219 6.21576 3.86598 6.29367 3.73796 6.3838Z" fill="currentColor"/>
<path d="M18.8195 5.92166C18.6643 5.89896 18.5076 5.88754 18.3508 5.88748H5.37418L16.6633 3.00722C17.1846 2.9628 17.7026 3.12452 18.106 3.45765C18.5094 3.79079 18.7661 4.26879 18.8211 4.78908V5.92003L18.8195 5.92166Z" fill="currentColor"/>
<path d="M18.3516 20.371H5.40347C4.07806 20.371 3 19.572 3 18.5899V9.12248C3 8.13961 4.07806 7.33981 5.40347 7.33981H18.3516C19.677 7.33981 20.7551 8.13961 20.7551 9.12248V11.3413H14.1728C13.8364 11.3352 13.5022 11.3963 13.1897 11.5208C12.8772 11.6454 12.5926 11.831 12.3526 12.0667C12.1125 12.3025 11.9219 12.5837 11.7917 12.8939C11.6616 13.2042 11.5946 13.5373 11.5946 13.8737C11.5946 14.2101 11.6616 14.5432 11.7917 14.8534C11.9219 15.1637 12.1125 15.4449 12.3526 15.6807C12.5926 15.9164 12.8772 16.102 13.1897 16.2265C13.5022 16.3511 13.8364 16.4122 14.1728 16.4061H20.7543V18.5899C20.7543 19.572 19.6795 20.371 18.3516 20.371Z" fill="currentColor"/>
<path d="M21.0001 12.7928H14.1721C13.8857 12.7928 13.6111 12.9066 13.4086 13.109C13.2061 13.3115 13.0924 13.5861 13.0924 13.8725C13.0923 14.0143 13.1201 14.1548 13.1743 14.2859C13.2285 14.417 13.308 14.5361 13.4083 14.6365C13.5086 14.7368 13.6276 14.8164 13.7587 14.8707C13.8897 14.925 14.0302 14.953 14.1721 14.953H21.0001V12.7928Z" fill="currentColor"/>
</svg>
