<svg width="24" height="24" viewBox="0 0 24 24" fill="none" xmlns="http://www.w3.org/2000/svg">
<path d="M15.9372 13.3149C15.9305 14.054 15.6361 14.7614 15.1165 15.287L17.0438 18.4449C17.9927 17.8972 18.8176 17.1585 19.4661 16.2754C20.1147 15.3924 20.5728 14.3842 20.8114 13.3149H15.9372Z" fill="#404040"/>
<path d="M14.1848 10.7082C14.862 10.9876 15.4046 11.5184 15.6987 12.1894H20.9716C20.9845 11.9784 21 11.8122 21 11.6227C20.9985 10.0768 20.5428 8.56546 19.6896 7.27635C18.8363 5.98725 17.6232 4.97722 16.2008 4.37176L14.1848 10.7082Z" fill="#404040"/>
<path d="M14.1762 15.901C13.8657 16.0295 13.5346 16.101 13.1987 16.112L10.5291 15.5789C10.3225 15.5373 10.1083 15.5547 9.91104 15.6289C9.71376 15.7032 9.54133 15.8314 9.41339 15.9989C9.28546 16.1664 9.20717 16.3665 9.18747 16.5764C9.16778 16.7862 9.20746 16.9974 9.30199 17.1859L9.61286 17.8076L9.30199 18.4294C9.21629 18.601 9.17586 18.7916 9.18453 18.9832C9.1932 19.1748 9.25069 19.361 9.35154 19.5241C9.45239 19.6872 9.59326 19.8219 9.76077 19.9153C9.92828 20.0087 10.1169 20.0578 10.3087 20.0578C10.3827 20.0577 10.4566 20.0502 10.5291 20.0354L13.2694 19.4869C14.2142 19.4679 15.1479 19.278 16.0251 18.9263L14.1762 15.901Z" fill="#404040"/>
<path d="M15.1338 4.01954C14.4788 3.84317 13.8038 3.75256 13.1255 3.75H4.12468C3.82631 3.75023 3.54025 3.86891 3.32936 4.07997C3.11846 4.29102 3 4.57718 3 4.87554C3.00137 6.36715 3.5944 7.7973 4.64896 8.85219C5.70353 9.90708 7.1335 10.5005 8.62511 10.5024H13.0756L15.1338 4.01954ZM5.81255 6.5548C5.70133 6.5548 5.59261 6.52182 5.50013 6.46003C5.40766 6.39824 5.33558 6.31041 5.29302 6.20766C5.25046 6.10491 5.23932 5.99184 5.26102 5.88276C5.28272 5.77367 5.33628 5.67348 5.41492 5.59483C5.49356 5.51619 5.59376 5.46263 5.70285 5.44093C5.81193 5.41923 5.925 5.43037 6.02775 5.47293C6.1305 5.51549 6.21833 5.58757 6.28012 5.68005C6.34191 5.77252 6.37489 5.88124 6.37489 5.99246C6.37489 6.14161 6.31564 6.28464 6.21019 6.3901C6.10473 6.49556 5.96169 6.5548 5.81255 6.5548Z" fill="#404040"/>
</svg>
