<svg width="24" height="24" viewBox="0 0 24 24" fill="none" xmlns="http://www.w3.org/2000/svg">
<path d="M4.21735 16.0449V18.9628C4.21751 19.0491 4.25185 19.1318 4.31287 19.1928C4.37388 19.2538 4.45659 19.2881 4.54287 19.2883H6.79603C6.88232 19.2881 6.96502 19.2538 7.02604 19.1928C7.08705 19.1318 7.1214 19.0491 7.12155 18.9628V13.8303L5.48327 15.4686C5.14449 15.8069 4.69497 16.0116 4.21735 16.0449Z" fill="#182230"/>
<path d="M8.24755 13.793V18.9622C8.24771 19.0485 8.28205 19.1312 8.34306 19.1922C8.40408 19.2532 8.48678 19.2876 8.57307 19.2877H10.8262C10.9125 19.2876 10.9952 19.2532 11.0562 19.1922C11.1172 19.1312 11.1516 19.0485 11.1517 18.9622V15.9187C10.6416 15.9097 10.1549 15.7029 9.79452 15.3417L8.24755 13.793Z" fill="#182230"/>
<path d="M12.2783 15.5979V18.9628C12.2785 19.0491 12.3128 19.1318 12.3738 19.1928C12.4348 19.2538 12.5175 19.2881 12.6038 19.2883H14.857C14.9433 19.2881 15.026 19.2538 15.087 19.1928C15.148 19.1318 15.1823 19.0491 15.1825 18.9628V12.7541L12.5979 15.3388C12.5009 15.4362 12.3937 15.5231 12.2783 15.5979Z" fill="#182230"/>
<path d="M18.9969 8.93801L16.3085 11.6234V18.9598C16.3087 19.0461 16.343 19.1288 16.404 19.1898C16.465 19.2508 16.5477 19.2852 16.634 19.2853H18.8872C18.9735 19.2852 19.0562 19.2508 19.1172 19.1898C19.1782 19.1288 19.2126 19.0461 19.2127 18.9598V9.14139C19.1386 9.07854 19.0834 9.0228 19.0425 8.98604L18.9969 8.93801Z" fill="#182230"/>
<path d="M20.8445 4.17496C20.7817 4.11476 20.7072 4.06824 20.6255 4.03834C20.5439 4.00843 20.4569 3.9958 20.3701 4.00123H20.3108C19.2607 4.04925 18.2142 4.10084 17.1641 4.14887C16.9871 4.13901 16.8132 4.19882 16.6797 4.31548C16.6312 4.36455 16.5924 4.42227 16.5652 4.48565C16.5142 4.59799 16.5029 4.72433 16.5332 4.84393C16.5635 4.96354 16.6335 5.06929 16.7319 5.14381L16.9945 5.41004C17.176 5.59504 17.3604 5.78004 17.5454 5.96088L11.201 12.31L8.34418 9.4592C8.26002 9.3748 8.16003 9.30783 8.04994 9.26214C7.93985 9.21644 7.82182 9.19293 7.70263 9.19293C7.58343 9.19293 7.46541 9.21644 7.35532 9.26214C7.24523 9.30783 7.14523 9.3748 7.06107 9.4592L3.26628 13.254C3.18187 13.3382 3.11491 13.4382 3.06921 13.5482C3.02352 13.6583 3 13.7764 3 13.8956C3 14.0147 3.02352 14.1328 3.06921 14.2429C3.11491 14.353 3.18187 14.4529 3.26628 14.5371L3.43645 14.7073C3.52061 14.7917 3.62061 14.8587 3.7307 14.9043C3.84079 14.95 3.95881 14.9736 4.07801 14.9736C4.1972 14.9736 4.31523 14.95 4.42532 14.9043C4.53541 14.8587 4.6354 14.7917 4.71956 14.7073L7.70381 11.723L10.5517 14.5727C10.7224 14.7431 10.9538 14.8388 11.195 14.8388C11.4362 14.8388 11.6676 14.7431 11.8384 14.5727L18.9969 7.41417L19.8068 8.22056C19.8593 8.28651 19.9249 8.34092 19.9993 8.38041C20.0738 8.41989 20.1556 8.44359 20.2397 8.45003C20.3306 8.44916 20.4198 8.42508 20.4988 8.38006C20.5556 8.34922 20.6078 8.31071 20.6541 8.26562C20.7839 8.12342 20.8541 7.93688 20.8504 7.74443C20.88 7.06374 20.9132 6.38068 20.9465 5.69939L20.9945 4.67539C21.0063 4.58611 20.9991 4.49534 20.9732 4.40907C20.9473 4.3228 20.9035 4.243 20.8445 4.17496Z" fill="#182230"/>
</svg>
