<svg width="24" height="24" viewBox="0 0 24 24" fill="none" xmlns="http://www.w3.org/2000/svg">
<path d="M9.98993 12.8346C10.1466 13.106 10.4936 13.199 10.7649 13.0423C11.0363 12.8856 11.1293 12.5387 10.9726 12.2673L9.15927 9.1265H12.7859C13.0992 9.1265 13.3532 8.8725 13.3532 8.55916C13.3532 8.24583 13.0992 7.99182 12.7859 7.99182H9.15931L10.9726 4.85111C11.1292 4.57975 11.0363 4.23277 10.7649 4.07611C10.4936 3.91944 10.1466 4.01241 9.98993 4.28377L8.17662 7.42451L6.3633 4.28377C6.20663 4.01241 5.85965 3.91944 5.5883 4.07611C5.31694 4.23277 5.22397 4.57975 5.38064 4.85111L7.19394 7.99182H3.56735C3.25401 7.99182 3 8.24583 3 8.55916C3 8.8725 3.25401 9.1265 3.56735 9.1265H7.19398L5.38064 12.2673C5.22398 12.5387 5.31694 12.8856 5.58829 13.0423C5.85965 13.199 6.20663 13.106 6.36331 12.8346L8.17662 9.69387L9.98993 12.8346Z" fill="#182230"/>
<path d="M9.56567 15.3224C10.6427 15.6237 12.3162 16.2468 13.0055 17.9469C13.3157 18.7118 13.0251 19.1428 12.7396 19.2951C12.4378 19.4561 12.0001 19.4016 11.741 18.9044C11.6306 18.6925 11.3693 18.6102 11.1574 18.7206C10.9455 18.831 10.8632 19.0923 10.9736 19.3042C11.4548 20.2277 12.42 20.4463 13.1468 20.0586C13.89 19.6622 14.2539 18.7228 13.8074 17.6218C12.9519 15.5119 10.8988 14.7968 9.79875 14.4891C9.56864 14.4247 9.32992 14.5591 9.26555 14.7892C9.20119 15.0193 9.33555 15.258 9.56567 15.3224Z" fill="#182230"/>
<path d="M18.2862 17.4621C15.4612 16.5604 14.2671 13.9452 13.6721 12.31C13.5903 12.0854 13.3421 11.9697 13.1175 12.0514C12.893 12.1331 12.7772 12.3813 12.8589 12.6059C13.4622 14.2636 14.7768 17.2503 18.0231 18.2864C19.6826 18.8161 20.9537 18.1734 21.4212 17.1086C21.8812 16.0607 21.4854 14.7359 20.1228 14.1533C19.9031 14.0593 19.6489 14.1613 19.5549 14.381C19.461 14.6007 19.5629 14.8549 19.7826 14.9489C20.7034 15.3426 20.8953 16.1539 20.6289 16.7607C20.3699 17.3507 19.6002 17.8814 18.2862 17.4621Z" fill="#182230"/>
<path d="M14.5893 10.5321C15.4806 10.2895 16.9112 10.0291 18.1008 10.9281C18.6282 11.3267 18.5928 11.7275 18.4707 11.9301C18.3396 12.1476 18.0379 12.2869 17.6676 12.0588C17.4748 11.94 17.2222 12.0001 17.1035 12.1929C16.9847 12.3857 17.0448 12.6382 17.2376 12.757C17.9957 13.2239 18.8063 12.9619 19.173 12.3533C19.5488 11.7298 19.3968 10.8797 18.5952 10.2739C17.0712 9.12225 15.2872 9.49234 14.3739 9.74087C14.1554 9.80033 14.0265 10.0257 14.086 10.2441C14.1454 10.4626 14.3708 10.5916 14.5893 10.5321Z" fill="#182230"/>
</svg>
