<svg width="25" height="24" viewBox="0 0 25 24" fill="none" xmlns="http://www.w3.org/2000/svg">
<path fill-rule="evenodd" clip-rule="evenodd" d="M16.2707 5.13415C16.749 5.41029 16.9128 6.02188 16.6367 6.50017L13.9125 11.2186H19.3609C19.9132 11.2186 20.3609 11.6663 20.3609 12.2186C20.3609 12.7709 19.9132 13.2186 19.3609 13.2186H13.9125L16.6367 17.937C16.9129 18.4153 16.749 19.0269 16.2707 19.3031C15.7924 19.5792 15.1808 19.4153 14.9047 18.937L12.1805 14.2186L9.45625 18.937C9.1801 19.4153 8.56851 19.5792 8.09022 19.3031C7.61193 19.0269 7.44805 18.4153 7.72419 17.937L10.4484 13.2186H5C4.44771 13.2186 4 12.7709 4 12.2186C4 11.6663 4.44771 11.2186 5 11.2186H10.4484L7.72421 6.50017C7.44807 6.02188 7.61194 5.41029 8.09024 5.13415C8.56853 4.85801 9.18012 5.02188 9.45626 5.50017L12.1805 10.2186L14.9046 5.50017C15.1808 5.02188 15.7924 4.858 16.2707 5.13415Z" fill="#182230"/>
</svg>
