<svg width="24" height="24" viewBox="0 0 24 24" fill="none" xmlns="http://www.w3.org/2000/svg">
<path d="M11.7 20.4C10.5572 20.4027 9.42524 20.1788 8.36959 19.7411C7.31394 19.3034 6.3556 18.6606 5.55003 17.8501C4.73944 17.0445 4.09669 16.0861 3.65898 15.0304C3.22127 13.9748 2.9973 12.8428 3.00002 11.7C2.9973 10.5572 3.22127 9.42524 3.65898 8.36959C4.09669 7.31394 4.73944 6.35561 5.55003 5.55004C6.3556 4.73946 7.31394 4.09673 8.36959 3.65902C9.42524 3.22131 10.5572 2.9973 11.7 3.00002C12.8428 2.99734 13.9748 3.22131 15.0304 3.65902C16.0861 4.09673 17.0444 4.73949 17.85 5.55004C18.6606 6.35559 19.3034 7.31394 19.7411 8.36959C20.1788 9.42525 20.4028 10.5572 20.4 11.7C20.4028 12.8428 20.1788 13.9749 19.7411 15.0305C19.3034 16.0862 18.6606 17.0445 17.85 17.8501C17.0444 18.6606 16.0861 19.3033 15.0304 19.741C13.9748 20.1787 12.8428 20.4027 11.7 20.4ZM14.1263 13.4483V16.8788H15.7298C15.7386 15.7581 15.3206 14.6761 14.5605 13.8525C14.4253 13.7076 14.2799 13.5726 14.1255 13.4483H14.1263ZM9.65102 14.8823V16.8788H13.8413V14.8823H9.65102ZM9.36602 13.434C9.20586 13.5622 9.05545 13.702 8.91603 13.8525C8.1557 14.676 7.73737 15.758 7.74603 16.8788H9.36827V13.434H9.36602ZM13.2705 12.8813V14.5966H13.8413V13.1506C13.6573 13.0467 13.4657 12.9566 13.2683 12.8813H13.2705ZM10.2218 12.8745C10.0255 12.9492 9.83501 13.0382 9.65178 13.1408V14.5966H10.2218V12.8715V12.8745ZM11.7375 12.5992C11.3186 12.5988 10.9026 12.6685 10.5068 12.8055V14.5966H12.9818V12.8115C12.5812 12.6711 12.1598 12.5993 11.7353 12.5992H11.7375ZM7.16253 11.9746V13.1925H8.82978C9.09403 12.9144 9.3921 12.6705 9.71703 12.4665V11.9753L7.16253 11.9746ZM13.956 11.9746V12.402C14.2819 12.6282 14.5786 12.8937 14.8395 13.1925H16.5105V11.9746H13.956ZM16.6845 11.1001V13.191H17.6595C17.6654 12.5078 17.4106 11.848 16.947 11.3461C16.8646 11.2578 16.7759 11.1755 16.6815 11.1001H16.6845ZM6.98927 11.091C6.89104 11.169 6.79878 11.2543 6.71327 11.3461C6.24959 11.848 5.99455 12.5077 6.00002 13.191H6.98927V11.091ZM9.89178 11.9768V12.3623C9.98628 12.3105 10.0733 12.267 10.1648 12.2242C10.0681 12.1476 9.97642 12.065 9.89027 11.9768H9.89178ZM13.7828 11.7773C13.6807 11.8936 13.5696 12.0017 13.4505 12.1005C13.5645 12.1575 13.6755 12.2205 13.782 12.2865V11.7765L13.7828 11.7773ZM9.45453 10.1445C9.48118 10.7215 9.72947 11.266 10.1476 11.6645C10.5658 12.063 11.1216 12.2848 11.6993 12.2836C12.2768 12.2848 12.8326 12.063 13.2506 11.6645C13.6687 11.266 13.9168 10.7215 13.9433 10.1445H9.45453ZM16.1625 10.7543V11.7998H16.5105V10.9185C16.3985 10.8548 16.2816 10.7999 16.161 10.7543H16.1625ZM15.228 10.5825C14.9728 10.5821 14.7193 10.6244 14.478 10.7078V11.7998H15.9885V10.7108C15.7434 10.6238 15.4852 10.5791 15.225 10.5788L15.228 10.5825ZM14.3033 10.9328C14.2124 11.1548 14.0956 11.3652 13.9553 11.5597V11.7998H14.3033V10.9328ZM9.36902 11.2328V11.8013H9.71628V11.7803C9.58024 11.6108 9.46352 11.4266 9.36827 11.2313L9.36902 11.2328ZM8.43453 10.5832C8.17928 10.5827 7.92575 10.625 7.68453 10.7085V11.8005H9.19428V10.7902C9.18453 10.7602 9.17702 10.731 9.16952 10.704C8.93279 10.6222 8.68423 10.5799 8.43378 10.5788L8.43453 10.5832ZM7.50978 10.7512C7.39015 10.7965 7.27408 10.8507 7.16253 10.9133V11.8005H7.50978V10.7505V10.7512ZM14.505 10.1873V10.1963C14.7161 10.3245 14.9585 10.392 15.2055 10.3913C15.46 10.3914 15.7096 10.3208 15.9263 10.1873H14.5058H14.505ZM7.78653 10.2413C7.98017 10.3402 8.19458 10.3916 8.41203 10.3913C8.62928 10.3919 8.84352 10.3405 9.03678 10.2413H7.78653ZM7.04252 9.087C7.05531 9.37083 7.15653 9.64359 7.33203 9.86703L8.29577 9.087H7.04252ZM11.8328 6.74032L8.02653 9.86099H15.5153L11.8328 6.74032ZM15.4748 9.087L16.3298 9.80248C16.4757 9.59133 16.5594 9.34342 16.5713 9.087H15.4748ZM8.49227 7.01031L6.17177 8.91305H8.51027L9.64952 7.99056L8.49227 7.01031ZM15.2858 7.01031L14.1278 7.95907L15.2663 8.91305H17.5298L15.285 7.01031H15.2858Z" fill="#182230"/>
</svg>
