<svg width="24" height="24" viewBox="0 0 24 24" fill="currentColor" xmlns="http://www.w3.org/2000/svg">
<path fill-rule="evenodd" clip-rule="evenodd" d="M16.7518 7.5C17.1178 7.50126 17.482 7.55002 17.8354 7.64507L16.723 11.1413H14.3247C13.5202 11.1405 12.7488 10.8205 12.1799 10.2516C11.611 9.68272 11.291 8.91134 11.2902 8.10678C11.2902 7.94585 11.3541 7.79152 11.4679 7.67772C11.5817 7.56393 11.7361 7.5 11.897 7.5H16.7518ZM12.6399 8.96202C12.6894 8.99509 12.7476 9.01274 12.8072 9.01274C12.887 9.01274 12.9635 8.98103 13.02 8.92459C13.0764 8.86814 13.1081 8.79158 13.1081 8.71176C13.1081 8.65223 13.0905 8.59404 13.0574 8.54454C13.0243 8.49504 12.9773 8.45647 12.9223 8.43369C12.8673 8.41091 12.8068 8.40495 12.7484 8.41656C12.6901 8.42817 12.6364 8.45684 12.5943 8.49893C12.5522 8.54102 12.5236 8.59465 12.512 8.65304C12.5003 8.71142 12.5063 8.77194 12.5291 8.82694C12.5519 8.88194 12.5904 8.92894 12.6399 8.96202Z" fill="currentColor"/>
<path d="M18.1405 12.0515C17.9818 11.6896 17.689 11.4033 17.3237 11.2527L18.4114 7.83289C19.1789 8.15956 19.8335 8.70461 20.2937 9.40028C20.7539 10.096 20.9995 10.9116 20.9999 11.7457C20.9999 11.8271 20.9949 11.9006 20.9893 11.9846L20.9848 12.0515H18.1405Z" fill="currentColor"/>
<path d="M17.8294 13.7225C18.1096 13.439 18.2683 13.0575 18.2718 12.6589L20.9018 12.6564C20.7734 13.2336 20.5264 13.7778 20.1765 14.2544C19.8267 14.7311 19.3816 15.1299 18.8696 15.4255L17.8294 13.7225Z" fill="currentColor"/>
<path d="M17.3189 14.0536C17.1514 14.123 16.9727 14.1615 16.7915 14.1674L15.3534 13.8796C15.242 13.8573 15.1266 13.8666 15.0203 13.9067C14.9139 13.9467 14.821 14.0158 14.752 14.106C14.683 14.1963 14.6407 14.3041 14.63 14.4173C14.6192 14.5304 14.6405 14.6442 14.6913 14.7459L14.8592 15.0812L14.6913 15.4165C14.6405 15.5181 14.6192 15.6319 14.63 15.7451C14.6407 15.8582 14.683 15.966 14.752 16.0563C14.821 16.1465 14.9139 16.2156 15.0203 16.2556C15.1266 16.2957 15.242 16.305 15.3534 16.2827L16.8319 15.9871C17.3408 15.9771 17.8437 15.8751 18.3163 15.6861L17.3189 14.0536Z" fill="currentColor"/>
<path d="M5.73105 11.1365C5.73453 10.7378 5.89324 10.3563 6.17349 10.0728L5.1333 8.36741C4.62167 8.66327 4.17707 9.06216 3.82766 9.53882C3.47825 10.0155 3.23164 10.5595 3.10347 11.1365H5.73105Z" fill="currentColor"/>
<path d="M5.85934 11.7462C6.01863 12.1072 6.31133 12.3926 6.67621 12.5426L5.58906 15.96C4.8222 15.6338 4.16804 15.0895 3.70778 14.3948C3.24751 13.7 3.0014 12.8854 3 12.052C3 11.9706 3.00496 11.8972 3.01062 11.8133L3.01505 11.7462H5.85934Z" fill="currentColor"/>
<path d="M6.68096 9.74171C6.84837 9.67192 7.02701 9.63297 7.20828 9.62673L8.64578 9.91567C8.75718 9.93804 8.87262 9.92867 8.97896 9.88864C9.0853 9.84861 9.17826 9.77953 9.24726 9.68926C9.31627 9.59899 9.35854 9.49116 9.36927 9.37805C9.37999 9.26493 9.35875 9.15108 9.30794 9.04945L9.13999 8.71415L9.30794 8.37885C9.35875 8.27722 9.37999 8.16337 9.36927 8.05025C9.35854 7.93714 9.31627 7.82931 9.24726 7.73904C9.17826 7.64877 9.0853 7.57969 8.97896 7.53966C8.87262 7.49963 8.75718 7.49026 8.64578 7.51262L7.16735 7.80819C6.65843 7.81822 6.15553 7.92019 5.6829 8.10917L6.68096 9.74171Z" fill="currentColor"/>
<path fill-rule="evenodd" clip-rule="evenodd" d="M7.24803 16.2953C6.88209 16.2941 6.51787 16.2453 6.16449 16.1502L7.27632 12.654H9.67516C10.4797 12.6548 11.2511 12.9748 11.82 13.5437C12.3889 14.1126 12.7089 14.884 12.7097 15.6885C12.7097 15.8495 12.6457 16.0038 12.5319 16.1176C12.4182 16.2314 12.2638 16.2953 12.1029 16.2953H7.24803ZM11.3599 14.8333C11.3104 14.8002 11.2522 14.7826 11.1927 14.7826C11.1129 14.7826 11.0363 14.8143 10.9799 14.8707C10.9234 14.9272 10.8917 15.0037 10.8917 15.0836C10.8917 15.1431 10.9094 15.2013 10.9425 15.2508C10.9755 15.3003 11.0225 15.3389 11.0775 15.3616C11.1325 15.3844 11.1931 15.3904 11.2514 15.3788C11.3098 15.3671 11.3635 15.3385 11.4055 15.2964C11.4476 15.2543 11.4763 15.2007 11.4879 15.1423C11.4995 15.0839 11.4936 15.0234 11.4708 14.9684C11.448 14.9134 11.4094 14.8664 11.3599 14.8333Z" fill="currentColor"/>
</svg>
