<svg width="24" height="24" viewBox="0 0 24 24" fill="none" xmlns="http://www.w3.org/2000/svg">
<path fill-rule="evenodd" clip-rule="evenodd" d="M11.7649 3.17155C11.3478 3.05925 10.9178 3.00158 10.4858 3H4.75414C4.56416 3 4.38196 3.07547 4.24763 3.2098C4.11329 3.34414 4.03783 3.52633 4.03783 3.71631C4.03878 4.66606 4.41649 5.57664 5.08807 6.24821C5.75964 6.91979 6.67022 7.2975 7.61997 7.29846H10.4491L11.7649 3.17155ZM5.8286 4.78535C5.75717 4.78535 5.68734 4.76417 5.62795 4.72449C5.56855 4.6848 5.52226 4.6284 5.49493 4.5624C5.46759 4.49641 5.46044 4.42379 5.47437 4.35373C5.48831 4.28367 5.52271 4.21932 5.57322 4.16881C5.62373 4.1183 5.68808 4.0839 5.75814 4.06997C5.8282 4.05603 5.90082 4.06318 5.96681 4.09052C6.0328 4.11785 6.08921 4.16415 6.1289 4.22354C6.16858 4.28293 6.18976 4.35276 6.18976 4.42419C6.18976 4.51998 6.15171 4.61184 6.08398 4.67957C6.01625 4.7473 5.92439 4.78535 5.8286 4.78535Z" fill="#182230"/>
<path d="M11.1606 7.43027C11.5913 7.60858 11.9364 7.94656 12.1237 8.37351H15.4813C15.4832 8.34341 15.4851 8.3147 15.487 8.28692C15.4935 8.19106 15.4993 8.10554 15.4993 8.01235C15.4984 7.02808 15.2082 6.06578 14.6649 5.24506C14.1215 4.42434 13.349 3.78138 12.4433 3.39607L11.1606 7.43027Z" fill="#182230"/>
<path d="M12.2766 9.08923C12.2727 9.55987 12.0852 10.0104 11.7541 10.3449L12.9821 12.3554C13.5863 12.0067 14.1116 11.5364 14.5246 10.9742C14.9376 10.412 15.2294 9.77009 15.3814 9.08923H12.2766Z" fill="#182230"/>
<path d="M10.5328 10.8698C10.7466 10.8628 10.9574 10.8173 11.1552 10.7355L12.3332 12.6629C11.7754 12.8866 11.1817 13.0075 10.5809 13.0199L8.83528 13.369C8.70362 13.3957 8.5671 13.3848 8.44133 13.3376C8.31555 13.2904 8.20558 13.2088 8.12398 13.1021C8.04237 12.9954 7.99242 12.8679 7.97983 12.7341C7.96724 12.6004 7.99251 12.4658 8.05276 12.3457L8.25079 11.9496L8.05276 11.5536C7.99251 11.4335 7.96724 11.2989 7.97983 11.1652C7.99242 11.0314 8.04237 10.9039 8.12398 10.7972C8.20558 10.6905 8.31555 10.6089 8.44133 10.5617C8.5671 10.5145 8.70362 10.5036 8.83528 10.5303L10.5328 10.8698Z" fill="#182230"/>
<path d="M20.6227 9.12174C20.7048 9.15169 20.7798 9.19843 20.8428 9.25898C20.9018 9.32653 20.9459 9.4058 20.9722 9.4916C20.9984 9.57739 21.0062 9.66776 20.9951 9.75679L20.9469 10.7801C20.9108 11.4663 20.8801 12.1465 20.8506 12.8267C20.8543 13.0192 20.7841 13.2057 20.6544 13.348C20.6081 13.393 20.5558 13.4315 20.4991 13.4623C20.4202 13.5074 20.3311 13.5316 20.2402 13.5328C20.1562 13.5263 20.0744 13.5026 20 13.4632C19.9255 13.4237 19.86 13.3693 19.8074 13.3034L18.9978 12.4974L11.8402 19.6581C11.6694 19.8286 11.438 19.9243 11.1967 19.9243C10.9554 19.9243 10.724 19.8286 10.5532 19.6581L7.70242 16.8073L4.71921 19.7875C4.63506 19.8719 4.53509 19.9388 4.42503 19.9845C4.31498 20.0301 4.19699 20.0536 4.07784 20.0536C3.95869 20.0536 3.8407 20.0301 3.73065 19.9845C3.62059 19.9388 3.52062 19.8719 3.43647 19.7875L3.26612 19.6172C3.18177 19.533 3.11484 19.4331 3.06917 19.323C3.02351 19.2129 3 19.095 3 18.9758C3 18.8566 3.02351 18.7387 3.06917 18.6286C3.11484 18.5186 3.18177 18.4186 3.26612 18.3344L7.06316 14.5422C7.14731 14.4579 7.24728 14.3909 7.35734 14.3453C7.46739 14.2996 7.58538 14.2761 7.70453 14.2761C7.82368 14.2761 7.94167 14.2996 8.05172 14.3453C8.16178 14.3909 8.26175 14.4579 8.3459 14.5422L11.1967 17.393L17.5429 11.0443C17.3581 10.8632 17.1727 10.6784 16.9922 10.4936L16.7297 10.2275C16.6312 10.1532 16.5611 10.0474 16.5309 9.92778C16.5007 9.80814 16.5122 9.68177 16.5636 9.56958C16.5907 9.50615 16.6295 9.44836 16.678 9.39923C16.8108 9.28346 16.9835 9.22388 17.1595 9.2331C17.6844 9.20902 18.2085 9.18404 18.7327 9.15906C19.2568 9.13408 19.781 9.1091 20.3058 9.08502H20.366C20.4532 9.07928 20.5407 9.09179 20.6227 9.12174Z" fill="#182230"/>
</svg>
