<svg width="24" height="24" viewBox="0 0 24 24" fill="none" xmlns="http://www.w3.org/2000/svg">
<path d="M3.43433 12.8976H7.2636V21.0662H3.43433V12.8976Z" fill="#182230"/>
<path d="M3.43433 7.86075C3.43433 7.30847 3.88204 6.86076 4.43433 6.86076H6.2636C6.81588 6.86076 7.2636 7.30847 7.2636 7.86076V12H3.43433V7.86075Z" fill="#182230"/>
<path d="M16.9144 13.0508H20.7437V21.0662H16.9144V13.0508Z" fill="#182230"/>
<path d="M16.9144 5.18347C16.9144 4.63119 17.3621 4.18347 17.9144 4.18347H19.7437C20.296 4.18347 20.7437 4.63119 20.7437 5.18347V12.1989H16.9144V5.18347Z" fill="#182230"/>
<path d="M10.0851 17.2526H13.9144V21.0662H10.0851V17.2526Z" fill="#182230"/>
<path d="M10.0851 11.3845C10.0851 10.8322 10.5329 10.3845 11.0851 10.3845H12.9144C13.4667 10.3845 13.9144 10.8322 13.9144 11.3845V16.246H10.0851V11.3845Z" fill="#182230"/>
</svg>
