<svg width="24" height="24" viewBox="0 0 24 24" fill="none" xmlns="http://www.w3.org/2000/svg">
<path d="M6.41488 9.56087C4.21045 10.6869 3.99677 15.4201 3.99677 15.4201C3.99677 15.4201 5.77569 13.0715 7.43791 12.444C10.0437 11.4602 11.8972 15.127 14.4132 13.932C16.5973 12.8947 15.4102 8.15919 17.7613 8.72385L19.9934 10.5839V7.79381C19.9934 7.79381 17.7139 5.31925 15.8082 5.28272C13.2522 5.23373 13.3068 8.84245 10.8533 9.56087C9.18983 10.048 7.95846 8.77239 6.41488 9.56087Z" fill="#182230"/>
<path d="M15.2502 14.9551C12.6574 16.5061 10.4101 12.4844 7.62392 13.653C5.8125 14.4128 3.95532 17.0942 3.95532 17.0942L3.95532 18.7173H20.0449V11.886C20.0449 11.886 19.0913 10.4708 18.1333 10.2119C16.0407 9.64626 17.1104 13.8423 15.2502 14.9551Z" fill="#182230"/>
</svg>
