<svg width="25" height="24" viewBox="0 0 25 24" fill="none" xmlns="http://www.w3.org/2000/svg">
<path d="M12.5 21C11.3178 21.0029 10.1466 20.7709 9.0545 20.3181C7.96245 19.8653 6.97114 19.2004 6.13785 18.3618C5.29926 17.5285 4.63435 16.5376 4.18155 15.4455C3.72875 14.3534 3.49712 13.1818 3.50003 11.9996C3.50229 9.61339 4.45129 7.32555 6.13861 5.63823C7.82593 3.95091 10.1138 3.00229 12.5 3.00003C13.6822 2.99716 14.8531 3.22913 15.9451 3.68193C17.0372 4.13473 18.0285 4.79967 18.8618 5.63823C19.7003 6.47154 20.3653 7.46245 20.8181 8.5545C21.2709 9.64654 21.5028 10.8174 21.5 11.9996C21.5029 13.1818 21.2713 14.3534 20.8184 15.4455C20.3656 16.5376 19.7004 17.5285 18.8618 18.3618C18.0284 19.2003 17.0372 19.8653 15.9451 20.3181C14.8531 20.7709 13.6822 21.0028 12.5 21ZM10.4827 13.5771C9.8654 13.5771 9.27355 13.8225 8.83705 14.259C8.40055 14.6955 8.15515 15.2873 8.15515 15.9046H16.6895C16.69 15.599 16.6298 15.2967 16.5126 15.0144C16.3954 14.7321 16.2237 14.4752 16.0069 14.2597C15.7915 14.0428 15.535 13.8708 15.2526 13.7536C14.9703 13.6364 14.6677 13.5764 14.362 13.5771H12.6599V11.3397C12.9166 11.4184 13.1835 11.4594 13.452 11.4609C13.9804 11.4688 14.4917 11.2743 14.8817 10.9177C15.9353 9.9688 16.3312 7.78081 16.3474 7.68848C16.3304 7.75831 16.1923 8.11267 15.2162 8.40827C14.4578 8.61957 13.7375 8.94906 13.0819 9.3849C12.7103 9.68594 12.4515 10.1044 12.3485 10.5714H12.3276C12.2227 10.1051 11.9647 9.68724 11.5946 9.3849C10.9392 8.94958 10.2195 8.62013 9.46175 8.40827C8.43374 8.09793 8.33598 7.7164 8.33055 7.68924C8.34141 7.74588 8.71825 9.94863 9.79436 10.9177C10.1843 11.2743 10.696 11.4688 11.2245 11.4609C11.4558 11.46 11.6858 11.4294 11.9094 11.37V13.5763L10.4827 13.5771Z" fill="#182230"/>
</svg>
