<svg width="24" height="24" viewBox="0 0 24 24" fill="none" xmlns="http://www.w3.org/2000/svg">
<path fill-rule="evenodd" clip-rule="evenodd" d="M18.2406 5.60139C18.3102 5.69409 18.3514 5.80928 18.3514 5.93408C18.3514 5.9449 18.3484 5.95492 18.3455 5.96494C18.3434 5.97233 18.3412 5.97968 18.3403 5.98721V12.0003C18.3421 12.0186 18.3431 12.0371 18.3431 12.0559C18.3431 12.3621 18.0949 12.6103 17.7887 12.6103C17.4824 12.6103 17.2342 12.3621 17.2342 12.0559C17.2342 12.0363 17.2352 12.0171 17.237 12.0005V6.48504H4.00179V18.6159H12.2827L12.2851 18.6161C12.5642 18.645 12.7818 18.8808 12.7818 19.1676C12.7818 19.4543 12.5641 19.6901 12.2827 19.7192H3.45847C3.15227 19.7192 2.90405 19.471 2.90405 19.1648V5.91519C2.90567 5.84762 2.9194 5.78242 2.94175 5.72666C2.94354 5.72216 2.94661 5.71803 2.94963 5.71397C2.95405 5.70802 2.95837 5.70222 2.95837 5.69561L2.95977 5.69203C2.97389 5.65984 2.99095 5.62927 3.00936 5.60251L4.66155 3.40149L4.66256 3.40009C4.7638 3.26619 4.92438 3.17969 5.10512 3.17969H16.6883C16.9027 3.1803 17.0885 3.30275 17.1816 3.48458L18.2406 5.60139ZM5.38005 4.2786L4.55288 5.38193H16.8988L16.3443 4.2786H5.38005Z" fill="#182230"/>
<path fill-rule="evenodd" clip-rule="evenodd" d="M5.65179 7.58851H15.5826C15.8855 7.59101 16.1308 7.83629 16.1327 8.13952V11.9993C16.1345 12.0176 16.1354 12.0361 16.1354 12.0549C16.1354 12.3611 15.8872 12.6093 15.581 12.6093C15.2748 12.6093 15.0266 12.3611 15.0266 12.0549C15.0266 12.0353 15.0276 12.0161 15.0294 11.9995V8.69512H12.8239V16.9671C12.8239 17.2733 12.5757 17.5216 12.2695 17.5216H5.65179C5.34567 17.5216 5.09741 17.2733 5.09741 16.9671V8.14293C5.09741 7.83677 5.34559 7.58851 5.65179 7.58851ZM8.41283 8.69071H6.20621V16.4116H8.41283V8.69071ZM11.7205 8.69071H9.51506L9.5162 16.4116H11.7205V8.69071Z" fill="#182230"/>
<path fill-rule="evenodd" clip-rule="evenodd" d="M17.237 17.7911C16.7802 17.7911 16.4098 17.4207 16.4098 16.9639C16.4098 16.507 16.7802 16.1366 17.237 16.1366C17.6939 16.1366 18.0642 16.507 18.0642 16.9639C18.0636 17.4205 17.6935 17.7904 17.237 17.7911ZM17.237 16.6877C17.0846 16.6877 16.9609 16.8114 16.9609 16.9639C16.9609 17.1163 17.0845 17.24 17.237 17.24C17.3895 17.24 17.5132 17.1163 17.5132 16.9639C17.5113 16.8128 17.3884 16.6911 17.2371 16.6911L17.237 16.6877Z" fill="#182230"/>
<path fill-rule="evenodd" clip-rule="evenodd" d="M20.4937 17.515H21.0958V16.4117H20.4937C20.4153 15.8958 20.2175 15.4367 19.9295 15.0487L20.354 14.6242L19.5778 13.8479L19.1531 14.2727C18.7682 13.996 18.3083 13.7977 17.81 13.7111L17.7903 13.7083V13.1073H16.687V13.7083C16.1733 13.7969 15.7167 13.9928 15.324 14.2725L14.8995 13.8479L14.1233 14.6242L14.548 15.0489C14.2708 15.4337 14.072 15.8936 13.9854 16.392L13.9825 16.4117H13.3815V17.515H13.9825C14.0714 18.0288 14.2677 18.4855 14.5478 18.8779L14.1233 19.3025L14.8996 20.0787L15.3243 19.654C15.709 19.9313 16.1689 20.1301 16.6674 20.2166L16.6871 20.2194V20.8204H17.7904V20.2194C18.3042 20.1303 18.7608 19.9341 19.1533 19.6541L19.5779 20.0786L20.3541 19.3024L19.9294 18.8777C20.2058 18.4927 20.4042 18.0329 20.4909 17.5346L20.4937 17.515ZM15.0294 16.9639C15.0294 18.1819 16.0168 19.1693 17.2348 19.1693H17.2382C18.454 19.1662 19.439 18.1802 19.4403 16.9639C19.4403 15.7458 18.4529 14.7584 17.2348 14.7584C16.0168 14.7584 15.0294 15.7458 15.0294 16.9639Z" fill="#182230"/>
</svg>
