<svg width="24" height="24" viewBox="0 0 24 24" fill="none" xmlns="http://www.w3.org/2000/svg">
<path d="M12.1531 12.147L12.1595 12.1718L17.4059 12.1876L18.6478 14.3139L13.5429 15.2833L12.173 12.2231L13.0804 15.8341L17.4059 14.9495V19.8158L12.1531 20.9957V12.147ZM6.49045 19.8187V14.9524L10.8151 15.8369L11.704 12.3497L10.3519 15.2833L5.25 14.3154L6.49254 12.1889H11.7731V12.2039L11.7446 12.2658V21L6.49045 19.8187ZM13.3715 11.2353C13.1827 11.2353 13.0017 11.1603 12.8682 11.0269C12.7347 10.8934 12.6598 10.7124 12.6598 10.5237V8.805C12.6598 8.61626 12.7347 8.4353 12.8682 8.30183C13.0017 8.16837 13.1827 8.09334 13.3715 8.09334H15.0901C15.2789 8.09334 15.4598 8.16837 15.5933 8.30183C15.7268 8.4353 15.8018 8.61626 15.8018 8.805V10.5237C15.8018 10.7124 15.7268 10.8934 15.5933 11.0269C15.4598 11.1603 15.2789 11.2353 15.0901 11.2353H13.3715ZM8.84461 10.029C8.65587 10.029 8.47482 9.95409 8.34136 9.82063C8.2079 9.68717 8.13295 9.50612 8.13295 9.31737V7.59947C8.13295 7.41073 8.2079 7.22968 8.34136 7.09622C8.47482 6.96275 8.65587 6.88781 8.84461 6.88781H10.5632C10.752 6.88781 10.933 6.96275 11.0665 7.09622C11.1999 7.22968 11.2749 7.41073 11.2749 7.59947V9.31737C11.2749 9.50612 11.1999 9.68717 11.0665 9.82063C10.933 9.95409 10.752 10.029 10.5632 10.029H8.84461ZM11.1084 6.14123C10.9197 6.14123 10.7386 6.06628 10.6052 5.93282C10.4717 5.79936 10.3968 5.61831 10.3968 5.42957V3.71166C10.3968 3.52292 10.4717 3.34187 10.6052 3.20841C10.7386 3.07495 10.9197 3 11.1084 3H12.827C13.0158 3 13.1968 3.07495 13.3303 3.20841C13.4637 3.34187 13.5387 3.52292 13.5387 3.71166V5.43035C13.5387 5.61909 13.4637 5.80005 13.3303 5.93351C13.1968 6.06698 13.0158 6.14201 12.827 6.14201L11.1084 6.14123Z" fill="#182230"/>
</svg>
