<svg width="24" height="24" viewBox="0 0 24 24" fill="none" xmlns="http://www.w3.org/2000/svg">
<path d="M15.7913 19.7883H11.8509V15.7666H13.17V17.9406H14.4722V15.7672H15.7919V19.7883H15.7913ZM11.3442 19.7883H7.40385V15.7666H8.72291V17.9406H10.0251V15.7672H11.3448V19.7883H11.3442ZM17.1304 19.7557V11.5286L12.0457 6.20032L6.87705 11.5512V19.7564H5.81543V12.648L4.96544 13.5248H3L12.0432 4L21 13.5248H19.037L18.1883 12.6354V19.7507L17.1304 19.7557ZM13.435 17.6775V15.7672H14.2091V17.6775H13.435ZM8.98792 17.6775V15.7672H9.76206V17.6775H8.98792ZM11.3448 15.3438H7.40447V11.322H8.72353V13.4961H10.0258V11.3226H11.3454V15.3438H11.3448ZM8.98792 13.233V11.3226H9.76206V13.233H8.98792Z" fill="#404040"/>
</svg>
