<svg width="25" height="24" viewBox="0 0 25 24" fill="none" xmlns="http://www.w3.org/2000/svg">
<path d="M12.4994 21C11.3127 21.0012 10.1377 20.7685 9.04454 20.3157C7.9514 19.8629 6.96244 19.1993 6.13629 18.3643C4.4369 16.6658 3.48966 14.379 3.50009 12.0003C3.48969 9.62137 4.43692 7.33441 6.13629 5.6357C6.96244 4.80071 7.9514 4.13707 9.04454 3.68428C10.1377 3.23149 11.3127 2.99878 12.4994 3C13.6864 2.99877 14.8615 3.23152 15.9549 3.68441C17.0482 4.1373 18.0374 4.80108 18.8637 5.63626C20.5631 7.33493 21.5104 9.62192 21.4999 12.0008C21.5103 14.3796 20.5631 16.6664 18.8637 18.3649C18.0373 19.1998 17.0482 19.8634 15.9549 20.3161C14.8616 20.7688 13.6863 21.0013 12.4994 21ZM7.79453 11.5612C7.62543 11.5947 7.46485 11.6613 7.3226 11.757C7.18035 11.8526 7.0593 11.9754 6.96654 12.118C6.60453 12.5746 6.46834 13.0986 6.66291 13.2853L9.59231 16.0981L9.59767 16.1049L9.60922 16.1207V16.1241C9.61788 16.136 9.62649 16.1479 9.63572 16.1592C9.7159 16.2615 9.81358 16.3494 9.92441 16.4189L10.1017 16.5887C10.1259 16.6111 10.1543 16.6285 10.1855 16.6399C10.2166 16.6514 10.2498 16.6567 10.283 16.6555C10.2968 16.6564 10.3106 16.6564 10.3244 16.6555C10.4186 16.6428 10.5091 16.6116 10.5906 16.5638C10.7516 16.5369 10.9013 16.4647 11.0213 16.3561L18.0202 10.0623C18.2127 9.86298 18.3239 9.60147 18.3329 9.32722C18.3418 9.05298 18.2478 8.78503 18.0687 8.57411C17.9747 8.44847 17.8524 8.34564 17.7115 8.27354C17.5706 8.20144 17.4149 8.16198 17.2559 8.15822C17.0432 8.15692 16.8378 8.23524 16.682 8.3772L10.4366 13.9943L7.97298 11.6291C7.92498 11.5843 7.86081 11.5599 7.79453 11.5612Z" fill="#182230"/>
</svg>
