<svg width="25" height="24" viewBox="0 0 25 24" fill="none" xmlns="http://www.w3.org/2000/svg">
<path d="M12.0262 4C11.612 4 11.2762 4.33579 11.2762 4.75V6.63182C11.2762 7.04604 11.612 7.38182 12.0262 7.38182C12.4404 7.38182 12.7762 7.04604 12.7762 6.63182V4.75C12.7762 4.33579 12.4404 4 12.0262 4Z" fill="#182230"/>
<path d="M14.7995 12.0262C14.7995 13.5794 13.5404 14.8385 11.9873 14.8385C10.4341 14.8385 9.17493 13.5794 9.17493 12.0262C9.17493 10.473 10.4341 9.2139 11.9873 9.2139C13.5404 9.2139 14.7995 10.473 14.7995 12.0262Z" fill="#182230"/>
<path d="M4 12.0262C4 12.4404 4.33579 12.7762 4.75 12.7762H6.63182C7.04604 12.7762 7.38182 12.4404 7.38182 12.0262C7.38182 11.612 7.04604 11.2762 6.63182 11.2762H4.75C4.33579 11.2762 4 11.612 4 12.0262Z" fill="#182230"/>
<path d="M17.4205 12.7762C17.0062 12.7762 16.6705 12.4404 16.6705 12.0262C16.6705 11.612 17.0062 11.2762 17.4205 11.2762H19.3023C19.7165 11.2762 20.0523 11.612 20.0523 12.0262C20.0523 12.4404 19.7165 12.7762 19.3023 12.7762H17.4205Z" fill="#182230"/>
<path d="M11.2762 17.4204C11.2762 17.0062 11.612 16.6704 12.0262 16.6704C12.4404 16.6704 12.7762 17.0062 12.7762 17.4204V19.3022C12.7762 19.7164 12.4404 20.0522 12.0262 20.0522C11.612 20.0522 11.2762 19.7164 11.2762 19.3022V17.4204Z" fill="#182230"/>
<path d="M6.35078 6.35084C6.05788 6.64373 6.05788 7.1186 6.35078 7.4115L7.68142 8.74215C7.97432 9.03504 8.44919 9.03504 8.74208 8.74215C9.03498 8.44925 9.03498 7.97438 8.74208 7.68149L7.41144 6.35084C7.11854 6.05794 6.64367 6.05794 6.35078 6.35084Z" fill="#182230"/>
<path d="M15.3101 16.3709C15.0172 16.078 15.0172 15.6031 15.3101 15.3102C15.603 15.0173 16.0778 15.0173 16.3707 15.3102L17.7014 16.6409C17.9943 16.9338 17.9943 17.4087 17.7014 17.7015C17.4085 17.9944 16.9336 17.9944 16.6407 17.7015L15.3101 16.3709Z" fill="#182230"/>
<path d="M17.7014 6.35077C17.4085 6.05788 16.9336 6.05788 16.6408 6.35077L15.3101 7.68142C15.0172 7.97431 15.0172 8.44919 15.3101 8.74208C15.603 9.03497 16.0779 9.03497 16.3708 8.74208L17.7014 7.41143C17.9943 7.11854 17.9943 6.64367 17.7014 6.35077Z" fill="#182230"/>
<path d="M7.68148 15.3102C7.97438 15.0173 8.44925 15.0173 8.74214 15.3102C9.03504 15.6031 9.03504 16.078 8.74214 16.3709L7.41149 17.7015C7.1186 17.9944 6.64373 17.9944 6.35083 17.7015C6.05794 17.4086 6.05794 16.9338 6.35083 16.6409L7.68148 15.3102Z" fill="#182230"/>
</svg>
