<svg width="24" height="24" viewBox="0 0 24 24" fill="none" xmlns="http://www.w3.org/2000/svg">
<path d="M9.85421 4.08875C10.2195 3.89344 10.674 4.03123 10.8693 4.39651L11.9964 6.50466C12.1917 6.86994 12.0539 7.32438 11.6887 7.51969C11.3234 7.71499 10.8689 7.5772 10.6736 7.21192L9.54651 5.10378C9.35121 4.7385 9.48901 4.28405 9.85421 4.08875Z" fill="#182230"/>
<path fill-rule="evenodd" clip-rule="evenodd" d="M6.37659 11.3008C6.994 10.4565 7.95371 9.74634 9.33358 9.74634C9.84369 9.74634 10.2967 9.83592 10.6964 9.98903C10.6937 9.98798 10.691 9.98694 10.6882 9.9859C11.3637 9.41621 12.2363 9.07288 13.1891 9.07288C15.3326 9.07288 17.0703 10.8105 17.0703 12.954C17.0703 13.7481 16.8318 14.4864 16.4226 15.1014C16.4226 15.1014 16.6159 15.4219 16.6159 16.3397C16.6159 17.839 16.0617 18.7936 15.2872 19.3338C14.5559 19.8439 13.6983 19.935 13.1131 19.8673H5.56657C5.01464 19.8673 4.14055 19.7922 3.38931 19.351C2.59606 18.8852 2 18.0452 2 16.6729C2 15.3032 2.62845 14.334 3.45862 13.7823C4.07961 13.3695 4.82123 13.1872 5.48215 13.2518C5.63186 12.6521 5.91463 11.9324 6.37659 11.3008ZM7.18376 11.8911C6.69442 12.5602 6.4445 13.3772 6.36925 13.9146C6.34841 14.0634 6.26176 14.1949 6.13327 14.2728C6.00478 14.3507 5.84807 14.3667 5.70651 14.3163C5.27373 14.1623 4.59361 14.2286 4.01215 14.6151C3.45639 14.9845 3 15.6434 3 16.6729C3 17.6999 3.41617 18.2071 3.89568 18.4887C4.41719 18.7949 5.07639 18.8673 5.56657 18.8673H13.1433C13.1646 18.8673 13.1858 18.8687 13.2069 18.8714C13.612 18.9233 14.222 18.8576 14.7152 18.5136C15.1793 18.1899 15.6159 17.5672 15.6159 16.3397C15.6159 15.2711 15.1526 14.6789 14.6036 14.3505C14.0208 14.0018 13.3081 13.9339 12.8543 14.0139C12.7212 14.0374 12.5842 14.006 12.4747 13.9268C12.3651 13.8476 12.2923 13.7275 12.2727 13.5938C12.2032 13.1177 11.964 12.3863 11.4862 11.7859C11.0208 11.201 10.3377 10.7463 9.33358 10.7463C8.34905 10.7463 7.66299 11.2358 7.18376 11.8911Z" fill="#182230"/>
<path d="M19.7591 6.47084C20.0396 6.16609 20.02 5.69162 19.7152 5.41109C19.4105 5.13055 18.936 5.15019 18.6555 5.45494L16.9898 7.2644C16.7093 7.56915 16.7289 8.04362 17.0337 8.32415C17.3384 8.60468 17.8129 8.58505 18.0934 8.2803L19.7591 6.47084Z" fill="#182230"/>
<path d="M22.5236 15.3119C22.6504 14.9176 22.4336 14.4951 22.0393 14.3683L19.8337 13.6588C19.4393 13.5319 19.0169 13.7487 18.89 14.1431C18.7632 14.5374 18.98 14.9598 19.3743 15.0867L21.58 15.7962C21.9743 15.9231 22.3967 15.7063 22.5236 15.3119Z" fill="#182230"/>
</svg>
