<svg width="25" height="24" viewBox="0 0 25 24" fill="none" xmlns="http://www.w3.org/2000/svg">
<path d="M12.5001 2C12.7631 2 12.9763 2.2132 12.9763 2.47619V3.42857C12.9763 3.69156 12.7631 3.90476 12.5001 3.90476C12.2371 3.90476 12.0239 3.69156 12.0239 3.42857V2.47619C12.0239 2.2132 12.2371 2 12.5001 2Z" fill="#182230"/>
<path d="M19.1666 12C19.1666 15.6819 16.1819 18.6667 12.5 18.6667C8.81808 18.6667 5.83331 15.6819 5.83331 12C5.83331 8.31812 8.81808 5.33334 12.5 5.33334C16.1819 5.33334 19.1666 8.31812 19.1666 12Z" fill="#182230"/>
<path d="M12.9763 20.5714C12.9763 20.3085 12.7631 20.0952 12.5001 20.0952C12.2371 20.0952 12.0239 20.3085 12.0239 20.5714V21.5238C12.0239 21.7868 12.2371 22 12.5001 22C12.7631 22 12.9763 21.7868 12.9763 21.5238V20.5714Z" fill="#182230"/>
<path d="M22.5 12C22.5 12.2629 22.2867 12.4762 22.0238 12.4762H21.0714C20.8085 12.4762 20.5952 12.2629 20.5952 12C20.5952 11.737 20.8085 11.5238 21.0714 11.5238H22.0238C22.2867 11.5238 22.5 11.737 22.5 12Z" fill="#182230"/>
<path d="M3.92857 12.4762C4.19156 12.4762 4.40476 12.2629 4.40476 12C4.40476 11.737 4.19156 11.5238 3.92857 11.5238H2.97619C2.7132 11.5238 2.5 11.737 2.5 12C2.5 12.2629 2.7132 12.4762 2.97619 12.4762H3.92857Z" fill="#182230"/>
<path d="M19.5711 19.071C19.3852 19.257 19.0836 19.257 18.8976 19.071L18.2242 18.3976C18.0382 18.2117 18.0382 17.9102 18.2242 17.7242C18.4102 17.5382 18.7117 17.5382 18.8976 17.7242L19.5711 18.3976C19.7571 18.5836 19.7571 18.8851 19.5711 19.071Z" fill="#182230"/>
<path d="M6.1024 6.2758C6.28836 6.46176 6.58987 6.46176 6.77583 6.2758C6.96179 6.08984 6.96179 5.78833 6.77583 5.60237L6.1024 4.92893C5.91643 4.74297 5.61492 4.74297 5.42896 4.92893C5.243 5.11489 5.243 5.4164 5.42896 5.60237L6.1024 6.2758Z" fill="#182230"/>
<path d="M5.42896 19.0711C5.243 18.8852 5.243 18.5837 5.42896 18.3977L6.1024 17.7243C6.28836 17.5383 6.58987 17.5383 6.77583 17.7243C6.9618 17.9103 6.9618 18.2118 6.77583 18.3977L6.1024 19.0711C5.91643 19.2571 5.61492 19.2571 5.42896 19.0711Z" fill="#182230"/>
<path d="M18.2241 5.6024C18.0381 5.78836 18.0381 6.08987 18.2241 6.27584C18.4101 6.4618 18.7115 6.4618 18.8975 6.27584L19.571 5.6024C19.757 5.41644 19.757 5.11492 19.571 4.92896C19.385 4.743 19.0835 4.743 18.8975 4.92896L18.2241 5.6024Z" fill="#182230"/>
</svg>
