<svg width="24" height="24" viewBox="0 0 24 24" fill="currentColor" xmlns="http://www.w3.org/2000/svg">
<path d="M11.7766 17.4434V14.72L15.3936 18.337L11.7766 21.9966V19.2732C9.79078 19.2732 8.07447 18.564 6.62766 17.1455C5.20922 15.6987 4.5 13.9824 4.5 11.9966C4.5 10.5781 4.88298 9.28736 5.64894 8.12424L6.96808 9.44339C6.54255 10.2093 6.32979 11.0604 6.32979 11.9966C6.32979 13.5001 6.85461 14.7909 7.90425 15.8689C8.98227 16.9186 10.273 17.4434 11.7766 17.4434ZM11.7766 4.71999C13.7624 4.71999 15.4645 5.44339 16.883 6.8902C18.3298 8.30864 19.0532 10.0108 19.0532 11.9966C19.0532 13.415 18.6702 14.7058 17.9043 15.8689L16.5851 14.5498C17.0106 13.7838 17.2234 12.9328 17.2234 11.9966C17.2234 10.493 16.6844 9.21644 15.6064 8.1668C14.5567 7.08878 13.2801 6.54977 11.7766 6.54977V9.27318L8.15957 5.65616L11.7766 1.99658V4.71999Z" fill="currentColor"/>
</svg>
