<svg width="24" height="24" viewBox="0 0 24 24" fill="none" xmlns="http://www.w3.org/2000/svg">
<path d="M6.24746 16.7611L3.36716 12.9391C3.07612 12.5527 2.95045 12.0665 3.01775 11.5874C3.08505 11.1083 3.33982 10.6756 3.72608 10.3843L8.32543 6.91694C8.38368 6.87265 8.44462 6.83202 8.50791 6.79528C8.79388 6.51929 9.17057 6.35688 9.56758 6.33845C9.60827 6.33854 9.64893 6.34139 9.68924 6.34697L11.2769 6.5696C11.1693 6.63243 11.07 6.70844 10.9813 6.79589C10.9181 6.83281 10.8572 6.87343 10.7988 6.91755L6.19942 10.3849C5.81398 10.6768 5.55984 11.1094 5.49258 11.5882C5.42532 12.067 5.55044 12.5529 5.84054 12.9397L8.72084 16.7617C8.78814 16.8515 8.86368 16.9348 8.9465 17.0105L8.80052 17.1212C8.41407 17.4123 7.92789 17.5379 7.44881 17.4706C6.96972 17.4033 6.53694 17.1486 6.24564 16.7623L6.24746 16.7611ZM10.7051 16.7611L7.8248 12.9391C7.53375 12.5527 7.40805 12.0665 7.47535 11.5874C7.54265 11.1083 7.79746 10.6756 8.18371 10.3843L12.7831 6.91694C12.8414 6.87284 12.9024 6.83221 12.9655 6.79528C13.2516 6.51938 13.6282 6.35699 14.0252 6.33845C14.0659 6.33855 14.1066 6.3414 14.1469 6.34697L18.5589 6.96682C18.6617 6.98112 18.7617 7.01149 18.8551 7.05685L20.3692 5.99658L21 6.89565L19.4105 8.00824C19.4092 8.03431 19.4066 8.0603 19.4026 8.0861L18.7821 12.4981C18.7348 12.7078 18.6442 12.9052 18.5159 13.0776C18.3877 13.2501 18.2247 13.3937 18.0376 13.4994C17.9804 13.5554 17.9194 13.6074 17.8551 13.6551L13.2557 17.1224C12.8693 17.4135 12.3831 17.5392 11.904 17.4719C11.4249 17.4046 10.9922 17.1498 10.7009 16.7635L10.7051 16.7611ZM15.4645 9.13542C15.4645 9.49616 15.6078 9.84212 15.8629 10.0972C16.1179 10.3523 16.4639 10.4956 16.8246 10.4956C17.1853 10.4956 17.5313 10.3523 17.7864 10.0972C18.0415 9.84212 18.1848 9.49616 18.1848 9.13542C18.1849 9.05134 18.1772 8.96743 18.1617 8.8848L17.0266 9.67924L16.3976 8.78017L17.5412 7.97904C17.3352 7.85121 17.0988 7.78075 16.8564 7.77498C16.6141 7.7692 16.3746 7.8283 16.1627 7.94617C15.9509 8.06404 15.7744 8.23638 15.6515 8.44536C15.5286 8.65435 15.4638 8.89238 15.4638 9.13481L15.4645 9.13542Z" fill="#182230"/>
</svg>
