<svg width="24" height="24" viewBox="0 0 24 24" fill="none" xmlns="http://www.w3.org/2000/svg">
<path fill-rule="evenodd" clip-rule="evenodd" d="M12.5139 6.17592L15.2546 6.17592V6.8611H12.5139V6.17592Z" fill="#182230"/>
<path fill-rule="evenodd" clip-rule="evenodd" d="M12.5139 7.54629L16.625 7.54629V8.23148H12.5139V7.54629Z" fill="#182230"/>
<path fill-rule="evenodd" clip-rule="evenodd" d="M12.5139 8.91666L15.9398 8.91666V9.60185H12.5139V8.91666Z" fill="#182230"/>
<path fill-rule="evenodd" clip-rule="evenodd" d="M10.1157 3.22962C9.51027 3.22962 9.01944 3.72045 9.01944 4.32591V16.9673L8.88261 17.07C8.38256 17.4456 8.06019 18.0425 8.06019 18.7148C8.06019 19.8501 8.98049 20.7704 10.1157 20.7704C11.251 20.7704 12.1713 19.8501 12.1713 18.7148C12.1713 18.0425 11.8489 17.4456 11.3489 17.07L11.212 16.9673V4.32591C11.212 3.72045 10.7212 3.22962 10.1157 3.22962ZM8.33426 4.32591C8.33426 3.34203 9.13186 2.54443 10.1157 2.54443C11.0996 2.54443 11.8972 3.34203 11.8972 4.32591V16.632C12.4839 17.1342 12.8565 17.881 12.8565 18.7148C12.8565 20.2285 11.6294 21.4555 10.1157 21.4555C8.60207 21.4555 7.375 20.2285 7.375 18.7148C7.375 17.881 7.74762 17.1342 8.33426 16.632V4.32591Z" fill="#182230"/>
<path d="M10.4583 17.8825V9.94443H9.77315V17.8825C9.37396 18.0236 9.08796 18.4043 9.08796 18.8518C9.08796 19.4195 9.54811 19.8796 10.1157 19.8796C10.6834 19.8796 11.1435 19.4195 11.1435 18.8518C11.1435 18.4043 10.8575 18.0236 10.4583 17.8825Z" fill="#182230"/>
</svg>
