<svg width="24" height="24" viewBox="0 0 24 24" fill="none" xmlns="http://www.w3.org/2000/svg">
<path d="M11.9999 2.00366C12.2632 2.00366 12.4762 2.21666 12.4762 2.47991V3.43241C12.4762 3.69566 12.2632 3.90866 11.9999 3.90866C11.7367 3.90866 11.5237 3.69566 11.5237 3.43241V2.47991C11.5237 2.21666 11.7367 2.00366 11.9999 2.00366Z" fill="#182230"/>
<path d="M18.6668 12.0034C18.6668 15.6852 15.6818 18.6702 12 18.6702C8.31825 18.6702 5.33325 15.6852 5.33325 12.0034C5.33325 8.32167 8.31825 5.33667 12 5.33667C15.6818 5.33667 18.6668 8.32167 18.6668 12.0034Z" fill="#182230"/>
<path d="M12.4762 20.5751C12.4762 20.3119 12.2632 20.0989 11.9999 20.0989C11.7367 20.0989 11.5237 20.3119 11.5237 20.5751V21.5276C11.5237 21.7909 11.7367 22.0039 11.9999 22.0039C12.2632 22.0039 12.4762 21.7909 12.4762 21.5276V20.5751Z" fill="#182230"/>
<path d="M21.9997 12.0035C21.9997 12.2667 21.7867 12.4797 21.5235 12.4797H20.571C20.3077 12.4797 20.0947 12.2667 20.0947 12.0035C20.0947 11.7402 20.3077 11.5272 20.571 11.5272H21.5235C21.7867 11.5272 21.9997 11.7402 21.9997 12.0035Z" fill="#182230"/>
<path d="M3.42826 12.4797C3.69151 12.4797 3.90451 12.2667 3.90451 12.0035C3.90451 11.7402 3.69151 11.5272 3.42826 11.5272H2.47576C2.21251 11.5272 1.99951 11.7402 1.99951 12.0035C1.99951 12.2667 2.21251 12.4797 2.47576 12.4797H3.42826Z" fill="#182230"/>
<path d="M19.071 19.0744C18.885 19.2604 18.5835 19.2604 18.3975 19.0744L17.724 18.4009C17.538 18.2149 17.538 17.9134 17.724 17.7274C17.91 17.5414 18.2115 17.5414 18.3975 17.7274L19.071 18.4009C19.257 18.5869 19.257 18.8884 19.071 19.0744Z" fill="#182230"/>
<path d="M5.60255 6.27947C5.78855 6.46547 6.09005 6.46547 6.27605 6.27947C6.46205 6.09347 6.46205 5.79197 6.27605 5.60597L5.60255 4.93247C5.41655 4.74647 5.11505 4.74647 4.92905 4.93247C4.74305 5.11847 4.74305 5.41997 4.92905 5.60597L5.60255 6.27947Z" fill="#182230"/>
<path d="M4.92905 19.0744C4.74305 18.8884 4.74305 18.5869 4.92905 18.4009L5.60255 17.7274C5.78855 17.5414 6.09005 17.5414 6.27605 17.7274C6.46205 17.9134 6.46205 18.2149 6.27605 18.4009L5.60255 19.0744C5.41655 19.2604 5.11505 19.2604 4.92905 19.0744Z" fill="#182230"/>
<path d="M17.724 5.60597C17.538 5.79197 17.538 6.09347 17.724 6.27947C17.91 6.46547 18.2115 6.46547 18.3975 6.27947L19.071 5.60597C19.257 5.41997 19.257 5.11847 19.071 4.93247C18.885 4.74647 18.5835 4.74647 18.3975 4.93247L17.724 5.60597Z" fill="#182230"/>
</svg>
