<svg width="24" height="24" viewBox="0 0 24 24" fill="currentColor" xmlns="http://www.w3.org/2000/svg">
<path d="M16.0271 19.5544V9.95237C16.4813 9.7437 16.9752 9.63566 17.475 9.63566C17.9748 9.63566 18.4687 9.7437 18.9228 9.95237V19.5556C18.9228 19.9396 18.7703 20.3078 18.4988 20.5794C18.2273 20.8509 17.859 21.0034 17.475 21.0034C17.091 21.0034 16.7227 20.8509 16.4512 20.5794C16.1797 20.3078 16.0271 19.9396 16.0271 19.5556V19.5544ZM7.88 19.9499C7.3348 19.9466 6.81318 19.727 6.42965 19.3395C6.04612 18.952 5.832 18.4282 5.83426 17.8829L5.25002 7.59662C5.24792 7.05151 5.46211 6.52783 5.84563 6.14045C6.22914 5.75307 6.75066 5.53362 7.29576 5.53025H9.23108V3.00342H17.8369V5.25967C18.1474 5.34043 18.4225 5.52183 18.6189 5.77551C18.8154 6.02919 18.9223 6.34084 18.9228 6.66172V9.13093C18.4686 8.92205 17.9746 8.81389 17.4747 8.81389C16.9748 8.81389 16.4807 8.92205 16.0265 9.13093V6.66354C16.0268 6.40952 16.0937 6.16001 16.2208 5.94002C16.3478 5.72004 16.5304 5.5373 16.7503 5.41013V3.95409H10.3195V5.53147H13.0999C13.6449 5.535 14.1663 5.75452 14.5496 6.14188C14.933 6.52924 15.1471 7.05283 15.145 7.59783L14.6033 17.8842C14.6055 18.4293 14.3915 18.953 14.0081 19.3405C13.6247 19.728 13.1032 19.9476 12.5581 19.9511L7.88 19.9499ZM9.07274 12.6655C9.04088 12.899 9.08104 13.1366 9.18787 13.3467C9.2947 13.5568 9.46307 13.7292 9.67054 13.841C9.87801 13.9528 10.1147 13.9986 10.3489 13.9723C10.5831 13.946 10.8037 13.8488 10.9811 13.6938C11.1586 13.5388 11.2846 13.3332 11.3421 13.1047C11.3997 12.8762 11.3861 12.6355 11.3033 12.4149C11.2204 12.1943 11.0721 12.0042 10.8783 11.8701C10.6845 11.736 10.4544 11.6643 10.2188 11.6644C9.93434 11.6467 9.65441 11.7419 9.43974 11.9293C9.22507 12.1168 9.09297 12.3813 9.07212 12.6655H9.07274ZM7.16775 10.4128H13.2582V7.51896H7.16834L7.16775 10.4128Z" fill="currentColor"/>
</svg>
