<svg width="24" height="24" viewBox="0 0 24 24" fill="none" xmlns="http://www.w3.org/2000/svg">
<path d="M11.7 20.4002C10.5572 20.403 9.42521 20.1791 8.36955 19.7414C7.31389 19.3036 6.35556 18.6605 5.55005 17.8499C4.73953 17.0443 4.09682 16.0861 3.65911 15.0304C3.22141 13.9748 2.99738 12.8429 3.00003 11.7001C2.99718 10.5573 3.22108 9.42508 3.65879 8.36941C4.09651 7.31374 4.73936 6.35545 5.55005 5.54995C6.35559 4.73933 7.31389 4.09655 8.36955 3.65884C9.42521 3.22113 10.5572 2.99726 11.7 3.00003C12.8428 2.99726 13.9748 3.22113 15.0305 3.65884C16.0861 4.09655 17.0445 4.73933 17.85 5.54995C18.6607 6.35545 19.3035 7.31374 19.7412 8.36941C20.1789 9.42508 20.4029 10.5573 20.4 11.7001C20.4027 12.8429 20.1787 13.9748 19.7409 15.0304C19.3032 16.0861 18.6605 17.0443 17.85 17.8499C17.0445 18.6605 16.0862 19.3036 15.0305 19.7414C13.9749 20.1791 12.8428 20.403 11.7 20.4002ZM9.03601 14.97C9.66716 15.4917 10.4369 15.8178 11.2508 15.9082V18H12.0008V15.921C12.8365 15.8659 13.6365 15.5613 14.2973 15.0465L15.4973 16.2466L16.0268 15.7156L14.8508 14.5397C15.4814 13.8365 15.8586 12.9424 15.9225 12H18V11.25H15.9068C15.8158 10.4352 15.4889 9.66466 14.9663 9.03298L16.2413 7.7582L15.7118 7.22793L14.4368 8.50271C13.7518 7.91841 12.8962 7.57128 11.9978 7.51284V6.00003H11.2478V7.52639C10.3714 7.62154 9.54766 7.99176 8.89502 8.58438L7.53601 7.2272L7.00651 7.75711L8.38351 9.13516C7.90722 9.74727 7.60974 10.4792 7.52401 11.25H6.00003V12H7.50978C7.5698 12.8987 7.91712 13.7542 8.50051 14.4405L7.22551 15.7156L7.75651 16.2466L9.03152 14.9715L9.03601 14.97ZM12.0023 15.1732V12.75L13.7648 14.5126C13.2496 14.8903 12.6398 15.118 12.003 15.1703L12.0023 15.1732ZM11.2523 15.1538C10.6372 15.07 10.0562 14.822 9.57003 14.4361L11.25 12.75V15.1502L11.2523 15.1538ZM14.3198 14.0076L12.3135 12.003H15.174C15.115 12.7462 14.8154 13.4499 14.3205 14.0076H14.3198ZM9.03454 13.9102C8.59025 13.3677 8.32183 12.7026 8.26504 12.0037H10.9425L9.03527 13.9102H9.03454ZM15.1545 11.253H12.75L14.433 9.56985C14.8186 10.0553 15.0663 10.6358 15.15 11.25L15.1545 11.253ZM10.5045 11.253H8.28527C8.36362 10.6814 8.58355 10.1385 8.92504 9.67349L10.5 11.2486L10.5045 11.253ZM12.0045 10.9417V8.26504C12.7035 8.32204 13.3686 8.59062 13.911 9.03518L12.006 10.9402L12.0045 10.9417ZM11.2545 10.9417L9.4328 9.12014C9.94473 8.66845 10.5788 8.37805 11.2553 8.28591V10.9431L11.2545 10.9417Z" fill="#182230"/>
</svg>
