<svg width="24" height="24" viewBox="0 0 24 24" fill="currentColor" xmlns="http://www.w3.org/2000/svg">
<path d="M18.1483 17.5513H4.95143C4.43388 17.5513 3.93751 17.3457 3.57155 16.9798C3.20559 16.6138 3 16.1175 3 15.5999V8.70485C3 8.1873 3.20559 7.69094 3.57155 7.32498C3.93751 6.95901 4.43388 6.75342 4.95143 6.75342H18.149C18.6665 6.75342 19.1629 6.95901 19.5288 7.32498C19.8948 7.69094 20.1004 8.1873 20.1004 8.70485V10.3532H20.3495C20.522 10.3532 20.6875 10.4217 20.8095 10.5437C20.9315 10.6657 21 10.8311 21 11.0036V13.3024C21 13.4749 20.9315 13.6404 20.8095 13.7624C20.6875 13.8844 20.522 13.9529 20.3495 13.9529H20.1004V15.5999C20.1004 15.8562 20.0499 16.11 19.9518 16.3468C19.8537 16.5836 19.7099 16.7988 19.5286 16.98C19.3473 17.1612 19.1321 17.3049 18.8953 17.403C18.6584 17.501 18.4046 17.5514 18.1483 17.5513ZM5.72419 9.06781V15.4353H13.8005V9.06781H5.72419Z" fill="currentColor"/>
</svg>
