<svg width="24" height="24" viewBox="0 0 24 24" fill="none" xmlns="http://www.w3.org/2000/svg">
<path d="M12.2984 9.77445L12.3078 9.81036L19.9785 9.8331L21.7942 12.9071L14.3306 14.3084L12.3277 9.88446L13.6543 15.1047L19.9785 13.8259V20.8608L12.2984 22.5665V9.77445ZM4.01921 20.865V13.83L10.3423 15.1087L11.6419 10.0676L9.66491 14.3084L2.20557 12.9092L4.02226 9.8351H11.7429V9.85671L11.7012 9.94625V22.5727L4.01921 20.865Z" fill="#182230"/>
<path d="M11.2471 2.81839C11.3967 2.35774 12.0484 2.35774 12.1981 2.81839L12.534 3.85224C12.601 4.05825 12.793 4.19773 13.0096 4.19773H14.0966C14.581 4.19773 14.7824 4.81754 14.3905 5.10224L13.5111 5.74119C13.3358 5.86852 13.2625 6.0942 13.3294 6.30021L13.6653 7.33406C13.815 7.79472 13.2878 8.17778 12.8959 7.89308L12.0165 7.25412C11.8412 7.1268 11.6039 7.1268 11.4287 7.25412L10.5493 7.89308C10.1574 8.17778 9.63016 7.79472 9.77983 7.33406L10.1158 6.30021C10.1827 6.0942 10.1094 5.86852 9.93411 5.74119L9.05467 5.10224C8.66281 4.81754 8.8642 4.19773 9.34856 4.19773H10.4356C10.6522 4.19773 10.8442 4.05825 10.9111 3.85224L11.2471 2.81839Z" fill="#182230"/>
</svg>
