<svg width="24" height="24" viewBox="0 0 24 24" fill="none" xmlns="http://www.w3.org/2000/svg">
<path d="M4.10224 13.1576C3.96592 13.2939 3.96592 13.5149 4.10223 13.6512L5.1129 14.6619C5.24921 14.7982 5.47022 14.7982 5.60654 14.6619L11.3005 8.9682C11.4368 8.83189 11.6578 8.83189 11.7941 8.96819L12.7427 9.91666C12.9327 10.1066 13.2571 10.0197 13.3266 9.76019L14.7523 4.43975C14.8219 4.18021 14.5844 3.94272 14.3248 4.01226L9.00412 5.43787C8.74458 5.50741 8.65765 5.83183 8.84765 6.02182L9.79619 6.97032C9.9325 7.10663 9.9325 7.32763 9.79619 7.46393L4.10224 13.1576Z" fill="#404040"/>
<path d="M19.8978 10.8424C20.0341 10.7061 20.0341 10.4851 19.8978 10.3488L18.8871 9.33814C18.7508 9.20183 18.5298 9.20183 18.3935 9.33813L12.6995 15.0318C12.5632 15.1681 12.3422 15.1681 12.2059 15.0318L11.2573 14.0833C11.0673 13.8934 10.7429 13.9803 10.6734 14.2398L9.24768 19.5603C9.17813 19.8198 9.41563 20.0573 9.67518 19.9877L14.9959 18.5621C15.2554 18.4926 15.3424 18.1682 15.1524 17.9782L14.2038 17.0297C14.0675 16.8934 14.0675 16.6724 14.2038 16.5361L19.8978 10.8424Z" fill="#404040"/>
</svg>
