<svg width="24" height="24" viewBox="0 0 24 24" fill="none" xmlns="http://www.w3.org/2000/svg">
<path fill-rule="evenodd" clip-rule="evenodd" d="M12 3C14.4173 3 16.6121 3.95302 18.229 5.50384C18.2591 5.53274 18.289 5.56185 18.3188 5.59117C18.3339 5.60607 18.349 5.62103 18.364 5.63604C19.9927 7.26472 21 9.51472 21 12C21 14.4853 19.9926 16.7353 18.364 18.364C18.3179 18.41 18.2714 18.4556 18.2243 18.5006C16.6079 20.0488 14.415 21 12 21C7.02944 21 3 16.9706 3 12C3 7.02944 7.02944 3 12 3ZM6.34315 17.6569L12 12L17.6569 17.6568C19.1046 16.2091 20 14.2091 20 12C20 9.79087 19.1046 7.79087 17.6569 6.34315L12 12L6.34315 6.34314C4.89543 7.79086 4 9.79086 4 12C4 14.2091 4.89543 16.2091 6.34315 17.6569Z" fill="#182230"/>
</svg>
