<svg width="24" height="24" viewBox="0 0 24 24" fill="none" xmlns="http://www.w3.org/2000/svg">
<path d="M17.2753 20.9976C16.6773 21.011 16.0794 20.9685 15.4893 20.8705C15.3961 20.8466 15.3451 20.822 15.3451 20.7948V20.1614C15.9927 20.3609 16.6734 20.4298 17.3479 20.3643C18.0223 20.4298 18.7031 20.3609 19.3507 20.1614V20.7948C19.3507 20.85 19.1347 20.8994 18.7843 20.9357C18.4339 20.972 17.9548 20.9951 17.4196 20.9976H17.2753ZM5.64911 20.7254C5.21174 20.7254 4.7923 20.5517 4.48304 20.2425C4.17377 19.9332 4 19.5137 4 19.0763V7.4501C4 7.01273 4.17377 6.59329 4.48304 6.28403C4.7923 5.97476 5.21174 5.80099 5.64911 5.80099H5.86592V3.82455C5.86592 3.60587 5.95285 3.3961 6.10749 3.24147C6.26212 3.08683 6.47179 3 6.69047 3H8.77249C8.99118 3 9.20094 3.08683 9.35558 3.24147C9.51021 3.3961 9.59705 3.60587 9.59705 3.82455V5.79857H9.81557C10.2529 5.79857 10.6724 5.97224 10.9816 6.28151C11.2909 6.59078 11.4647 7.01031 11.4647 7.44768V19.0739C11.4647 19.5113 11.2909 19.9307 10.9816 20.24C10.6724 20.5492 10.2529 20.723 9.81557 20.723L5.64911 20.7254ZM4.82455 13.0851H10.5964V9.78687H4.82455V13.0851ZM13.1476 20.6034C13.0273 20.585 12.9126 20.5405 12.8112 20.4732C12.5968 20.3032 12.4579 20.0555 12.4247 19.7839C12.3915 19.5123 12.4667 19.2386 12.6339 19.0219L13.2778 18.0564L14.866 19.1168L14.2204 20.0814C14.1203 20.2396 13.9831 20.3709 13.8207 20.4639C13.6583 20.5569 13.4756 20.6088 13.2886 20.615C13.243 20.6144 13.1975 20.6102 13.1525 20.6026L13.1476 20.6034ZM15.3409 19.9594C15.9886 19.7599 16.6693 19.691 17.3438 19.7566C18.0182 19.6911 18.699 19.76 19.3467 19.9594C18.6991 20.1593 18.0183 20.2285 17.3438 20.1631C16.6697 20.2281 15.9895 20.1587 15.3426 19.9586L15.3409 19.9594ZM13.39 17.8874L14.034 16.9226C14.1701 16.6849 14.3945 16.5104 14.6585 16.4371C14.9225 16.3637 15.2048 16.3975 15.444 16.531C15.6587 16.7007 15.7979 16.9483 15.8312 17.2199C15.8646 17.4916 15.7894 17.7656 15.6221 17.9822L14.9781 18.9477L13.39 17.8874Z" fill="#404040"/>
</svg>
