<svg width="24" height="24" viewBox="0 0 24 24" fill="none" xmlns="http://www.w3.org/2000/svg">
<path fill-rule="evenodd" clip-rule="evenodd" d="M11.5 15.2368V11.632H12.5V15.2368H11.5Z" fill="#182230"/>
<path fill-rule="evenodd" clip-rule="evenodd" d="M10.1976 12.9344H13.8024V13.9344H10.1976V12.9344Z" fill="#182230"/>
<path fill-rule="evenodd" clip-rule="evenodd" d="M8.19939 4.57739C8.19939 4.30125 8.42325 4.07739 8.69939 4.07739H15.3006C15.5768 4.07739 15.8006 4.30125 15.8006 4.57739V6.59573C15.8006 6.87187 15.5768 7.09573 15.3006 7.09573H8.69939C8.42325 7.09573 8.19939 6.87187 8.19939 6.59573V4.57739ZM9.19939 5.07739V6.09573H14.8006V5.07739H9.19939Z" fill="#182230"/>
<path fill-rule="evenodd" clip-rule="evenodd" d="M8.97758 6.59574C8.97758 6.3196 9.20144 6.09574 9.47758 6.09574H14.5224C14.7986 6.09574 15.0224 6.3196 15.0224 6.59574V7.33153C16.3638 7.3763 17.4375 8.47782 17.4375 9.83012V17.4225C17.4375 18.8032 16.3182 19.9225 14.9375 19.9225H9.0625C7.68179 19.9225 6.5625 18.8032 6.5625 17.4225V9.83012C6.5625 8.47783 7.63618 7.3763 8.97758 7.33153V6.59574ZM9.97758 7.09574V7.83012C9.97758 8.10626 9.75372 8.33012 9.47758 8.33012H9.0625C8.23407 8.33012 7.5625 9.00169 7.5625 9.83012V17.4225C7.5625 18.2509 8.23407 18.9225 9.0625 18.9225H14.9375C15.7659 18.9225 16.4375 18.2509 16.4375 17.4225V9.83012C16.4375 9.00169 15.7659 8.33012 14.9375 8.33012H14.5224C14.2463 8.33012 14.0224 8.10626 14.0224 7.83012V7.09574H9.97758Z" fill="#182230"/>
</svg>
