<svg width="28" height="24" viewBox="0 0 28 24" fill="currentColor" xmlns="http://www.w3.org/2000/svg">
<path d="M4.34766 21.0998L9.61075 13.1998L12.5855 15.4998L4.34766 21.0998Z" fill="currentColor"/>
<path d="M12.7784 8.39373L10.6404 10.0999C9.49629 9.49987 8.0089 9.69987 6.97916 10.5999C6.75033 10.7999 6.75033 11.0999 6.97916 11.2999L14.7594 17.1999C14.9882 17.3999 15.3315 17.3999 15.5603 17.1999C16.4756 16.2999 16.4756 14.8999 15.6747 13.9999L15.8191 13.8211L12.7784 8.39373Z" fill="currentColor"/>
<path d="M18.3323 10.7093L19.7936 8.89987C20.9378 9.29987 22.1964 9.09987 22.9973 8.19987C23.3405 8.09987 23.3405 7.79987 23.1117 7.59987L21.8531 6.59987L20.1369 5.29987L17.0477 2.99987C16.8189 2.79987 16.4756 2.79987 16.2468 2.99987C15.4459 3.79987 15.3315 4.99987 15.9035 5.89987L15.7199 6.04643L18.3323 10.7093Z" fill="currentColor"/>
<path d="M11.3665 3.79488C11.156 3.41914 11.3426 2.98205 11.7832 2.81861C12.2238 2.65516 12.7517 2.82725 12.9622 3.20299L19.9749 15.72C20.1854 16.0957 19.9989 16.5328 19.5582 16.6962C19.1176 16.8597 18.5898 16.6876 18.3793 16.3118L11.3665 3.79488Z" fill="currentColor"/>
</svg>
