<svg width="24" height="24" viewBox="0 0 24 24" fill="currentColor" xmlns="http://www.w3.org/2000/svg">
<path d="M11.8572 3.75082C12.0481 3.74721 12.2378 3.78225 12.4148 3.85381C12.5918 3.92538 12.7526 4.032 12.8873 4.16727C12.9633 4.24305 13.0303 4.32734 13.087 4.41845L17.8594 9.19091C17.9957 9.32187 18.1045 9.47871 18.1794 9.65224C18.2544 9.82576 18.294 10.0125 18.2958 10.2015C18.2977 10.3905 18.2619 10.578 18.1904 10.753C18.119 10.928 18.0133 11.087 17.8797 11.2206C17.746 11.3543 17.587 11.4599 17.412 11.5314C17.2371 11.6028 17.0496 11.6387 16.8606 11.6368C16.6715 11.6349 16.4848 11.5953 16.3113 11.5204C16.1378 11.4455 15.9809 11.3367 15.85 11.2004L13.3038 8.65418V14.4633C13.3038 14.6499 13.267 14.8347 13.1956 15.0071C13.1242 15.1796 13.0195 15.3362 12.8875 15.4682C12.7556 15.6002 12.5989 15.7049 12.4265 15.7763C12.254 15.8477 12.0692 15.8845 11.8826 15.8845C11.696 15.8845 11.5112 15.8477 11.3387 15.7763C11.1663 15.7049 11.0096 15.6002 10.8777 15.4682C10.7457 15.3362 10.641 15.1796 10.5696 15.0071C10.4982 14.8347 10.4614 14.6499 10.4614 14.4633L10.4614 8.60509L7.86286 11.2004C7.59629 11.4668 7.23477 11.6165 6.85785 11.6164C6.48093 11.6163 6.11947 11.4665 5.853 11.2C5.58653 10.9334 5.43687 10.5719 5.43695 10.1949C5.43703 9.81801 5.58683 9.45656 5.85341 9.19009L10.6275 4.416C10.7558 4.21245 10.9335 4.04465 11.1441 3.9282C11.3547 3.81176 11.5912 3.75046 11.8319 3.75L11.8572 3.75082Z" fill="currentColor"/>
<path d="M4.28858 19.7885C4.5222 19.9105 4.78186 19.9744 5.04545 19.9745L18.9545 19.9753C19.2186 19.9753 19.4786 19.9113 19.7126 19.7889C19.9465 19.6665 20.1474 19.4894 20.298 19.2725C20.5147 19.1218 20.6917 18.9209 20.8139 18.687C20.9362 18.4531 21 18.193 21 17.9291V14.6563C21 14.2224 20.8276 13.8061 20.5207 13.4993C20.2138 13.1924 19.7976 13.02 19.3636 13.02C18.9296 13.02 18.5134 13.1924 18.2066 13.4993C17.8997 13.8061 17.7273 14.2224 17.7273 14.6563V16.7018H6.27273V14.6563C6.27273 14.2224 6.10033 13.8061 5.79345 13.4993C5.48657 13.1924 5.07035 13.02 4.63636 13.02C4.20237 13.02 3.78616 13.1924 3.47928 13.4993C3.1724 13.8061 3 14.2224 3 14.6563V17.9291C3.00004 18.1933 3.06406 18.4536 3.1866 18.6877C3.30913 18.9218 3.48653 19.1227 3.70364 19.2733C3.85428 19.4897 4.05495 19.6664 4.28858 19.7885Z" fill="currentColor"/>
</svg>
