<svg width="25" height="24" viewBox="0 0 25 24" fill="none" xmlns="http://www.w3.org/2000/svg">
<path d="M19.9755 6.00099H4.99413C4.6348 6.01087 4.29408 6.16291 4.04672 6.42373C3.79936 6.68456 3.66559 7.03286 3.67476 7.39221V16.7813C3.66559 17.1406 3.79936 17.4889 4.04672 17.7497C4.29408 18.0106 4.6348 18.1626 4.99413 18.1725H19.9755C20.3348 18.1626 20.6755 18.0106 20.9229 17.7497C21.1702 17.4889 21.304 17.1406 21.2948 16.7813V7.39221C21.304 7.03286 21.1702 6.68456 20.9229 6.42373C20.6755 6.16291 20.3348 6.01087 19.9755 6.00099Z" fill="#F5F5F5"/>
<path d="M3.75146 6.93702H21.2199C21.1376 6.66938 20.9727 6.43465 20.7488 6.26645C20.525 6.09825 20.2536 6.00519 19.9736 6.00061H4.99778C4.7178 6.00519 4.44645 6.09825 4.22258 6.26645C3.99871 6.43465 3.8338 6.66938 3.75146 6.93702Z" fill="#FF4B55"/>
<path d="M21.2946 9.74564H3.67456V10.682H21.2946V9.74564Z" fill="#FF4B55"/>
<path d="M21.2946 7.87283H3.67456V8.80924H21.2946V7.87283Z" fill="#FF4B55"/>
<path d="M3.67466 12.2346C3.67361 12.2756 3.68065 12.3165 3.69538 12.3548C3.71011 12.393 3.73225 12.4281 3.76052 12.4578C3.78879 12.4875 3.82264 12.5114 3.86015 12.5281C3.89765 12.5447 3.93807 12.5538 3.97909 12.5549H21.2947V11.6197H3.67466V12.2346Z" fill="#FF4B55"/>
<path d="M21.2946 15.3641H3.67456V16.3005H21.2946V15.3641Z" fill="#FF4B55"/>
<path d="M21.2199 17.2363H3.75146C3.8338 17.5039 3.99871 17.7386 4.22258 17.9069C4.44645 18.0751 4.7178 18.1681 4.99778 18.1727H19.9718C20.2521 18.1685 20.5239 18.0756 20.7481 17.9074C20.9723 17.7392 21.1375 17.5042 21.2199 17.2363Z" fill="#FF4B55"/>
<path d="M21.2946 13.4913H3.67456V14.4277H21.2946V13.4913Z" fill="#FF4B55"/>
<path d="M3.9953 12.5549H12.0035C12.0884 12.5549 12.1699 12.5211 12.2299 12.4611C12.29 12.401 12.3237 12.3195 12.3237 12.2346V6.32025C12.3237 6.23532 12.29 6.15386 12.2299 6.0938C12.1699 6.03374 12.0884 6 12.0035 6H5.06627C4.88352 6 4.70256 6.036 4.53373 6.10596C4.3649 6.17591 4.21151 6.27844 4.08231 6.40769C3.95312 6.53694 3.85065 6.69038 3.78077 6.85924C3.7109 7.02811 3.67497 7.20908 3.67505 7.39182V12.234C3.67497 12.2761 3.68319 12.3178 3.69925 12.3567C3.71531 12.3957 3.73889 12.431 3.76863 12.4608C3.79838 12.4906 3.83371 12.5143 3.87261 12.5304C3.9115 12.5466 3.9532 12.5549 3.9953 12.5549Z" fill="#41479B"/>
<path d="M4.57434 6.73508L4.64497 6.94756H4.86903C4.87537 6.94769 4.88151 6.94979 4.88659 6.95357C4.89168 6.95736 4.89546 6.96263 4.8974 6.96867C4.89935 6.9747 4.89936 6.98119 4.89744 6.98723C4.89552 6.99327 4.89176 6.99856 4.88668 7.00236L4.70403 7.1357L4.77161 7.34941C4.77329 7.3554 4.77309 7.36176 4.77104 7.36764C4.76899 7.37351 4.76519 7.37862 4.76014 7.38227C4.7551 7.38592 4.74906 7.38793 4.74284 7.38804C4.73662 7.38816 4.73051 7.38636 4.72534 7.38289L4.54269 7.2526L4.36003 7.38289C4.35486 7.38636 4.34875 7.38816 4.34253 7.38804C4.33631 7.38793 4.33027 7.38592 4.32523 7.38227C4.32018 7.37862 4.31638 7.37351 4.31433 7.36764C4.31228 7.36176 4.31208 7.3554 4.31376 7.34941L4.38134 7.1357L4.19869 7.00236C4.19385 6.9985 4.19031 6.99324 4.18853 6.98731C4.18676 6.98137 4.18684 6.97504 4.18875 6.96915C4.19067 6.96327 4.19434 6.9581 4.19927 6.95436C4.2042 6.95061 4.21016 6.94845 4.21634 6.94817H4.4404L4.51103 6.73568C4.51094 6.72729 4.5142 6.7192 4.52008 6.71321C4.52596 6.70721 4.53398 6.7038 4.54238 6.70372C4.55078 6.70364 4.55886 6.7069 4.56486 6.71278C4.57085 6.71866 4.57426 6.72668 4.57434 6.73508Z" fill="#F5F5F5"/>
<path d="M4.57388 7.84846L4.64451 8.06095H4.86856C4.8749 8.06108 4.88104 8.06318 4.88613 8.06696C4.89121 8.07075 4.89499 8.07602 4.89694 8.08205C4.89888 8.08808 4.89889 8.09458 4.89697 8.10062C4.89505 8.10666 4.89129 8.11194 4.88622 8.11575L4.70356 8.24909L4.77115 8.46279C4.77282 8.46879 4.77262 8.47515 4.77057 8.48103C4.76852 8.48691 4.76472 8.49201 4.75968 8.49566C4.75464 8.49931 4.7486 8.50132 4.74237 8.50143C4.73615 8.50154 4.73004 8.49974 4.72487 8.49628L4.54222 8.36599L4.35956 8.49628C4.3544 8.49974 4.34829 8.50154 4.34207 8.50143C4.33584 8.50132 4.3298 8.49931 4.32476 8.49566C4.31972 8.49201 4.31592 8.48691 4.31387 8.48103C4.31182 8.47515 4.31162 8.46879 4.31329 8.46279L4.38087 8.24909L4.19822 8.11575C4.19315 8.11194 4.18939 8.10666 4.18747 8.10062C4.18555 8.09458 4.18556 8.08808 4.1875 8.08205C4.18945 8.07602 4.19323 8.07075 4.19831 8.06696C4.2034 8.06318 4.20954 8.06108 4.21588 8.06095H4.43993L4.51056 7.84846C4.51056 7.84007 4.51389 7.83201 4.51983 7.82607C4.52577 7.82014 4.53382 7.8168 4.54222 7.8168C4.55062 7.8168 4.55867 7.82014 4.56461 7.82607C4.57054 7.83201 4.57388 7.84007 4.57388 7.84846Z" fill="#F5F5F5"/>
<path d="M4.57388 8.96083L4.64451 9.17332H4.86856C4.8749 9.17344 4.88104 9.17554 4.88613 9.17932C4.89121 9.1831 4.89499 9.18838 4.89694 9.19442C4.89888 9.20045 4.89889 9.20694 4.89697 9.21298C4.89505 9.21902 4.89129 9.22431 4.88622 9.22811L4.70356 9.36145L4.77115 9.57516C4.77282 9.58115 4.77262 9.58751 4.77057 9.59339C4.76852 9.59926 4.76472 9.60437 4.75968 9.60802C4.75464 9.61167 4.7486 9.61369 4.74237 9.6138C4.73615 9.61391 4.73004 9.61211 4.72487 9.60864L4.54222 9.47835L4.35956 9.60864C4.3544 9.61211 4.34829 9.61391 4.34207 9.6138C4.33584 9.61369 4.3298 9.61167 4.32476 9.60802C4.31972 9.60437 4.31592 9.59926 4.31387 9.59339C4.31182 9.58751 4.31162 9.58115 4.31329 9.57516L4.38087 9.36145L4.19822 9.22811C4.19315 9.22431 4.18939 9.21902 4.18747 9.21298C4.18555 9.20694 4.18556 9.20045 4.1875 9.19442C4.18945 9.18838 4.19323 9.1831 4.19831 9.17932C4.2034 9.17554 4.20954 9.17344 4.21588 9.17332H4.43993L4.51056 8.96083C4.51056 8.95243 4.51389 8.94438 4.51983 8.93844C4.52577 8.9325 4.53382 8.92917 4.54222 8.92917C4.55062 8.92917 4.55867 8.9325 4.56461 8.93844C4.57054 8.94438 4.57388 8.95243 4.57388 8.96083Z" fill="#F5F5F5"/>
<path d="M4.57388 10.0732L4.64451 10.2857H4.86856C4.87475 10.286 4.8807 10.2881 4.88563 10.2919C4.89056 10.2956 4.89423 10.3008 4.89615 10.3067C4.89807 10.3126 4.89815 10.3189 4.89637 10.3248C4.8946 10.3308 4.89106 10.336 4.88622 10.3399L4.70356 10.4732L4.77115 10.6869C4.77282 10.6929 4.77262 10.6993 4.77057 10.7052C4.76852 10.711 4.76472 10.7161 4.75968 10.7198C4.75464 10.7234 4.7486 10.7255 4.74237 10.7256C4.73615 10.7257 4.73004 10.7239 4.72487 10.7204L4.54222 10.5901L4.35956 10.7204C4.3544 10.7239 4.34829 10.7257 4.34207 10.7256C4.33584 10.7255 4.3298 10.7234 4.32476 10.7198C4.31972 10.7161 4.31592 10.711 4.31387 10.7052C4.31182 10.6993 4.31162 10.6929 4.31329 10.6869L4.38087 10.4732L4.19822 10.3399C4.19315 10.3361 4.18939 10.3308 4.18747 10.3247C4.18555 10.3187 4.18556 10.3122 4.1875 10.3062C4.18945 10.3002 4.19323 10.2949 4.19831 10.2911C4.2034 10.2873 4.20954 10.2852 4.21588 10.2851H4.43993L4.51056 10.0726C4.51064 10.0642 4.51405 10.0562 4.52005 10.0503C4.52604 10.0444 4.53413 10.0412 4.54252 10.0412C4.55092 10.0413 4.55894 10.0447 4.56482 10.0507C4.5707 10.0567 4.57396 10.0648 4.57388 10.0732Z" fill="#F5F5F5"/>
<path d="M4.57386 11.1856L4.64448 11.398H4.86854C4.87488 11.3982 4.88102 11.4003 4.8861 11.4041C4.89119 11.4078 4.89497 11.4131 4.89691 11.4192C4.89886 11.4252 4.89887 11.4317 4.89695 11.4377C4.89503 11.4438 4.89127 11.4491 4.8862 11.4529L4.70354 11.5862L4.77112 11.7999C4.7728 11.8059 4.7726 11.8123 4.77055 11.8181C4.7685 11.824 4.7647 11.8291 4.75965 11.8328C4.75461 11.8364 4.74857 11.8384 4.74235 11.8385C4.73613 11.8386 4.73002 11.8369 4.72485 11.8334L4.5422 11.7031L4.35954 11.8334C4.35437 11.8369 4.34827 11.8386 4.34204 11.8385C4.33582 11.8384 4.32978 11.8364 4.32474 11.8328C4.3197 11.8291 4.31589 11.824 4.31384 11.8181C4.31179 11.8123 4.31159 11.8059 4.31327 11.7999L4.38085 11.5862L4.1982 11.4529C4.19336 11.449 4.18982 11.4437 4.18804 11.4378C4.18627 11.4319 4.18635 11.4255 4.18827 11.4196C4.19018 11.4138 4.19385 11.4086 4.19878 11.4048C4.20371 11.4011 4.20967 11.3989 4.21585 11.3987H4.43991L4.51054 11.1862C4.51046 11.1778 4.51371 11.1697 4.51959 11.1637C4.52547 11.1577 4.5335 11.1543 4.54189 11.1542C4.55029 11.1541 4.55837 11.1574 4.56437 11.1633C4.57036 11.1691 4.57378 11.1772 4.57386 11.1856Z" fill="#F5F5F5"/>
<path d="M5.43716 7.28102L5.50779 7.49351H5.73184C5.73818 7.49363 5.74432 7.49574 5.74941 7.49952C5.75449 7.5033 5.75827 7.50858 5.76022 7.51461C5.76216 7.52064 5.76217 7.52713 5.76025 7.53317C5.75833 7.53921 5.75457 7.54451 5.7495 7.54831L5.56684 7.68165L5.63443 7.89535C5.6361 7.90134 5.6359 7.90771 5.63385 7.91358C5.6318 7.91946 5.628 7.92457 5.62296 7.92821C5.61792 7.93186 5.61188 7.93388 5.60565 7.93399C5.59943 7.9341 5.59332 7.9323 5.58815 7.92884L5.4055 7.79854L5.22284 7.92884C5.21768 7.9323 5.21157 7.9341 5.20535 7.93399C5.19912 7.93388 5.19308 7.93186 5.18804 7.92821C5.183 7.92457 5.1792 7.91946 5.17715 7.91358C5.17509 7.90771 5.17489 7.90134 5.17657 7.89535L5.24415 7.68165L5.0615 7.54831C5.05643 7.54451 5.05267 7.53921 5.05075 7.53317C5.04883 7.52713 5.04884 7.52064 5.05078 7.51461C5.05273 7.50858 5.05651 7.5033 5.06159 7.49952C5.06668 7.49574 5.07282 7.49363 5.07916 7.49351H5.30321L5.37384 7.28102C5.37384 7.27262 5.37718 7.26457 5.38311 7.25864C5.38905 7.2527 5.3971 7.24936 5.4055 7.24936C5.4139 7.24936 5.42195 7.2527 5.42789 7.25864C5.43382 7.26457 5.43716 7.27262 5.43716 7.28102Z" fill="#F5F5F5"/>
<path d="M5.43716 8.39398L5.50779 8.60647H5.73185C5.73818 8.60659 5.74432 8.60869 5.74941 8.61247C5.7545 8.61625 5.75828 8.62153 5.76022 8.62757C5.76217 8.6336 5.76218 8.64009 5.76026 8.64613C5.75833 8.65217 5.75457 8.65746 5.7495 8.66126L5.56685 8.7946L5.63565 9.01135C5.63732 9.01734 5.63712 9.02371 5.63507 9.02959C5.63302 9.03546 5.62922 9.04057 5.62418 9.04422C5.61914 9.04787 5.6131 9.04989 5.60688 9.05C5.60065 9.05011 5.59454 9.04831 5.58938 9.04484L5.40672 8.91454L5.22407 9.04484C5.2189 9.04831 5.21279 9.05011 5.20657 9.05C5.20034 9.04989 5.19431 9.04787 5.18926 9.04422C5.18422 9.04057 5.18042 9.03546 5.17837 9.02959C5.17632 9.02371 5.17612 9.01734 5.17779 9.01135L5.24538 8.79764L5.06272 8.66431C5.05765 8.66051 5.05389 8.65522 5.05197 8.64918C5.05005 8.64314 5.05006 8.63665 5.052 8.63061C5.05395 8.62458 5.05773 8.6193 5.06281 8.61552C5.0679 8.61174 5.07404 8.60963 5.08038 8.60951H5.30444L5.37506 8.39702C5.37466 8.38878 5.37754 8.38073 5.38308 8.37462C5.38862 8.36851 5.39635 8.36485 5.40459 8.36445C5.41282 8.36404 5.42088 8.36693 5.42699 8.37247C5.4331 8.378 5.43676 8.38575 5.43716 8.39398Z" fill="#F5F5F5"/>
<path d="M5.43716 9.50636L5.50779 9.71885H5.73184C5.73818 9.71897 5.74432 9.72108 5.74941 9.72486C5.75449 9.72864 5.75827 9.73391 5.76022 9.73995C5.76216 9.74598 5.76217 9.75248 5.76025 9.75852C5.75833 9.76456 5.75457 9.76985 5.7495 9.77365L5.56684 9.90699L5.63443 10.1207C5.6361 10.1267 5.6359 10.1331 5.63385 10.1389C5.6318 10.1448 5.628 10.1499 5.62296 10.1536C5.61792 10.1572 5.61188 10.1592 5.60565 10.1593C5.59943 10.1594 5.59332 10.1577 5.58815 10.1542L5.4055 10.0239L5.22284 10.1542C5.21768 10.1577 5.21157 10.1594 5.20535 10.1593C5.19912 10.1592 5.19308 10.1572 5.18804 10.1536C5.183 10.1499 5.1792 10.1448 5.17715 10.1389C5.17509 10.1331 5.17489 10.1267 5.17657 10.1207L5.24415 9.90699L5.0615 9.77365C5.05643 9.76985 5.05267 9.76456 5.05075 9.75852C5.04883 9.75248 5.04884 9.74598 5.05078 9.73995C5.05273 9.73391 5.05651 9.72864 5.06159 9.72486C5.06668 9.72108 5.07282 9.71897 5.07916 9.71885H5.30321L5.37384 9.50636C5.37384 9.49797 5.37718 9.48992 5.38311 9.48398C5.38905 9.47804 5.3971 9.4747 5.4055 9.4747C5.4139 9.4747 5.42195 9.47804 5.42789 9.48398C5.43382 9.48992 5.43716 9.49797 5.43716 9.50636Z" fill="#F5F5F5"/>
<path d="M5.43716 10.6181L5.50779 10.8306H5.73184C5.73818 10.8307 5.74432 10.8328 5.74941 10.8366C5.75449 10.8404 5.75827 10.8457 5.76022 10.8517C5.76216 10.8577 5.76217 10.8642 5.76025 10.8703C5.75833 10.8763 5.75457 10.8816 5.7495 10.8854L5.56684 11.0187L5.63443 11.2324C5.6361 11.2384 5.6359 11.2448 5.63385 11.2507C5.6318 11.2566 5.628 11.2617 5.62296 11.2653C5.61792 11.269 5.61188 11.271 5.60565 11.2711C5.59943 11.2712 5.59332 11.2694 5.58815 11.2659L5.4055 11.1356L5.22284 11.2659C5.21768 11.2694 5.21157 11.2712 5.20535 11.2711C5.19912 11.271 5.19308 11.269 5.18804 11.2653C5.183 11.2617 5.1792 11.2566 5.17715 11.2507C5.17509 11.2448 5.17489 11.2384 5.17657 11.2324L5.24415 11.0187L5.0615 10.8854C5.05643 10.8816 5.05267 10.8763 5.05075 10.8703C5.04883 10.8642 5.04884 10.8577 5.05078 10.8517C5.05273 10.8457 5.05651 10.8404 5.06159 10.8366C5.06668 10.8328 5.07282 10.8307 5.07916 10.8306H5.30321L5.37384 10.6181C5.37384 10.6097 5.37718 10.6017 5.38311 10.5957C5.38905 10.5898 5.3971 10.5865 5.4055 10.5865C5.4139 10.5865 5.42195 10.5898 5.42789 10.5957C5.43382 10.6017 5.43716 10.6097 5.43716 10.6181Z" fill="#F5F5F5"/>
<path d="M6.30069 6.73488L6.37131 6.94737H6.59537C6.60171 6.94749 6.60785 6.94959 6.61293 6.95338C6.61802 6.95716 6.6218 6.96243 6.62374 6.96847C6.62569 6.9745 6.6257 6.98099 6.62378 6.98703C6.62186 6.99307 6.6181 6.99836 6.61302 7.00216L6.43037 7.1355L6.49795 7.34921C6.49963 7.3552 6.49943 7.36156 6.49738 7.36744C6.49533 7.37332 6.49153 7.37842 6.48648 7.38207C6.48144 7.38572 6.4754 7.38773 6.46918 7.38785C6.46296 7.38796 6.45685 7.38616 6.45168 7.38269L6.26903 7.2524L6.08637 7.38269C6.0812 7.38616 6.07509 7.38796 6.06887 7.38785C6.06265 7.38773 6.05661 7.38572 6.05157 7.38207C6.04653 7.37842 6.04272 7.37332 6.04067 7.36744C6.03862 7.36156 6.03842 7.3552 6.0401 7.34921L6.10768 7.1355L5.92503 7.00216C5.91995 6.99836 5.9162 6.99307 5.91427 6.98703C5.91235 6.98099 5.91236 6.9745 5.91431 6.96847C5.91625 6.96243 5.92003 6.95716 5.92512 6.95338C5.9302 6.94959 5.93635 6.94749 5.94268 6.94737H6.16674L6.23736 6.73488C6.23736 6.72648 6.2407 6.71843 6.24664 6.71249C6.25258 6.70656 6.26063 6.70322 6.26903 6.70322C6.27742 6.70322 6.28548 6.70656 6.29141 6.71249C6.29735 6.71843 6.30069 6.72648 6.30069 6.73488Z" fill="#F5F5F5"/>
<path d="M6.30069 7.84785L6.37131 8.06034H6.59537C6.60171 8.06047 6.60785 8.06256 6.61293 8.06634C6.61802 8.07013 6.6218 8.07541 6.62374 8.08144C6.62569 8.08747 6.6257 8.09396 6.62378 8.1C6.62186 8.10604 6.6181 8.11133 6.61302 8.11514L6.43037 8.24847L6.49795 8.46217C6.49963 8.46817 6.49943 8.47453 6.49738 8.48041C6.49533 8.48629 6.49153 8.49139 6.48648 8.49504C6.48144 8.49869 6.4754 8.50071 6.46918 8.50082C6.46296 8.50093 6.45685 8.49913 6.45168 8.49567L6.26903 8.36537L6.08637 8.49567C6.0812 8.49913 6.07509 8.50093 6.06887 8.50082C6.06265 8.50071 6.05661 8.49869 6.05157 8.49504C6.04653 8.49139 6.04272 8.48629 6.04067 8.48041C6.03862 8.47453 6.03842 8.46817 6.0401 8.46217L6.10768 8.24847L5.92503 8.11514C5.91995 8.11133 5.9162 8.10604 5.91427 8.1C5.91235 8.09396 5.91236 8.08747 5.91431 8.08144C5.91625 8.07541 5.92003 8.07013 5.92512 8.06634C5.9302 8.06256 5.93635 8.06047 5.94268 8.06034H6.16674L6.23736 7.84785C6.23736 7.83946 6.2407 7.8314 6.24664 7.82546C6.25258 7.81953 6.26063 7.81619 6.26903 7.81619C6.27742 7.81619 6.28548 7.81953 6.29141 7.82546C6.29735 7.8314 6.30069 7.83946 6.30069 7.84785Z" fill="#F5F5F5"/>
<path d="M6.30066 8.96083L6.37129 9.17332H6.59535C6.60153 9.17359 6.60749 9.17575 6.61242 9.1795C6.61735 9.18324 6.62102 9.18841 6.62293 9.19429C6.62485 9.20018 6.62493 9.20651 6.62316 9.21245C6.62138 9.21838 6.61784 9.22363 6.613 9.2275L6.43035 9.36084L6.49793 9.57455C6.49961 9.58054 6.49941 9.58691 6.49736 9.59278C6.49531 9.59866 6.4915 9.60377 6.48646 9.60741C6.48142 9.61106 6.47538 9.61307 6.46916 9.61318C6.46293 9.61329 6.45683 9.61149 6.45166 9.60803L6.269 9.47774L6.08635 9.60803C6.08118 9.61149 6.07507 9.61329 6.06885 9.61318C6.06263 9.61307 6.05659 9.61106 6.05155 9.60741C6.0465 9.60377 6.0427 9.59866 6.04065 9.59278C6.0386 9.58691 6.0384 9.58054 6.04008 9.57455L6.10766 9.36084L5.925 9.2275C5.92017 9.22363 5.91663 9.21838 5.91485 9.21245C5.91308 9.20651 5.91315 9.20018 5.91507 9.19429C5.91699 9.18841 5.92066 9.18324 5.92559 9.1795C5.93052 9.17575 5.93647 9.17359 5.94266 9.17332H6.16672L6.23734 8.96083C6.23734 8.95243 6.24068 8.94438 6.24662 8.93844C6.25255 8.9325 6.26061 8.92917 6.269 8.92917C6.2774 8.92917 6.28545 8.9325 6.29139 8.93844C6.29733 8.94438 6.30066 8.95243 6.30066 8.96083Z" fill="#F5F5F5"/>
<path d="M6.30069 10.0732L6.37131 10.2857H6.59537C6.60171 10.2858 6.60785 10.2879 6.61293 10.2917C6.61802 10.2955 6.6218 10.3007 6.62374 10.3068C6.62569 10.3128 6.6257 10.3193 6.62378 10.3254C6.62186 10.3314 6.6181 10.3367 6.61302 10.3405L6.43037 10.4738L6.49795 10.6875C6.49963 10.6935 6.49943 10.6999 6.49738 10.7058C6.49533 10.7116 6.49153 10.7167 6.48648 10.7204C6.48144 10.724 6.4754 10.7261 6.46918 10.7262C6.46296 10.7263 6.45685 10.7245 6.45168 10.721L6.26903 10.5907L6.08637 10.721C6.0812 10.7245 6.07509 10.7263 6.06887 10.7262C6.06265 10.7261 6.05661 10.724 6.05157 10.7204C6.04653 10.7167 6.04272 10.7116 6.04067 10.7058C6.03862 10.6999 6.03842 10.6935 6.0401 10.6875L6.10768 10.4738L5.92503 10.3405C5.91995 10.3367 5.9162 10.3314 5.91427 10.3254C5.91235 10.3193 5.91236 10.3128 5.91431 10.3068C5.91625 10.3007 5.92003 10.2955 5.92512 10.2917C5.9302 10.2879 5.93635 10.2858 5.94268 10.2857H6.16674L6.23736 10.0732C6.23736 10.0648 6.2407 10.0568 6.24664 10.0508C6.25258 10.0449 6.26063 10.0415 6.26903 10.0415C6.27742 10.0415 6.28548 10.0449 6.29141 10.0508C6.29735 10.0568 6.30069 10.0648 6.30069 10.0732Z" fill="#F5F5F5"/>
<path d="M6.30069 11.185L6.37131 11.3974H6.59537C6.60171 11.3976 6.60785 11.3997 6.61293 11.4034C6.61802 11.4072 6.6218 11.4125 6.62374 11.4185C6.62569 11.4246 6.6257 11.4311 6.62378 11.4371C6.62186 11.4431 6.6181 11.4484 6.61302 11.4522L6.43037 11.5856L6.49795 11.7993C6.49963 11.8053 6.49943 11.8116 6.49738 11.8175C6.49533 11.8234 6.49153 11.8285 6.48648 11.8321C6.48144 11.8358 6.4754 11.8378 6.46918 11.8379C6.46296 11.838 6.45685 11.8362 6.45168 11.8328L6.26903 11.7025L6.08637 11.8328C6.0812 11.8362 6.07509 11.838 6.06887 11.8379C6.06265 11.8378 6.05661 11.8358 6.05157 11.8321C6.04653 11.8285 6.04272 11.8234 6.04067 11.8175C6.03862 11.8116 6.03842 11.8053 6.0401 11.7993L6.10768 11.5856L5.92503 11.4522C5.91995 11.4484 5.9162 11.4431 5.91427 11.4371C5.91235 11.4311 5.91236 11.4246 5.91431 11.4185C5.91625 11.4125 5.92003 11.4072 5.92512 11.4034C5.9302 11.3997 5.93635 11.3976 5.94268 11.3974H6.16674L6.23736 11.185C6.23736 11.1766 6.2407 11.1685 6.24664 11.1626C6.25258 11.1566 6.26063 11.1533 6.26903 11.1533C6.27742 11.1533 6.28548 11.1566 6.29141 11.1626C6.29735 11.1685 6.30069 11.1766 6.30069 11.185Z" fill="#F5F5F5"/>
<path d="M7.16397 7.28102L7.23459 7.49351H7.45865C7.46499 7.49363 7.47113 7.49574 7.47621 7.49952C7.4813 7.5033 7.48508 7.50858 7.48702 7.51461C7.48897 7.52064 7.48898 7.52713 7.48706 7.53317C7.48514 7.53921 7.48138 7.54451 7.47631 7.54831L7.29365 7.68165L7.36123 7.89535C7.36291 7.90134 7.36271 7.90771 7.36066 7.91358C7.35861 7.91946 7.35481 7.92457 7.34976 7.92821C7.34472 7.93186 7.33868 7.93388 7.33246 7.93399C7.32624 7.9341 7.32013 7.9323 7.31496 7.92884L7.13231 7.79854L6.94965 7.92884C6.94448 7.9323 6.93837 7.9341 6.93215 7.93399C6.92593 7.93388 6.91989 7.93186 6.91485 7.92821C6.90981 7.92457 6.906 7.91946 6.90395 7.91358C6.9019 7.90771 6.9017 7.90134 6.90338 7.89535L6.97096 7.68165L6.78831 7.54831C6.78323 7.54451 6.77948 7.53921 6.77756 7.53317C6.77564 7.52713 6.77564 7.52064 6.77759 7.51461C6.77953 7.50858 6.78331 7.5033 6.7884 7.49952C6.79348 7.49574 6.79962 7.49363 6.80596 7.49351H7.03002L7.10064 7.28102C7.10064 7.27262 7.10398 7.26457 7.10992 7.25864C7.11586 7.2527 7.12391 7.24936 7.13231 7.24936C7.1407 7.24936 7.14876 7.2527 7.1547 7.25864C7.16063 7.26457 7.16397 7.27262 7.16397 7.28102Z" fill="#F5F5F5"/>
<path d="M7.16397 8.394L7.23459 8.60648H7.45865C7.46499 8.60661 7.47113 8.6087 7.47621 8.61249C7.4813 8.61627 7.48508 8.62155 7.48702 8.62758C7.48897 8.63362 7.48898 8.6401 7.48706 8.64614C7.48514 8.65218 7.48138 8.65748 7.47631 8.66128L7.29365 8.79461L7.36123 9.00833C7.36291 9.01432 7.36271 9.02068 7.36066 9.02655C7.35861 9.03243 7.35481 9.03754 7.34976 9.04119C7.34472 9.04483 7.33868 9.04685 7.33246 9.04696C7.32624 9.04708 7.32013 9.04528 7.31496 9.04181L7.13231 8.91151L6.94965 9.04181C6.94448 9.04528 6.93837 9.04708 6.93215 9.04696C6.92593 9.04685 6.91989 9.04483 6.91485 9.04119C6.90981 9.03754 6.906 9.03243 6.90395 9.02655C6.9019 9.02068 6.9017 9.01432 6.90338 9.00833L6.97096 8.79461L6.78831 8.66128C6.78323 8.65748 6.77948 8.65218 6.77756 8.64614C6.77564 8.6401 6.77564 8.63362 6.77759 8.62758C6.77953 8.62155 6.78331 8.61627 6.7884 8.61249C6.79348 8.6087 6.79962 8.60661 6.80596 8.60648H7.03002L7.10064 8.394C7.10064 8.3856 7.10398 8.37754 7.10992 8.37161C7.11586 8.36567 7.12391 8.36234 7.13231 8.36234C7.1407 8.36234 7.14876 8.36567 7.1547 8.37161C7.16063 8.37754 7.16397 8.3856 7.16397 8.394Z" fill="#F5F5F5"/>
<path d="M7.16397 9.50636L7.23459 9.71885H7.45865C7.46499 9.71897 7.47113 9.72108 7.47621 9.72486C7.4813 9.72864 7.48508 9.73391 7.48702 9.73995C7.48897 9.74598 7.48898 9.75248 7.48706 9.75852C7.48514 9.76456 7.48138 9.76985 7.47631 9.77365L7.29365 9.90699L7.36123 10.1207C7.36291 10.1267 7.36271 10.1331 7.36066 10.1389C7.35861 10.1448 7.35481 10.1499 7.34976 10.1536C7.34472 10.1572 7.33868 10.1592 7.33246 10.1593C7.32624 10.1594 7.32013 10.1577 7.31496 10.1542L7.13231 10.0239L6.94965 10.1542C6.94448 10.1577 6.93837 10.1594 6.93215 10.1593C6.92593 10.1592 6.91989 10.1572 6.91485 10.1536C6.90981 10.1499 6.906 10.1448 6.90395 10.1389C6.9019 10.1331 6.9017 10.1267 6.90338 10.1207L6.97096 9.90699L6.78831 9.77365C6.78323 9.76985 6.77948 9.76456 6.77756 9.75852C6.77564 9.75248 6.77564 9.74598 6.77759 9.73995C6.77953 9.73391 6.78331 9.72864 6.7884 9.72486C6.79348 9.72108 6.79962 9.71897 6.80596 9.71885H7.03002L7.10064 9.50636C7.10064 9.49797 7.10398 9.48992 7.10992 9.48398C7.11586 9.47804 7.12391 9.4747 7.13231 9.4747C7.1407 9.4747 7.14876 9.47804 7.1547 9.48398C7.16063 9.48992 7.16397 9.49797 7.16397 9.50636Z" fill="#F5F5F5"/>
<path d="M7.16397 10.6181L7.23459 10.8306H7.45865C7.46499 10.8307 7.47113 10.8328 7.47621 10.8366C7.4813 10.8404 7.48508 10.8457 7.48702 10.8517C7.48897 10.8577 7.48898 10.8642 7.48706 10.8703C7.48514 10.8763 7.48138 10.8816 7.47631 10.8854L7.29365 11.0187L7.36123 11.2324C7.36291 11.2384 7.36271 11.2448 7.36066 11.2507C7.35861 11.2566 7.35481 11.2617 7.34976 11.2653C7.34472 11.269 7.33868 11.271 7.33246 11.2711C7.32624 11.2712 7.32013 11.2694 7.31496 11.2659L7.13231 11.1356L6.94965 11.2659C6.94448 11.2694 6.93837 11.2712 6.93215 11.2711C6.92593 11.271 6.91989 11.269 6.91485 11.2653C6.90981 11.2617 6.906 11.2566 6.90395 11.2507C6.9019 11.2448 6.9017 11.2384 6.90338 11.2324L6.97096 11.0187L6.78831 10.8854C6.78323 10.8816 6.77948 10.8763 6.77756 10.8703C6.77564 10.8642 6.77564 10.8577 6.77759 10.8517C6.77953 10.8457 6.78331 10.8404 6.7884 10.8366C6.79348 10.8328 6.79962 10.8307 6.80596 10.8306H7.03002L7.10064 10.6181C7.10064 10.6097 7.10398 10.6017 7.10992 10.5957C7.11586 10.5898 7.12391 10.5865 7.13231 10.5865C7.1407 10.5865 7.14876 10.5898 7.1547 10.5957C7.16063 10.6017 7.16397 10.6097 7.16397 10.6181Z" fill="#F5F5F5"/>
<path d="M8.02723 6.73489L8.09785 6.94738H8.32191C8.32825 6.94751 8.33439 6.94961 8.33947 6.95339C8.34456 6.95717 8.34834 6.96245 8.35028 6.96848C8.35223 6.97452 8.35224 6.98101 8.35032 6.98705C8.3484 6.99309 8.34464 6.99838 8.33957 7.00218L8.15691 7.13551L8.22449 7.34922C8.22617 7.35522 8.22597 7.36158 8.22392 7.36746C8.22187 7.37333 8.21807 7.37844 8.21302 7.38209C8.20798 7.38574 8.20194 7.38775 8.19572 7.38786C8.1895 7.38797 8.18339 7.38618 8.17822 7.38271L7.99557 7.25241L7.81291 7.38271C7.80774 7.38618 7.80163 7.38797 7.79541 7.38786C7.78919 7.38775 7.78315 7.38574 7.77811 7.38209C7.77307 7.37844 7.76926 7.37333 7.76721 7.36746C7.76516 7.36158 7.76496 7.35522 7.76664 7.34922L7.83422 7.13551L7.65156 7.00218C7.64673 6.99831 7.64319 6.99306 7.64141 6.98712C7.63964 6.98119 7.63971 6.97486 7.64163 6.96897C7.64355 6.96308 7.64722 6.95792 7.65215 6.95417C7.65708 6.95042 7.66303 6.94827 7.66922 6.94799H7.89328L7.9639 6.7355C7.96386 6.73134 7.96464 6.72722 7.9662 6.72336C7.96775 6.71951 7.97005 6.71599 7.97296 6.71302C7.97884 6.70703 7.98687 6.70362 7.99526 6.70354C8.00366 6.70346 8.01174 6.70672 8.01774 6.7126C8.02373 6.71848 8.02715 6.7265 8.02723 6.73489Z" fill="#F5F5F5"/>
<path d="M8.02725 7.84785L8.09787 8.06034H8.32193C8.32827 8.06047 8.33441 8.06256 8.3395 8.06634C8.34458 8.07013 8.34836 8.07541 8.3503 8.08144C8.35225 8.08747 8.35226 8.09396 8.35034 8.1C8.34842 8.10604 8.34466 8.11133 8.33959 8.11514L8.15693 8.24847L8.22451 8.46217C8.22619 8.46817 8.22599 8.47453 8.22394 8.48041C8.22189 8.48629 8.21809 8.49139 8.21305 8.49504C8.208 8.49869 8.20196 8.50071 8.19574 8.50082C8.18952 8.50093 8.18341 8.49913 8.17824 8.49567L7.99559 8.36537L7.81293 8.49567C7.80776 8.49913 7.80166 8.50093 7.79543 8.50082C7.78921 8.50071 7.78317 8.49869 7.77813 8.49504C7.77309 8.49139 7.76928 8.48629 7.76723 8.48041C7.76518 8.47453 7.76498 8.46817 7.76666 8.46217L7.83424 8.24847L7.65159 8.11514C7.64651 8.11133 7.64276 8.10604 7.64084 8.1C7.63892 8.09396 7.63893 8.08747 7.64087 8.08144C7.64281 8.07541 7.64659 8.07013 7.65168 8.06634C7.65677 8.06256 7.66291 8.06047 7.66924 8.06034H7.8933L7.96393 7.84785C7.96393 7.83946 7.96726 7.8314 7.9732 7.82546C7.97914 7.81953 7.98719 7.81619 7.99559 7.81619C8.00398 7.81619 8.01204 7.81953 8.01798 7.82546C8.02391 7.8314 8.02725 7.83946 8.02725 7.84785Z" fill="#F5F5F5"/>
<path d="M8.02725 8.96083L8.09787 9.17332H8.32193C8.32827 9.17344 8.33441 9.17554 8.3395 9.17932C8.34458 9.1831 8.34836 9.18838 8.3503 9.19442C8.35225 9.20045 8.35226 9.20694 8.35034 9.21298C8.34842 9.21902 8.34466 9.22431 8.33959 9.22811L8.15693 9.36145L8.22451 9.57516C8.22619 9.58115 8.22599 9.58751 8.22394 9.59339C8.22189 9.59926 8.21809 9.60437 8.21305 9.60802C8.208 9.61167 8.20196 9.61369 8.19574 9.6138C8.18952 9.61391 8.18341 9.61211 8.17824 9.60864L7.99559 9.47835L7.81293 9.60864C7.80776 9.61211 7.80166 9.61391 7.79543 9.6138C7.78921 9.61369 7.78317 9.61167 7.77813 9.60802C7.77309 9.60437 7.76928 9.59926 7.76723 9.59339C7.76518 9.58751 7.76498 9.58115 7.76666 9.57516L7.83424 9.36145L7.65159 9.22811C7.64651 9.22431 7.64276 9.21902 7.64084 9.21298C7.63892 9.20694 7.63893 9.20045 7.64087 9.19442C7.64281 9.18838 7.64659 9.1831 7.65168 9.17932C7.65677 9.17554 7.66291 9.17344 7.66924 9.17332H7.8933L7.96393 8.96083C7.96393 8.95243 7.96726 8.94438 7.9732 8.93844C7.97914 8.9325 7.98719 8.92917 7.99559 8.92917C8.00398 8.92917 8.01204 8.9325 8.01798 8.93844C8.02391 8.94438 8.02725 8.95243 8.02725 8.96083Z" fill="#F5F5F5"/>
<path d="M8.02725 10.0732L8.09787 10.2857H8.32193C8.32827 10.2858 8.33441 10.2879 8.3395 10.2917C8.34458 10.2955 8.34836 10.3007 8.3503 10.3068C8.35225 10.3128 8.35226 10.3193 8.35034 10.3254C8.34842 10.3314 8.34466 10.3367 8.33959 10.3405L8.15693 10.4738L8.22451 10.6875C8.22619 10.6935 8.22599 10.6999 8.22394 10.7058C8.22189 10.7116 8.21809 10.7167 8.21305 10.7204C8.208 10.724 8.20196 10.7261 8.19574 10.7262C8.18952 10.7263 8.18341 10.7245 8.17824 10.721L7.99559 10.5907L7.81293 10.721C7.80776 10.7245 7.80166 10.7263 7.79543 10.7262C7.78921 10.7261 7.78317 10.724 7.77813 10.7204C7.77309 10.7167 7.76928 10.7116 7.76723 10.7058C7.76518 10.6999 7.76498 10.6935 7.76666 10.6875L7.83424 10.4738L7.65159 10.3405C7.64651 10.3367 7.64276 10.3314 7.64084 10.3254C7.63892 10.3193 7.63893 10.3128 7.64087 10.3068C7.64281 10.3007 7.64659 10.2955 7.65168 10.2917C7.65677 10.2879 7.66291 10.2858 7.66924 10.2857H7.8933L7.96393 10.0732C7.96393 10.0648 7.96726 10.0568 7.9732 10.0508C7.97914 10.0449 7.98719 10.0415 7.99559 10.0415C8.00398 10.0415 8.01204 10.0449 8.01798 10.0508C8.02391 10.0568 8.02725 10.0648 8.02725 10.0732Z" fill="#F5F5F5"/>
<path d="M8.02725 11.185L8.09787 11.3974H8.32193C8.32827 11.3976 8.33441 11.3997 8.3395 11.4034C8.34458 11.4072 8.34836 11.4125 8.3503 11.4185C8.35225 11.4246 8.35226 11.4311 8.35034 11.4371C8.34842 11.4431 8.34466 11.4484 8.33959 11.4522L8.15693 11.5856L8.22451 11.7993C8.22619 11.8053 8.22599 11.8116 8.22394 11.8175C8.22189 11.8234 8.21809 11.8285 8.21305 11.8321C8.208 11.8358 8.20196 11.8378 8.19574 11.8379C8.18952 11.838 8.18341 11.8362 8.17824 11.8328L7.99559 11.7025L7.81293 11.8328C7.80776 11.8362 7.80166 11.838 7.79543 11.8379C7.78921 11.8378 7.78317 11.8358 7.77813 11.8321C7.77309 11.8285 7.76928 11.8234 7.76723 11.8175C7.76518 11.8116 7.76498 11.8053 7.76666 11.7993L7.83424 11.5856L7.65159 11.4522C7.64651 11.4484 7.64276 11.4431 7.64084 11.4371C7.63892 11.4311 7.63893 11.4246 7.64087 11.4185C7.64281 11.4125 7.64659 11.4072 7.65168 11.4034C7.65677 11.3997 7.66291 11.3976 7.66924 11.3974H7.8933L7.96393 11.185C7.96393 11.1766 7.96726 11.1685 7.9732 11.1626C7.97914 11.1566 7.98719 11.1533 7.99559 11.1533C8.00398 11.1533 8.01204 11.1566 8.01798 11.1626C8.02391 11.1685 8.02725 11.1766 8.02725 11.185Z" fill="#F5F5F5"/>
<path d="M8.89053 7.28102L8.96115 7.49351H9.18521C9.19154 7.49363 9.19769 7.49574 9.20277 7.49952C9.20786 7.5033 9.21164 7.50858 9.21359 7.51461C9.21553 7.52064 9.21554 7.52713 9.21362 7.53317C9.21169 7.53921 9.20794 7.54451 9.20287 7.54831L9.02021 7.68165L9.0878 7.89535C9.08947 7.90134 9.08927 7.90771 9.08722 7.91358C9.08517 7.91946 9.08137 7.92457 9.07632 7.92821C9.07128 7.93186 9.06525 7.93388 9.05903 7.93399C9.0528 7.9341 9.04669 7.9323 9.04152 7.92884L8.85887 7.79854L8.67621 7.92884C8.67104 7.9323 8.66494 7.9341 8.65872 7.93399C8.65249 7.93388 8.64645 7.93186 8.64141 7.92821C8.63637 7.92457 8.63256 7.91946 8.63051 7.91358C8.62846 7.90771 8.62827 7.90134 8.62994 7.89535L8.69752 7.68165L8.51487 7.54831C8.50979 7.54451 8.50604 7.53921 8.50412 7.53317C8.5022 7.52713 8.50221 7.52064 8.50415 7.51461C8.5061 7.50858 8.50987 7.5033 8.51496 7.49952C8.52004 7.49574 8.52619 7.49363 8.53253 7.49351H8.75658L8.82721 7.28102C8.82721 7.27262 8.83054 7.26457 8.83648 7.25864C8.84241 7.2527 8.85047 7.24936 8.85887 7.24936C8.86726 7.24936 8.87532 7.2527 8.88126 7.25864C8.88719 7.26457 8.89053 7.27262 8.89053 7.28102Z" fill="#F5F5F5"/>
<path d="M8.89053 8.394L8.96115 8.60648H9.18521C9.19154 8.60661 9.19769 8.6087 9.20277 8.61249C9.20786 8.61627 9.21164 8.62155 9.21359 8.62758C9.21553 8.63362 9.21554 8.6401 9.21362 8.64614C9.21169 8.65218 9.20794 8.65748 9.20287 8.66128L9.02021 8.79461L9.0878 9.00833C9.08947 9.01432 9.08927 9.02068 9.08722 9.02655C9.08517 9.03243 9.08137 9.03754 9.07632 9.04119C9.07128 9.04483 9.06525 9.04685 9.05903 9.04696C9.0528 9.04708 9.04669 9.04528 9.04152 9.04181L8.85887 8.91151L8.67621 9.04181C8.67104 9.04528 8.66494 9.04708 8.65872 9.04696C8.65249 9.04685 8.64645 9.04483 8.64141 9.04119C8.63637 9.03754 8.63256 9.03243 8.63051 9.02655C8.62846 9.02068 8.62827 9.01432 8.62994 9.00833L8.69752 8.79461L8.51487 8.66128C8.50979 8.65748 8.50604 8.65218 8.50412 8.64614C8.5022 8.6401 8.50221 8.63362 8.50415 8.62758C8.5061 8.62155 8.50987 8.61627 8.51496 8.61249C8.52004 8.6087 8.52619 8.60661 8.53253 8.60648H8.75658L8.82721 8.394C8.82721 8.3856 8.83054 8.37754 8.83648 8.37161C8.84241 8.36567 8.85047 8.36234 8.85887 8.36234C8.86726 8.36234 8.87532 8.36567 8.88126 8.37161C8.88719 8.37754 8.89053 8.3856 8.89053 8.394Z" fill="#F5F5F5"/>
<path d="M8.89053 9.50636L8.96115 9.71885H9.18521C9.19154 9.71897 9.19769 9.72108 9.20277 9.72486C9.20786 9.72864 9.21164 9.73391 9.21359 9.73995C9.21553 9.74598 9.21554 9.75248 9.21362 9.75852C9.21169 9.76456 9.20794 9.76985 9.20287 9.77365L9.02021 9.90699L9.0878 10.1207C9.08947 10.1267 9.08927 10.1331 9.08722 10.1389C9.08517 10.1448 9.08137 10.1499 9.07632 10.1536C9.07128 10.1572 9.06525 10.1592 9.05903 10.1593C9.0528 10.1594 9.04669 10.1577 9.04152 10.1542L8.85887 10.0239L8.67621 10.1542C8.67104 10.1577 8.66494 10.1594 8.65872 10.1593C8.65249 10.1592 8.64645 10.1572 8.64141 10.1536C8.63637 10.1499 8.63256 10.1448 8.63051 10.1389C8.62846 10.1331 8.62827 10.1267 8.62994 10.1207L8.69752 9.90699L8.51487 9.77365C8.50979 9.76985 8.50604 9.76456 8.50412 9.75852C8.5022 9.75248 8.50221 9.74598 8.50415 9.73995C8.5061 9.73391 8.50987 9.72864 8.51496 9.72486C8.52004 9.72108 8.52619 9.71897 8.53253 9.71885H8.75658L8.82721 9.50636C8.82721 9.49797 8.83054 9.48992 8.83648 9.48398C8.84241 9.47804 8.85047 9.4747 8.85887 9.4747C8.86726 9.4747 8.87532 9.47804 8.88126 9.48398C8.88719 9.48992 8.89053 9.49797 8.89053 9.50636Z" fill="#F5F5F5"/>
<path d="M8.89053 10.6181L8.96115 10.8306H9.18521C9.19154 10.8307 9.19769 10.8328 9.20277 10.8366C9.20786 10.8404 9.21164 10.8457 9.21359 10.8517C9.21553 10.8577 9.21554 10.8642 9.21362 10.8703C9.21169 10.8763 9.20794 10.8816 9.20287 10.8854L9.02021 11.0187L9.0878 11.2324C9.08947 11.2384 9.08927 11.2448 9.08722 11.2507C9.08517 11.2566 9.08137 11.2617 9.07632 11.2653C9.07128 11.269 9.06525 11.271 9.05903 11.2711C9.0528 11.2712 9.04669 11.2694 9.04152 11.2659L8.85887 11.1356L8.67621 11.2659C8.67104 11.2694 8.66494 11.2712 8.65872 11.2711C8.65249 11.271 8.64645 11.269 8.64141 11.2653C8.63637 11.2617 8.63256 11.2566 8.63051 11.2507C8.62846 11.2448 8.62827 11.2384 8.62994 11.2324L8.69752 11.0187L8.51487 10.8854C8.50979 10.8816 8.50604 10.8763 8.50412 10.8703C8.5022 10.8642 8.50221 10.8577 8.50415 10.8517C8.5061 10.8457 8.50987 10.8404 8.51496 10.8366C8.52004 10.8328 8.52619 10.8307 8.53253 10.8306H8.75658L8.82721 10.6181C8.82721 10.6097 8.83054 10.6017 8.83648 10.5957C8.84241 10.5898 8.85047 10.5865 8.85887 10.5865C8.86726 10.5865 8.87532 10.5898 8.88126 10.5957C8.88719 10.6017 8.89053 10.6097 8.89053 10.6181Z" fill="#F5F5F5"/>
<path d="M9.75406 6.73488L9.82469 6.94737H10.0487C10.0551 6.94749 10.0612 6.94959 10.0663 6.95338C10.0714 6.95716 10.0752 6.96243 10.0771 6.96847C10.0791 6.9745 10.0791 6.98099 10.0772 6.98703C10.0752 6.99307 10.0715 6.99836 10.0664 7.00216L9.88375 7.1355L9.95132 7.34921C9.953 7.3552 9.95281 7.36156 9.95076 7.36744C9.94871 7.37332 9.9449 7.37842 9.93986 7.38207C9.93482 7.38572 9.92877 7.38773 9.92255 7.38785C9.91633 7.38796 9.91023 7.38616 9.90506 7.38269L9.7224 7.2524L9.53974 7.38269C9.53458 7.38616 9.52846 7.38796 9.52224 7.38785C9.51602 7.38773 9.50999 7.38572 9.50494 7.38207C9.4999 7.37842 9.4961 7.37332 9.49405 7.36744C9.492 7.36156 9.49179 7.3552 9.49347 7.34921L9.56106 7.1355L9.3784 7.00216C9.37333 6.99836 9.36956 6.99307 9.36764 6.98703C9.36572 6.98099 9.36574 6.9745 9.36768 6.96847C9.36962 6.96243 9.37341 6.95716 9.37849 6.95338C9.38358 6.94959 9.38971 6.94749 9.39605 6.94737H9.62011L9.69074 6.73488C9.69074 6.72648 9.69407 6.71843 9.70001 6.71249C9.70595 6.70656 9.714 6.70322 9.7224 6.70322C9.7308 6.70322 9.73884 6.70656 9.74478 6.71249C9.75072 6.71843 9.75406 6.72648 9.75406 6.73488Z" fill="#F5F5F5"/>
<path d="M9.75406 7.84785L9.82469 8.06034H10.0487C10.0551 8.06047 10.0612 8.06256 10.0663 8.06634C10.0714 8.07013 10.0752 8.07541 10.0771 8.08144C10.0791 8.08747 10.0791 8.09396 10.0772 8.1C10.0752 8.10604 10.0715 8.11133 10.0664 8.11514L9.88375 8.24847L9.95132 8.46217C9.953 8.46817 9.95281 8.47453 9.95076 8.48041C9.94871 8.48629 9.9449 8.49139 9.93986 8.49504C9.93482 8.49869 9.92877 8.50071 9.92255 8.50082C9.91633 8.50093 9.91023 8.49913 9.90506 8.49567L9.7224 8.36537L9.53974 8.49567C9.53458 8.49913 9.52846 8.50093 9.52224 8.50082C9.51602 8.50071 9.50999 8.49869 9.50494 8.49504C9.4999 8.49139 9.4961 8.48629 9.49405 8.48041C9.492 8.47453 9.49179 8.46817 9.49347 8.46217L9.56106 8.24847L9.3784 8.11514C9.37333 8.11133 9.36956 8.10604 9.36764 8.1C9.36572 8.09396 9.36574 8.08747 9.36768 8.08144C9.36962 8.07541 9.37341 8.07013 9.37849 8.06634C9.38358 8.06256 9.38971 8.06047 9.39605 8.06034H9.62011L9.69074 7.84785C9.69074 7.83946 9.69407 7.8314 9.70001 7.82546C9.70595 7.81953 9.714 7.81619 9.7224 7.81619C9.7308 7.81619 9.73884 7.81953 9.74478 7.82546C9.75072 7.8314 9.75406 7.83946 9.75406 7.84785Z" fill="#F5F5F5"/>
<path d="M9.75404 8.96083L9.82466 9.17332H10.0487C10.0549 9.17359 10.0609 9.17575 10.0658 9.1795C10.0707 9.18324 10.0744 9.18841 10.0763 9.19429C10.0782 9.20018 10.0783 9.20651 10.0765 9.21245C10.0747 9.21838 10.0712 9.22363 10.0664 9.2275L9.88372 9.36084L9.9513 9.57455C9.95297 9.58054 9.95278 9.58691 9.95073 9.59278C9.94868 9.59866 9.94487 9.60377 9.93983 9.60741C9.93479 9.61106 9.92875 9.61307 9.92252 9.61318C9.9163 9.61329 9.9102 9.61149 9.90503 9.60803L9.72237 9.47774L9.53972 9.60803C9.53455 9.61149 9.52844 9.61329 9.52222 9.61318C9.51599 9.61307 9.50996 9.61106 9.50492 9.60741C9.49987 9.60377 9.49607 9.59866 9.49402 9.59278C9.49197 9.58691 9.49177 9.58054 9.49344 9.57455L9.56103 9.36084L9.37837 9.2275C9.37354 9.22363 9.36999 9.21838 9.36822 9.21245C9.36644 9.20651 9.36652 9.20018 9.36844 9.19429C9.37036 9.18841 9.37403 9.18324 9.37896 9.1795C9.38389 9.17575 9.38984 9.17359 9.39603 9.17332H9.62009L9.69071 8.96083C9.69071 8.95243 9.69405 8.94438 9.69998 8.93844C9.70592 8.9325 9.71398 8.92917 9.72237 8.92917C9.73077 8.92917 9.73882 8.9325 9.74475 8.93844C9.75069 8.94438 9.75404 8.95243 9.75404 8.96083Z" fill="#F5F5F5"/>
<path d="M9.75406 10.0732L9.82469 10.2857H10.0487C10.0551 10.2858 10.0612 10.2879 10.0663 10.2917C10.0714 10.2955 10.0752 10.3007 10.0771 10.3068C10.0791 10.3128 10.0791 10.3193 10.0772 10.3254C10.0752 10.3314 10.0715 10.3367 10.0664 10.3405L9.88375 10.4738L9.95132 10.6875C9.953 10.6935 9.95281 10.6999 9.95076 10.7058C9.94871 10.7116 9.9449 10.7167 9.93986 10.7204C9.93482 10.724 9.92877 10.7261 9.92255 10.7262C9.91633 10.7263 9.91023 10.7245 9.90506 10.721L9.7224 10.5907L9.53974 10.721C9.53458 10.7245 9.52846 10.7263 9.52224 10.7262C9.51602 10.7261 9.50999 10.724 9.50494 10.7204C9.4999 10.7167 9.4961 10.7116 9.49405 10.7058C9.492 10.6999 9.49179 10.6935 9.49347 10.6875L9.56106 10.4738L9.3784 10.3405C9.37333 10.3367 9.36956 10.3314 9.36764 10.3254C9.36572 10.3193 9.36574 10.3128 9.36768 10.3068C9.36962 10.3007 9.37341 10.2955 9.37849 10.2917C9.38358 10.2879 9.38971 10.2858 9.39605 10.2857H9.62011L9.69074 10.0732C9.69074 10.0648 9.69407 10.0568 9.70001 10.0508C9.70595 10.0449 9.714 10.0415 9.7224 10.0415C9.7308 10.0415 9.73884 10.0449 9.74478 10.0508C9.75072 10.0568 9.75406 10.0648 9.75406 10.0732Z" fill="#F5F5F5"/>
<path d="M9.75406 11.185L9.82469 11.3974H10.0487C10.0551 11.3976 10.0612 11.3997 10.0663 11.4034C10.0714 11.4072 10.0752 11.4125 10.0771 11.4185C10.0791 11.4246 10.0791 11.4311 10.0772 11.4371C10.0752 11.4431 10.0715 11.4484 10.0664 11.4522L9.88375 11.5856L9.95132 11.7993C9.953 11.8053 9.95281 11.8116 9.95076 11.8175C9.94871 11.8234 9.9449 11.8285 9.93986 11.8321C9.93482 11.8358 9.92877 11.8378 9.92255 11.8379C9.91633 11.838 9.91023 11.8362 9.90506 11.8328L9.7224 11.7025L9.53974 11.8328C9.53458 11.8362 9.52846 11.838 9.52224 11.8379C9.51602 11.8378 9.50999 11.8358 9.50494 11.8321C9.4999 11.8285 9.4961 11.8234 9.49405 11.8175C9.492 11.8116 9.49179 11.8053 9.49347 11.7993L9.56106 11.5856L9.3784 11.4522C9.37333 11.4484 9.36956 11.4431 9.36764 11.4371C9.36572 11.4311 9.36574 11.4246 9.36768 11.4185C9.36962 11.4125 9.37341 11.4072 9.37849 11.4034C9.38358 11.3997 9.38971 11.3976 9.39605 11.3974H9.62011L9.69074 11.185C9.69074 11.1766 9.69407 11.1685 9.70001 11.1626C9.70595 11.1566 9.714 11.1533 9.7224 11.1533C9.7308 11.1533 9.73884 11.1566 9.74478 11.1626C9.75072 11.1685 9.75406 11.1766 9.75406 11.185Z" fill="#F5F5F5"/>
<path d="M10.6173 7.28102L10.688 7.49351H10.912C10.9184 7.49363 10.9245 7.49574 10.9296 7.49952C10.9347 7.5033 10.9384 7.50858 10.9404 7.51461C10.9423 7.52064 10.9424 7.52713 10.9404 7.53317C10.9385 7.53921 10.9348 7.54451 10.9297 7.54831L10.747 7.68165L10.8146 7.89535C10.8163 7.90134 10.8161 7.90771 10.814 7.91358C10.812 7.91946 10.8082 7.92457 10.8031 7.92821C10.7981 7.93186 10.7921 7.93388 10.7858 7.93399C10.7796 7.9341 10.7735 7.9323 10.7683 7.92884L10.5857 7.79854L10.403 7.92884C10.3979 7.9323 10.3917 7.9341 10.3855 7.93399C10.3793 7.93388 10.3733 7.93186 10.3682 7.92821C10.3632 7.92457 10.3594 7.91946 10.3573 7.91358C10.3553 7.90771 10.3551 7.90134 10.3568 7.89535L10.4243 7.68165L10.2417 7.54831C10.2366 7.54451 10.2328 7.53921 10.2309 7.53317C10.229 7.52713 10.229 7.52064 10.231 7.51461C10.2329 7.50858 10.2367 7.5033 10.2418 7.49952C10.2469 7.49574 10.253 7.49363 10.2593 7.49351H10.4834L10.554 7.28102C10.554 7.27262 10.5574 7.26457 10.5633 7.25864C10.5692 7.2527 10.5773 7.24936 10.5857 7.24936C10.5941 7.24936 10.6021 7.2527 10.6081 7.25864C10.614 7.26457 10.6173 7.27262 10.6173 7.28102Z" fill="#F5F5F5"/>
<path d="M10.6173 8.394L10.688 8.60648H10.912C10.9184 8.60661 10.9245 8.6087 10.9296 8.61249C10.9347 8.61627 10.9384 8.62155 10.9404 8.62758C10.9423 8.63362 10.9424 8.6401 10.9404 8.64614C10.9385 8.65218 10.9348 8.65748 10.9297 8.66128L10.747 8.79461L10.8146 9.00833C10.8163 9.01432 10.8161 9.02068 10.814 9.02655C10.812 9.03243 10.8082 9.03754 10.8031 9.04119C10.7981 9.04483 10.7921 9.04685 10.7858 9.04696C10.7796 9.04708 10.7735 9.04528 10.7683 9.04181L10.5857 8.91151L10.403 9.04181C10.3979 9.04528 10.3917 9.04708 10.3855 9.04696C10.3793 9.04685 10.3733 9.04483 10.3682 9.04119C10.3632 9.03754 10.3594 9.03243 10.3573 9.02655C10.3553 9.02068 10.3551 9.01432 10.3568 9.00833L10.4243 8.79461L10.2417 8.66128C10.2366 8.65748 10.2328 8.65218 10.2309 8.64614C10.229 8.6401 10.229 8.63362 10.231 8.62758C10.2329 8.62155 10.2367 8.61627 10.2418 8.61249C10.2469 8.6087 10.253 8.60661 10.2593 8.60648H10.4834L10.554 8.394C10.554 8.3856 10.5574 8.37754 10.5633 8.37161C10.5692 8.36567 10.5773 8.36234 10.5857 8.36234C10.5941 8.36234 10.6021 8.36567 10.6081 8.37161C10.614 8.37754 10.6173 8.3856 10.6173 8.394Z" fill="#F5F5F5"/>
<path d="M10.6173 9.50636L10.688 9.71885H10.912C10.9184 9.71897 10.9245 9.72108 10.9296 9.72486C10.9347 9.72864 10.9384 9.73391 10.9404 9.73995C10.9423 9.74598 10.9424 9.75248 10.9404 9.75852C10.9385 9.76456 10.9348 9.76985 10.9297 9.77365L10.747 9.90699L10.8146 10.1207C10.8163 10.1267 10.8161 10.1331 10.814 10.1389C10.812 10.1448 10.8082 10.1499 10.8031 10.1536C10.7981 10.1572 10.7921 10.1592 10.7858 10.1593C10.7796 10.1594 10.7735 10.1577 10.7683 10.1542L10.5857 10.0239L10.403 10.1542C10.3979 10.1577 10.3917 10.1594 10.3855 10.1593C10.3793 10.1592 10.3733 10.1572 10.3682 10.1536C10.3632 10.1499 10.3594 10.1448 10.3573 10.1389C10.3553 10.1331 10.3551 10.1267 10.3568 10.1207L10.4243 9.90699L10.2417 9.77365C10.2366 9.76985 10.2328 9.76456 10.2309 9.75852C10.229 9.75248 10.229 9.74598 10.231 9.73995C10.2329 9.73391 10.2367 9.72864 10.2418 9.72486C10.2469 9.72108 10.253 9.71897 10.2593 9.71885H10.4834L10.554 9.50636C10.554 9.49797 10.5574 9.48992 10.5633 9.48398C10.5692 9.47804 10.5773 9.4747 10.5857 9.4747C10.5941 9.4747 10.6021 9.47804 10.6081 9.48398C10.614 9.48992 10.6173 9.49797 10.6173 9.50636Z" fill="#F5F5F5"/>
<path d="M10.6173 10.6181L10.688 10.8306H10.912C10.9184 10.8307 10.9245 10.8328 10.9296 10.8366C10.9347 10.8404 10.9384 10.8457 10.9404 10.8517C10.9423 10.8577 10.9424 10.8642 10.9404 10.8703C10.9385 10.8763 10.9348 10.8816 10.9297 10.8854L10.747 11.0187L10.8146 11.2324C10.8163 11.2384 10.8161 11.2448 10.814 11.2507C10.812 11.2566 10.8082 11.2617 10.8031 11.2653C10.7981 11.269 10.7921 11.271 10.7858 11.2711C10.7796 11.2712 10.7735 11.2694 10.7683 11.2659L10.5857 11.1356L10.403 11.2659C10.3979 11.2694 10.3917 11.2712 10.3855 11.2711C10.3793 11.271 10.3733 11.269 10.3682 11.2653C10.3632 11.2617 10.3594 11.2566 10.3573 11.2507C10.3553 11.2448 10.3551 11.2384 10.3568 11.2324L10.4243 11.0187L10.2417 10.8854C10.2366 10.8816 10.2328 10.8763 10.2309 10.8703C10.229 10.8642 10.229 10.8577 10.231 10.8517C10.2329 10.8457 10.2367 10.8404 10.2418 10.8366C10.2469 10.8328 10.253 10.8307 10.2593 10.8306H10.4834L10.554 10.6181C10.554 10.6097 10.5574 10.6017 10.5633 10.5957C10.5692 10.5898 10.5773 10.5865 10.5857 10.5865C10.5941 10.5865 10.6021 10.5898 10.6081 10.5957C10.614 10.6017 10.6173 10.6097 10.6173 10.6181Z" fill="#F5F5F5"/>
<path d="M11.4806 6.73488L11.5512 6.94737H11.7753C11.7816 6.94749 11.7878 6.94959 11.7929 6.95338C11.7979 6.95716 11.8017 6.96243 11.8037 6.96847C11.8056 6.9745 11.8056 6.98099 11.8037 6.98703C11.8018 6.99307 11.798 6.99836 11.793 7.00216L11.6103 7.1355L11.6779 7.34921C11.6796 7.3552 11.6794 7.36156 11.6773 7.36744C11.6753 7.37332 11.6715 7.37842 11.6664 7.38207C11.6614 7.38572 11.6553 7.38773 11.6491 7.38785C11.6429 7.38796 11.6368 7.38616 11.6316 7.38269L11.449 7.2524L11.2663 7.38269C11.2611 7.38616 11.255 7.38796 11.2488 7.38785C11.2426 7.38773 11.2365 7.38572 11.2315 7.38207C11.2265 7.37842 11.2227 7.37332 11.2206 7.36744C11.2186 7.36156 11.2184 7.3552 11.22 7.34921L11.2876 7.1355L11.105 7.00216C11.0999 6.99836 11.0961 6.99307 11.0942 6.98703C11.0923 6.98099 11.0923 6.9745 11.0942 6.96847C11.0962 6.96243 11.1 6.95716 11.105 6.95338C11.1101 6.94959 11.1163 6.94749 11.1226 6.94737H11.3467L11.4173 6.73488C11.4173 6.72648 11.4206 6.71843 11.4266 6.71249C11.4325 6.70656 11.4406 6.70322 11.449 6.70322C11.4574 6.70322 11.4654 6.70656 11.4713 6.71249C11.4773 6.71843 11.4806 6.72648 11.4806 6.73488Z" fill="#F5F5F5"/>
<path d="M11.4806 7.84785L11.5512 8.06034H11.7753C11.7816 8.06047 11.7878 8.06256 11.7929 8.06634C11.7979 8.07013 11.8017 8.07541 11.8037 8.08144C11.8056 8.08747 11.8056 8.09396 11.8037 8.1C11.8018 8.10604 11.798 8.11133 11.793 8.11514L11.6103 8.24847L11.6779 8.46217C11.6796 8.46817 11.6794 8.47453 11.6773 8.48041C11.6753 8.48629 11.6715 8.49139 11.6664 8.49504C11.6614 8.49869 11.6553 8.50071 11.6491 8.50082C11.6429 8.50093 11.6368 8.49913 11.6316 8.49567L11.449 8.36537L11.2663 8.49567C11.2611 8.49913 11.255 8.50093 11.2488 8.50082C11.2426 8.50071 11.2365 8.49869 11.2315 8.49504C11.2265 8.49139 11.2227 8.48629 11.2206 8.48041C11.2186 8.47453 11.2184 8.46817 11.22 8.46217L11.2876 8.24847L11.105 8.11514C11.0999 8.11133 11.0961 8.10604 11.0942 8.1C11.0923 8.09396 11.0923 8.08747 11.0942 8.08144C11.0962 8.07541 11.1 8.07013 11.105 8.06634C11.1101 8.06256 11.1163 8.06047 11.1226 8.06034H11.3467L11.4173 7.84785C11.4173 7.83946 11.4206 7.8314 11.4266 7.82546C11.4325 7.81953 11.4406 7.81619 11.449 7.81619C11.4574 7.81619 11.4654 7.81953 11.4713 7.82546C11.4773 7.8314 11.4806 7.83946 11.4806 7.84785Z" fill="#F5F5F5"/>
<path d="M11.4806 8.96083L11.5512 9.17332H11.7753C11.7815 9.17359 11.7874 9.17575 11.7923 9.1795C11.7973 9.18324 11.8009 9.18841 11.8029 9.19429C11.8048 9.20018 11.8049 9.20651 11.8031 9.21245C11.8013 9.21838 11.7978 9.22363 11.7929 9.2275L11.6103 9.36084L11.6779 9.57455C11.6795 9.58054 11.6793 9.58691 11.6773 9.59278C11.6752 9.59866 11.6714 9.60377 11.6664 9.60741C11.6613 9.61106 11.6553 9.61307 11.6491 9.61318C11.6429 9.61329 11.6368 9.61149 11.6316 9.60803L11.4489 9.47774L11.2663 9.60803C11.2611 9.61149 11.255 9.61329 11.2488 9.61318C11.2426 9.61307 11.2365 9.61106 11.2315 9.60741C11.2264 9.60377 11.2226 9.59866 11.2206 9.59278C11.2185 9.58691 11.2183 9.58054 11.22 9.57455L11.2876 9.36084L11.1049 9.2275C11.1001 9.22363 11.0966 9.21838 11.0948 9.21245C11.093 9.20651 11.0931 9.20018 11.095 9.19429C11.0969 9.18841 11.1006 9.18324 11.1055 9.1795C11.1104 9.17575 11.1164 9.17359 11.1226 9.17332H11.3466L11.4173 8.96083C11.4173 8.95243 11.4206 8.94438 11.4266 8.93844C11.4325 8.9325 11.4405 8.92917 11.4489 8.92917C11.4573 8.92917 11.4654 8.9325 11.4713 8.93844C11.4773 8.94438 11.4806 8.95243 11.4806 8.96083Z" fill="#F5F5F5"/>
<path d="M11.4806 10.0732L11.5512 10.2857H11.7753C11.7816 10.2858 11.7878 10.2879 11.7929 10.2917C11.7979 10.2955 11.8017 10.3007 11.8037 10.3068C11.8056 10.3128 11.8056 10.3193 11.8037 10.3254C11.8018 10.3314 11.798 10.3367 11.793 10.3405L11.6103 10.4738L11.6779 10.6875C11.6796 10.6935 11.6794 10.6999 11.6773 10.7058C11.6753 10.7116 11.6715 10.7167 11.6664 10.7204C11.6614 10.724 11.6553 10.7261 11.6491 10.7262C11.6429 10.7263 11.6368 10.7245 11.6316 10.721L11.449 10.5907L11.2663 10.721C11.2611 10.7245 11.255 10.7263 11.2488 10.7262C11.2426 10.7261 11.2365 10.724 11.2315 10.7204C11.2265 10.7167 11.2227 10.7116 11.2206 10.7058C11.2186 10.6999 11.2184 10.6935 11.22 10.6875L11.2876 10.4738L11.105 10.3405C11.0999 10.3367 11.0961 10.3314 11.0942 10.3254C11.0923 10.3193 11.0923 10.3128 11.0942 10.3068C11.0962 10.3007 11.1 10.2955 11.105 10.2917C11.1101 10.2879 11.1163 10.2858 11.1226 10.2857H11.3467L11.4173 10.0732C11.4173 10.0648 11.4206 10.0568 11.4266 10.0508C11.4325 10.0449 11.4406 10.0415 11.449 10.0415C11.4574 10.0415 11.4654 10.0449 11.4713 10.0508C11.4773 10.0568 11.4806 10.0648 11.4806 10.0732Z" fill="#F5F5F5"/>
<path d="M11.4806 11.185L11.5512 11.3974H11.7753C11.7816 11.3976 11.7878 11.3997 11.7929 11.4034C11.7979 11.4072 11.8017 11.4125 11.8037 11.4185C11.8056 11.4246 11.8056 11.4311 11.8037 11.4371C11.8018 11.4431 11.798 11.4484 11.793 11.4522L11.6103 11.5856L11.6779 11.7993C11.6796 11.8053 11.6794 11.8116 11.6773 11.8175C11.6753 11.8234 11.6715 11.8285 11.6664 11.8321C11.6614 11.8358 11.6553 11.8378 11.6491 11.8379C11.6429 11.838 11.6368 11.8362 11.6316 11.8328L11.449 11.7025L11.2663 11.8328C11.2611 11.8362 11.255 11.838 11.2488 11.8379C11.2426 11.8378 11.2365 11.8358 11.2315 11.8321C11.2265 11.8285 11.2227 11.8234 11.2206 11.8175C11.2186 11.8116 11.2184 11.8053 11.22 11.7993L11.2876 11.5856L11.105 11.4522C11.0999 11.4484 11.0961 11.4431 11.0942 11.4371C11.0923 11.4311 11.0923 11.4246 11.0942 11.4185C11.0962 11.4125 11.1 11.4072 11.105 11.4034C11.1101 11.3997 11.1163 11.3976 11.1226 11.3974H11.3467L11.4173 11.185C11.4173 11.1766 11.4206 11.1685 11.4266 11.1626C11.4325 11.1566 11.4406 11.1533 11.449 11.1533C11.4574 11.1533 11.4654 11.1566 11.4713 11.1626C11.4773 11.1685 11.4806 11.1766 11.4806 11.185Z" fill="#F5F5F5"/>
<path d="M5.14937 18.1731C4.71023 18.1697 4.29028 17.9927 3.98123 17.6807C3.67219 17.3687 3.49919 16.947 3.5 16.5079V7.62539C3.50514 7.19184 3.68135 6.77787 3.99027 6.47363C4.29919 6.16939 4.71579 5.99951 5.14937 6.00099H19.8506C20.2842 5.99951 20.7008 6.16939 21.0097 6.47363C21.3186 6.77787 21.4949 7.19184 21.5 7.62539V16.5079C21.5008 16.947 21.3278 17.3687 21.0188 17.6807C20.7097 17.9927 20.2898 18.1697 19.8506 18.1731H5.14937Z" stroke="#CCCCCC" stroke-width="0.5" stroke-miterlimit="10"/>
</svg>
