<svg width="25" height="24" viewBox="0 0 25 24" fill="none" xmlns="http://www.w3.org/2000/svg">
<path d="M7.86729 14.459H5.2924V12.5802H9.23539V13.3395C8.73441 13.6541 8.2748 14.0302 7.86729 14.459ZM5.02655 14.459H3.50013C3.49174 13.4046 3.88522 12.3865 4.60058 11.6117C4.73284 11.4699 4.87542 11.3382 5.02714 11.2174V14.4579L5.02655 14.459ZM9.50722 13.1806V12.5831C9.63821 12.7193 9.7779 12.8468 9.92541 12.9649C9.78741 13.0288 9.64582 13.1005 9.50722 13.1794V13.1806ZM9.23539 12.3119H8.69771V11.4331C8.84508 11.7339 9.02541 12.0174 9.23539 12.2785V12.3119ZM5.83008 12.3119H5.2924V10.9414C5.46518 10.8448 5.6449 10.7611 5.83008 10.6911V12.3119ZM8.43066 12.3119H6.10071V10.6254C6.8431 10.3701 7.64906 10.3676 8.39302 10.6182C8.40437 10.66 8.41752 10.7054 8.43186 10.752V12.3107L8.43066 12.3119ZM7.22208 10.1349C6.88635 10.136 6.55527 10.0565 6.25664 9.9031H8.18691C7.88848 10.0564 7.5576 10.1359 7.22208 10.1349ZM5.55706 9.32659C5.28631 8.98173 5.13026 8.56079 5.11078 8.12278H7.04404L5.55706 9.32659ZM7.37621 7.85334H3.76658L7.34873 4.91582L9.13383 6.42969L7.37621 7.85334Z" fill="#182230"/>
<path d="M19.7213 14.459H17.1422C16.7392 13.9982 16.2811 13.5885 15.7783 13.2391V12.5819H19.7213V14.4608V14.459ZM21.4993 14.459H19.9902V11.233C20.1356 11.3498 20.2724 11.4769 20.3994 11.6135C21.1145 12.388 21.5073 13.405 21.4993 14.459ZM15.5101 13.0635C15.3434 12.9601 15.1713 12.8633 14.9993 12.7761C15.1829 12.6236 15.3541 12.4568 15.5113 12.2773V13.0641L15.5101 13.0635ZM19.7207 12.3119H19.183V10.6989C19.3684 10.7697 19.5481 10.8544 19.7207 10.9522V12.3119ZM16.3154 12.3119H15.7777V11.9403C15.9945 11.6403 16.175 11.3156 16.3154 10.9731V12.3119ZM18.916 12.3119H16.586V10.6254C17.3413 10.3657 18.162 10.3678 18.916 10.6314V12.3119ZM17.7062 10.1349C17.3251 10.1346 16.9511 10.0314 16.6237 9.83619V9.82066H18.818C18.4838 10.0266 18.0988 10.1354 17.7062 10.1349ZM19.4441 9.22682L18.125 8.12218H19.8187C19.8006 8.5179 19.6714 8.90053 19.4459 9.22622L19.4441 9.22682ZM21.2961 7.85275H17.8036L16.046 6.38189L17.8329 4.91582L21.2979 7.85095L21.2961 7.85275Z" fill="#182230"/>
<path d="M12.5032 4.5L18.1853 9.31582H6.62817L12.5032 4.5Z" fill="#182230"/>
<path d="M9.90017 12.1025C10.5457 12.7176 11.4037 13.0599 12.2954 13.0581C13.1865 13.0592 14.0437 12.7165 14.6884 12.1014C15.3332 11.4864 15.7159 10.6463 15.7568 9.75612H8.83032C8.87141 10.6469 9.25465 11.4874 9.90017 12.1025Z" fill="#182230"/>
<path d="M16.04 20.1489H18.5163C18.5298 18.4195 17.8848 16.7493 16.7115 15.4788C16.5028 15.2552 16.2784 15.0468 16.04 14.8551V20.1489Z" fill="#182230"/>
<path d="M6.1885 20.1489H8.69289V14.833C8.44425 15.0307 8.21061 15.2466 7.99391 15.4788C6.82061 16.7496 6.17509 18.4194 6.1885 20.1489Z" fill="#182230"/>
<path d="M10.4553 16.6241H14.2788V13.8718C13.0416 13.4389 11.6946 13.4356 10.4553 13.8622V16.6241Z" fill="#182230"/>
<path d="M9.13263 17.068V20.1501H15.5991V17.068H9.13263Z" fill="#182230"/>
<path d="M14.7185 13.9805V16.6253L15.5991 16.6277V14.3987C15.3165 14.2374 15.0221 14.0976 14.7185 13.9805Z" fill="#182230"/>
<path d="M9.13263 14.3802V16.6277H10.0132V13.9698C9.70988 14.0844 9.41552 14.2216 9.13263 14.3802Z" fill="#182230"/>
</svg>
