<svg width="25" height="24" viewBox="0 0 25 24" fill="none" xmlns="http://www.w3.org/2000/svg">
<path d="M12.7717 12.8433C11.7465 12.845 10.7601 12.4511 10.0181 11.7436C9.2761 11.036 8.8357 10.0695 8.78867 9.04529H16.7554C16.7084 10.0696 16.2679 11.0362 15.5258 11.7438C14.7836 12.4513 13.7971 12.8452 12.7717 12.8433Z" fill="#182230"/>
<path d="M19.9292 20.9988H17.0812V14.9098C17.3552 15.1304 17.6131 15.3702 17.853 15.6275C19.2023 17.0889 19.9447 19.0098 19.9292 20.9988ZM8.63092 20.9988H5.75024C5.73456 19.0096 6.47691 17.089 7.82642 15.6275C8.07566 15.3605 8.34436 15.1122 8.63032 14.8849L8.63092 20.9988ZM15.0554 16.9477H10.6561V13.7667C12.0821 13.2756 13.6319 13.2795 15.0554 13.7777V16.9477Z" fill="#182230"/>
<path d="M13.0126 3L19.5481 8.53869H6.25561L13.0126 3Z" fill="#182230"/>
<path d="M9.13632 21V17.455H16.574V21H9.13632ZM15.5608 16.9484V13.9039C15.9098 14.0375 16.2483 14.1971 16.5734 14.3814V16.9484H15.5608ZM9.13632 16.9484V14.3638C9.46162 14.1814 9.8001 14.0236 10.1489 13.8917V16.9484H9.13632Z" fill="#182230"/>
</svg>
