<svg width="24" height="24" viewBox="0 0 24 24" fill="currentColor" xmlns="http://www.w3.org/2000/svg">
<path d="M4.76017 21V8.66447C4.47218 8.59517 4.21589 8.4309 4.03263 8.19818C3.84937 7.96546 3.74984 7.67787 3.75 7.38165V4.31943C3.74991 4.14613 3.78401 3.97455 3.85028 3.81443C3.91656 3.6543 4.0137 3.50878 4.13624 3.38624C4.25878 3.2637 4.4043 3.16656 4.56443 3.10028C4.72455 3.03401 4.89613 2.99991 5.06943 3H18.2609C18.6109 3 18.9466 3.13899 19.1942 3.38641C19.4417 3.63383 19.5808 3.96943 19.581 4.31943V7.38165C19.5809 7.67144 19.4855 7.95306 19.3094 8.18321C19.1333 8.41336 18.8864 8.57919 18.6068 8.6551V21H4.76017ZM17.222 16.1535V8.19451C17.0398 7.96247 16.941 7.67587 16.9415 7.38087C16.9416 7.5541 16.9075 7.7257 16.8413 7.88578C16.775 8.04586 16.678 8.19126 16.5555 8.31379C16.433 8.43632 16.2876 8.53361 16.1276 8.59992C15.9675 8.66624 15.796 8.70029 15.6227 8.70029C15.4494 8.70039 15.2778 8.66637 15.1177 8.6001C14.9575 8.53383 14.8119 8.43667 14.6893 8.31414C14.5667 8.19161 14.4694 8.04608 14.4031 7.88595C14.3367 7.72583 14.3026 7.5542 14.3026 7.38087C14.3027 7.55416 14.2686 7.72583 14.2023 7.88595C14.1361 8.04608 14.0389 8.19152 13.9164 8.31406C13.7938 8.4366 13.6483 8.53382 13.4882 8.6001C13.3281 8.66637 13.1565 8.70039 12.9832 8.70029C12.81 8.70029 12.6384 8.66624 12.4784 8.59992C12.3183 8.53361 12.1729 8.43632 12.0504 8.31379C11.928 8.19126 11.8309 8.04586 11.7647 7.88578C11.6984 7.7257 11.6644 7.5541 11.6645 7.38087C11.6645 7.5542 11.6303 7.72583 11.5639 7.88595C11.4976 8.04608 11.4004 8.19161 11.2778 8.31414C11.1552 8.43667 11.0096 8.53383 10.8494 8.6001C10.6893 8.66637 10.5177 8.70039 10.3443 8.70029C10.1711 8.70029 9.99955 8.66624 9.83951 8.59992C9.67947 8.53361 9.53405 8.43632 9.41158 8.31379C9.28912 8.19126 9.19203 8.04586 9.1258 7.88578C9.05957 7.7257 9.02551 7.5541 9.02561 7.38087C9.0257 7.55416 8.9916 7.72583 8.92533 7.88595C8.85905 8.04608 8.76191 8.19152 8.63937 8.31406C8.51683 8.4366 8.3713 8.53382 8.21118 8.6001C8.05106 8.66637 7.87948 8.70039 7.70618 8.70029C7.53285 8.70039 7.36117 8.66637 7.20101 8.6001C7.04084 8.53383 6.89532 8.43667 6.77273 8.31414C6.65013 8.19161 6.55286 8.04608 6.48651 7.88595C6.42016 7.72583 6.38596 7.5542 6.38596 7.38087C6.38646 7.65469 6.30143 7.92187 6.14275 8.14502V16.1528H8.94092C9.02806 15.489 9.31939 14.8687 9.77461 14.3777C9.87851 14.2663 9.99053 14.1627 10.1097 14.0678V16.1528H10.3199V15.1382H13.4179V16.1528H13.6289V14.0785C13.7431 14.1704 13.8505 14.2704 13.9504 14.3777C14.4056 14.8687 14.6969 15.489 14.7841 16.1528L17.222 16.1535ZM13.0011 14.9287V13.6603C13.1465 13.7159 13.2875 13.7824 13.423 13.859V14.928L13.0011 14.9287ZM10.3249 14.9287V13.8525C10.4606 13.7769 10.6016 13.7112 10.7468 13.656V14.9294L10.3249 14.9287ZM10.9578 14.9287V13.6043C11.2505 13.5035 11.5579 13.4521 11.8675 13.4522C12.1817 13.452 12.4937 13.5051 12.7902 13.6093V14.9294L10.9578 14.9287ZM10.18 11.6376H13.4983C13.4779 12.0636 13.294 12.4653 12.9851 12.7592C12.6762 13.0532 12.266 13.2168 11.8395 13.2161C11.4129 13.217 11.0023 13.0533 10.6932 12.7592C10.3841 12.4651 10.2003 12.0631 10.18 11.6369V11.6376ZM9.12458 11.4267L11.9392 9.11937L14.6614 11.4267H9.12458Z" fill="currentColor"/>
</svg>
