<svg width="24" height="24" viewBox="0 0 24 24" fill="currentColor" xmlns="http://www.w3.org/2000/svg">
<path d="M5.75 6.00342H13.25C14.4926 6.00342 15.5 7.01078 15.5 8.25342V15.7534C15.5 16.9961 14.4926 18.0034 13.25 18.0034H5.75C4.50736 18.0034 3.5 16.9961 3.5 15.7534V8.25342C3.5 7.01078 4.50736 6.00342 5.75 6.00342Z" fill="currentColor"/>
<path d="M20.1455 9.56592C20.1455 8.84067 20.1455 8.25342 19.1705 8.25342C18.2 8.25342 16.25 9.56517 16.25 9.56517V14.8152C16.25 15.5397 18.1955 16.1284 19.1705 16.1284C20.1455 16.1284 20.1455 15.5404 20.1455 14.8159V9.56592Z" fill="currentColor"/>
</svg>
