<svg width="24" height="24" viewBox="0 0 24 24" fill="none" xmlns="http://www.w3.org/2000/svg">
<path d="M13.5625 3.25H21.0625C21.5803 3.25 22 3.66973 22 4.1875V10.4375C22 10.9553 21.5803 11.375 21.0625 11.375H13.5625C13.0447 11.375 12.625 10.9553 12.625 10.4375V4.1875C12.625 3.66973 13.0447 3.25 13.5625 3.25ZM10.4375 3.25H2.9375C2.41973 3.25 2 3.66973 2 4.1875V10.4375C2 10.9553 2.41973 11.375 2.9375 11.375H10.4375C10.9553 11.375 11.375 10.9553 11.375 10.4375V4.1875C11.375 3.66973 10.9553 3.25 10.4375 3.25ZM2 13.5625V19.8125C2 20.3303 2.41973 20.75 2.9375 20.75H10.4375C10.9553 20.75 11.375 20.3303 11.375 19.8125V13.5625C11.375 13.0447 10.9553 12.625 10.4375 12.625H2.9375C2.41973 12.625 2 13.0447 2 13.5625ZM13.5625 20.75H21.0625C21.5803 20.75 22 20.3303 22 19.8125V13.5625C22 13.0447 21.5803 12.625 21.0625 12.625H13.5625C13.0447 12.625 12.625 13.0447 12.625 13.5625V19.8125C12.625 20.3303 13.0447 20.75 13.5625 20.75Z" fill="#182230"/>
</svg>
