<svg width="24" height="24" viewBox="0 0 24 24" fill="currentColor" xmlns="http://www.w3.org/2000/svg">
<path fill-rule="evenodd" clip-rule="evenodd" d="M13.2348 5.65182L20.3782 16.0097C21.0644 17.0048 20.3521 18.3613 19.1434 18.3613H4.85659C3.64782 18.3613 2.93551 17.0048 3.62177 16.0097L10.7652 5.65182C11.3614 4.78728 12.6386 4.78728 13.2348 5.65182ZM11.2685 13.8311H12.4599L12.709 9.06055H11.0195L11.2685 13.8311ZM11.2197 14.8809C11.0732 15.0208 11 15.2275 11 15.501C11 15.7647 11.0748 15.9697 11.2246 16.1162C11.3743 16.2594 11.5859 16.3311 11.8594 16.3311C12.1263 16.3311 12.3346 16.2578 12.4844 16.1113C12.6341 15.9616 12.709 15.7581 12.709 15.501C12.709 15.2341 12.6341 15.029 12.4844 14.8857C12.3379 14.7425 12.1295 14.6709 11.8594 14.6709C11.5794 14.6709 11.3662 14.7409 11.2197 14.8809Z" fill="currentColor"/>
</svg>
