<svg width="24" height="24" viewBox="0 0 24 24" fill="currentColor" xmlns="http://www.w3.org/2000/svg">
<g opacity="0.9">
<path d="M11.2438 15.2654C11.2071 15.3691 11.1922 15.4794 11.2002 15.5891C11.1939 15.6982 11.2102 15.8074 11.2483 15.9097C11.2864 16.0121 11.3453 16.1055 11.4214 16.1838C11.5052 16.2579 11.6028 16.3146 11.7086 16.3509C11.8145 16.3871 11.9264 16.4022 12.038 16.3952C12.1485 16.4017 12.2593 16.3859 12.3636 16.3488C12.4679 16.3117 12.5638 16.2541 12.6454 16.1792C12.7853 16.0128 12.862 15.8023 12.862 15.5848C12.862 15.3674 12.7853 15.1569 12.6454 14.9904C12.4778 14.8429 12.2585 14.7679 12.0357 14.782C11.8096 14.7662 11.5864 14.8395 11.4139 14.9864C11.3385 15.0666 11.2806 15.1616 11.2438 15.2654Z" fill="currentColor"/>
<path d="M11.4612 13.9662H12.6194L12.8613 9.32996H11.2193L11.4612 13.9662Z" fill="currentColor"/>
<path fill-rule="evenodd" clip-rule="evenodd" d="M13.1823 5.73068L20.8035 17.1336C21.2233 17.7624 20.9259 18.8345 20.3318 18.8363L3.66854 18.8328C3.07386 18.8328 2.77652 17.7583 3.19684 17.1302L10.8238 5.73068C10.9329 5.51122 11.1011 5.32657 11.3094 5.19748C11.5178 5.0684 11.758 5 12.0031 5C12.2482 5 12.4884 5.0684 12.6967 5.19748C12.9051 5.32657 13.0732 5.51122 13.1823 5.73068ZM6.02303 17.2554H17.9745C18.4006 17.2554 18.6142 16.4852 18.3128 16.0343L12.844 7.85942C12.7658 7.702 12.6451 7.56954 12.4957 7.47695C12.3463 7.38435 12.174 7.33529 11.9982 7.33529C11.8224 7.33529 11.6501 7.38435 11.5006 7.47695C11.3512 7.56954 11.2306 7.702 11.1523 7.85942L5.68469 16.0343C5.38389 16.4852 5.59694 17.2554 6.02303 17.2554Z" fill="currentColor"/>
</g>
</svg>
