<svg width="24" height="24" viewBox="0 0 24 24" fill="currentColor" xmlns="http://www.w3.org/2000/svg">
<path fill-rule="evenodd" clip-rule="evenodd" d="M11.936 3.2203L11.5 3.54167L11.064 3.2203C11.1661 3.08177 11.3279 3 11.5 3C11.6721 3 11.8339 3.08177 11.936 3.2203ZM11.5 4.46976C11.3634 4.66269 11.1994 4.89655 11.0148 5.16394C10.4599 5.96794 9.72089 7.07271 8.98276 8.27804C8.24352 9.48519 7.51108 10.7836 6.9652 11.9765C6.40967 13.1904 6.08333 14.2202 6.08333 14.9167C6.08333 17.9082 8.50846 20.3333 11.5 20.3333C14.4915 20.3333 16.9167 17.9082 16.9167 14.9167C16.9167 14.2202 16.5903 13.1904 16.0348 11.9765C15.4889 10.7836 14.7565 9.48519 14.0172 8.27804C13.2791 7.07271 12.5401 5.96794 11.9852 5.16394C11.8006 4.89655 11.6366 4.66269 11.5 4.46976ZM11.5 3.54167C11.064 3.2203 11.064 3.2203 11.064 3.2203L11.0592 3.22684L11.0459 3.24495L10.995 3.3147C10.9506 3.3757 10.8859 3.46521 10.8036 3.58007C10.6391 3.80977 10.4045 4.141 10.1232 4.54857C9.56095 5.36321 8.81036 6.48518 8.0589 7.71227C7.30857 8.93753 6.55142 10.2772 5.98011 11.5257C5.41846 12.753 5 13.9677 5 14.9167C5 18.5065 7.91015 21.4167 11.5 21.4167C15.0899 21.4167 18 18.5065 18 14.9167C18 13.9677 17.5815 12.753 17.0199 11.5257C16.4486 10.2772 15.6914 8.93753 14.9411 7.71227C14.1896 6.48518 13.4391 5.36321 12.8768 4.54857C12.5955 4.141 12.3609 3.80977 12.1964 3.58007C12.1141 3.46521 12.0494 3.3757 12.005 3.3147L11.9541 3.24495L11.9408 3.22684L11.936 3.2203C11.936 3.2203 11.936 3.2203 11.5 3.54167Z" fill="currentColor"/>
<path fill-rule="evenodd" clip-rule="evenodd" d="M14.6317 13.8065C14.9037 13.7585 15.163 13.94 15.211 14.212C15.3587 15.0489 15.1525 16.9075 13.2129 17.8202C12.963 17.9378 12.6652 17.8306 12.5476 17.5807C12.43 17.3309 12.5372 17.033 12.7871 16.9154C14.1865 16.2569 14.3241 14.9401 14.2262 14.3857C14.1782 14.1138 14.3598 13.8544 14.6317 13.8065Z" fill="currentColor"/>
</svg>
