<svg width="24" height="24" viewBox="0 0 24 24" fill="none" xmlns="http://www.w3.org/2000/svg">
<path d="M12.2424 20.9852C10.5459 21.0923 8.86382 20.6161 7.47513 19.6358C6.16494 18.5784 5.50024 16.8714 5.50024 14.5622C5.50024 11.997 7.33355 8.99019 8.87091 6.91931C9.9013 5.53553 11.0276 4.22592 12.2416 3L12.2512 3.00801C13.4597 4.2323 14.5823 5.53863 15.6107 6.91775C17.1481 8.98863 18.9814 11.9954 18.9814 14.5606C18.9814 16.8699 18.3174 18.5767 17.0072 19.6341C15.6194 20.6146 13.9382 21.0913 12.2424 20.9852ZM16.3097 12.7865C16.0655 13.6656 15.6983 14.5058 15.2188 15.2821C14.8385 15.8371 14.3845 16.3379 13.8694 16.7706C13.3262 17.2713 12.8567 17.7041 12.8911 18.0401C12.9033 18.11 12.9322 18.176 12.9754 18.2324C13.0185 18.2888 13.0746 18.334 13.139 18.364C13.4106 18.5323 13.7233 18.6225 14.0429 18.6247C14.4935 18.5792 14.9246 18.4172 15.2936 18.1545C15.6627 17.8918 15.9569 17.5376 16.1474 17.1266C16.9825 15.7372 16.317 12.8161 16.3074 12.7865H16.3097Z" fill="#404040"/>
</svg>
