<svg width="24" height="24" viewBox="0 0 24 24" fill="none" xmlns="http://www.w3.org/2000/svg">
<path d="M8.79149 7.70673C8.92421 7.83529 9.11381 7.83529 9.26549 7.74346C9.79637 7.39451 10.3841 7.15576 11.0288 7.0272C11.1994 6.99047 11.3321 6.86191 11.3321 6.67825L11.3321 3.35407C11.3321 3.13368 11.1425 2.96839 10.934 3.00513C9.22757 3.20715 7.67285 3.84994 6.40253 4.82332C6.23189 4.95188 6.21293 5.209 6.38357 5.35593L8.79149 7.70673Z" fill="#182230"/>
<path d="M14.726 7.76186C14.1951 7.41292 13.6074 7.17416 12.9627 7.0456C12.7921 7.00887 12.6594 6.86195 12.6783 6.69665L12.6783 3.35411C12.6783 3.15209 12.8679 2.98679 13.0765 3.00516C14.7829 3.20718 16.3376 3.84998 17.6079 4.82336C17.7786 4.95192 17.7786 5.20904 17.6269 5.35596L15.2 7.72513C15.0673 7.85369 14.8777 7.85369 14.726 7.76186Z" fill="#182230"/>
<path d="M3.38064 11.6284H6.81239C6.98303 11.6284 7.13471 11.4999 7.17263 11.3346C7.30535 10.7101 7.55183 10.1408 7.91207 9.62657C8.00687 9.47965 8.00687 9.29599 7.87415 9.16743L5.42831 6.81663C5.27663 6.6697 5.0112 6.6697 4.87848 6.83499C3.8736 8.06549 3.21 9.57148 3.00144 11.2244C2.98248 11.4448 3.15312 11.6284 3.38064 11.6284Z" fill="#182230"/>
<path d="M7.89302 14.9159C7.53278 14.4017 7.2863 13.8323 7.15358 13.2079C7.11566 13.0426 6.98294 12.914 6.79334 12.914H3.38054C3.15302 12.914 2.98239 13.0977 3.02031 13.2997C3.22886 14.9526 3.89246 16.4586 4.89734 17.6891C5.03006 17.8544 5.2955 17.8728 5.44718 17.7075L7.87406 15.3567C7.98782 15.2465 7.98782 15.0628 7.89302 14.9159Z" fill="#182230"/>
<path d="M17.2024 12.914H20.6342C20.8617 12.914 21.0324 13.0976 20.9944 13.318C20.7859 14.9709 20.1223 16.4769 19.1174 17.7074C18.9847 17.8727 18.7192 17.8727 18.5676 17.7258L16.1407 15.375C16.008 15.2464 16.008 15.0628 16.1028 14.9158C16.463 14.4016 16.7095 13.8323 16.8422 13.2078C16.8801 13.0426 17.0318 12.914 17.2024 12.914Z" fill="#182230"/>
<path d="M11.0406 16.9544C10.396 16.8259 9.80822 16.5871 9.27734 16.2382C9.12566 16.1464 8.93606 16.1464 8.80334 16.2749L6.37647 18.6441C6.22479 18.791 6.22479 19.0481 6.39543 19.1767C7.66575 20.1501 9.22046 20.7929 10.9269 20.9949C11.1354 21.0133 11.325 20.848 11.325 20.6459V17.3034C11.344 17.1381 11.2113 16.9912 11.0406 16.9544Z" fill="#182230"/>
<path d="M17.2027 11.6284C17.0131 11.6284 16.8804 11.4998 16.8425 11.3346C16.7287 10.7101 16.4633 10.1224 16.122 9.62655C16.0272 9.47962 16.0272 9.29597 16.1599 9.16741L18.5678 6.83497C18.7195 6.66968 18.985 6.68805 19.1177 6.85334C20.1226 8.08383 20.7861 9.58982 20.9947 11.2427C21.0326 11.4447 20.862 11.6284 20.6345 11.6284H17.2027Z" fill="#182230"/>
<path d="M15.2119 16.2933C15.0792 16.1647 14.8896 16.1647 14.7379 16.2565C14.207 16.6055 13.6192 16.8442 12.9746 16.9728C12.804 17.0095 12.6712 17.1381 12.6712 17.3217V20.6459C12.6712 20.8663 12.8608 21.0316 13.0694 20.9949C14.7758 20.7929 16.3305 20.1501 17.6008 19.1767C17.7715 19.0481 17.7904 18.791 17.6198 18.6441L15.2119 16.2933Z" fill="#182230"/>
<path fill-rule="evenodd" clip-rule="evenodd" d="M12.4899 9.36796C12.8597 9.97536 14.0816 12 14.0816 12.8878C14.0816 14.0091 13.1491 14.8969 12.0075 14.8969C10.866 14.8969 9.93341 13.9936 9.93341 12.8878C9.93341 12 11.1554 9.97536 11.5252 9.36796C11.6216 9.19664 11.8146 9.10319 12.0075 9.10319C12.2005 9.10319 12.3934 9.19664 12.4899 9.36796ZM11.7441 12.042C11.7473 12.0364 11.7503 12.0312 11.7503 12.0312C11.8467 11.8754 11.7985 11.673 11.6699 11.5951C11.5895 11.5484 11.493 11.5328 11.4126 11.5484C11.3322 11.5639 11.2518 11.6107 11.2036 11.6885C11.1714 11.7353 10.4479 12.8566 11.0589 13.7444C11.1232 13.8378 11.2197 13.8845 11.3322 13.8845C11.3965 13.8845 11.4609 13.8534 11.5091 13.8222C11.5895 13.7755 11.6377 13.6976 11.6538 13.6198C11.6699 13.5419 11.6538 13.464 11.6056 13.3862C11.2549 12.884 11.6849 12.1438 11.7441 12.042Z" fill="#182230"/>
</svg>
